<svg width="135" height="135" viewBox="0 0 135 135" fill="none" xmlns="http://www.w3.org/2000/svg">
<g id="Group">
<path id="Vector" d="M16.875 16.875H33.75V33.75H16.875V16.875Z" fill="#959799"/>
<path id="Vector_2" d="M50.625 0V50.625H0V0H50.625ZM42.1875 8.4375H8.4375V42.1875H42.1875V8.4375ZM33.75 101.25H16.875V118.125H33.75V101.25Z" fill="#959799"/>
<path id="Vector_3" d="M50.625 84.375V135H0V84.375H50.625ZM8.4375 92.8125V126.562H42.1875V92.8125H8.4375ZM101.25 16.875H118.125V33.75H101.25V16.875Z" fill="#959799"/>
<path id="Vector_4" d="M84.375 0V50.625H135V0H84.375ZM126.562 8.4375V42.1875H92.8125V8.4375H126.562ZM67.5 8.4375V0H75.9375V16.875H67.5V33.75H59.0625V8.4375H67.5ZM67.5 50.625V33.75H75.9375V50.625H67.5ZM50.625 67.5V59.0625H59.0625V50.625H67.5V67.5H75.9375V59.0625H118.125V67.5H84.375V75.9375H59.0625V67.5H50.625ZM50.625 67.5V75.9375H16.875V67.5H8.4375V75.9375H0V59.0625H25.3125V67.5H50.625ZM135 75.9375H126.562V59.0625H135V75.9375ZM126.562 75.9375H118.125V92.8125H135V84.375H126.562V75.9375ZM92.8125 75.9375H109.688V84.375H101.25V92.8125H92.8125V75.9375ZM109.688 101.25V92.8125H101.25V101.25H92.8125V109.688H75.9375V118.125H101.25V101.25H109.688ZM109.688 101.25H135V109.688H118.125V118.125H109.688V101.25ZM75.9375 92.8125V101.25H84.375V84.375H59.0625V92.8125H75.9375Z" fill="#959799"/>
<path id="Vector_5" d="M59.0625 101.25H67.5V126.562H101.25V135H59.0625V101.25ZM135 118.125V135H109.688V126.562H126.562V118.125H135Z" fill="#959799"/>
</g>
</svg>
