<svg width="212" height="206" viewBox="0 0 212 206" fill="none" xmlns="http://www.w3.org/2000/svg">
<g id="Group 89">
<g id="Vector">
<mask id="path-1-inside-1_396_599" fill="white">
<path d="M164.253 156.286C187.656 129.333 171.546 88.3197 134.4 85.1952C132.542 84.9661 130.455 85.0726 128.658 85.1239C128.363 108.831 116.08 134.244 95.9548 140.132C77.7947 145.352 68.3508 128.177 76.1613 114.13C85.5124 97.4525 101.563 83.8754 120.773 79.3304C119.643 64.3628 112.496 50.8366 96.0354 45.805C68.2918 37.3806 38.5393 61.4585 33.7958 86.8913C33.4736 89.5808 29.1787 89.2331 29.5009 86.5437C32.0136 52.1934 75.2619 26.4138 107.842 43.258C120.433 49.9047 126.94 63.2611 128.359 78.1734C148.465 76.3769 167.311 88.2526 177.213 104.756C188.589 123.898 182.525 144.62 168.636 159.828C166.456 162.289 162.362 158.69 164.253 156.286ZM92.1927 104.644C86.7959 110.347 80.8343 117.617 79.8678 125.685C78.8405 133.473 89.8066 134.007 94.4982 133.402C100.348 132.577 104.708 127.656 107.971 123.237C115.305 113.953 120.39 99.8425 121.071 86.281C109.965 89.2782 100.12 96.7064 92.1927 104.644Z"/>
</mask>
<path d="M164.253 156.286L162.657 155.041L162.686 155.004L162.717 154.968L164.253 156.286ZM134.4 85.1952L134.275 87.1784L134.235 87.1751L134.196 87.1703L134.4 85.1952ZM128.658 85.124L126.648 85.0548L126.672 83.1881L128.555 83.1343L128.658 85.124ZM95.9548 140.132L96.5636 142.042L96.5546 142.044L95.9548 140.132ZM76.1613 114.13L74.396 113.14L74.3993 113.134L76.1613 114.13ZM120.773 79.3304L122.776 79.2264L122.901 80.8835L121.281 81.2669L120.773 79.3304ZM96.0354 45.805L96.5847 43.903L96.5884 43.9042L96.0354 45.805ZM33.7958 86.8913L31.8002 86.6131L31.8077 86.5499L31.8194 86.4874L33.7958 86.8913ZM29.5009 86.5437L31.5051 86.7318L31.5018 86.777L31.4965 86.8219L29.5009 86.5437ZM107.842 43.258L108.74 41.4978L108.748 41.5019L108.756 41.506L107.842 43.258ZM128.359 78.1734L128.584 80.1558L126.55 80.3375L126.358 78.316L128.359 78.1734ZM177.213 104.756L178.934 103.768L178.939 103.775L177.213 104.756ZM168.636 159.828L167.113 158.496L167.122 158.485L167.132 158.474L168.636 159.828ZM92.1927 104.644L90.7122 103.266L90.7301 103.247L90.7484 103.228L92.1927 104.644ZM79.8678 125.685L81.8634 125.964L81.862 125.975L81.8605 125.987L79.8678 125.685ZM94.4982 133.402L94.8253 135.373L94.8133 135.374L94.8014 135.376L94.4982 133.402ZM107.971 123.237L106.34 122.039L106.359 122.013L106.378 121.989L107.971 123.237ZM121.071 86.281L120.503 84.3597L123.219 83.6267L123.078 86.4244L121.071 86.281ZM162.717 154.968C185.113 129.175 169.684 90.1569 134.275 87.1784L134.525 83.2119C173.408 86.4826 190.199 129.49 165.789 157.603L162.717 154.968ZM134.196 87.1703C132.532 86.9651 130.644 87.0598 128.761 87.1136L128.555 83.1343C130.267 83.0855 132.552 82.967 134.604 83.22L134.196 87.1703ZM130.667 85.1931C130.516 97.3547 127.295 109.955 121.506 120.305C115.724 130.641 107.271 138.909 96.5636 142.042L95.3459 138.222C104.764 135.467 112.516 128.084 117.98 118.316C123.437 108.56 126.505 96.6003 126.648 85.0548L130.667 85.1931ZM96.5546 142.044C86.7385 144.866 78.872 141.662 74.658 135.439C70.5282 129.34 70.1768 120.728 74.396 113.14L77.9266 115.12C74.3354 121.579 74.8006 128.578 77.9802 133.273C81.0755 137.844 87.0109 140.618 95.3549 138.219L96.5546 142.044ZM74.3993 113.134C83.974 96.0577 100.441 82.0841 120.264 77.3938L121.281 81.2669C102.685 85.6668 87.0507 98.8473 77.9233 115.126L74.3993 113.134ZM118.769 79.4343C117.68 65.0071 110.883 52.4133 95.4824 47.7058L96.5884 43.9042C114.109 49.2599 121.606 63.7185 122.776 79.2264L118.769 79.4343ZM95.4861 47.7069C82.3692 43.7239 68.6294 47.3842 57.4836 55.2795C46.3267 63.1827 38.0372 75.1512 35.7721 87.2953L31.8194 86.4874C34.2979 73.1987 43.2564 60.4118 55.0975 52.0239C66.9498 43.6281 81.958 39.4617 96.5847 43.903L95.4861 47.7069ZM35.7914 87.1695C35.4736 89.8226 33.1317 90.8676 31.2878 90.7184C30.3508 90.6425 29.3369 90.267 28.5661 89.4826C27.7473 88.6493 27.3566 87.5061 27.5053 86.2655L31.4965 86.8219C31.4875 86.8966 31.501 86.8991 31.4865 86.8555C31.4717 86.8111 31.4442 86.7684 31.4153 86.7391C31.3903 86.7136 31.38 86.7137 31.4019 86.7232C31.4245 86.733 31.4669 86.746 31.5256 86.7508C31.5839 86.7555 31.6412 86.7506 31.6898 86.7387C31.7378 86.7271 31.7648 86.7119 31.7751 86.7048C31.7799 86.7015 31.7811 86.7 31.7803 86.7008C31.78 86.7012 31.7795 86.7017 31.779 86.7024C31.7785 86.7031 31.7782 86.7035 31.7782 86.7035C31.7782 86.7035 31.7788 86.7025 31.7798 86.7003C31.7809 86.6981 31.7826 86.6941 31.7847 86.6879C31.7888 86.6759 31.7955 86.6521 31.8002 86.6131L35.7914 87.1695ZM27.4966 86.3556C28.8104 68.3946 40.7373 52.8489 56.3672 43.9707C72.0078 35.0865 91.6992 32.6876 108.74 41.4978L106.944 45.0181C91.4045 36.9842 73.1818 39.0529 58.425 47.4351C43.6577 55.8233 32.704 70.3425 31.5051 86.7318L27.4966 86.3556ZM108.756 41.506C122.172 48.5884 128.902 62.7153 130.359 78.0309L126.358 78.316C124.978 63.8069 118.694 51.221 106.928 45.0099L108.756 41.506ZM128.134 76.191C149.16 74.3124 168.705 86.7177 178.934 103.768L175.491 105.744C165.918 89.7876 147.771 78.4415 128.584 80.1558L128.134 76.191ZM178.939 103.775C190.913 123.924 184.388 145.579 170.14 161.181L167.132 158.474C180.662 143.66 186.265 123.872 175.487 105.737L178.939 103.775ZM170.159 161.159C169.22 162.219 167.98 162.694 166.722 162.639C165.528 162.587 164.448 162.069 163.636 161.385C162.11 160.1 160.801 157.401 162.657 155.041L165.849 157.53C165.77 157.631 165.765 157.686 165.789 157.783C165.825 157.934 165.952 158.169 166.2 158.377C166.447 158.586 166.681 158.657 166.809 158.662C166.873 158.665 166.961 158.667 167.113 158.496L170.159 161.159ZM93.6732 106.023C88.2588 111.744 82.7456 118.599 81.8634 125.964L77.8722 125.407C78.923 116.635 85.3331 108.95 90.7122 103.266L93.6732 106.023ZM81.8605 125.987C81.6701 127.43 82.0347 128.346 82.5915 129.006C83.2062 129.736 84.225 130.349 85.6212 130.799C88.4348 131.706 92.0226 131.708 94.1951 131.428L94.8014 135.376C92.2822 135.701 88.0412 135.738 84.4556 134.582C82.6522 134.001 80.8289 133.058 79.5297 131.516C78.1727 129.906 77.5518 127.834 77.8751 125.384L81.8605 125.987ZM94.1712 131.431C99.1211 130.733 103.055 126.487 106.34 122.039L109.603 124.435C106.361 128.825 101.574 134.42 94.8253 135.373L94.1712 131.431ZM106.378 121.989C113.436 113.054 118.401 99.3406 119.064 86.1376L123.078 86.4244C122.379 100.344 117.174 114.852 109.565 124.485L106.378 121.989ZM121.64 88.2023C111.014 91.0699 101.459 98.2277 93.637 106.06L90.7484 103.228C98.7809 95.1851 108.916 87.4865 120.503 84.3597L121.64 88.2023Z" fill="#00F8F7" mask="url(#path-1-inside-1_396_599)"/>
</g>
<path id="Vector_2" d="M163.153 170.359L162.162 170.627L161.898 169.632C160.278 163.537 158.559 157.031 158.378 150.507C158.349 149.478 157.624 148.901 156.864 148.815C156.484 148.771 156.148 148.861 155.914 149.039C155.698 149.203 155.487 149.503 155.451 150.061C155.07 157.894 156.232 166.038 157.922 173.847C158.046 174.417 158.429 174.982 158.964 175.371C159.496 175.758 160.1 175.917 160.64 175.814C165.811 174.826 170.614 173.62 175.577 171.808C176.18 171.578 176.9 171.347 177.64 171.109C177.875 171.033 178.111 170.957 178.347 170.88C179.353 170.552 180.381 170.197 181.327 169.773C183.29 168.895 184.56 167.871 184.822 166.564C184.941 165.905 184.909 165.389 184.763 165.024C184.635 164.707 184.391 164.42 183.839 164.229L183.839 164.228C182.576 163.791 181.077 164.083 179.391 164.76C178.565 165.092 177.746 165.494 176.935 165.896C176.887 165.92 176.838 165.944 176.789 165.968C176.043 166.339 175.291 166.712 174.599 166.989L174.579 166.998L174.558 167.005C171.122 168.212 167.384 169.219 163.903 170.157C163.652 170.225 163.402 170.292 163.153 170.359Z" stroke="#00F8F7" stroke-width="2"/>
</g>
</svg>
