<svg width="253" height="93" viewBox="0 0 253 93" fill="none" xmlns="http://www.w3.org/2000/svg">
<g id="partner ubs 80">
<g id="ubs ori">
<path id="Shape" d="M148.408 56.142C148.408 75.186 138.13 77.4 127.798 77.4C110.14 77.4 106.378 68.256 106.378 55.17V18.342H99.9336V14.742H124.612V18.342H117.592V54.162C117.592 66.762 120.85 73.098 129.814 73.098C138.778 73.098 143.404 68.526 143.404 55.368V18.342H136.798V14.742H154.348V18.342H148.39V56.142H148.408ZM165.202 73.224V18.342H158.812V14.742H186.172C197.818 14.742 203.578 21.402 203.578 29.142C203.578 37.458 196.126 42.174 189.484 43.542C202.39 44.748 205.9 53.136 205.9 59.292C205.9 71.892 195.316 76.644 184.912 76.644H158.398V73.044L165.202 73.224ZM192.436 30.024C192.436 24.246 189.484 18.396 183.04 18.396H176.092V42.156H182.284C189.124 42.156 192.436 36.324 192.436 29.97V30.024ZM194.632 59.4C194.632 51.156 191.122 45.63 182.914 45.63H176.092V73.224H181.6C190.312 73.224 194.632 68.022 194.632 59.436V59.4ZM233.206 17.478C226.762 17.478 222.622 21.366 222.622 28.098C222.622 34.182 229.138 37.098 235.456 39.276C239.218 40.608 243.97 42.39 247.228 45.558C249.067 47.3319 250.502 49.4823 251.434 51.8619C252.366 54.2416 252.773 56.7945 252.628 59.346C252.394 70.146 244.942 77.346 231.784 77.508C226.834 77.508 219.184 76.356 214.504 73.638L214 57.438H217.798C218.104 68.364 223.198 74.088 232.072 74.088C239.272 74.088 243.16 69.264 243.16 61.884C243.16 55.548 237.958 52.884 230.056 50.148C225.914 48.8514 222.097 46.6851 218.86 43.794C217.345 42.2581 216.153 40.4352 215.352 38.4322C214.552 36.4293 214.159 34.2867 214.198 32.13C214.198 19.53 223.09 14.022 234.106 14.022C239.256 14.1645 244.308 15.469 248.884 17.838L249.262 31.932H245.374C244.564 21.906 240.244 17.532 233.17 17.532L233.206 17.478Z" fill="#E60000"/>
<path id="Shape_2" d="M69.0649 27L67.4089 28.368L69.2089 34.056L63.9889 31.212L62.1889 32.58L67.9669 35.694L61.8289 40.644L60.1909 38.448L62.3869 36.648L60.7309 34.722L58.5349 36.522L56.8969 34.416L59.0929 32.616L57.4369 30.6L46.1869 39.942L56.9869 48.564L58.8949 46.17C59.5461 46.2756 60.1557 46.5581 60.6573 46.9866C61.1588 47.4151 61.533 47.9733 61.7389 48.6L59.8129 50.976L61.0009 51.894C63.6498 49.4469 67.0978 48.0459 70.7029 47.952C72.4778 47.9637 74.2329 48.3267 75.8669 49.0201C77.5008 49.7134 78.9813 50.7235 80.223 51.9919C81.4646 53.2603 82.4428 54.762 83.1012 56.4104C83.7596 58.0588 84.085 59.8212 84.0589 61.596C84.0698 64.1821 83.3726 66.7219 82.0429 68.94L84.0589 70.488C83.9424 71.251 83.6141 71.9659 83.1113 72.5514C82.6085 73.1369 81.9515 73.5695 81.2149 73.8L79.3069 72.252C76.6788 74.7881 73.167 76.2018 69.5149 76.194C67.7421 76.2015 65.9857 75.8546 64.3489 75.1736C62.7121 74.4926 61.2279 73.4914 59.9836 72.2286C58.7393 70.9658 57.76 69.4671 57.1031 67.8205C56.4463 66.1738 56.1253 64.4125 56.1589 62.64C56.187 60.1322 56.8036 57.666 57.9589 55.44L56.8609 54.45L54.9349 57.006C54.2449 56.9262 53.5952 56.6393 53.0715 56.183C52.5477 55.7268 52.1745 55.1226 52.0009 54.45L53.9989 52.2L44.9989 44.694V56.61L48.0229 56.7C48.4262 57.2138 48.6478 57.8468 48.6529 58.5C48.6143 59.1735 48.4301 59.8306 48.1129 60.426H44.9989V61.902C48.3229 62.3038 51.3847 63.9092 53.6057 66.4148C55.8266 68.9204 57.053 72.1527 57.053 75.501C57.053 78.8493 55.8266 82.0816 53.6057 84.5872C51.3847 87.0928 48.3229 88.6982 44.9989 89.1V91.494C44.329 91.8795 43.5752 92.0957 42.8029 92.124C41.9444 92.0987 41.1023 91.8836 40.3369 91.494V89.172C37.0415 88.6782 34.0312 87.0227 31.8494 84.5042C29.6675 81.9857 28.4579 78.7701 28.4389 75.438C28.4992 72.1556 29.7319 69.003 31.914 66.5501C34.0961 64.0973 37.0838 62.5061 40.3369 62.064V60.498H37.1329C36.7682 59.9218 36.5747 59.2539 36.5749 58.572C36.5668 57.8946 36.7611 57.2303 37.1329 56.664H40.2469V44.748L31.0849 52.2L33.1009 54.504C32.903 55.1764 32.5132 55.7765 31.9792 56.2305C31.4453 56.6846 30.7904 56.9728 30.0949 57.06L28.1689 54.504L26.9809 55.494C28.2527 57.6788 28.9118 60.1661 28.8889 62.694C28.9225 64.4665 28.6014 66.2278 27.9446 67.8745C27.2878 69.5211 26.3085 71.0198 25.0641 72.2826C23.8198 73.5453 22.3357 74.5466 20.6989 75.2276C19.0621 75.9086 17.3057 76.2555 15.5329 76.248C11.9121 76.2583 8.43307 74.8421 5.84887 72.306L3.83287 73.8C3.10772 73.5283 2.46495 73.0741 1.96673 72.4813C1.46851 71.8884 1.13169 71.1771 0.988872 70.416L2.91488 68.868C1.69302 66.61 1.03242 64.0911 0.988872 61.524C0.972248 59.7507 1.30658 57.9916 1.9726 56.3481C2.63863 54.7045 3.6232 53.2089 4.86961 51.9475C6.11603 50.686 7.59968 49.6835 9.23512 48.9978C10.8706 48.3121 12.6255 47.9567 14.3989 47.952C18.0358 48.0208 21.5207 49.4237 24.1909 51.894L25.2889 51.066L23.3989 48.6C23.6399 47.9652 24.0483 47.4075 24.5807 46.986C25.1131 46.5645 25.7497 46.295 26.4229 46.206L28.2589 48.6L38.9509 39.978L27.7009 30.6L26.0629 32.706L28.2589 34.506L26.6029 36.612L24.4069 34.812L22.7689 36.738L24.8749 38.538L23.2189 40.734L17.1889 35.784L22.8589 32.67L21.2209 31.302L16.0009 34.2L17.8009 28.512L16.0909 27L14.1649 33.3L8.04487 28.35L9.68287 26.334L11.7889 28.134L13.5889 26.118L11.3389 24.138L12.9769 22.212L15.1729 23.868L16.7389 21.942L11.9689 18.18C12.4448 16.6 13.4904 15.253 14.9029 14.4L40.2469 35.136V21.294H37.6729V23.958H35.1169V21.294H32.3989V23.958H29.8069V16.2L35.8549 18.756V16.524L30.2749 14.238L35.8549 12.042V9.936L29.8069 12.312V4.446H32.3989V7.2H35.0449V4.446H37.6009V7.2H40.1749V1.044C40.9341 0.754814 41.7385 0.602458 42.5509 0.594C43.3327 0.614602 44.1055 0.766729 44.8369 1.044V35.136L70.1989 14.4C71.5597 15.2975 72.585 16.6204 73.1149 18.162L68.3989 21.942L70.0369 23.868L72.2329 22.212L73.7989 24.138L71.6029 26.064L73.2409 28.08L75.4369 26.28L77.0929 28.296L70.9729 33.3L69.0649 27ZM17.2789 64.53C17.2735 65.5016 17.646 66.4373 18.3178 67.1393C18.9896 67.8413 19.908 68.2546 20.8789 68.292L17.6389 70.758C16.4815 70.2709 15.4792 69.4769 14.7401 68.4618C14.0009 67.4467 13.5531 66.249 13.4449 64.998C13.4529 64.3809 13.5749 63.7707 13.8049 63.198C13.5349 63.198 13.3369 63.198 13.1569 63.198C11.6908 63.051 10.3141 62.4246 9.24019 61.4158C8.16627 60.4069 7.4551 59.0721 7.21687 57.618L10.5109 55.044C10.4416 55.3449 10.4114 55.6534 10.4209 55.962C10.4535 56.8948 10.8472 57.7784 11.5188 58.4265C12.1904 59.0746 13.0875 59.4366 14.0209 59.436C14.9867 59.4279 15.9129 59.0504 16.6091 58.3809C17.3054 57.7114 17.7189 56.8008 17.7649 55.836C17.7731 55.3022 17.6713 54.7724 17.4659 54.2797C17.2604 53.7869 16.9557 53.3418 16.5707 52.972C16.1856 52.6021 15.7286 52.3156 15.228 52.1301C14.7274 51.9447 14.1939 51.8643 13.6609 51.894C9.17887 51.894 4.78687 56.196 4.78687 61.884C4.73173 63.521 5.09739 65.1447 5.84887 66.6L7.86488 65.052C8.5708 65.4085 9.1898 65.9157 9.67812 66.5378C10.1664 67.1599 10.5122 67.8816 10.6909 68.652L8.67487 70.2C10.5715 71.7805 12.9745 72.6241 15.4429 72.576C20.5729 72.576 24.6949 68.454 24.6949 64.8C24.7215 64.3038 24.6491 63.8073 24.4819 63.3394C24.3146 62.8715 24.0559 62.4416 23.7209 62.0747C23.3858 61.7078 22.981 61.4112 22.5302 61.2023C22.0793 60.9934 21.5914 60.8764 21.0949 60.858C20.6101 60.8386 20.1265 60.9174 19.6729 61.0896C19.2194 61.2618 18.8054 61.5239 18.4557 61.8601C18.106 62.1964 17.8279 62.5998 17.638 63.0463C17.4482 63.4927 17.3505 63.9729 17.3509 64.458L17.2789 64.53ZM44.4409 72.414C44.4409 73.3688 44.8202 74.2845 45.4953 74.9596C46.1704 75.6347 47.0861 76.014 48.0409 76.014C48.5964 75.9974 49.1424 75.8657 49.6444 75.6271C50.1463 75.3885 50.5933 75.0483 50.9569 74.628V78.75C50.0088 79.2928 48.9353 79.5783 47.8429 79.578C46.8251 79.6672 45.8023 79.4762 44.8853 79.0257C43.9683 78.5751 43.1922 77.8822 42.6409 77.022C42.0521 77.8926 41.2404 78.5891 40.2905 79.0387C39.3406 79.4883 38.2874 79.6746 37.2409 79.578C36.1805 79.5773 35.1363 79.3178 34.1989 78.822V74.7C34.5526 75.1363 35 75.4874 35.5079 75.7274C36.0158 75.9673 36.5712 76.0899 37.1329 76.086C38.0877 76.086 39.0033 75.7067 39.6785 75.0316C40.3536 74.3564 40.7329 73.4408 40.7329 72.486C40.7521 72.0262 40.6794 71.5671 40.5188 71.1358C40.3583 70.7045 40.1133 70.3096 39.798 69.9743C39.4828 69.6389 39.1038 69.3699 38.6832 69.1831C38.2627 68.9962 37.809 68.8952 37.3489 68.886C33.6049 68.886 32.0389 72.486 32.0389 75.762C32.052 78.1023 32.8835 80.3642 34.3891 82.1559C35.8948 83.9476 37.9798 85.1561 40.2829 85.572V82.944C41.0003 82.6207 41.7824 82.4667 42.5689 82.494C43.3847 82.4625 44.1971 82.6163 44.9449 82.944V85.428C47.2053 84.9275 49.2358 83.691 50.7179 81.9124C52.2001 80.1338 53.0502 77.9137 53.1349 75.6C53.1349 72.216 51.7669 68.724 47.7349 68.724C46.818 68.7791 45.9569 69.1826 45.3278 69.8518C44.6987 70.5211 44.3492 71.4055 44.3509 72.324L44.4409 72.414ZM67.2289 56.016C67.3128 56.9828 67.7504 57.8846 68.4578 58.5488C69.1652 59.2131 70.0928 59.5931 71.0629 59.616C71.9962 59.6166 72.8933 59.2546 73.5649 58.6065C74.2366 57.9584 74.6302 57.0748 74.6629 56.142C74.6629 55.872 74.5549 55.584 74.5549 55.224L77.7589 57.798C77.5296 59.3398 76.7401 60.743 75.5413 61.7392C74.3425 62.7354 72.8186 63.2548 71.2609 63.198C71.4739 63.7733 71.5718 64.3849 71.5489 64.998C71.4371 66.2504 70.9858 67.4486 70.2436 68.4636C69.5015 69.4785 68.4965 70.2718 67.3369 70.758L64.1329 68.292C65.1163 68.2681 66.05 67.8546 66.7285 67.1423C67.407 66.43 67.7747 65.4774 67.7509 64.494C67.727 63.5106 67.3135 62.5769 66.6012 61.8984C65.8889 61.2199 64.9363 60.8521 63.9529 60.876C63.4515 60.9036 62.9605 61.0298 62.508 61.2476C62.0555 61.4653 61.6504 61.7702 61.3159 62.1447C60.9815 62.5193 60.7243 62.9562 60.559 63.4304C60.3937 63.9046 60.3237 64.4067 60.3529 64.908C60.3529 67.554 63.5389 72.594 69.6769 72.594C72.0978 72.6322 74.4485 71.7803 76.2829 70.2L74.2669 68.634C74.4475 67.8619 74.796 67.1391 75.2876 66.517C75.7791 65.8948 76.4016 65.3885 77.1109 65.034L79.1989 66.6C79.9593 65.1947 80.367 63.6257 80.3869 62.028C80.3869 57.636 77.0029 52.038 71.6029 52.038C71.0597 52.0065 70.5158 52.0842 70.0033 52.2666C69.4907 52.449 69.02 52.7324 68.6188 53.0999C68.2177 53.4674 67.8944 53.9117 67.668 54.4064C67.4417 54.9011 67.3168 55.4362 67.3009 55.98L67.2289 56.016Z" fill="black"/>
</g>
</g>
</svg>
