<svg width="164" height="127" viewBox="0 0 164 127" fill="none" xmlns="http://www.w3.org/2000/svg">
<g filter="url(#filter0_d_407_1069)">
<rect x="27" y="22" width="100" height="63" rx="31.5" fill="#0B2840"/>
<rect x="27.5" y="22.5" width="99" height="62" rx="31" stroke="#25A7FF"/>
</g>
<path d="M70 59C69.7348 59 69.4804 58.8946 69.2929 58.7071C69.1054 58.5196 69 58.2652 69 58C69 57.7348 69.1054 57.4804 69.2929 57.2929C69.4804 57.1054 69.7348 57 70 57H84C84.2652 57 84.5196 57.1054 84.7071 57.2929C84.8946 57.4804 85 57.7348 85 58C85 58.2652 84.8946 58.5196 84.7071 58.7071C84.5196 58.8946 84.2652 59 84 59H70ZM70 64C69.7348 64 69.4804 63.8946 69.2929 63.7071C69.1054 63.5196 69 63.2652 69 63C69 62.7348 69.1054 62.4804 69.2929 62.2929C69.4804 62.1054 69.7348 62 70 62H84C84.2652 62 84.5196 62.1054 84.7071 62.2929C84.8946 62.4804 85 62.7348 85 63C85 63.2652 84.8946 63.5196 84.7071 63.7071C84.5196 63.8946 84.2652 64 84 64H70Z" fill="#25A7FF"/>
<path fill-rule="evenodd" clip-rule="evenodd" d="M79.37 36H66C65.2044 36 64.4413 36.3161 63.8787 36.8787C63.3161 37.4413 63 38.2044 63 39V69C63 69.7957 63.3161 70.5587 63.8787 71.1213C64.4413 71.6839 65.2044 72 66 72H88C88.7956 72 89.5587 71.6839 90.1213 71.1213C90.6839 70.5587 91 69.7957 91 69V48.404C90.9998 47.6529 90.7179 46.9293 90.21 46.376L81.582 36.972C81.3008 36.6655 80.959 36.4208 80.5782 36.2535C80.1974 36.0861 79.7859 35.9998 79.37 36ZM65 39C65 38.7348 65.1054 38.4804 65.2929 38.2929C65.4804 38.1054 65.7348 38 66 38H79.37C79.5088 37.9998 79.646 38.0286 79.7731 38.0844C79.9001 38.1401 80.0142 38.2217 80.108 38.324L88.736 47.728C88.9055 47.9123 88.9998 48.1536 89 48.404V69C89 69.2652 88.8946 69.5196 88.7071 69.7071C88.5196 69.8946 88.2652 70 88 70H66C65.7348 70 65.4804 69.8946 65.2929 69.7071C65.1054 69.5196 65 69.2652 65 69V39Z" fill="#25A7FF"/>
<path d="M80 38.1992V47.5992H89.4" stroke="#25A7FF" stroke-width="2" stroke-linecap="round" stroke-linejoin="round"/>
<path d="M73.2679 46.267C73.5535 46.2757 73.838 46.227 74.1044 46.1238C74.3708 46.0205 74.6138 45.8648 74.8189 45.6659C75.024 45.467 75.1871 45.2289 75.2985 44.9657C75.4098 44.7026 75.4672 44.4197 75.4672 44.134C75.4672 43.8483 75.4098 43.5654 75.2985 43.3023C75.1871 43.0391 75.024 42.801 74.8189 42.6021C74.6138 42.4032 74.3708 42.2475 74.1044 42.1442C73.838 42.041 73.5535 41.9923 73.2679 42.001C72.7135 42.018 72.1875 42.2501 71.8013 42.6483C71.4152 43.0465 71.1992 43.5793 71.1992 44.134C71.1992 44.6887 71.4152 45.2215 71.8013 45.6197C72.1875 46.0179 72.7135 46.25 73.2679 46.267Z" fill="#25A7FF"/>
<path fill-rule="evenodd" clip-rule="evenodd" d="M77.532 50.8866C77.532 48.6186 75.622 46.9766 73.266 46.9766C70.91 46.9766 69 48.6166 69 50.8866V51.9546C69.0005 52.143 69.0758 52.3236 69.2092 52.4567C69.3427 52.5898 69.5235 52.6646 69.712 52.6646H76.822C77.0101 52.664 77.1904 52.5891 77.3235 52.456C77.4565 52.323 77.5315 52.1427 77.532 51.9546V50.8866Z" fill="#25A7FF"/>
<defs>
<filter id="filter0_d_407_1069" x="0" y="0" width="164" height="127" filterUnits="userSpaceOnUse" color-interpolation-filters="sRGB">
<feFlood flood-opacity="0" result="BackgroundImageFix"/>
<feColorMatrix in="SourceAlpha" type="matrix" values="0 0 0 0 0 0 0 0 0 0 0 0 0 0 0 0 0 0 127 0" result="hardAlpha"/>
<feOffset dx="5" dy="10"/>
<feGaussianBlur stdDeviation="16"/>
<feComposite in2="hardAlpha" operator="out"/>
<feColorMatrix type="matrix" values="0 0 0 0 0 0 0 0 0 0 0 0 0 0 0 0 0 0 0.13 0"/>
<feBlend mode="normal" in2="BackgroundImageFix" result="effect1_dropShadow_407_1069"/>
<feBlend mode="normal" in="SourceGraphic" in2="effect1_dropShadow_407_1069" result="shape"/>
</filter>
</defs>
</svg>
