<svg width="164" height="127" viewBox="0 0 164 127" fill="none" xmlns="http://www.w3.org/2000/svg">
<g filter="url(#filter0_d_448_837)">
<rect x="27" y="22" width="100" height="63" rx="31.5" fill="white"/>
<rect x="27.5" y="22.5" width="99" height="62" rx="31" stroke="#25A7FF"/>
</g>
<rect width="40" height="40" transform="translate(57 34)" fill="white"/>
<path fill-rule="evenodd" clip-rule="evenodd" d="M73.572 39.418H80.4254C83.4887 39.418 85.9154 39.418 87.8137 39.673C89.767 39.9363 91.3487 40.4896 92.597 41.7363C93.8437 42.9846 94.397 44.5663 94.6604 46.5196C94.9154 48.4196 94.9154 50.8446 94.9154 53.908V54.0946C94.9154 57.158 94.9154 59.5846 94.6604 61.483C94.397 63.4363 93.8437 65.018 92.597 66.2663C91.3487 67.513 89.767 68.0663 87.8137 68.3296C85.9137 68.5846 83.4887 68.5846 80.4254 68.5846H73.572C70.5087 68.5846 68.082 68.5846 66.1837 68.3296C64.2304 68.0663 62.6487 67.513 61.4004 66.2663C60.1537 65.018 59.6004 63.4363 59.337 61.483C59.082 59.583 59.082 57.158 59.082 54.0946V53.908C59.082 50.8446 59.082 48.418 59.337 46.5196C59.6004 44.5663 60.1537 42.9846 61.4004 41.7363C62.6487 40.4896 64.2304 39.9363 66.1837 39.673C68.0837 39.418 70.5087 39.418 73.572 39.418ZM66.5154 42.1513C64.8387 42.3763 63.872 42.7996 63.1654 43.5046C62.462 44.2096 62.0387 45.1763 61.8137 46.853C61.5837 48.5663 61.5804 50.823 61.5804 54.0013C61.5804 57.1796 61.5837 59.4363 61.8137 61.1513C62.0387 62.8263 62.462 63.793 63.167 64.498C63.872 65.203 64.8387 65.6263 66.5154 65.8513C68.2287 66.0813 70.4854 66.0846 73.6637 66.0846H80.3304C83.5087 66.0846 85.767 66.0813 87.4804 65.8513C89.1554 65.6263 90.122 65.203 90.827 64.498C91.532 63.793 91.9554 62.8263 92.1804 61.1496C92.4104 59.4363 92.4137 57.1796 92.4137 54.0013C92.4137 50.823 92.4104 48.5663 92.1804 46.8513C91.9554 45.1763 91.532 44.2096 90.827 43.5046C90.122 42.7996 89.1554 42.3763 87.4787 42.1513C85.767 41.9213 83.5087 41.918 80.3304 41.918H73.6637C70.4854 41.918 68.2304 41.9213 66.5154 42.1513ZM66.037 46.5346C66.2493 46.2801 66.5539 46.1203 66.8839 46.0903C67.2139 46.0603 67.5424 46.1626 67.797 46.3746L71.3987 49.373C72.9537 50.668 74.032 51.5646 74.9454 52.1513C75.827 52.718 76.4254 52.9096 77.0004 52.9096C77.5754 52.9096 78.1737 52.7196 79.0554 52.1513C79.967 51.5646 81.047 50.668 82.602 49.373L86.2004 46.373C86.3265 46.2679 86.4722 46.1887 86.629 46.14C86.7857 46.0912 86.9506 46.0738 87.1141 46.0887C87.2776 46.1036 87.4366 46.1506 87.5819 46.227C87.7273 46.3034 87.8561 46.4076 87.9612 46.5338C88.0663 46.66 88.1454 46.8056 88.1942 46.9624C88.243 47.1192 88.2604 47.284 88.2455 47.4475C88.2305 47.611 88.1835 47.77 88.1072 47.9153C88.0308 48.0607 87.9265 48.1896 87.8004 48.2946L84.1404 51.3446C82.662 52.578 81.4654 53.5746 80.407 54.2546C79.307 54.963 78.2354 55.4096 77.0004 55.4096C75.7654 55.4096 74.6937 54.9613 73.592 54.2546C72.5354 53.5746 71.3387 52.5763 69.8604 51.3463L66.1987 48.2963C66.0724 48.1912 65.9681 48.0622 65.8917 47.9168C65.8153 47.7713 65.7684 47.6123 65.7535 47.4486C65.7386 47.285 65.7562 47.1201 65.8051 46.9632C65.8541 46.8064 65.9318 46.6608 66.037 46.5346Z" fill="#25A7FF"/>
<defs>
<filter id="filter0_d_448_837" x="0" y="0" width="164" height="127" filterUnits="userSpaceOnUse" color-interpolation-filters="sRGB">
<feFlood flood-opacity="0" result="BackgroundImageFix"/>
<feColorMatrix in="SourceAlpha" type="matrix" values="0 0 0 0 0 0 0 0 0 0 0 0 0 0 0 0 0 0 127 0" result="hardAlpha"/>
<feOffset dx="5" dy="10"/>
<feGaussianBlur stdDeviation="16"/>
<feComposite in2="hardAlpha" operator="out"/>
<feColorMatrix type="matrix" values="0 0 0 0 0 0 0 0 0 0 0 0 0 0 0 0 0 0 0.13 0"/>
<feBlend mode="normal" in2="BackgroundImageFix" result="effect1_dropShadow_448_837"/>
<feBlend mode="normal" in="SourceGraphic" in2="effect1_dropShadow_448_837" result="shape"/>
</filter>
</defs>
</svg>
