<svg width="164" height="127" viewBox="0 0 164 127" fill="none" xmlns="http://www.w3.org/2000/svg">
<g filter="url(#filter0_d_407_1072)">
<rect x="27" y="22" width="100" height="63" rx="31.5" fill="white"/>
<rect x="27.5" y="22.5" width="99" height="62" rx="31" stroke="#25A7FF"/>
</g>
<path d="M90.3346 55.6654V43.5804C90.3347 43.4488 90.3089 43.3185 90.2585 43.197C90.2082 43.0754 90.1344 42.965 90.0413 42.872L84.7946 37.6254C84.6073 37.4378 84.3531 37.3323 84.088 37.332H64.668C64.4028 37.332 64.1484 37.4374 63.9609 37.6249C63.7733 37.8125 63.668 38.0668 63.668 38.332V69.6654C63.668 69.9306 63.7733 70.1849 63.9609 70.3725C64.1484 70.56 64.4028 70.6654 64.668 70.6654H80.3346" stroke="#25A7FF" stroke-width="2.5" stroke-linecap="round" stroke-linejoin="round"/>
<path d="M83.668 37.332V42.9987C83.668 43.2639 83.7733 43.5183 83.9609 43.7058C84.1484 43.8933 84.4028 43.9987 84.668 43.9987H90.3346M83.668 65.6654H93.668M93.668 65.6654L88.668 60.6654M93.668 65.6654L88.668 70.6654" stroke="#25A7FF" stroke-width="2.5" stroke-linecap="round" stroke-linejoin="round"/>
<defs>
<filter id="filter0_d_407_1072" x="0" y="0" width="164" height="127" filterUnits="userSpaceOnUse" color-interpolation-filters="sRGB">
<feFlood flood-opacity="0" result="BackgroundImageFix"/>
<feColorMatrix in="SourceAlpha" type="matrix" values="0 0 0 0 0 0 0 0 0 0 0 0 0 0 0 0 0 0 127 0" result="hardAlpha"/>
<feOffset dx="5" dy="10"/>
<feGaussianBlur stdDeviation="16"/>
<feComposite in2="hardAlpha" operator="out"/>
<feColorMatrix type="matrix" values="0 0 0 0 0 0 0 0 0 0 0 0 0 0 0 0 0 0 0.13 0"/>
<feBlend mode="normal" in2="BackgroundImageFix" result="effect1_dropShadow_407_1072"/>
<feBlend mode="normal" in="SourceGraphic" in2="effect1_dropShadow_407_1072" result="shape"/>
</filter>
</defs>
</svg>
