<svg width="191" height="28" viewBox="0 0 191 28" fill="none" xmlns="http://www.w3.org/2000/svg">
<g id="Group 454">
<g id="g11">
<path id="path27" d="M190.357 27.5659H188.258L179.432 14.5426C177.767 12.0827 176.031 9.33333 176.031 9.33333C176.031 9.33333 176.103 12.0827 176.103 14.5426V27.5659H171.618V4.99225C171.618 3.83462 171.545 3.18346 171.183 2.31524C170.677 1.22997 169.881 0.506458 169.881 0.506458H176.103L182.326 9.69509C183.99 12.155 185.798 14.9767 185.798 14.9767C185.798 14.9767 185.726 12.0827 185.726 9.69509V0.506458H190.212L190.357 27.5659ZM5.28165 27.5659H0V0.217051C4.34109 0.217051 6.87338 0 8.89922 0C14.3979 0 18.4496 2.45995 18.4496 8.24806C18.4496 11.7209 16.3514 14.615 13.168 15.4832C13.168 15.4832 14.0362 16.4238 14.4703 17.5814L19.1008 27.5659H13.0233L7.81395 16.4238C6.51163 13.5297 5.71576 13.0233 5.71576 13.0233C6.22222 13.0233 6.80104 13.0233 7.23514 13.0233C11.1421 13.0233 12.9509 11.2145 12.9509 8.39276C12.9509 5.57106 10.9251 4.26873 7.8863 4.26873C6.29457 4.26873 5.2093 4.34109 5.2093 4.34109V27.5659H5.28165ZM118.801 0.506458H124.083V27.5659H118.801V0.506458ZM165.612 23.1525L164.527 27.7106H151.07V0.651159H165.251L164.165 5.13695H156.207V11.938H163.731L162.646 16.2791H156.062V23.2972H165.468V23.1525H165.612ZM64.8992 16.1344V27.5659H59.6176V0.506458H73.9431L73.0026 4.99225H65.0439V11.7933H72.5685L71.6279 16.1344H64.8992ZM84.3617 16.1344V27.5659H78.9354V0.506458H93.261L92.1757 4.99225H84.3617V11.7933H91.8863L90.9457 16.1344H84.3617ZM47.0284 0.506458H52.3101V27.5659H47.0284V0.506458ZM112.868 23.1525L111.783 27.7106H98.3256V0.651159H112.651L111.566 5.13695H103.752V11.938H111.276L110.191 16.2791H103.607V23.2972H112.796V23.1525H112.868ZM43.3385 27.5659H37.4057L36.031 22.5736H27.7106L26.3359 27.6382H21.3437L28.5788 3.97933C28.7959 3.32817 28.8682 2.89406 28.8682 2.60465C28.8682 1.51938 28.1447 0.578808 28.1447 0.578808H34.7287L43.3385 27.5659ZM35.0181 18.6667L32.5581 10.2015C32.2687 9.04393 31.8346 7.16279 31.8346 7.16279C31.8346 7.16279 31.4005 9.04393 31.1111 10.2015L28.6512 18.6667H35.0181ZM131.101 22.1395C131.101 22.1395 132.765 23.6589 136.093 23.6589C138.77 23.6589 140.145 22.0672 140.145 20.186C140.145 18.3049 138.553 17.2196 136.961 16.4961L134.863 15.3385C131.463 13.5297 130.088 11.2145 130.088 8.32041C130.088 3.25581 133.488 0.0723515 138.336 0.0723515C142.243 0.0723515 144.558 1.44703 144.558 1.44703L143.473 5.93282C142.171 4.77519 140.579 4.41344 138.915 4.41344C136.599 4.41344 135.225 5.93282 135.225 7.66925C135.225 9.18863 136.093 9.9845 137.323 10.708L139.855 12.0827C143.979 14.1809 145.354 16.4238 145.354 19.6072C145.354 24.8165 141.664 28 136.021 28C131.897 28 129.798 26.6977 129.798 26.6977L131.101 22.1395Z" fill="#EE2722"/>
</g>
</g>
</svg>
