<svg width="282" height="36" viewBox="0 0 282 36" fill="none" xmlns="http://www.w3.org/2000/svg">
<g clip-path="url(#clip0_401_2191)">
<path d="M114.928 11.1742H96.8164V15.2432L97.3625 15.1936V15.144C97.4614 14.5485 98.5531 13.4072 99.8929 13.4072C99.8929 13.4072 103.764 13.4072 103.912 13.4072C103.912 13.6057 103.912 34.3972 103.912 34.3972H107.882C107.882 34.3972 107.882 13.6057 107.882 13.4568C108.081 13.4568 112.001 13.4568 112.001 13.4568C113.39 13.4568 114.283 14.2011 114.432 14.8958V14.9951H115.028L114.978 11.2734H114.928V11.1742Z" fill="#183964"/>
<path d="M24.5133 11.1742H24.4141V11.7201L24.4637 11.7697C24.811 11.9681 25.1584 12.8117 25.1584 13.8538V34.3972H29.0289C29.0289 34.3972 29.0289 24.0262 29.0289 23.8278C29.2273 23.8278 30.7656 23.8278 30.7656 23.8278C32.3039 23.927 32.8994 24.9194 33.6437 26.2096L33.7429 26.3585L34.2392 27.1524C35.0827 28.5418 36.224 30.4274 37.3653 32.2138C38.2089 33.4544 39.251 34.1987 40.5907 34.3972C41.5335 34.546 43.4193 34.4964 44.1636 34.2979L45.0072 34.0994L45.3546 34.0002L44.1636 33.6529C43.6674 33.504 42.923 33.1566 41.9305 32.0153C41.2854 31.3206 40.293 29.6831 38.7547 27.3013L37.2661 24.9194L37.2164 24.8698C36.8195 24.2743 36.1248 23.3315 34.9835 22.7361C37.1668 22.0414 39.3006 20.0565 39.3006 17.0792C39.3006 16.2356 39.1021 14.6477 37.6631 13.2583C36.224 11.8689 33.9414 11.1742 30.8649 11.1742H24.5133ZM31.1626 13.2583C35.1323 13.4072 35.2316 16.7814 35.2316 17.1288C35.2316 20.5031 32.7505 21.694 30.5672 21.694C30.5672 21.694 29.1777 21.6444 29.0289 21.6444C29.0289 21.4459 29.0289 13.4568 29.0289 13.2583C29.4754 13.2583 30.2198 13.2087 31.1626 13.2583Z" fill="#183964"/>
<path d="M64.2126 11.1743H64.1133L64.1627 11.7697H64.2126C64.56 11.9186 64.8576 12.7622 64.8576 13.4569V34.3476H71.5067C75.8736 34.3476 79.5456 33.0079 82.0265 30.4275C84.1111 28.2938 85.2522 25.3661 85.2522 22.3888C85.2522 20.6024 84.6567 17.8732 82.92 15.6402C80.6373 12.6629 77.0147 11.1246 72.1022 11.1246L64.2126 11.1743ZM68.8275 13.4073C69.0258 13.4073 70.9116 13.4073 70.9116 13.4073C71.4573 13.4073 72.8465 13.4569 73.8394 13.6057C80.3892 14.5982 81.084 20.1062 81.084 22.3888C81.084 24.2744 80.7366 27.0036 79.0993 29.0877C77.5113 31.1222 75.03 32.1643 71.6559 32.1643C70.8618 32.1643 69.8694 32.1643 68.7777 32.1147C68.8275 31.9658 68.8275 13.6057 68.8275 13.4073Z" fill="#183964"/>
<path d="M93.2881 11.1742H88.7227V11.7201L88.7725 11.7697C89.1694 11.9681 89.4669 12.7125 89.4669 13.7049V34.3972H93.3376V11.2238L93.2881 11.1742Z" fill="#183964"/>
<path d="M59.1991 11.1742H46.1484L46.1983 11.7201H46.2478C46.5952 11.9185 46.9921 12.7125 46.9921 13.8041V34.3476H59.9928L60.9358 30.229L60.3901 30.0305L60.2409 30.2786C59.1492 31.9657 58.0579 32.1642 54.2866 32.1642C52.9468 32.2138 51.607 32.065 50.8128 32.0153C50.8128 31.8665 50.8128 22.7361 50.8128 22.5376C51.0115 22.5376 57.4125 22.5376 57.4125 22.5376V20.4535C57.4125 20.4535 51.0115 20.4535 50.8128 20.4535C50.8128 20.255 50.8128 13.4072 50.8128 13.2583C51.0115 13.2583 56.1721 13.3079 56.1721 13.3079C57.3631 13.3079 58.7029 14.4492 58.8022 15.144V15.2432H59.3479L59.1991 11.1742Z" fill="#183964"/>
<path d="M168.018 11.1742H163.453L163.503 11.7201H163.552C163.949 11.9185 164.247 12.7125 164.247 13.7049V34.3972H168.118V11.2238L168.018 11.1742Z" fill="#183964"/>
<path d="M222.208 11.1743H209.207L209.257 11.7697H209.306C209.654 11.9682 210.051 12.7125 210.051 13.8042V34.3476H223.052L223.994 30.2291L223.399 30.0305L223.25 30.2787C222.158 31.9658 221.067 32.1643 217.345 32.1643C216.005 32.2139 214.666 32.0651 213.872 32.0154C213.872 31.8665 213.872 22.7362 213.872 22.5377C214.07 22.5377 220.472 22.5377 220.472 22.5377V20.4535C220.472 20.4535 214.07 20.4535 213.872 20.4535C213.872 20.2551 213.872 13.4073 213.872 13.2584C214.07 13.2584 219.231 13.308 219.231 13.308C220.72 13.308 221.811 14.3997 221.811 15.144V15.2433L222.406 15.1936L222.308 11.1246L222.208 11.1743Z" fill="#183964"/>
<path d="M174.321 17.0294C174.272 20.2548 176.207 21.8427 179.383 23.4306L180.573 24.026C183.055 25.2666 184.692 26.0605 184.692 28.3928C184.692 28.7897 184.593 30.1791 183.551 31.2708C182.807 32.0151 181.764 32.3625 180.474 32.3625C176.753 32.3129 175.413 29.4348 174.916 27.7477L174.817 27.4499L174.023 27.5988L174.222 32.4618L174.42 32.561C175.661 33.2557 177.745 34.4466 180.673 34.4962C182.807 34.4962 184.94 33.6527 186.379 32.2137C187.669 30.9235 188.364 29.3356 188.364 27.5492C188.364 23.4802 185.536 22.0412 182.558 20.4533L182.012 20.1555C178.787 18.5677 177.695 17.8233 177.695 16.0369C177.695 14.7964 178.638 12.9108 181.219 12.9604C184.345 13.01 185.684 15.243 185.982 16.4339L186.081 16.7813L186.875 16.682L186.577 12.4146L186.429 12.3153C184.643 11.1244 182.409 10.9755 181.516 10.9755C178.043 10.9259 174.371 13.0596 174.321 17.0294Z" fill="#183964"/>
<path d="M123.314 17.0288C123.264 20.2543 125.199 21.8421 128.375 23.43L129.566 24.0255C132.047 25.266 133.684 26.06 133.684 28.3922C133.684 28.7892 133.585 30.1786 132.543 31.2703C131.799 32.0146 130.757 32.362 129.467 32.362C125.745 32.3124 124.405 29.4343 123.909 27.7471L123.81 27.4494L123.016 27.5983L123.214 32.4612L123.412 32.5605C124.653 33.2552 126.738 34.4461 129.665 34.4957C131.799 34.4957 133.932 33.6521 135.371 32.2131C136.662 30.9229 137.356 29.335 137.356 27.5487C137.356 23.4797 134.528 22.0407 131.551 20.4528L131.005 20.155C127.779 18.5671 126.688 17.8228 126.688 16.0364C126.688 14.7959 127.631 12.9102 130.211 12.9599C133.337 13.0095 134.677 15.2425 134.975 16.4334L135.074 16.7808L135.868 16.6815L135.62 12.4637L135.471 12.3644C133.684 11.1735 131.451 11.0246 130.558 11.0246C127.085 10.9254 123.363 13.0591 123.314 17.0288Z" fill="#183964"/>
<path d="M191.739 17.0286C191.689 20.254 193.625 21.8419 196.801 23.4298L197.991 24.0253C200.473 25.2658 202.11 26.0597 202.11 28.392C202.11 28.789 202.011 30.1783 200.969 31.27C200.225 32.0143 199.182 32.3617 197.892 32.3617C194.17 32.3121 192.831 29.434 192.334 27.7469L192.235 27.4492L191.441 27.598L191.64 32.461L191.838 32.5602C193.079 33.2549 195.163 34.4458 198.091 34.4954C200.225 34.4954 202.358 33.6519 203.797 32.2129C205.087 30.9227 205.782 29.3348 205.782 27.5484C205.782 23.4794 202.954 22.0404 199.976 20.4525L199.43 20.1547C196.205 18.5669 195.113 17.8225 195.113 16.0362C195.113 15.2422 195.461 14.4483 196.056 13.8528C196.701 13.2573 197.594 12.91 198.637 12.91C201.763 12.9596 203.102 15.1926 203.4 16.3835L203.499 16.6812L204.293 16.582L204.045 12.3641L203.897 12.2649C202.11 11.074 199.877 10.9251 198.984 10.9251C195.51 10.9251 191.789 13.0588 191.739 17.0286Z" fill="#183964"/>
<path d="M158.34 11.1743H155.264L155.313 11.7202H155.362C155.512 11.8194 156.008 12.1667 156.008 13.6058V26.7555C156.008 29.2863 155.065 32.3628 150.599 32.3628C146.381 32.3628 145.488 29.8321 145.488 26.0608V11.1247H140.625L140.674 11.6209H140.724C141.022 11.7698 141.568 12.4148 141.568 13.6554V26.0112C141.568 33.7026 146.629 34.5462 150.45 34.5462C152.336 34.5462 158.389 34.0003 158.389 26.7555V11.0751L158.34 11.1743Z" fill="#183964"/>
<path d="M3.22541 14.4978C1.19092 16.7308 0 19.7081 0 22.7847C0 26.2086 1.33979 29.2851 3.77126 31.5181C6.10347 33.6518 9.18004 34.7931 12.5047 34.7931C14.2415 34.7931 17.6654 34.4954 20.9404 32.4609L21.0892 32.3617L21.4862 27.5483L20.8411 27.4987L20.7419 27.6972C18.3104 32.9075 14.5392 32.1632 13.1001 32.1632C6.69895 32.1632 4.51557 27.4491 4.51557 22.3381C4.51557 17.4255 6.69895 13.2076 13.1498 13.2076C15.1347 13.2076 18.7074 13.158 20.593 17.624L20.6923 17.8721L21.2878 17.6736L20.8908 12.6618L20.7419 12.6122C17.715 11.2724 15.2835 10.6769 12.852 10.6769C8.9319 10.6273 5.60728 11.9671 3.22541 14.4978Z" fill="#183964"/>
<path d="M269.249 26.8539C264.931 26.1592 260.267 25.7622 256.843 26.3577C256.645 26.4073 256.496 26.2584 256.496 26.0599C256.496 24.869 256.496 20.9985 255.553 16.1852C255.553 16.0859 255.503 16.0363 255.404 15.9867C244.14 8.09685 233.967 2.83694 229.799 0.852071C229.502 0.703205 229.204 1.10018 229.452 1.34829C241.609 12.5132 245.877 31.5183 246.422 34.049C246.472 34.1979 246.621 34.2971 246.77 34.2971C260.416 31.6672 274.111 34.9422 277.932 35.9843C278.23 36.0835 278.429 35.6866 278.23 35.4881C275.402 32.4611 272.424 29.6327 269.397 26.9531C269.397 26.9035 269.348 26.8539 269.249 26.8539Z" fill="#183964"/>
<path d="M280.714 28.7894C269.748 14.1013 254.167 3.2838 249.254 0.058383C248.956 -0.140104 248.659 0.207248 248.857 0.50498C252.628 5.46714 254.564 11.1737 255.506 15.9373C255.506 16.0366 255.556 16.0862 255.606 16.1359C260.121 19.3116 264.736 22.8844 269.301 26.8045C269.351 26.8541 269.401 26.8541 269.45 26.8541C274.214 27.6481 278.581 28.7398 280.367 29.236C280.665 29.3352 280.863 29.0375 280.714 28.7894Z" fill="#183964"/>
<path d="M114.928 11.1742H96.8164V15.2432L97.3625 15.1936V15.144C97.4614 14.5485 98.5531 13.4072 99.8929 13.4072C99.8929 13.4072 103.764 13.4072 103.912 13.4072C103.912 13.6057 103.912 34.3972 103.912 34.3972H107.882C107.882 34.3972 107.882 13.6057 107.882 13.4568C108.081 13.4568 112.001 13.4568 112.001 13.4568C113.39 13.4568 114.283 14.2011 114.432 14.8958V14.9951H115.028L114.978 11.2734H114.928V11.1742Z" fill="#183964"/>
<path d="M24.5133 11.1742H24.4141V11.7201L24.4637 11.7697C24.811 11.9681 25.1584 12.8117 25.1584 13.8538V34.3972H29.0289C29.0289 34.3972 29.0289 24.0262 29.0289 23.8278C29.2273 23.8278 30.7656 23.8278 30.7656 23.8278C32.3039 23.927 32.8994 24.9194 33.6437 26.2096L33.7429 26.3585L34.2392 27.1524C35.0827 28.5418 36.224 30.4274 37.3653 32.2138C38.2089 33.4544 39.251 34.1987 40.5907 34.3972C41.5335 34.546 43.4193 34.4964 44.1636 34.2979L45.0072 34.0994L45.3546 34.0002L44.1636 33.6529C43.6674 33.504 42.923 33.1566 41.9305 32.0153C41.2854 31.3206 40.293 29.6831 38.7547 27.3013L37.2661 24.9194L37.2164 24.8698C36.8195 24.2743 36.1248 23.3315 34.9835 22.7361C37.1668 22.0414 39.3006 20.0565 39.3006 17.0792C39.3006 16.2356 39.1021 14.6477 37.6631 13.2583C36.224 11.8689 33.9414 11.1742 30.8649 11.1742H24.5133ZM31.1626 13.2583C35.1323 13.4072 35.2316 16.7814 35.2316 17.1288C35.2316 20.5031 32.7505 21.694 30.5672 21.694C30.5672 21.694 29.1777 21.6444 29.0289 21.6444C29.0289 21.4459 29.0289 13.4568 29.0289 13.2583C29.4754 13.2583 30.2198 13.2087 31.1626 13.2583Z" fill="#183964"/>
<path d="M64.2126 11.1743H64.1133L64.1627 11.7697H64.2126C64.56 11.9186 64.8576 12.7622 64.8576 13.4569V34.3476H71.5067C75.8736 34.3476 79.5456 33.0079 82.0265 30.4275C84.1111 28.2938 85.2522 25.3661 85.2522 22.3888C85.2522 20.6024 84.6567 17.8732 82.92 15.6402C80.6373 12.6629 77.0147 11.1246 72.1022 11.1246L64.2126 11.1743ZM68.8275 13.4073C69.0258 13.4073 70.9116 13.4073 70.9116 13.4073C71.4573 13.4073 72.8465 13.4569 73.8394 13.6057C80.3892 14.5982 81.084 20.1062 81.084 22.3888C81.084 24.2744 80.7366 27.0036 79.0993 29.0877C77.5113 31.1222 75.03 32.1643 71.6559 32.1643C70.8618 32.1643 69.8694 32.1643 68.7777 32.1147C68.8275 31.9658 68.8275 13.6057 68.8275 13.4073Z" fill="#183964"/>
<path d="M93.2881 11.1742H88.7227V11.7201L88.7725 11.7697C89.1694 11.9681 89.4669 12.7125 89.4669 13.7049V34.3972H93.3376V11.2238L93.2881 11.1742Z" fill="#183964"/>
<path d="M59.1991 11.1742H46.1484L46.1983 11.7201H46.2478C46.5952 11.9185 46.9921 12.7125 46.9921 13.8041V34.3476H59.9928L60.9358 30.229L60.3901 30.0305L60.2409 30.2786C59.1492 31.9657 58.0579 32.1642 54.2866 32.1642C52.9468 32.2138 51.607 32.065 50.8128 32.0153C50.8128 31.8665 50.8128 22.7361 50.8128 22.5376C51.0115 22.5376 57.4125 22.5376 57.4125 22.5376V20.4535C57.4125 20.4535 51.0115 20.4535 50.8128 20.4535C50.8128 20.255 50.8128 13.4072 50.8128 13.2583C51.0115 13.2583 56.1721 13.3079 56.1721 13.3079C57.3631 13.3079 58.7029 14.4492 58.8022 15.144V15.2432H59.3479L59.1991 11.1742Z" fill="#183964"/>
<path d="M168.018 11.1742H163.453L163.503 11.7201H163.552C163.949 11.9185 164.247 12.7125 164.247 13.7049V34.3972H168.118V11.2238L168.018 11.1742Z" fill="#183964"/>
<path d="M222.208 11.1743H209.207L209.257 11.7697H209.306C209.654 11.9682 210.051 12.7125 210.051 13.8042V34.3476H223.052L223.994 30.2291L223.399 30.0305L223.25 30.2787C222.158 31.9658 221.067 32.1643 217.345 32.1643C216.005 32.2139 214.666 32.0651 213.872 32.0154C213.872 31.8665 213.872 22.7362 213.872 22.5377C214.07 22.5377 220.472 22.5377 220.472 22.5377V20.4535C220.472 20.4535 214.07 20.4535 213.872 20.4535C213.872 20.2551 213.872 13.4073 213.872 13.2584C214.07 13.2584 219.231 13.308 219.231 13.308C220.72 13.308 221.811 14.3997 221.811 15.144V15.2433L222.406 15.1936L222.308 11.1246L222.208 11.1743Z" fill="#183964"/>
<path d="M174.321 17.0294C174.272 20.2548 176.207 21.8427 179.383 23.4306L180.573 24.026C183.055 25.2666 184.692 26.0605 184.692 28.3928C184.692 28.7897 184.593 30.1791 183.551 31.2708C182.807 32.0151 181.764 32.3625 180.474 32.3625C176.753 32.3129 175.413 29.4348 174.916 27.7477L174.817 27.4499L174.023 27.5988L174.222 32.4618L174.42 32.561C175.661 33.2557 177.745 34.4466 180.673 34.4962C182.807 34.4962 184.94 33.6527 186.379 32.2137C187.669 30.9235 188.364 29.3356 188.364 27.5492C188.364 23.4802 185.536 22.0412 182.558 20.4533L182.012 20.1555C178.787 18.5677 177.695 17.8233 177.695 16.0369C177.695 14.7964 178.638 12.9108 181.219 12.9604C184.345 13.01 185.684 15.243 185.982 16.4339L186.081 16.7813L186.875 16.682L186.577 12.4146L186.429 12.3153C184.643 11.1244 182.409 10.9755 181.516 10.9755C178.043 10.9259 174.371 13.0596 174.321 17.0294Z" fill="#183964"/>
<path d="M123.314 17.0288C123.264 20.2543 125.199 21.8421 128.375 23.43L129.566 24.0255C132.047 25.266 133.684 26.06 133.684 28.3922C133.684 28.7892 133.585 30.1786 132.543 31.2703C131.799 32.0146 130.757 32.362 129.467 32.362C125.745 32.3124 124.405 29.4343 123.909 27.7471L123.81 27.4494L123.016 27.5983L123.214 32.4612L123.412 32.5605C124.653 33.2552 126.738 34.4461 129.665 34.4957C131.799 34.4957 133.932 33.6521 135.371 32.2131C136.662 30.9229 137.356 29.335 137.356 27.5487C137.356 23.4797 134.528 22.0407 131.551 20.4528L131.005 20.155C127.779 18.5671 126.688 17.8228 126.688 16.0364C126.688 14.7959 127.631 12.9102 130.211 12.9599C133.337 13.0095 134.677 15.2425 134.975 16.4334L135.074 16.7808L135.868 16.6815L135.62 12.4637L135.471 12.3644C133.684 11.1735 131.451 11.0246 130.558 11.0246C127.085 10.9254 123.363 13.0591 123.314 17.0288Z" fill="#183964"/>
<path d="M191.739 17.0286C191.689 20.254 193.625 21.8419 196.801 23.4298L197.991 24.0253C200.473 25.2658 202.11 26.0597 202.11 28.392C202.11 28.789 202.011 30.1783 200.969 31.27C200.225 32.0143 199.182 32.3617 197.892 32.3617C194.17 32.3121 192.831 29.434 192.334 27.7469L192.235 27.4492L191.441 27.598L191.64 32.461L191.838 32.5602C193.079 33.2549 195.163 34.4458 198.091 34.4954C200.225 34.4954 202.358 33.6519 203.797 32.2129C205.087 30.9227 205.782 29.3348 205.782 27.5484C205.782 23.4794 202.954 22.0404 199.976 20.4525L199.43 20.1547C196.205 18.5669 195.113 17.8225 195.113 16.0362C195.113 15.2422 195.461 14.4483 196.056 13.8528C196.701 13.2573 197.594 12.91 198.637 12.91C201.763 12.9596 203.102 15.1926 203.4 16.3835L203.499 16.6812L204.293 16.582L204.045 12.3641L203.897 12.2649C202.11 11.074 199.877 10.9251 198.984 10.9251C195.51 10.9251 191.789 13.0588 191.739 17.0286Z" fill="#183964"/>
<path d="M158.34 11.1743H155.264L155.313 11.7202H155.362C155.512 11.8194 156.008 12.1667 156.008 13.6058V26.7555C156.008 29.2863 155.065 32.3628 150.599 32.3628C146.381 32.3628 145.488 29.8321 145.488 26.0608V11.1247H140.625L140.674 11.6209H140.724C141.022 11.7698 141.568 12.4148 141.568 13.6554V26.0112C141.568 33.7026 146.629 34.5462 150.45 34.5462C152.336 34.5462 158.389 34.0003 158.389 26.7555V11.0751L158.34 11.1743Z" fill="#183964"/>
<path d="M3.22541 14.4978C1.19092 16.7308 0 19.7081 0 22.7847C0 26.2086 1.33979 29.2851 3.77126 31.5181C6.10347 33.6518 9.18004 34.7931 12.5047 34.7931C14.2415 34.7931 17.6654 34.4954 20.9404 32.4609L21.0892 32.3617L21.4862 27.5483L20.8411 27.4987L20.7419 27.6972C18.3104 32.9075 14.5392 32.1632 13.1001 32.1632C6.69895 32.1632 4.51557 27.4491 4.51557 22.3381C4.51557 17.4255 6.69895 13.2076 13.1498 13.2076C15.1347 13.2076 18.7074 13.158 20.593 17.624L20.6923 17.8721L21.2878 17.6736L20.8908 12.6618L20.7419 12.6122C17.715 11.2724 15.2835 10.6769 12.852 10.6769C8.9319 10.6273 5.60728 11.9671 3.22541 14.4978Z" fill="#183964"/>
<path d="M269.249 26.8539C264.931 26.1592 260.267 25.7622 256.843 26.3577C256.645 26.4073 256.496 26.2584 256.496 26.0599C256.496 24.869 256.496 20.9985 255.553 16.1852C255.553 16.0859 255.503 16.0363 255.404 15.9867C244.14 8.09685 233.967 2.83694 229.799 0.852071C229.502 0.703205 229.204 1.10018 229.452 1.34829C241.609 12.5132 245.877 31.5183 246.422 34.049C246.472 34.1979 246.621 34.2971 246.77 34.2971C260.416 31.6672 274.111 34.9422 277.932 35.9843C278.23 36.0835 278.429 35.6866 278.23 35.4881C275.402 32.4611 272.424 29.6327 269.397 26.9531C269.397 26.9035 269.348 26.8539 269.249 26.8539Z" fill="#183964"/>
<path d="M280.714 28.7894C269.748 14.1013 254.167 3.2838 249.254 0.058383C248.956 -0.140104 248.659 0.207248 248.857 0.50498C252.628 5.46714 254.564 11.1737 255.506 15.9373C255.506 16.0366 255.556 16.0862 255.606 16.1359C260.121 19.3116 264.736 22.8844 269.301 26.8045C269.351 26.8541 269.401 26.8541 269.45 26.8541C274.214 27.6481 278.581 28.7398 280.367 29.236C280.665 29.3352 280.863 29.0375 280.714 28.7894Z" fill="#183964"/>
</g>
<defs>
<clipPath id="clip0_401_2191">
<rect width="281.06" height="36" fill="white"/>
</clipPath>
</defs>
</svg>
