<svg width="192" height="48" viewBox="0 0 192 48" fill="none" xmlns="http://www.w3.org/2000/svg">
<g id="tkb-logo (1) 1">
<g id="Page-1">
<g id="tkb-logo">
<g id="TKB_Logo_3c_RGB">
<g id="Group-4">
<g id="Mask group">
<mask id="mask0_401_2275" style="mask-type:luminance" maskUnits="userSpaceOnUse" x="1" y="4" width="42" height="42">
<g id="Group">
<path id="Vector" d="M22.3315 4.30078H1.92188V45.0624H42.7411V4.30078H22.3315Z" fill="#1E6846"/>
</g>
</mask>
<g mask="url(#mask0_401_2275)">
<path id="Fill-1" fill-rule="evenodd" clip-rule="evenodd" d="M39.1299 7.72705H20.2486L9.80859 24.7143L20.2486 41.7542H39.1299L28.6918 24.7143L39.1299 7.72705Z" fill="#1E6846"/>
</g>
</g>
<g id="Mask group_2">
<mask id="mask1_401_2275" style="mask-type:luminance" maskUnits="userSpaceOnUse" x="1" y="4" width="42" height="42">
<g id="Group_2">
<path id="Vector_2" d="M22.3315 4.30078H1.92188V45.0624H42.7411V4.30078H22.3315Z" fill="#1E6846"/>
</g>
</mask>
<g mask="url(#mask1_401_2275)">
<path id="Fill-3" fill-rule="evenodd" clip-rule="evenodd" d="M41.1398 43.5149L3.527 43.5033V5.9155H41.1321L41.1398 43.5149ZM1.92188 45.12H42.7411V4.30078H1.92188V45.12Z" fill="#1E6846"/>
</g>
</g>
</g>
<path id="Fill-5" fill-rule="evenodd" clip-rule="evenodd" d="M106.239 11.0208V12.6153H106.198C105.441 11.2704 104.355 10.7452 102.958 10.7452C99.8025 10.7452 98.4883 14.0044 98.4883 16.8278C98.4883 19.9747 99.7017 22.5657 102.82 22.5657C104.359 22.5657 105.587 21.7008 106.099 20.6985H106.142C106.142 22.7251 105.973 24.982 102.938 24.982C102.077 24.982 100.367 24.502 99.527 24L99.5328 26.5372C100.845 27.1536 102.199 27.3504 103.286 27.3504C107.713 27.3504 108.864 24.8025 108.864 21.6134V11.0208H106.239ZM103.723 20.1974C102.142 20.1974 101.361 18.4233 101.361 16.8278C101.361 15.0316 101.957 13.1155 103.819 13.1155C105.422 13.1155 106.119 14.758 106.119 16.7625C106.119 18.72 105.444 20.1974 103.723 20.1974Z" fill="#1E6846"/>
<path id="Fill-6" fill-rule="evenodd" clip-rule="evenodd" d="M57.2561 9.34461H53.0234V6.80829H64.3918V9.34461H60.1582V22.896H57.2561V9.34461Z" fill="#1E6846"/>
<path id="Fill-7" fill-rule="evenodd" clip-rule="evenodd" d="M65.9062 6.8006H68.6874V12.6412H68.7267C69.4333 11.4883 70.6371 10.7491 72.0906 10.7491C74.6221 10.7491 75.7184 12.7334 75.7184 15.407V22.896H72.9402V16.558C72.9402 15.1065 72.9171 13.1472 71.1344 13.1472C69.1242 13.1472 68.6874 15.5683 68.6874 17.0889V22.896H65.9062V6.8006Z" fill="#1E6846"/>
<path id="Fill-8" fill-rule="evenodd" clip-rule="evenodd" d="M88.3952 22.896H85.759V21.2832H85.7196C84.8681 22.4361 83.6643 23.1734 82.2137 23.1734C79.6822 23.1734 78.582 21.191 78.582 18.5174V11.0266H81.3603V17.3664C81.3603 18.8179 81.3824 20.7754 83.166 20.7754C85.1801 20.7754 85.6169 18.3561 85.6169 16.8355V11.0266H88.3952V22.896Z" fill="#1E6846"/>
<path id="Fill-9" fill-rule="evenodd" clip-rule="evenodd" d="M91.3203 11.0265H93.7894V13.7232H93.8288C93.9546 12.6172 95.095 10.7491 96.7558 10.7491C97.0237 10.7491 97.3126 10.7491 97.6054 10.8432V13.9536C97.3577 13.7923 96.8576 13.7011 96.3603 13.7011C94.0995 13.7011 94.0995 16.8355 94.0995 18.5414V22.896H91.3203V11.0265Z" fill="#1E6846"/>
<path id="Fill-10" fill-rule="evenodd" clip-rule="evenodd" d="M115.488 20.9155C116.338 20.9155 117.001 20.4988 117.438 19.8547C117.896 19.1846 118.02 18.334 118.02 17.4115H116.816C115.573 17.4115 113.726 17.6419 113.726 19.463C113.726 20.4768 114.493 20.9155 115.488 20.9155ZM112.231 11.6496C113.311 11.0966 114.762 10.7491 115.943 10.7491C119.201 10.7491 120.55 12.2496 120.55 15.7516V17.2723C120.55 18.4704 120.571 19.3708 120.594 20.2464C120.613 21.1459 120.656 21.9753 120.717 22.896H118.266C118.166 22.2729 118.166 21.4915 118.144 21.1219H118.102C117.461 22.4361 116.067 23.1734 114.806 23.1734C112.915 23.1734 111.07 21.9052 111.07 19.6464C111.07 17.8723 111.837 16.8355 112.895 16.2585C113.952 15.6825 115.323 15.5683 116.484 15.5683H118.02C118.02 13.656 117.253 13.0089 115.612 13.0089C114.43 13.0089 113.248 13.5168 112.314 14.3001L112.231 11.6496Z" fill="#1E6846"/>
<path id="Fill-11" fill-rule="evenodd" clip-rule="evenodd" d="M133.097 22.896H130.464V21.2832H130.423C129.57 22.4361 128.366 23.1734 126.915 23.1734C124.383 23.1734 123.285 21.191 123.285 18.5174V11.0266H126.065V17.3664C126.065 18.8179 126.086 20.7754 127.871 20.7754C129.883 20.7754 130.318 18.3561 130.318 16.8355V11.0266H133.097V22.896Z" fill="#1E6846"/>
<path id="Fill-12" fill-rule="evenodd" clip-rule="evenodd" d="M142.665 15.7987C142.583 14.3001 141.96 13.0089 140.402 13.0089C138.848 13.0089 138.06 14.207 137.937 15.7987H142.665ZM144.535 22.2278C143.516 22.8508 142.354 23.1734 140.862 23.1734C137.335 23.1734 135.277 20.9155 135.277 17.0188C135.277 13.5859 136.918 10.7491 140.239 10.7491C144.199 10.7491 145.322 13.7702 145.322 17.9174H137.937C138.06 19.8316 139.264 20.9155 140.985 20.9155C142.331 20.9155 143.498 20.3606 144.535 19.7174V22.2278Z" fill="#1E6846"/>
<path id="Fill-13" fill-rule="evenodd" clip-rule="evenodd" d="M147.559 11.0265H150.028V13.7232H150.069C150.193 12.6172 151.337 10.7491 152.994 10.7491C153.264 10.7491 153.555 10.7491 153.846 10.8432V13.9536C153.598 13.7923 153.1 13.7011 152.601 13.7011C150.34 13.7011 150.34 16.8355 150.34 18.5414V22.896H147.559V11.0265Z" fill="#1E6846"/>
<path id="Fill-14" fill-rule="evenodd" clip-rule="evenodd" d="M55.3711 26.5238H58.2732V33.4387L63.5013 26.5238H67.0706L61.1157 34.1078L67.3202 42.6115H63.5234L58.3145 35.1446H58.2732V42.6115H55.3711V26.5238Z" fill="#1E6846"/>
<path id="Fill-15" fill-rule="evenodd" clip-rule="evenodd" d="M72.1904 40.6291C73.0438 40.6291 73.7072 40.2134 74.1421 39.5702C74.5981 38.9002 74.7219 38.0496 74.7219 37.127H73.5181C72.2749 37.127 70.4278 37.3574 70.4278 39.1786C70.4278 40.1904 71.1949 40.6291 72.1904 40.6291ZM68.9341 31.3651C70.0141 30.8122 71.4646 30.4666 72.6502 30.4666C75.9066 30.4666 77.2534 31.9632 77.2534 35.4672V36.9878C77.2534 38.1859 77.2755 39.0864 77.2966 39.96C77.3149 40.8605 77.3581 41.6909 77.4205 42.6115H74.9734C74.8678 41.9904 74.8678 41.207 74.8458 40.8374H74.8064C74.1632 42.1517 72.7741 42.889 71.5078 42.889C69.6205 42.889 67.7734 41.6189 67.7734 39.3619C67.7734 37.5878 68.5405 36.5491 69.5974 35.9741C70.6554 35.3981 72.0253 35.2819 73.1859 35.2819H74.7219C74.7219 33.3696 73.9549 32.7245 72.3181 32.7245C71.1334 32.7245 69.9517 33.2304 69.0186 34.0166L68.9341 31.3651Z" fill="#1E6846"/>
<path id="Fill-16" fill-rule="evenodd" clip-rule="evenodd" d="M79.9922 30.7421H82.6245V32.3568H82.6677C83.5404 30.9955 84.7231 30.4666 86.1746 30.4666C88.7051 30.4666 89.8063 32.447 89.8063 35.1206V42.6115H87.0232V36.2736C87.0232 34.8221 87.005 32.8637 85.2213 32.8637C83.2082 32.8637 82.7714 35.2819 82.7714 36.8045V42.6115H79.9922V30.7421Z" fill="#1E6846"/>
<path id="Fill-17" fill-rule="evenodd" clip-rule="evenodd" d="M93.5808 33H91.5273V30.7421H93.5808V27.5251L96.3609 26.5353V30.7421H98.8281V33H96.3609V38.5334C96.3609 39.5472 96.6086 40.4928 97.6656 40.4928C98.1648 40.4928 98.6429 40.3766 98.9318 40.1683L99.0163 42.6115C98.4345 42.7949 97.7894 42.8889 96.9629 42.8889C94.7837 42.8889 93.5808 41.3885 93.5808 39.0393V33Z" fill="#1E6846"/>
<path id="Fill-18" fill-rule="evenodd" clip-rule="evenodd" d="M105.634 40.4928C107.772 40.4928 108.331 38.3722 108.331 36.3898C108.331 34.5677 107.459 32.8637 105.634 32.8637C103.828 32.8637 102.957 34.6147 102.957 36.3898C102.957 38.3472 103.515 40.4928 105.634 40.4928ZM105.634 30.4666C108.807 30.4666 111.233 32.8406 111.233 36.7574C111.233 40.1683 109.18 42.889 105.634 42.889C102.107 42.889 100.051 40.1683 100.051 36.7574C100.051 32.8406 102.479 30.4666 105.634 30.4666Z" fill="#1E6846"/>
<path id="Fill-19" fill-rule="evenodd" clip-rule="evenodd" d="M113.41 30.7421H116.046V32.3568H116.088C116.959 30.9955 118.141 30.4666 119.595 30.4666C122.127 30.4666 123.225 32.447 123.225 35.1206V42.6115H120.445V36.2736C120.445 34.8221 120.424 32.8637 118.641 32.8637C116.627 32.8637 116.192 35.2819 116.192 36.8045V42.6115H113.41V30.7421Z" fill="#1E6846"/>
<path id="Fill-20" fill-rule="evenodd" clip-rule="evenodd" d="M129.821 40.6291C130.673 40.6291 131.337 40.2134 131.77 39.5702C132.229 38.9002 132.353 38.0496 132.353 37.127H131.149C129.902 37.127 128.058 37.3574 128.058 39.1786C128.058 40.1904 128.826 40.6291 129.821 40.6291ZM126.565 31.3651C127.641 30.8122 129.096 30.4666 130.277 30.4666C133.536 30.4666 134.884 31.9632 134.884 35.4672V36.9878C134.884 38.1859 134.903 39.0864 134.926 39.96C134.946 40.8605 134.987 41.6909 135.049 42.6115H132.602C132.496 41.9904 132.496 41.207 132.477 40.8374H132.433C131.792 42.1517 130.403 42.889 129.138 42.889C127.247 42.889 125.402 41.6189 125.402 39.3619C125.402 37.5878 126.171 36.5491 127.228 35.9741C128.286 35.3981 129.655 35.2819 130.818 35.2819H132.353C132.353 33.3696 131.584 32.7245 129.945 32.7245C128.764 32.7245 127.58 33.2304 126.646 34.0166L126.565 31.3651Z" fill="#1E6846"/>
<path id="Fill-21" fill-rule="evenodd" clip-rule="evenodd" d="M137.684 42.6115H140.466V26.5161H137.684V42.6115Z" fill="#1E6846"/>
<path id="Fill-22" fill-rule="evenodd" clip-rule="evenodd" d="M148.639 40.4928C150.463 40.4928 150.984 38.28 150.984 36.6432C150.984 35.0534 150.486 32.8636 148.682 32.8636C146.897 32.8636 146.192 34.9833 146.192 36.6432C146.192 38.3251 146.792 40.4928 148.639 40.4928ZM143.391 26.5161H146.174V32.2627H146.211C146.98 31.1347 147.954 30.4665 149.406 30.4665C152.687 30.4665 153.891 33.3696 153.891 36.6432C153.891 39.8928 152.687 42.8889 149.406 42.8889C148.224 42.8889 146.939 42.4272 146.13 41.16H146.087V42.6115H143.391V26.5161Z" fill="#1E6846"/>
<path id="Fill-23" fill-rule="evenodd" clip-rule="evenodd" d="M159.8 40.6291C160.651 40.6291 161.315 40.2134 161.749 39.5702C162.205 38.9002 162.331 38.0496 162.331 37.127H161.127C159.882 37.127 158.033 37.3574 158.033 39.1786C158.033 40.1904 158.802 40.6291 159.8 40.6291ZM156.544 31.3651C157.621 30.8122 159.076 30.4666 160.258 30.4666C163.512 30.4666 164.862 31.9632 164.862 35.4672V36.9878C164.862 38.1859 164.883 39.0864 164.903 39.96C164.926 40.8605 164.964 41.6909 165.027 42.6115H162.579C162.475 41.9904 162.475 41.207 162.455 40.8374H162.414C161.769 42.1517 160.381 42.889 159.113 42.889C157.227 42.889 155.379 41.6189 155.379 39.3619C155.379 37.5878 156.147 36.5491 157.209 35.9741C158.266 35.3981 159.631 35.2819 160.797 35.2819H162.331C162.331 33.3696 161.562 32.7245 159.924 32.7245C158.741 32.7245 157.559 33.2304 156.625 34.0166L156.544 31.3651Z" fill="#1E6846"/>
<path id="Fill-24" fill-rule="evenodd" clip-rule="evenodd" d="M167.602 30.7421H170.238V32.3568H170.275C171.149 30.9955 172.331 30.4666 173.783 30.4666C176.315 30.4666 177.416 32.447 177.416 35.1206V42.6115H174.636V36.2736C174.636 34.8221 174.614 32.8637 172.831 32.8637C170.816 32.8637 170.381 35.2819 170.381 36.8045V42.6115H167.602V30.7421Z" fill="#1E6846"/>
<path id="Fill-25" fill-rule="evenodd" clip-rule="evenodd" d="M180.34 26.5161H183.118V35.4902H183.159L186.478 30.742H189.756L185.773 36.0432L190.257 42.6115H186.73L183.159 36.8515H183.118V42.6115H180.34V26.5161Z" fill="#1E6846"/>
</g>
</g>
</g>
</g>
</svg>
