<svg width="145" height="38" viewBox="0 0 145 38" fill="none" xmlns="http://www.w3.org/2000/svg">
<g id="Logo">
<path id="Vector" d="M129.791 4.63539H136.769V11.6139H143.646V17.37H136.769V26.8954C136.769 30.7158 138.298 31.5818 141.099 31.5818C142.933 31.5818 144.359 31.0214 144.359 31.0214V36.7265C144.359 36.7265 143.239 37.6434 140.08 37.6434C131.421 37.6434 129.791 33.3137 129.791 28.4745V4.63539ZM101.928 37.185H108.906V23.4316C108.906 19.815 110.536 17.0643 114.153 17.0643C117.209 17.0643 118.737 19 118.737 23.0241V37.2359H125.665V21.6997C125.665 15.2306 123.016 10.8499 116.394 10.8499C113.185 10.8499 110.383 12.0724 108.702 14.7721V11.6649H101.877V37.185H101.928ZM85.6273 10.8499C82.4692 10.8499 79.0054 11.4611 76.4075 12.4799V18.2359C78.9544 17.1153 81.9088 16.504 84.6086 16.504C88.9383 16.504 91.2306 18.185 91.2306 22.1072C89.4477 21.5469 87.2574 21.3432 85.4745 21.3432C79.9222 21.3432 74.6247 24.2466 74.6247 29.9517C74.6247 35.1984 78.445 38 83.5898 38C87.0027 38 89.6005 36.8794 91.3324 34.7399L91.5362 37.2359H97.7507V22.4638C97.6997 14.7212 93.1662 10.8499 85.6273 10.8499ZM85.7292 32.7024C82.9276 32.9062 81.2466 31.7346 81.1448 29.6461C81.0429 27.3029 83.386 26.2332 85.933 26.0295C89.2949 25.8257 91.0268 26.9973 91.0777 28.6783C91.1796 30.7668 89.6005 32.5496 85.7292 32.7024ZM63.6729 4.02413C63.6729 6.36729 65.3539 8.04826 67.748 8.04826C70.1421 8.04826 71.9759 6.36729 71.9759 4.02413C71.9759 1.7319 70.193 0 67.748 0C65.3539 0 63.6729 1.68096 63.6729 4.02413ZM64.2842 37.185H71.3646V11.6649H64.2842V37.185ZM53.0268 37.185H60.0054V0.662198H53.0268V37.185ZM36.8284 10.8499C34.7399 10.8499 32.3458 11.2064 30.6139 11.7158L28.4236 18.0322C30.9705 16.9115 33.3137 16.504 35.7587 16.504C40.0885 16.504 42.3807 18.185 42.3807 22.1072C40.5979 21.5469 38.4075 21.3432 36.6247 21.3432C31.0214 21.3432 25.7748 24.2466 25.7748 29.9517C25.7748 35.1984 29.5952 38 34.7399 38C38.1528 38 40.7507 36.8794 42.4826 34.7399L42.6863 37.2359H48.9008V22.4638C48.9517 14.7212 44.4182 10.8499 36.8284 10.8499ZM36.9812 32.7024C34.1796 32.9062 32.4987 31.7346 32.3968 29.6461C32.2949 27.3029 34.6381 26.2332 37.185 26.0295C40.5469 25.8257 42.2788 26.9973 42.3298 28.6783C42.4316 30.7668 40.8016 32.5496 36.9812 32.7024ZM9.8311 37.185H17.0643L26.9973 11.6649H19.6622L13.6005 29.8499L7.74263 11.6649H0L9.8311 37.185Z" fill="#7252AC"/>
</g>
</svg>
