<svg width="178" height="51" viewBox="0 0 178 51" fill="none" xmlns="http://www.w3.org/2000/svg">
<g id="Group 456">
<path id="Vector" d="M74.0401 39.341H80.7068C84.4601 39.341 89.6468 38.6744 89.6468 33.341C89.6468 29.0744 86.8801 27.5744 80.9801 27.5744H74.0401V39.341ZM74.0401 21.341H80.6668C85.5068 21.341 87.9334 19.2677 87.9334 16.2077C87.9334 12.6877 85.5068 10.961 80.0268 10.961H74.0268V21.3477L74.0401 21.341ZM66.7734 4.73438H82.6668C88.8401 4.73438 95.1801 7.56104 95.1801 15.001C95.1801 19.6077 92.3001 22.6677 88.0868 23.9344V24.0477C90.5324 24.273 92.802 25.4157 94.4395 27.2461C96.077 29.0765 96.9608 31.4589 96.9134 33.9144C96.9134 42.7944 89.1868 45.561 81.4601 45.561H66.7734V4.74104" fill="#636466"/>
<path id="Vector_2" d="M130.158 14.3098C127.158 11.1431 124.384 10.2765 121.557 10.2765C113.144 10.2765 107.557 16.7365 107.557 24.8631C107.557 33.5698 113.151 40.0298 121.557 40.0298C124.851 40.0298 128.018 38.5298 130.731 35.0765L136.731 39.3431C133.038 44.4165 127.504 46.6098 121.504 46.6098C108.937 46.6098 99.9375 38.0698 99.9375 25.3231C99.9375 12.2431 108.937 3.70312 121.504 3.70312C127.037 3.70312 131.771 5.48979 135.804 10.1631L130.158 14.3098Z" fill="#636466"/>
<path id="Vector_3" d="M138.52 4.74219H146.886L158.013 35.5889L169.493 4.74219H177.333L160.84 45.5689H154.553L138.52 4.74219Z" fill="#636466"/>
<path id="Vector_4" d="M50.3533 48.7667C50.3516 49.1757 50.1878 49.5674 49.898 49.856C49.6081 50.1446 49.2157 50.3067 48.8067 50.3067H1.54C1.13211 50.3049 0.741421 50.1421 0.452994 49.8537C0.164567 49.5653 0.0017544 49.1746 0 48.7667V1.54001C0 1.13158 0.16225 0.739876 0.451056 0.45107C0.739862 0.162264 1.13157 1.44315e-05 1.54 1.44315e-05H48.8067C49.0095 -0.000863481 49.2104 0.0383216 49.398 0.115321C49.5857 0.19232 49.7562 0.305616 49.8999 0.448706C50.0436 0.591796 50.1577 0.761861 50.2355 0.949138C50.3133 1.13642 50.3533 1.33722 50.3533 1.54001V48.7667Z" fill="#00AC5B"/>
<path id="Vector_5" d="M48.4056 47.3957C48.4065 47.5311 48.3806 47.6653 48.3294 47.7906C48.2782 47.9159 48.2027 48.0299 48.1073 48.1259C48.0118 48.222 47.8984 48.2982 47.7734 48.3502C47.6484 48.4022 47.5143 48.429 47.3789 48.429H2.9056C2.77021 48.429 2.63616 48.4022 2.51116 48.3502C2.38616 48.2982 2.27269 48.222 2.17727 48.1259C2.08184 48.0299 2.00636 47.9159 1.95516 47.7906C1.90395 47.6653 1.87805 47.5311 1.87893 47.3957V2.92901C1.87893 2.65672 1.9871 2.39558 2.17963 2.20305C2.37217 2.01051 2.63331 1.90234 2.9056 1.90234H47.3789C47.6512 1.90234 47.9124 2.01051 48.1049 2.20305C48.2974 2.39558 48.4056 2.65672 48.4056 2.92901V47.3957Z" fill="white"/>
<path id="Vector_6" d="M33.7736 26.5964C32.9203 25.1897 32.9336 25.123 33.8269 23.7164C34.7203 22.3097 44.7069 6.15635 45.0869 5.48969C45.4669 4.82302 45.0403 4.42969 44.5203 4.42969H24.9603C22.5136 4.42969 22.5069 4.42969 21.5736 5.96302C20.6403 7.49635 11.2736 22.6564 10.5736 23.8097C9.7136 25.2097 9.72694 25.2164 10.5736 26.5964C11.4203 27.9764 20.6669 42.9764 21.5736 44.5164C22.4803 46.0564 22.5136 46.0497 24.9603 46.0497H44.5203C45.0403 46.0497 45.5203 45.7164 45.0869 44.9897C44.8203 44.543 34.6269 28.003 33.7536 26.5964" fill="#00AC5B"/>
</g>
</svg>
