<svg width="135" height="43" viewBox="0 0 135 43" fill="none" xmlns="http://www.w3.org/2000/svg">
<g id="Group 455">
<path id="Vector" d="M73.9919 20.6155L75.7419 21.2855C77.2674 21.8046 78.6218 22.7314 79.6583 23.9653C80.6948 25.1992 81.3738 26.6932 81.6219 28.2855C82.9219 35.2055 78.9419 40.9255 71.9619 41.8555C68.954 42.1392 65.9325 42.2527 62.9119 42.1955C60.5519 42.1955 58.1819 42.1955 55.6719 42.1955V0.905467C55.6719 0.905467 55.8119 0.735467 55.9019 0.735467C61.2919 0.815467 66.7219 0.505467 72.0519 1.08547C78.9919 1.84547 82.6019 8.71547 79.9519 15.2255C78.9919 17.6055 77.5319 18.9655 73.9919 20.6155ZM63.1419 35.4455C65.1419 35.4455 67.0119 35.4455 68.8419 35.4455C69.4321 35.3933 70.0116 35.2552 70.5619 35.0355C71.7249 34.7239 72.7364 34.0032 73.4106 33.0056C74.0848 32.0081 74.3764 30.8008 74.2319 29.6055C74.1719 26.6655 72.9619 24.7055 70.3419 24.1655C67.9577 23.7942 65.5534 23.5672 63.1419 23.4855V35.4455ZM63.1419 17.6755C65.5468 17.4896 67.938 17.1556 70.3019 16.6755C72.4319 16.1055 73.3019 14.3155 73.1119 11.8855C72.9819 9.68547 71.9919 8.15547 69.8819 7.75547C67.6478 7.43152 65.3978 7.2279 63.1419 7.14547V17.6755Z" fill="#21211F"/>
<path id="Vector_2" d="M114.341 1.77636L113.771 8.77636C111.358 7.32291 108.588 6.5714 105.771 6.60636C103.587 6.51821 101.425 7.07164 99.5517 8.19834C97.6786 9.32504 96.1765 10.9756 95.2309 12.9464C93.8642 15.5023 93.1235 18.3461 93.0696 21.2441C93.0157 24.142 93.6502 27.0113 94.9209 29.6164C97.3409 34.9064 102.691 37.2564 109.131 36.1064C110.701 35.8264 112.231 35.3464 114.031 34.8964C114.151 37.0464 114.271 39.2564 114.401 41.6064C106.481 43.6964 98.9309 43.8164 92.0909 38.7164C88.2709 35.8764 86.4609 31.7164 85.6809 27.1764C84.8438 22.4194 85.1872 17.5297 86.6809 12.9364C89.2909 4.93636 95.8409 0.296363 104.801 0.0263627C108.074 -0.137183 111.339 0.461902 114.341 1.77636Z" fill="#222220"/>
<path id="Vector_3" d="M127.16 0.765625H134.56C134.56 1.26562 134.67 1.76562 134.67 2.27562C134.67 12.2756 134.67 22.1956 134.67 32.1556C134.67 38.9956 130.38 43.1556 123.56 42.8756C121.98 42.8156 120.41 42.4856 118.77 42.2656V35.1756C120.06 35.3056 121.33 35.5456 122.59 35.5456C123.614 35.6409 124.635 35.3294 125.432 34.6783C126.229 34.0272 126.738 33.0888 126.85 32.0656C127.07 30.9023 127.171 29.7195 127.15 28.5356C127.15 20.0056 127.15 11.4656 127.15 2.92562L127.16 0.765625Z" fill="#21211F"/>
<path id="Vector_4" d="M41.53 42.1761H0V0.746094H41.53V42.1761ZM1.73 2.44609V40.4461H39.81V2.44609H1.73Z" fill="#E6423A"/>
<path id="Vector_5" d="M37.6018 4.57401L32.1518 13.444C30.8718 15.514 29.6718 17.634 28.2918 19.634C27.8495 20.134 27.6005 20.7755 27.5895 21.4429C27.5785 22.1103 27.8063 22.7597 28.2318 23.274C31.1018 27.704 33.8118 32.274 36.5718 36.724C36.8818 37.224 37.1718 37.724 37.5718 38.404C37.1649 38.5098 36.7502 38.5834 36.3318 38.624C30.8218 38.624 25.3318 38.624 19.7918 38.624C19.3827 38.664 18.9712 38.577 18.6134 38.3748C18.2555 38.1726 17.9686 37.8651 17.7918 37.494C14.7451 32.474 11.6651 27.474 8.55177 22.494C8.32067 22.1947 8.19531 21.8272 8.19531 21.449C8.19531 21.0708 8.32067 20.7033 8.55177 20.404C11.7018 15.404 14.7818 10.324 17.9418 5.30401C18.1008 5.04171 18.3144 4.81666 18.568 4.64413C18.8216 4.47159 19.1094 4.3556 19.4118 4.30401C25.2818 4.24401 31.1518 4.30401 37.0218 4.30401C37.1318 4.32401 37.2318 4.44401 37.6018 4.57401Z" fill="#E5332A"/>
</g>
</svg>
