<svg width="220" height="48" viewBox="0 0 220 48" fill="none" xmlns="http://www.w3.org/2000/svg">
<g id="svgexport-12">
<path id="Vector" d="M63.0846 15.8572C62.056 15.8572 61.0275 15.5143 60.0846 14.9143L59.8275 17.5715C61.1132 17.9143 61.7989 18.1715 63.1703 18.1715C65.8275 18.1715 68.056 16.9714 68.056 13.7143C68.056 8.74288 62.3132 9.85716 62.3132 7.28574C62.3132 5.65716 63.5132 5.22859 64.3703 5.22859C65.3132 5.22859 66.1703 5.48574 67.0275 5.82859L67.3703 3.42859C66.4275 3.08574 65.3989 2.91431 64.1989 2.91431C61.8846 2.91431 59.5703 4.11431 59.5703 7.45716C59.5703 12.3429 65.3132 11.1429 65.3132 13.9714C65.3989 15.2572 64.1132 15.8572 63.0846 15.8572Z" fill="#1D1D1B"/>
<path id="Vector_2" d="M76.2013 15.6857C75.9442 15.8572 75.5156 15.9429 75.0871 15.9429C74.1442 15.9429 73.8871 15.0857 73.8871 14.1429V9.08573H76.1156V7.02859H73.8871V3.94287L71.4013 4.88573V7.02859H69.5156V9.08573H71.4013V14.6572C71.4013 16.8 72.5156 18.1714 74.4871 18.1714C75.2585 18.1714 75.8585 18.0857 76.3728 17.9143L76.2013 15.6857Z" fill="#1D1D1B"/>
<path id="Vector_3" d="M80.6571 14.9143H78V17.9143H80.6571V14.9143Z" fill="#1D1D1B"/>
<path id="Vector_4" d="M90.2586 18.1715C91.63 18.1715 93.0872 17.8286 94.5443 17.4V9.42859H89.23V11.7429H91.9729V15.6C91.5443 15.6857 90.9443 15.7715 90.2586 15.7715C87.43 15.7715 85.8014 13.5429 85.8014 10.5429C85.8014 7.54288 87.5157 5.22859 90.6014 5.22859C91.63 5.22859 93.0014 5.48574 93.9443 6.00002L94.1157 3.51431C93.0015 3.17145 91.8015 2.91431 90.2586 2.91431C85.8015 2.91431 83.0586 5.74288 83.0586 10.8C83.0586 15.7715 85.9729 18.1715 90.2586 18.1715Z" fill="#1D1D1B"/>
<path id="Vector_5" d="M105.345 17.9143C105.259 17.0571 105.259 16.2857 105.259 15.5143C105.259 14.7429 105.259 13.8857 105.259 12.7714V11.4C105.259 8.22857 104.059 6.77142 101.059 6.77142C100.03 6.77142 98.6589 7.11428 97.7161 7.62857L97.8018 10.0286C98.6589 9.34285 99.6875 8.82857 100.802 8.82857C102.259 8.82857 102.945 9.42857 102.945 11.1429H101.573C100.545 11.1429 99.2589 11.2286 98.3161 11.7429C97.3732 12.2571 96.6875 13.2 96.6875 14.8286C96.6875 16.8857 98.4018 18.0857 100.03 18.0857C101.145 18.0857 102.43 17.4 103.03 16.2C103.03 16.5429 103.03 17.2286 103.116 17.8286L105.345 17.9143ZM102.345 15.0857C101.916 15.6857 101.316 16.0286 100.545 16.0286C99.6018 16.0286 98.9161 15.6 98.9161 14.6571C98.9161 13.0286 100.63 12.7714 101.745 12.7714H102.859C102.945 13.7143 102.773 14.4857 102.345 15.0857Z" fill="#1D1D1B"/>
<path id="Vector_6" d="M110.4 2.05713H107.914V17.9143H110.4V2.05713Z" fill="#1D1D1B"/>
<path id="Vector_7" d="M115.798 2.05713H113.312V17.9143H115.798V2.05713Z" fill="#1D1D1B"/>
<path id="Vector_8" d="M122.57 6.77142C119.57 6.77142 118.113 9.34285 118.113 12.5143C118.113 16.1143 119.999 18.1714 123.17 18.1714C124.542 18.1714 125.57 17.9143 126.513 17.3143V15C125.57 15.6 124.542 16.1143 123.256 16.1143C121.713 16.1143 120.599 15.0857 120.513 13.3714H127.199C127.199 9.51428 126.17 6.77142 122.57 6.77142ZM120.513 11.4C120.599 9.94285 121.37 8.82857 122.742 8.82857C124.113 8.82857 124.713 10.0286 124.799 11.4H120.513Z" fill="#1D1D1B"/>
<path id="Vector_9" d="M131.915 13.8857C131.915 12.3429 131.915 9.42857 133.973 9.42857C134.401 9.42857 134.915 9.51428 135.087 9.68571V6.85714C134.83 6.77142 134.573 6.77142 134.315 6.77142C132.773 6.77142 131.744 8.48571 131.658 9.51428V7.02857H129.43V17.9143H131.915V13.8857Z" fill="#1D1D1B"/>
<path id="Vector_10" d="M73.7156 27.2571H69.6871L63.7728 35.1429V27.2571H60.5156V45.6H63.7728V37.1143L69.6871 45.6H73.9728L66.9442 35.9143L73.7156 27.2571Z" fill="#1D1D1B"/>
<path id="Vector_11" d="M86.144 39.1714V37.4572C86.144 33.4286 84.6011 31.7143 80.9154 31.7143C79.544 31.7143 77.9154 32.1429 76.7154 32.7429L76.8011 35.7429C77.8297 34.8857 79.2011 34.2857 80.4868 34.2857C82.3725 34.2857 83.2297 35.0572 83.2297 37.2H81.5154C80.2297 37.2 78.6868 37.3714 77.4868 37.9714C76.2868 38.6572 75.4297 39.7714 75.4297 41.8286C75.4297 44.4 77.4868 45.8572 79.6297 45.8572C81.0868 45.8572 82.6297 45 83.3154 43.5429H83.4011C83.4011 43.9714 83.4011 44.8286 83.5725 45.6H86.3154C86.2297 44.5714 86.2297 43.6286 86.144 42.6C86.2297 41.5714 86.144 40.5429 86.144 39.1714ZM82.6297 42.1714C82.1154 42.9429 81.4297 43.3714 80.4011 43.3714C79.2868 43.3714 78.4297 42.8572 78.4297 41.7429C78.4297 39.6857 80.4868 39.4286 81.944 39.4286H83.3154C83.3154 40.4572 83.144 41.4 82.6297 42.1714Z" fill="#1D1D1B"/>
<path id="Vector_12" d="M96.6848 31.8C95.0563 31.8 93.6848 32.4 92.742 33.9428H92.6562V32.1428H89.6562V45.6857H92.8277V39.0857C92.8277 37.3714 93.342 34.6286 95.5705 34.6286C97.6277 34.6286 97.6277 36.8571 97.6277 38.4857V45.6857H100.799V37.1143C100.713 34.0286 99.5134 31.8 96.6848 31.8Z" fill="#1D1D1B"/>
<path id="Vector_13" d="M110.056 43.2C108.856 43.2 108.599 42.0857 108.599 40.9714V34.6286H111.428V32.0572H108.599V28.2L105.428 29.3143V32.0572H103.113V34.6286H105.428V41.4857C105.428 44.1429 106.799 45.8572 109.285 45.8572C110.228 45.8572 110.913 45.7714 111.599 45.5143L111.513 42.6857C111.17 43.1143 110.57 43.2 110.056 43.2Z" fill="#1D1D1B"/>
<path id="Vector_14" d="M119.488 31.8C115.888 31.8 113.23 34.5428 113.23 39C113.23 42.8571 115.545 46.0286 119.488 46.0286C123.516 46.0286 125.83 42.9428 125.83 39C125.745 34.4571 123.002 31.8 119.488 31.8ZM119.488 43.2C117.088 43.2 116.488 40.7143 116.488 38.4857C116.488 36.4286 117.43 34.4571 119.488 34.4571C121.545 34.4571 122.573 36.4286 122.573 38.4857C122.488 40.8 121.888 43.2 119.488 43.2Z" fill="#1D1D1B"/>
<path id="Vector_15" d="M135.599 31.8C133.97 31.8 132.599 32.4 131.656 33.9428H131.57V32.1428H128.57V45.6857H131.742V39.0857C131.742 37.3714 132.256 34.6286 134.485 34.6286C136.456 34.6286 136.542 36.8571 136.542 38.4857V45.6857H139.713V37.1143C139.713 34.0286 138.513 31.8 135.599 31.8Z" fill="#1D1D1B"/>
<path id="Vector_16" d="M153.343 39.1714V37.4572C153.343 33.4286 151.8 31.7143 148.115 31.7143C146.743 31.7143 145.115 32.1429 143.915 32.7429L144 35.7429C145.029 34.8857 146.4 34.2857 147.686 34.2857C149.572 34.2857 150.429 35.0572 150.429 37.2H148.715C147.429 37.2 145.886 37.3714 144.686 37.9714C143.486 38.6572 142.629 39.7714 142.629 41.8286C142.629 44.4 144.686 45.8572 146.829 45.8572C148.286 45.8572 149.829 45 150.515 43.5429H150.6C150.6 43.9714 150.6 44.8286 150.772 45.6H153.515C153.429 44.5714 153.429 43.6286 153.343 42.6C153.343 41.5714 153.343 40.5429 153.343 39.1714ZM149.829 42.1714C149.315 42.9429 148.629 43.3714 147.6 43.3714C146.486 43.3714 145.629 42.8572 145.629 41.7429C145.629 39.6857 147.686 39.4286 149.143 39.4286H150.515C150.429 40.4572 150.343 41.4 149.829 42.1714Z" fill="#1D1D1B"/>
<path id="Vector_17" d="M160.027 25.8857H156.855V45.6H160.027V25.8857Z" fill="#1D1D1B"/>
<path id="Vector_18" d="M170.572 31.8C168.943 31.8 167.829 32.5714 166.972 33.8572H166.886V25.9714H163.715V45.6857H166.801V44.0572H166.886C167.829 45.5143 169.286 46.0286 170.572 46.0286C174.258 46.0286 175.629 42.6 175.629 38.9143C175.629 35.0572 174.258 31.8 170.572 31.8ZM169.715 43.2C167.658 43.2 166.972 40.7143 166.972 38.8286C166.972 36.9429 167.743 34.5429 169.801 34.5429C171.858 34.5429 172.372 37.0286 172.372 38.8286C172.286 40.7143 171.772 43.2 169.715 43.2Z" fill="#1D1D1B"/>
<path id="Vector_19" d="M188.402 39.1714V37.4572C188.402 33.4286 186.859 31.7143 183.173 31.7143C181.802 31.7143 180.173 32.1429 178.973 32.7429L179.059 35.7429C180.087 34.8857 181.459 34.2857 182.745 34.2857C184.63 34.2857 185.487 35.0572 185.487 37.2H183.773C182.487 37.2 180.945 37.3714 179.745 37.9714C178.545 38.6572 177.688 39.7714 177.688 41.8286C177.688 44.4 179.745 45.8572 181.887 45.8572C183.345 45.8572 184.887 45 185.573 43.5429H185.659C185.659 43.9714 185.659 44.8286 185.83 45.6H188.573C188.487 44.5714 188.488 43.6286 188.402 42.6C188.402 41.5714 188.402 40.5429 188.402 39.1714ZM184.887 42.1714C184.373 42.9429 183.602 43.3714 182.659 43.3714C181.545 43.3714 180.688 42.8572 180.688 41.7429C180.688 39.6857 182.745 39.4286 184.202 39.4286H185.573C185.573 40.4572 185.402 41.4 184.887 42.1714Z" fill="#1D1D1B"/>
<path id="Vector_20" d="M198.857 31.8C197.228 31.8 195.857 32.4 194.914 33.9428H194.828V32.1428H191.828V45.6857H195V39.0857C195 37.3714 195.514 34.6286 197.742 34.6286C199.8 34.6286 199.8 36.8571 199.8 38.4857V45.6857H202.971V37.1143C202.971 34.0286 201.771 31.8 198.857 31.8Z" fill="#1D1D1B"/>
<path id="Vector_21" d="M212.828 38.1429L217.371 32.0572H213.685L209.914 37.4572H209.828V25.8857H206.742V45.6H209.828V39.0857H209.914L213.942 45.6H217.885L212.828 38.1429Z" fill="#1D1D1B"/>
<path id="Vector_22" d="M42.5998 4.6286H2.91406V44.0572H42.5998V4.6286ZM21.1712 42.4286L8.31406 23.7429L21.0855 6.34289H40.4569L27.8569 23.7429L40.8855 42.4286H21.1712Z" fill="white"/>
<path id="Vector_23" d="M1.54297 45.4286H43.9715V3.25714H1.54297V45.4286ZM2.9144 4.62857H42.6001V44.0571H2.9144V4.62857Z" fill="#00904A"/>
<path id="Vector_24" d="M40.4554 6.34283H21.0839L8.3125 23.7428L21.1696 42.4285H40.8839L27.8554 23.7428L40.4554 6.34283Z" fill="#00904A"/>
</g>
</svg>
