<svg width="167" height="48" viewBox="0 0 167 48" fill="none" xmlns="http://www.w3.org/2000/svg">
<g id="svgexport-9" clip-path="url(#clip0_401_2221)">
<g id="Group">
<path id="Vector" d="M167 0.433594H0V47.6735H167V0.433594Z" fill="#FFD400"/>
<path id="Vector_2" d="M138.722 36.8544L140.329 29.1417H7.17876L5.46484 36.8544H138.722Z" fill="white"/>
<path id="Vector_3" d="M154.68 18.5369C154.68 18.5369 156.501 10.3958 156.501 10.2886H145.146C145.146 10.2886 142.789 21.1077 142.789 21.2149H145.682L147.503 13.0738H152.966C152.966 13.0738 151.252 21.2149 151.145 21.322H159.5L158.429 26.3566H150.074L148.36 34.0693C148.36 34.0693 142.147 34.0693 142.04 34.0693L141.504 36.8544H150.823L152.43 29.1417C152.43 29.1417 160.678 29.1417 160.785 29.1417L162.928 18.644H154.68V18.5369Z" fill="#ED1C24"/>
<path id="Vector_4" d="M15.1021 22.9288L16.2804 17.2514H17.7801C19.494 17.2514 20.2438 17.8941 20.2438 19.5009C20.2438 21.5362 18.9584 22.8216 16.4946 22.8216H15.1021V22.9288ZM14.4594 26.0352H16.0662C21.2079 26.0352 24.1002 23.4644 24.1002 19.2867C24.1002 16.1802 21.8506 14.1449 18.1014 14.1449H13.3882L9.74609 31.2841H13.3882L14.4594 26.0352ZM29.8846 28.7132C28.385 28.7132 27.3138 27.5349 27.8494 24.964C28.385 22.286 29.6704 21.2148 31.063 21.2148C32.5626 21.2148 33.6338 22.3932 33.0982 24.964C32.5626 27.5349 31.3843 28.7132 29.8846 28.7132ZM29.5633 31.7126C33.5267 31.7126 36.3118 28.8204 36.8474 24.964C37.4902 21.2148 35.3478 18.2155 31.3843 18.2155C27.4209 18.2155 24.6358 21.1077 24.1002 24.964C23.4574 28.8204 25.4927 31.7126 29.5633 31.7126ZM43.2746 27.5349C43.2746 28.6061 41.9892 28.7132 41.0251 28.7132C39.7397 28.7132 38.24 28.3919 37.383 28.0705L36.7403 30.9628C37.9186 31.2841 39.3112 31.4984 40.7038 31.4984C43.9174 31.4984 46.5954 30.32 46.5954 27.2136C46.5954 23.2501 41.8821 24 41.8821 22.1789C41.8821 21.4291 42.6319 21.1077 43.8102 21.1077C44.9886 21.1077 46.5954 21.5362 47.131 21.7504L47.7737 18.8582C46.7025 18.5368 45.417 18.3226 44.2387 18.3226C40.7038 18.3226 38.5614 19.9294 38.5614 22.5003C38.5614 26.4637 43.2746 25.821 43.2746 27.5349ZM57.0931 21.4291L57.6287 18.644H53.7724L54.5222 15.109L50.773 15.966L48.4164 26.7851C47.7737 29.8916 49.4876 31.4984 52.487 31.4984C53.1297 31.4984 54.2009 31.3912 54.9507 31.0699L55.5934 28.2848C54.9507 28.3919 54.2009 28.6061 53.5582 28.6061C52.487 28.6061 51.7371 28.2848 52.0585 26.9993L53.2368 21.4291H57.0931ZM60.7352 31.2841L62.1278 24.6427H67.5909L68.2336 21.4291H62.7705L63.6274 17.3585H69.4119L70.1618 14.1449H60.6281L56.986 31.2841H60.7352ZM71.0187 18.644L68.3407 31.2841H71.9828L74.6608 18.644H71.0187ZM71.5543 15.109C71.4472 16.2873 72.3041 17.1443 73.4825 17.1443C74.7679 17.1443 75.6249 16.2873 75.732 15.109C75.8391 13.9307 74.9821 13.0737 73.8038 13.0737C72.5184 13.0737 71.5543 14.0378 71.5543 15.109ZM77.9815 31.2841L79.3741 24.8569C79.9097 22.286 81.1951 21.322 82.5877 21.322C84.3016 21.322 84.5158 22.6074 84.1945 24L82.6948 31.177H86.3369L87.9437 23.7857C88.6935 20.0365 86.9796 18.1084 84.3016 18.1084C82.8019 18.1084 81.4093 18.644 80.1239 20.0365L80.4453 18.5368H77.1245L74.4465 31.177H77.9815V31.2841ZM95.6563 18.3226C93.9424 18.3226 92.2285 18.7511 91.6929 18.8582L91.0501 21.7504C91.9071 21.5362 93.5139 21.1077 94.9065 21.1077C96.8346 21.1077 97.4773 21.6433 97.4773 22.7145C97.4773 22.9288 97.4773 23.143 97.4773 23.2501V23.4644C96.5133 23.3572 95.6563 23.2501 95.3349 23.2501C91.6929 23.2501 88.8006 24.6427 88.8006 27.9634C88.8006 30.1058 90.5145 31.3912 92.6569 31.3912C94.2637 31.3912 95.5492 30.7485 96.4061 29.7844L96.0848 31.0699H99.2984L100.905 23.7857C101.012 23.2501 101.119 22.7145 101.119 22.1789C101.119 20.2508 99.9411 18.3226 95.6563 18.3226ZM92.2285 27.642C92.2285 26.3566 93.2997 25.6068 95.2278 25.6068C95.5492 25.6068 96.4061 25.6068 97.0489 25.7139L96.9417 26.4637C96.5133 27.9634 95.3349 29.0346 93.8353 29.0346C92.7641 29.0346 92.2285 28.499 92.2285 27.642ZM105.297 31.2841L106.69 24.8569C107.225 22.286 108.511 21.322 109.903 21.322C111.617 21.322 111.831 22.6074 111.51 24L110.01 31.177H113.652L115.259 23.7857C116.009 20.0365 114.295 18.1084 111.617 18.1084C110.117 18.1084 108.725 18.644 107.439 20.0365L107.761 18.5368H104.333L101.655 31.177H105.297V31.2841ZM122.972 28.6061C121.365 28.6061 120.187 27.8563 120.187 25.821C120.187 23.3572 121.686 21.4291 124.15 21.4291C124.9 21.4291 125.757 21.6433 126.614 21.9647L127.257 19.0724C126.293 18.7511 125.114 18.4297 123.936 18.4297C119.973 18.4297 116.545 21.4291 116.545 26.0352C116.545 29.7844 118.901 31.6055 122.222 31.6055C123.293 31.6055 124.257 31.3912 125.007 31.0699L125.65 28.0705C124.793 28.2848 123.936 28.6061 122.972 28.6061ZM136.79 31.177L137.433 28.1776C136.362 28.6061 135.184 28.8204 133.791 28.8204C132.184 28.8204 130.685 28.2848 130.685 26.2495H139.147C139.468 25.2854 139.683 24.2142 139.683 23.3572C139.683 20.5721 138.076 18.2155 134.541 18.2155C130.042 18.2155 127.257 21.9647 127.257 26.0352C127.257 29.5702 129.613 31.6055 133.255 31.6055C134.648 31.7126 135.826 31.4984 136.79 31.177ZM134.219 21.0006C135.398 21.0006 136.255 21.8576 136.255 23.143C136.255 23.3572 136.255 23.5715 136.255 23.7857H131.113C131.541 22.0718 132.613 21.0006 134.219 21.0006Z" fill="black"/>
</g>
</g>
<defs>
<clipPath id="clip0_401_2221">
<rect width="167" height="48" fill="white"/>
</clipPath>
</defs>
</svg>
