<svg width="200" height="49" viewBox="0 0 200 49" fill="none" xmlns="http://www.w3.org/2000/svg">
<g id="svgexport-10">
<path id="path3080" d="M42.3466 7.2371H24.9835L14.4621 24.4139L24.9835 41.5905H42.3466L31.8266 24.4139L42.3466 7.2371ZM45.593 45.5631H3.29603V3.26615H45.593V45.5631ZM1.41406 47.4462H47.4772V1.38196H1.41406V47.4462Z" fill="#074598"/>
<path id="path3160" d="M188.543 25.125H190.612V34.9466L195.114 30.3975H197.929L192.721 35.364L198.587 41.6062H195.621L190.612 35.8481V41.6062H188.543V25.125ZM175.599 30.3988H177.599V32.1782H177.644C178.259 30.9039 179.753 30.136 181.314 30.136C184.216 30.136 185.511 31.9375 185.511 34.9479V41.6061H183.447V35.8049C183.447 33.191 182.873 31.9152 181.072 31.8054C178.721 31.8054 177.666 33.6959 177.666 36.4198V41.6061H175.6V30.3988H175.599ZM170.523 36.2668C170.084 36.2668 169.644 36.2222 169.204 36.2222C168.084 36.2222 165.315 36.3989 165.315 38.3758C165.315 39.5625 166.456 40.1995 167.402 40.1995C169.446 40.1995 170.523 38.9253 170.523 37.2559V36.2668ZM164.392 31.1904C165.425 30.5756 166.656 30.136 168.084 30.136C171.292 30.136 172.588 31.7177 172.588 34.7713V39.4094C172.588 40.6838 172.632 41.2777 172.677 41.6061H170.742V40.1565H170.698C170.217 40.8368 169.116 41.8704 167.226 41.8704C164.809 41.8704 163.117 40.8159 163.117 38.3758C163.117 35.5628 166.194 34.6836 168.326 34.6836C169.139 34.6836 169.71 34.6836 170.523 34.7281C170.523 32.7944 169.82 31.8054 167.754 31.8054C166.59 31.8054 165.336 32.245 164.501 32.9489L164.39 31.1905L164.392 31.1904ZM156.304 31.8054C154.062 31.8054 152.986 33.9366 152.986 36.0248C152.986 37.8918 153.953 40.1996 156.282 40.1996C158.501 40.1996 159.425 37.7165 159.38 35.958C159.425 33.9366 158.544 31.8054 156.304 31.8054ZM150.919 25.125H152.986V31.9361H153.03C153.668 30.9039 154.787 30.1346 156.744 30.1346C159.996 30.1346 161.579 32.7931 161.579 35.805C161.579 38.8808 160.149 41.869 156.766 41.869C154.765 41.869 153.491 40.8591 152.943 40.023H152.899V41.6062H150.92V25.125H150.919ZM145.557 25.125H147.622V41.6061H145.557V25.125ZM140.216 36.2668C139.776 36.2668 139.337 36.2222 138.897 36.2222C137.776 36.2222 135.007 36.3989 135.007 38.3758C135.007 39.5625 136.15 40.1995 137.095 40.1995C139.137 40.1995 140.216 38.9253 140.216 37.2559V36.2668ZM134.084 31.1904C135.119 30.5756 136.348 30.136 137.776 30.136C140.984 30.136 142.28 31.7177 142.28 34.7713V39.4094C142.28 40.6838 142.325 41.2777 142.369 41.6061H140.435V40.1565H140.391C139.905 40.8368 138.808 41.8704 136.919 41.8704C134.5 41.8704 132.808 40.8159 132.808 38.3758C132.808 35.5628 135.885 34.6836 138.017 34.6836C138.83 34.6836 139.401 34.6836 140.215 34.7281C140.215 32.7944 139.51 31.8054 137.445 31.8054C136.28 31.8054 135.028 32.245 134.194 32.9489L134.084 31.1904ZM120.614 30.3988H122.615V32.1782H122.659C123.275 30.9039 124.77 30.136 126.33 30.136C129.23 30.136 130.527 31.9375 130.527 34.9479V41.6061H128.461V35.8049C128.461 33.191 127.89 31.9152 126.087 31.8054C123.737 31.8054 122.68 33.6959 122.68 36.4198V41.6061H120.616V30.3988H120.614ZM112.635 40.1996C115.053 40.1996 116.13 38.0029 116.13 36.0026C116.13 33.8712 114.833 31.8054 112.635 31.8054C110.415 31.8054 109.12 33.8712 109.12 36.0026C109.12 38.0029 110.196 40.1996 112.635 40.1996ZM112.635 30.136C116.041 30.136 118.327 32.5969 118.327 36.0024C118.327 39.2119 115.997 41.8704 112.635 41.8704C109.25 41.8704 106.922 39.2119 106.922 36.0024C106.922 32.5969 109.207 30.136 112.635 30.136ZM105.557 32.0697H102.591V38.2005C102.591 39.4957 103.382 40.1996 104.327 40.1996C104.964 40.1996 105.426 40.0021 105.734 39.8046V41.5617C105.273 41.6938 104.635 41.869 103.976 41.869C101.845 41.869 100.525 40.8591 100.525 38.6178V32.0697H97.9986V30.3989H100.525V27.8057L102.591 27.1464V30.3989H105.557V32.0697ZM86.6592 30.3988H88.6597V32.1782H88.7031C89.318 30.9039 90.8121 30.136 92.3729 30.136C95.2736 30.136 96.5701 31.9375 96.5701 34.9479V41.6061H94.5042V35.8049C94.5042 33.191 93.9325 31.9152 92.131 31.8054C89.7798 31.8054 88.7254 33.6959 88.7254 36.4198V41.6061H86.6595L86.6592 30.3988ZM81.5802 36.2668C81.1406 36.2668 80.7024 36.2222 80.2613 36.2222C79.1415 36.2222 76.3731 36.3989 76.3731 38.3758C76.3731 39.5625 77.5152 40.1995 78.4598 40.1995C80.5048 40.1995 81.5802 38.9253 81.5802 37.2559V36.2668ZM75.4492 31.1904C76.4816 30.5756 77.7127 30.136 79.1415 30.136C82.3494 30.136 83.6461 31.7177 83.6461 34.7713V39.4094C83.6461 40.6838 83.6895 41.2777 83.734 41.6061H81.8003V40.1565H81.7558C81.273 40.8368 80.1741 41.8704 78.2834 41.8704C75.8669 41.8704 74.1754 40.8159 74.1754 38.3758C74.1754 35.5628 77.2512 34.6836 79.3839 34.6836C80.1962 34.6836 80.768 34.6836 81.5805 34.7281C81.5805 32.7944 80.878 31.8054 78.8121 31.8054C77.6477 31.8054 76.3942 32.245 75.5595 32.9489L75.4492 31.1904ZM61.0549 26.2671H63.2529V33.0142L69.8012 26.2671H72.7227L65.515 33.5193L73.2944 41.6061H70.0863L63.2529 34.0895V41.6061H61.0549V26.2671ZM129.03 11.351H130.963V13.0872H131.007C131.556 11.9228 132.744 11.0881 133.929 11.0881C134.544 11.0881 134.853 11.1534 135.293 11.2411V13.0872C134.917 12.9328 134.5 12.8896 134.148 12.8896C132.302 12.8896 131.094 14.6466 131.094 17.4595V22.5582H129.029L129.03 11.351ZM124.502 15.8778C124.502 14.1639 123.493 12.7575 121.713 12.7575C119.69 12.7575 118.854 14.4283 118.701 15.8778H124.502ZM125.843 22.0964C125.053 22.3829 124.151 22.8225 122.304 22.8225C118.329 22.8225 116.504 20.4047 116.504 16.7571C116.504 13.4392 118.591 11.0881 121.757 11.0881C125.492 11.0881 126.699 13.8119 126.699 17.4165H118.701C118.701 19.6354 120.437 21.1518 122.393 21.1518C123.757 21.1518 125.337 20.4492 125.843 20.0319V22.0964ZM104.26 6.07709H106.328V12.955H106.372C107.119 11.7683 108.416 11.0881 109.975 11.0881C112.875 11.0881 114.171 12.8896 114.171 15.9001V22.5582H112.108V16.7571C112.108 14.1417 111.536 12.8674 109.735 12.7574C107.383 12.7574 106.328 14.6466 106.328 17.372V22.5582H104.26V6.07709ZM102.064 13.2415C101.273 12.9118 100.482 12.7574 99.8223 12.7574C97.5145 12.7574 96.2179 14.8233 96.2179 16.9559C96.2179 18.9551 97.2947 21.1531 99.9532 21.1531C100.657 21.1531 101.536 20.9332 102.173 20.516L102.328 22.3607C101.471 22.7558 100.482 22.8225 99.7347 22.8225C96.35 22.8225 94.0212 20.164 94.0212 16.9559C94.0212 13.5489 96.3056 11.088 99.7347 11.088C100.569 11.088 101.648 11.2856 102.239 11.5276L102.064 13.2415ZM86.8345 11.351H88.7682V13.0872H88.8117C89.3609 11.9228 90.5489 11.0881 91.7342 11.0881C92.3491 11.0881 92.6579 11.1534 93.0976 11.2411V13.0872C92.7234 12.9328 92.3074 12.8896 91.954 12.8896C90.1093 12.8896 88.9005 14.6466 88.9005 17.4595V22.5582H86.8345V11.351ZM79.581 7.44043H81.6469V9.63847H79.581V7.44043ZM75.9779 7.44043H78.0438V9.63847H75.9779V7.44043ZM83.7559 22.5582H81.7568V20.7789H81.7156C81.1007 22.0533 79.6066 22.8225 78.0471 22.8225C75.1452 22.8225 73.8486 21.021 73.8486 18.0106V11.351H75.9144V17.1536C75.9144 19.7675 76.4863 21.0419 78.2878 21.1518C80.6403 21.1518 81.6948 19.2626 81.6948 16.5373V11.351H83.7593V22.5582H83.7559ZM61.0117 20.5844L68.9664 9.15741H61.276V7.22369H71.4942V9.20192L63.5603 20.629H71.625V22.5627H61.0117V20.5844Z" fill="#1A2527"/>
</g>
</svg>
