<svg width="35" height="29" viewBox="0 0 35 29" fill="none" xmlns="http://www.w3.org/2000/svg">
<path id="Vector" d="M2.91667 28.4629C1.30582 28.4629 0 27.1191 0 25.4629V3.46289C0 1.80602 1.30582 0.462891 2.91667 0.462891H32.0833C33.6936 0.462891 35 1.80602 35 3.46289V3.61477H30.4123L29.3793 6.58789L28.3524 3.61477H22.4462V7.56289L20.7387 3.61477H15.9627L10.9983 15.1566H14.9965V25.3941H27.3741L29.3125 23.2004L31.2509 25.3941H35V25.4629C35 27.1191 33.6936 28.4629 32.0833 28.4629H2.91667ZM29.3247 21.2129L26.7604 24.1066H23.7283L27.8299 19.6254L23.7283 15.0941H26.8516L29.3733 18.0129L31.9253 15.0941H35L30.8681 19.6004L35 24.1066H31.8767L29.3247 21.2129ZM35 17.0191V22.2254L32.612 19.6066L35 17.0191ZM18.691 22.0316H23.7344V24.1066H16.3212V15.1566H23.7344V17.2254H18.691V18.6254H23.6068V20.6441H18.691V22.0379V22.0316ZM32.6484 7.56914L30.4062 13.8566H28.316L26.0799 7.58789V13.8566H23.7283V4.90039H27.447L29.3854 10.4816L31.342 4.90039H35V13.8566H32.6484V7.56914ZM20.3255 12.0629H16.3212L15.5981 13.8566H12.9852L16.7769 4.90039H19.888L23.7344 13.8566H21.0547L20.3255 12.0629ZM18.3203 7.11914L17.1354 10.0504H19.4991L18.3203 7.11914Z" fill="#7B7B7B"/>
</svg>
