<svg width="39" height="29" viewBox="0 0 39 29" fill="none" xmlns="http://www.w3.org/2000/svg">
<g id="Group 909">
<path id="Vector" d="M34.9778 28.9472H3.6184C1.61622 28.9472 0 27.331 0 25.3288V3.6184C0 1.61622 1.61622 0 3.6184 0H34.9778C36.98 0 38.5962 1.61622 38.5962 3.6184V25.3288C38.5962 27.331 36.98 28.9472 34.9778 28.9472ZM3.6184 2.41226C2.94296 2.41226 2.41226 2.94296 2.41226 3.6184V25.3288C2.41226 26.0042 2.94296 26.5349 3.6184 26.5349H34.9778C35.6533 26.5349 36.184 26.0042 36.184 25.3288V3.6184C36.184 2.94296 35.6533 2.41226 34.9778 2.41226H3.6184Z" fill="#7B7B7B"/>
<path id="Vector_2" d="M31.8177 10.6848H30.0085C29.4537 10.6848 29.0436 10.8536 28.7783 11.4085L25.3046 19.3207H27.7651C27.7651 19.3207 28.1993 18.2593 28.2717 18.0181H31.287C31.3835 18.3075 31.5765 19.2966 31.5765 19.2966H33.7716L31.8177 10.7089V10.6848ZM28.9471 16.233C29.1642 15.7264 29.8879 13.8207 29.8879 13.8207C29.8879 13.869 30.105 13.3141 30.1774 13.0247L30.3462 13.7966L30.901 16.3054H28.9471V16.2571V16.233ZM25.4734 16.4742C25.4734 18.2593 23.8572 19.4413 21.3726 19.4413C20.3112 19.4413 19.298 19.2242 18.7432 18.983L19.0809 17.029L19.3704 17.1496C20.1423 17.4874 20.6489 17.608 21.5656 17.608C22.241 17.608 22.9647 17.3426 22.9647 16.7637C22.9647 16.3777 22.6752 16.1365 21.7344 15.7023C20.8419 15.2681 19.6599 14.5926 19.6599 13.3865C19.6599 11.6979 21.3002 10.54 23.6401 10.54C24.5327 10.54 25.2805 10.7089 25.7629 10.926L25.4252 12.7834L25.2563 12.6146C24.8221 12.4457 24.2914 12.2769 23.4713 12.2769C22.5787 12.3251 22.1686 12.7111 22.1686 13.0488C22.1686 13.4348 22.6752 13.7242 23.4713 14.1102C24.8221 14.7374 25.4493 15.4611 25.4493 16.4742H25.4734ZM4.82446 10.7571L4.87271 10.5883H8.51523C9.0218 10.5883 9.40777 10.7571 9.52838 11.312L10.3244 15.1233C9.52838 13.097 7.64681 11.4326 4.82446 10.7571Z" fill="#7B7B7B"/>
<path id="Vector_3" d="M15.4383 10.6879L11.7475 19.2756H9.23876L7.11597 12.087C8.63569 13.0519 9.91419 14.5958 10.3725 15.633L10.6379 16.5256L12.9295 10.6396H15.4383V10.6879ZM16.4273 10.6396H18.7431L17.2716 19.2756H14.9558L16.4273 10.6396Z" fill="#7B7B7B"/>
</g>
</svg>
