<svg width="41" height="35" viewBox="0 0 41 35" fill="none" xmlns="http://www.w3.org/2000/svg">
<path id="Vector" d="M40.0053 13.1076C40.0062 12.5646 39.8632 12.031 39.591 11.5612C39.3187 11.0913 38.9269 10.7019 38.4553 10.4326L21.6053 0.432624C21.1197 0.149295 20.5676 0 20.0053 0C19.4431 0 18.891 0.149295 18.4053 0.432624L1.53033 10.4326C1.06401 10.7093 0.677711 11.1026 0.4094 11.5738C0.141089 12.045 0 12.5779 0 13.1201C0 13.6624 0.141089 14.1953 0.4094 14.6665C0.677711 15.1377 1.06401 15.5309 1.53033 15.8076L6.33033 18.6076V25.6326C6.33322 26.1817 6.47732 26.7207 6.74877 27.1979C7.02023 27.6752 7.40991 28.0745 7.88033 28.3576L18.5053 34.4826C18.9797 34.7453 19.5131 34.8831 20.0553 34.8831C20.5976 34.8831 21.1309 34.7453 21.6053 34.4826L32.2303 28.3576C32.7008 28.0745 33.0904 27.6752 33.3619 27.1979C33.6333 26.7207 33.7774 26.1817 33.7803 25.6326V18.5326L36.8803 16.7076V23.5076H40.0053V13.1076ZM30.6803 25.6076L20.0053 31.7576L9.45533 25.6326V20.4576L18.4053 25.7826C18.8926 26.0611 19.4441 26.2075 20.0053 26.2075C20.5665 26.2075 21.1181 26.0611 21.6053 25.7826L30.6553 20.3826L30.6803 25.6076ZM20.0053 23.0826L3.13033 13.0826L20.0053 3.05762L36.8803 13.0576L20.0053 23.0826Z" fill="white"/>
</svg>
