<svg width="40" height="40" viewBox="0 0 40 40" fill="none" xmlns="http://www.w3.org/2000/svg">
<path id="Vector" d="M20 0C31.046 0 40 8.954 40 20C40 31.046 31.046 40 20 40C8.954 40 0 31.046 0 20C0 8.954 8.954 0 20 0ZM20 4C15.7565 4 11.6869 5.68571 8.68629 8.68629C5.68571 11.6869 4 15.7565 4 20C4 24.2435 5.68571 28.3131 8.68629 31.3137C11.6869 34.3143 15.7565 36 20 36C24.2435 36 28.3131 34.3143 31.3137 31.3137C34.3143 28.3131 36 24.2435 36 20C36 15.7565 34.3143 11.6869 31.3137 8.68629C28.3131 5.68571 24.2435 4 20 4ZM19.98 16C21.096 16 22 16.904 22 18.02V28.268C22.3813 28.4881 22.6792 28.8279 22.8477 29.2347C23.0162 29.6414 23.0457 30.0924 22.9318 30.5176C22.8178 30.9429 22.5667 31.3187 22.2175 31.5867C21.8682 31.8547 21.4403 32 21 32H20.02C19.7547 32 19.4921 31.9478 19.247 31.8462C19.0019 31.7447 18.7792 31.5959 18.5916 31.4084C18.4041 31.2208 18.2553 30.9981 18.1538 30.753C18.0522 30.5079 18 30.2453 18 29.98V20C17.4696 20 16.9609 19.7893 16.5858 19.4142C16.2107 19.0391 16 18.5304 16 18C16 17.4696 16.2107 16.9609 16.5858 16.5858C16.9609 16.2107 17.4696 16 18 16H19.98ZM20 10C20.5304 10 21.0391 10.2107 21.4142 10.5858C21.7893 10.9609 22 11.4696 22 12C22 12.5304 21.7893 13.0391 21.4142 13.4142C21.0391 13.7893 20.5304 14 20 14C19.4696 14 18.9609 13.7893 18.5858 13.4142C18.2107 13.0391 18 12.5304 18 12C18 11.4696 18.2107 10.9609 18.5858 10.5858C18.9609 10.2107 19.4696 10 20 10Z" fill="white"/>
</svg>
