<svg width="35" height="40" viewBox="0 0 35 40" fill="none" xmlns="http://www.w3.org/2000/svg">
<path id="Vector" d="M9.33333 18.6667H8V21.3333H9.33333V18.6667ZM25.3333 21.3333H26.6667V18.6667H25.3333V21.3333ZM9.33333 10.6667H8V13.3333H9.33333V10.6667ZM14.6667 13.3333H16V10.6667H14.6667V13.3333ZM25.3333 1.33333L26.2773 0.389333L25.8853 0H25.3333V1.33333ZM33.3333 9.33333H34.6667V8.78133L34.2773 8.38933L33.3333 9.33333ZM17.3333 30.6667L17.9307 31.8587L18.0373 31.8053L18.1333 31.7333L17.3333 30.6667ZM9.33333 21.3333H25.3333V18.6667H9.33333V21.3333ZM9.33333 13.3333H14.6667V10.6667H9.33333V13.3333ZM30.6667 37.3333H4V40H30.6667V37.3333ZM2.66667 36V4H0V36H2.66667ZM4 2.66667H25.3333V0H4V2.66667ZM32 9.33333V36H34.6667V9.33333H32ZM24.3893 2.27733L32.3893 10.2773L34.2773 8.38933L26.2773 0.389333L24.3893 2.27733ZM4 37.3333C3.64638 37.3333 3.30724 37.1929 3.05719 36.9428C2.80714 36.6928 2.66667 36.3536 2.66667 36H0C0 37.0609 0.421427 38.0783 1.17157 38.8284C1.92172 39.5786 2.93913 40 4 40V37.3333ZM30.6667 40C31.7275 40 32.7449 39.5786 33.4951 38.8284C34.2452 38.0783 34.6667 37.0609 34.6667 36H32C32 36.3536 31.8595 36.6928 31.6095 36.9428C31.3594 37.1929 31.0203 37.3333 30.6667 37.3333V40ZM2.66667 4C2.66667 3.64638 2.80714 3.30724 3.05719 3.05719C3.30724 2.80714 3.64638 2.66667 4 2.66667V0C2.93913 0 1.92172 0.421427 1.17157 1.17157C0.421427 1.92172 0 2.93913 0 4H2.66667ZM11.9307 31.088C12.2267 30.2 13.0693 29.376 14.144 29.088C15.1493 28.8187 16.4427 28.9947 17.7227 30.2773L19.6107 28.3893C17.6907 26.4693 15.4267 25.9813 13.4533 26.512C11.552 27.024 9.99467 28.4667 9.4 30.2453L11.9307 31.088ZM17.7227 30.2773C17.7977 30.3502 17.8681 30.4277 17.9333 30.5093L20.04 28.872C19.907 28.7033 19.7636 28.543 19.6107 28.392L17.7227 30.2773ZM17.9333 30.5093C18.1413 30.776 18.0933 30.8613 18.1013 30.8027C18.1067 30.7653 18.1173 30.8267 17.9573 30.9707C17.7268 31.1634 17.4653 31.3158 17.184 31.4213C16.846 31.5573 16.4934 31.654 16.1333 31.7093C15.9137 31.7511 15.689 31.7601 15.4667 31.736C15.4213 31.7253 15.5147 31.736 15.6533 31.8347C15.8234 31.9659 15.9484 32.1468 16.011 32.3523C16.0736 32.5577 16.0707 32.7776 16.0027 32.9813C15.9876 33.0255 15.9669 33.0676 15.9413 33.1067C15.936 33.112 15.9813 33.0533 16.1333 32.928C16.4373 32.6827 16.9973 32.3253 17.9307 31.8613L16.736 29.4747C15.7307 29.976 14.976 30.4347 14.4587 30.8533C14.1963 31.0581 13.9631 31.2976 13.7653 31.5653C13.5138 31.902 13.3824 32.3132 13.392 32.7333C13.4035 32.9793 13.4707 33.2193 13.5885 33.4355C13.7063 33.6517 13.8716 33.8383 14.072 33.9813C14.3733 34.2053 14.7067 34.3013 14.952 34.352C15.4507 34.4507 16.0187 34.424 16.5333 34.3467C17.5467 34.192 18.8587 33.7547 19.752 32.944C20.216 32.52 20.656 31.912 20.7493 31.1147C20.8453 30.2987 20.552 29.5333 20.0373 28.8747L17.9333 30.5093ZM18.1333 31.7333C18.56 31.4071 19.0236 31.1323 19.5147 30.9147L18.456 28.4667C17.816 28.744 17.176 29.12 16.5333 29.6L18.1333 31.7333ZM19.5147 30.9147C21.248 30.1653 22.7973 30.56 24.384 31.3147C24.784 31.5067 25.1733 31.7147 25.568 31.928C25.952 32.136 26.3573 32.3573 26.7413 32.5547C27.4773 32.9253 28.3893 33.3333 29.3333 33.3333V30.6667C29.0827 30.6667 28.672 30.5413 27.9467 30.176C27.6053 30 27.248 29.8027 26.8373 29.5813C26.4373 29.3653 25.9947 29.128 25.5307 28.9093C23.6693 28.0213 21.2347 27.2667 18.456 28.4667L19.5147 30.9147Z" fill="white"/>
</svg>
