<svg width="35" height="40" viewBox="0 0 35 40" fill="none" xmlns="http://www.w3.org/2000/svg">
<g id="Group 663">
<path id="Vector" d="M14.2846 20.8428L10.5846 17.1428L8.57031 19.157L14.2846 24.8713L25.7132 13.4428L23.6989 11.4285L14.2846 20.8428Z" fill="white"/>
<path id="Vector_2" d="M17.1429 40L8.32001 35.2957C5.80477 33.9576 3.70139 31.9598 2.23561 29.5167C0.769829 27.0737 -0.00301866 24.2776 8.86082e-06 21.4286V2.85714C0.000765256 2.09961 0.302028 1.37333 0.837682 0.837673C1.37334 0.302019 2.09962 0.000756395 2.85715 0H31.4286C32.1861 0.000756395 32.9124 0.302019 33.448 0.837673C33.9837 1.37333 34.285 2.09961 34.2857 2.85714V21.4286C34.2887 24.2776 33.5159 27.0737 32.0501 29.5167C30.5843 31.9598 28.481 33.9576 25.9657 35.2957L17.1429 40ZM2.85715 2.85714V21.4286C2.85478 23.7597 3.4873 26.0475 4.68681 28.0464C5.88633 30.0452 7.60755 31.6797 9.66572 32.7743L17.1429 36.7614L24.62 32.7757C26.6784 31.681 28.3998 30.0463 29.5993 28.0472C30.7988 26.048 31.4312 23.76 31.4286 21.4286V2.85714H2.85715Z" fill="white"/>
</g>
</svg>
