<svg width="54" height="54" viewBox="0 0 54 54" fill="none" xmlns="http://www.w3.org/2000/svg">
<path d="M23.625 27.9956L19.2544 23.625L16.875 26.0044L23.625 32.7544L37.125 19.2544L34.7456 16.875L23.625 27.9956Z" fill="#0B2840"/>
<path d="M27 50.625L16.578 45.0681C13.6069 43.4874 11.1223 41.1275 9.39081 38.2417C7.65936 35.3558 6.74643 32.0529 6.75001 28.6875V6.75C6.7509 5.85517 7.10677 4.99724 7.73951 4.3645C8.37225 3.73176 9.23018 3.37589 10.125 3.375H43.875C44.7698 3.37589 45.6278 3.73176 46.2605 4.3645C46.8932 4.99724 47.2491 5.85517 47.25 6.75V28.6875C47.2536 32.0529 46.3407 35.3558 44.6092 38.2417C42.8778 41.1275 40.3931 43.4874 37.422 45.0681L27 50.625ZM10.125 6.75V28.6875C10.1222 31.4412 10.8694 34.1436 12.2863 36.5048C13.7032 38.8659 15.7364 40.7966 18.1676 42.0896L27 46.7994L35.8324 42.0913C38.2639 40.7982 40.2972 38.8672 41.7142 36.5057C43.1311 34.1443 43.8781 31.4415 43.875 28.6875V6.75H10.125Z" fill="#0B2840"/>
</svg>
