<svg width="54" height="54" viewBox="0 0 54 54" fill="none" xmlns="http://www.w3.org/2000/svg">
<path d="M36 13.5C36 9.2565 36 7.137 34.6815 5.8185C33.363 4.5 31.2435 4.5 27 4.5C22.7565 4.5 20.637 4.5 19.3185 5.8185C18 7.137 18 9.2565 18 13.5M4.5 31.5C4.5 23.0153 4.5 18.7717 7.137 16.137C9.77175 13.5 14.0153 13.5 22.5 13.5H31.5C39.9847 13.5 44.2282 13.5 46.863 16.137C49.5 18.7717 49.5 23.0153 49.5 31.5C49.5 39.9847 49.5 44.2282 46.863 46.863C44.2282 49.5 39.9847 49.5 31.5 49.5H22.5C14.0153 49.5 9.77175 49.5 7.137 46.863C4.5 44.2282 4.5 39.9847 4.5 31.5Z" stroke="#0B2840" stroke-width="3"/>
<path d="M27 38.9993C29.4863 38.9993 31.5 37.3207 31.5 35.2507C31.5 33.1807 29.4863 31.5 27 31.5C24.5137 31.5 22.5 29.8215 22.5 27.7493C22.5 25.6793 24.5137 24.0007 27 24.0007M27 38.9993C24.5137 38.9993 22.5 37.3207 22.5 35.2507M27 38.9993V40.5M27 24.0007V22.5M27 24.0007C29.4863 24.0007 31.5 25.6793 31.5 27.7493" stroke="#0B2840" stroke-width="3" stroke-linecap="round"/>
</svg>
