<svg width="56" height="54" viewBox="0 0 56 54" fill="none" xmlns="http://www.w3.org/2000/svg">
<path id="Vector" d="M4 8.66667V13.3333H16.344C16.8743 13.3329 17.3826 13.1218 17.7573 12.7467L21.8373 8.66667L17.7573 4.58667C17.3826 4.21149 16.8743 4.00047 16.344 4H8.66667C7.42899 4 6.24201 4.49167 5.36684 5.36684C4.49167 6.24201 4 7.42899 4 8.66667ZM0 8.66667C0 6.36812 0.913092 4.16372 2.53841 2.53841C4.16372 0.913092 6.36812 0 8.66667 0H16.344C17.9344 0.000693214 19.4594 0.632771 20.584 1.75733L25.4987 6.66667H44.6693C46.9674 6.66737 49.1711 7.58078 50.7959 9.20602C52.4206 10.8313 53.3333 13.0353 53.3333 15.3333V26.16C52.1432 25.0167 50.7964 24.0488 49.3333 23.2853V15.3333C49.3333 14.0957 48.8417 12.9087 47.9665 12.0335C47.0913 11.1583 45.9043 10.6667 44.6667 10.6667H25.4933L20.5867 15.576C20.0295 16.1332 19.3681 16.5751 18.6401 16.8766C17.9122 17.1782 17.1319 17.3333 16.344 17.3333H4V39.3333C4 41.9093 6.09067 44 8.66667 44H24.8347C25.296 45.424 25.9333 46.7653 26.7253 48H8.66667C6.36812 48 4.16372 47.0869 2.53841 45.4616C0.913092 43.8363 0 41.6319 0 39.3333V8.66667ZM56 38.6667C56 34.7768 54.4548 31.0463 51.7042 28.2958C48.9537 25.5452 45.2232 24 41.3333 24C37.4435 24 33.713 25.5452 30.9624 28.2958C28.2119 31.0463 26.6667 34.7768 26.6667 38.6667C26.6667 42.5565 28.2119 46.287 30.9624 49.0376C33.713 51.7881 37.4435 53.3333 41.3333 53.3333C45.2232 53.3333 48.9537 51.7881 51.7042 49.0376C54.4548 46.287 56 42.5565 56 38.6667ZM42.6667 40L42.6693 46.6747C42.6693 47.0283 42.5289 47.3674 42.2788 47.6175C42.0288 47.8675 41.6896 48.008 41.336 48.008C40.9824 48.008 40.6432 47.8675 40.3932 47.6175C40.1431 47.3674 40.0027 47.0283 40.0027 46.6747V40H33.3227C32.969 40 32.6299 39.8595 32.3799 39.6095C32.1298 39.3594 31.9893 39.0203 31.9893 38.6667C31.9893 38.313 32.1298 37.9739 32.3799 37.7239C32.6299 37.4738 32.969 37.3333 33.3227 37.3333H40V30.6667C40 30.313 40.1405 29.9739 40.3905 29.7239C40.6406 29.4738 40.9797 29.3333 41.3333 29.3333C41.687 29.3333 42.0261 29.4738 42.2761 29.7239C42.5262 29.9739 42.6667 30.313 42.6667 30.6667V37.3333H49.3253C49.679 37.3333 50.0181 37.4738 50.2681 37.7239C50.5182 37.9739 50.6587 38.313 50.6587 38.6667C50.6587 39.0203 50.5182 39.3594 50.2681 39.6095C50.0181 39.8595 49.679 40 49.3253 40H42.6667Z" fill="#7B7B7B"/>
</svg>
