<svg width="60" height="60" viewBox="0 0 60 60" fill="none" xmlns="http://www.w3.org/2000/svg">
<path id="Vector" d="M33.75 16.875C33.75 21.3505 31.9721 25.6427 28.8074 28.8074C25.6427 31.9721 21.3505 33.75 16.875 33.75C12.3995 33.75 8.10725 31.9721 4.94257 28.8074C1.7779 25.6427 0 21.3505 0 16.875C0 12.3995 1.7779 8.10725 4.94257 4.94257C8.10725 1.7779 12.3995 0 16.875 0C21.3505 0 25.6427 1.7779 28.8074 4.94257C31.9721 8.10725 33.75 12.3995 33.75 16.875ZM18.75 9.375C18.75 8.87772 18.5525 8.40081 18.2008 8.04918C17.8492 7.69754 17.3723 7.5 16.875 7.5C16.3777 7.5 15.9008 7.69754 15.5492 8.04918C15.1975 8.40081 15 8.87772 15 9.375V15H9.375C8.87772 15 8.40081 15.1975 8.04918 15.5492C7.69754 15.9008 7.5 16.3777 7.5 16.875C7.5 17.3723 7.69754 17.8492 8.04918 18.2008C8.40081 18.5525 8.87772 18.75 9.375 18.75H15V24.375C15 24.8723 15.1975 25.3492 15.5492 25.7008C15.9008 26.0525 16.3777 26.25 16.875 26.25C17.3723 26.25 17.8492 26.0525 18.2008 25.7008C18.5525 25.3492 18.75 24.8723 18.75 24.375V18.75H24.375C24.8723 18.75 25.3492 18.5525 25.7008 18.2008C26.0525 17.8492 26.25 17.3723 26.25 16.875C26.25 16.3777 26.0525 15.9008 25.7008 15.5492C25.3492 15.1975 24.8723 15 24.375 15H18.75V9.375ZM48.75 11.25H36.7238C36.3568 9.95463 35.8632 8.69857 35.25 7.5H48.75C51.7337 7.5 54.5952 8.68526 56.705 10.795C58.8147 12.9048 60 15.7663 60 18.75V48.75C60 51.7337 58.8147 54.5952 56.705 56.705C54.5952 58.8147 51.7337 60 48.75 60H18.75C15.7663 60 12.9048 58.8147 10.795 56.705C8.68526 54.5952 7.5 51.7337 7.5 48.75V35.25C8.68875 35.8575 9.94125 36.3525 11.25 36.7238V48.75C11.25 50.1488 11.6325 51.4575 12.3 52.575L29.8088 35.37C30.8606 34.3371 32.2758 33.7584 33.75 33.7584C35.2242 33.7584 36.6394 34.3371 37.6912 35.37L55.2038 52.575C55.8911 51.4177 56.2526 50.096 56.25 48.75V18.75C56.25 16.7609 55.4598 14.8532 54.0533 13.4467C52.6468 12.0402 50.7391 11.25 48.75 11.25ZM48.75 24.375C48.75 25.1137 48.6045 25.8451 48.3218 26.5276C48.0391 27.2101 47.6248 27.8301 47.1025 28.3525C46.5801 28.8748 45.9601 29.2891 45.2776 29.5718C44.5951 29.8545 43.8637 30 43.125 30C42.3863 30 41.6549 29.8545 40.9724 29.5718C40.2899 29.2891 39.6699 28.8748 39.1475 28.3525C38.6252 27.8301 38.2109 27.2101 37.9282 26.5276C37.6455 25.8451 37.5 25.1137 37.5 24.375C37.5 22.8832 38.0926 21.4524 39.1475 20.3975C40.2024 19.3426 41.6332 18.75 43.125 18.75C44.6168 18.75 46.0476 19.3426 47.1025 20.3975C48.1574 21.4524 48.75 22.8832 48.75 24.375ZM45 24.375C45 23.8777 44.8025 23.4008 44.4508 23.0492C44.0992 22.6975 43.6223 22.5 43.125 22.5C42.6277 22.5 42.1508 22.6975 41.7992 23.0492C41.4475 23.4008 41.25 23.8777 41.25 24.375C41.25 24.8723 41.4475 25.3492 41.7992 25.7008C42.1508 26.0525 42.6277 26.25 43.125 26.25C43.6223 26.25 44.0992 26.0525 44.4508 25.7008C44.8025 25.3492 45 24.8723 45 24.375ZM14.955 55.2225C16.1054 55.8981 17.4159 56.2529 18.75 56.25H48.75C50.1375 56.25 51.4313 55.875 52.545 55.2225L35.0625 38.0475C34.712 37.7039 34.2408 37.5115 33.75 37.5115C33.2592 37.5115 32.788 37.7039 32.4375 38.0475L14.955 55.2225Z" fill="#959799"/>
</svg>
