<svg width="54" height="54" viewBox="0 0 54 54" fill="none" xmlns="http://www.w3.org/2000/svg">
<g id="svgexport-4">
<path id="Vector" d="M43.4154 10.7135H5.42692C3.92858 10.7135 2.71346 11.926 2.71346 13.4269V35.1346C2.71346 36.6355 3.92858 37.8481 5.42692 37.8481H28.6779L27.9995 40.5615H5.42692C2.4294 40.5615 0 38.1279 0 35.1346V13.4269C0 10.4294 2.4294 8 5.42692 8H43.4154C46.4087 8 48.8423 10.4294 48.8423 13.4269V18.8538C47.918 18.8284 46.9938 18.9895 46.1288 19.3287V13.4269C46.1288 11.926 44.9163 10.7135 43.4154 10.7135ZM21.7077 28.351C21.7077 27.6048 22.3182 26.9942 23.0644 26.9942H31.2048C31.951 26.9942 32.5615 27.6048 32.5615 28.351C32.5615 29.0972 31.951 29.7077 31.2048 29.7077H23.0644C22.3182 29.7077 21.7077 29.0972 21.7077 28.351ZM39.3452 18.8538C40.0914 18.8538 40.7019 19.4644 40.7019 20.2106C40.7019 20.9568 40.0914 21.5673 39.3452 21.5673H23.0644C22.3182 21.5673 21.7077 20.9568 21.7077 20.2106C21.7077 19.4644 22.3182 18.8538 23.0644 18.8538H39.3452ZM12.1343 14.7837C12.9568 14.7837 13.491 15.3942 13.491 16.1404V16.9544C14.0676 17.0392 15.1021 17.2597 15.6109 17.3699C16.3401 17.565 16.7641 18.3112 16.5776 19.0319C16.3825 19.7612 15.6363 20.1851 14.9156 19.9986C14.5764 19.9053 13.4147 19.6764 13.0416 19.617C11.9477 19.4474 11.0319 19.5831 10.4214 19.8629C9.81086 20.1427 9.50559 20.4989 9.53103 20.7278C9.47168 21.1518 9.52255 21.3299 9.57343 21.4316C9.62431 21.5503 9.73454 21.6945 9.98893 21.8641C10.5655 22.2542 11.4389 22.5255 12.6176 22.8816L12.6685 22.8986C13.7115 23.2123 15.0343 23.6109 16.0179 24.3232C16.5436 24.7132 17.0354 25.222 17.3407 25.9173C17.646 26.6211 17.7053 27.4012 17.5697 28.2238C17.3068 29.6314 16.3316 30.7168 15.0851 31.251C14.6103 31.4545 14.1015 31.5902 13.5673 31.6665V32.4212C13.5673 33.1674 12.9568 33.7779 12.2106 33.7779C11.4644 33.7779 10.8538 33.1674 10.8538 32.4212V31.6071C10.0568 31.4545 8.86115 31.0475 8.10223 30.7846C7.95299 30.7337 7.81986 30.6913 7.71217 30.6574C7.00073 30.42 6.61661 29.6483 6.85319 28.9361C7.08977 28.2322 7.85801 27.8422 8.57284 28.0796C8.65764 28.139 8.90354 28.1983 9.09009 28.2577C9.89565 28.529 10.8454 28.8513 11.3881 28.8682C12.5158 29.1226 13.4232 29.0124 14.0167 28.758C14.5679 28.5206 14.8138 28.1898 14.8901 27.7574C14.958 27.3673 14.9071 27.1384 14.8477 27.0027C14.7884 26.8586 14.6612 26.6974 14.4153 26.5194C13.8641 26.1124 12.9992 25.8325 11.8375 25.4764L11.6594 25.4255C10.6588 25.1202 9.40384 24.7471 8.46854 24.1112C7.94111 23.755 7.43658 23.2632 7.1169 22.5933C6.79213 21.9065 6.71582 21.1433 6.85573 20.3378C7.09994 18.9217 8.10392 17.9381 9.30208 17.3954C9.77694 17.1749 10.3027 17.0223 10.8538 16.929V16.1404C10.8538 15.3942 11.4644 14.7837 12.2106 14.7837H12.1343ZM45.5777 23.0428C47.1718 21.4486 49.7496 21.4486 51.3353 23.0428L52.8107 24.5097C54.3964 26.1039 54.3964 28.6817 52.8107 30.2673L39.7776 43.3004C39.2519 43.8262 38.599 44.1908 37.8867 44.301L31.5355 45.963C31.0691 46.0733 30.5858 45.9376 30.2466 45.6069C29.9074 45.2677 29.7718 44.7759 29.8905 44.318L31.4762 37.9668C31.6542 37.246 32.0273 36.5931 32.5446 36.0758L45.5777 23.0428ZM49.4189 24.9591C48.8847 24.4334 48.0283 24.4334 47.5025 24.9591L45.3911 27.0621L48.7829 30.4539L50.8944 28.2746C51.4201 27.8167 51.4201 26.9603 50.8944 26.4346L49.4189 24.9591ZM34.1048 38.6197L32.994 42.7832L37.2253 41.7402C37.4627 41.6808 37.6832 41.5621 37.8528 41.3841L46.8666 32.3703L43.4747 28.9869L34.4694 37.9922C34.2914 38.1703 34.1642 38.3823 34.1048 38.6197Z" fill="#00F8F7"/>
</g>
</svg>
