<svg width="55" height="54" viewBox="0 0 55 54" fill="none" xmlns="http://www.w3.org/2000/svg">
<g id="svgexport-3" clip-path="url(#clip0_903_883)">
<path id="Vector" d="M31 6H7C5.34344 6 4 7.34344 4 9V45C4 46.6594 5.34344 48 7 48H28.7688C29.6031 49.1063 30.7469 50.0906 31.9094 50.9344C31.6188 50.9719 31.3094 51 31 51H7C3.68594 51 1 48.3094 1 45V9C1 5.68594 3.68594 3 7 3H31C34.3094 3 37 5.68594 37 9V21.6188C35.95 21.9188 34.9469 22.3125 34 22.8V9C34 7.34344 32.6594 6 31 6ZM7 16.5C7 15.675 7.67125 15 8.5 15H29.5C30.325 15 31 15.675 31 16.5C31 17.325 30.325 18 29.5 18H8.5C7.67125 18 7 17.325 7 16.5ZM26.5 24C27.325 24 28 24.675 28 25.5C28 26.325 27.325 27 26.5 27H8.5C7.67125 27 7 26.325 7 25.5C7 24.675 7.67125 24 8.5 24H26.5ZM20.5 33C21.325 33 22 33.675 22 34.5C22 35.325 21.325 36 20.5 36H8.5C7.67125 36 7 35.325 7 34.5C7 33.675 7.67125 33 8.5 33H20.5ZM41.5 30C42.7469 30 43.75 31.0031 43.75 32.25C43.75 33.4969 42.7469 34.5 41.5 34.5C40.2531 34.5 39.25 33.4969 39.25 32.25C39.25 31.0031 40.2531 30 41.5 30ZM39.9156 42V39C39.175 38.9156 38.5 38.325 38.5 37.5C38.5 36.675 39.175 36 40 36H41.4156C42.325 36 42.9156 36.675 42.9156 37.5L43 42C43.825 42 44.5 42.675 44.5 43.5C44.5 44.325 43.825 45 43 45H40C39.175 45 38.5 44.325 38.5 43.5C38.5 42.675 39.175 42 39.9156 42ZM41.5 51C34.0469 51 28 44.9531 28 37.5C28 30.0469 34.0469 24 41.5 24C48.9531 24 55 30.0469 55 37.5C55 44.9531 48.9531 51 41.5 51ZM52 37.5C52 31.6969 47.3031 27 41.5 27C35.6969 27 31 31.6969 31 37.5C31 43.3031 35.6969 48 41.5 48C47.3031 48 52 43.3031 52 37.5Z" fill="#00F8F7"/>
</g>
<defs>
<clipPath id="clip0_903_883">
<rect width="54" height="54" fill="white" transform="translate(0.945312)"/>
</clipPath>
</defs>
</svg>
