<svg width="55" height="54" viewBox="0 0 55 54" fill="none" xmlns="http://www.w3.org/2000/svg">
<g id="svgexport-2 1" clip-path="url(#clip0_903_879)">
<path id="Vector" d="M38.8 18.5H6.4C4.90909 18.5 3.7 19.7066 3.7 21.2V42.8C3.7 44.2934 4.90909 45.5 6.4 45.5H31.3919C32.2441 46.5209 33.2228 47.4322 34.3112 48.2H6.4C3.41734 48.2 1 45.7784 1 42.8V21.2C1 18.2216 3.41734 15.8 6.4 15.8H38.8C41.7784 15.8 44.2 18.2216 44.2 21.2V21.2591C43.7528 21.2169 43.3056 21.2 42.85 21.2C42.3944 21.2 41.9472 21.2169 41.5 21.2591V21.2C41.5 19.7066 40.2934 18.5 38.8 18.5ZM38.8 10.4C39.5425 10.4 40.15 11.0041 40.15 11.75C40.15 12.4959 39.5425 13.1 38.8 13.1H6.4C5.65413 13.1 5.05 12.4959 5.05 11.75C5.05 11.0041 5.65413 10.4 6.4 10.4H38.8ZM34.75 5C35.4925 5 36.1 5.60446 36.1 6.35C36.1 7.09588 35.4925 7.7 34.75 7.7H10.45C9.7075 7.7 9.1 7.09588 9.1 6.35C9.1 5.60446 9.7075 5 10.45 5H34.75ZM38.125 34.025C38.125 31.4178 40.2428 29.3 42.85 29.3C45.4572 29.3 47.575 31.4178 47.575 34.025C47.575 36.6322 45.4572 38.75 42.85 38.75C40.2428 38.75 38.125 36.6322 38.125 34.025ZM42.85 36.05C43.9722 36.05 44.875 35.1472 44.875 34.025C44.875 32.9028 43.9722 32 42.85 32C41.7278 32 40.825 32.9028 40.825 34.025C40.825 35.1472 41.7278 36.05 42.85 36.05ZM55 36.05C55 42.7578 49.5578 48.2 42.85 48.2C36.1422 48.2 30.7 42.7578 30.7 36.05C30.7 29.3422 36.1422 23.9 42.85 23.9C49.5578 23.9 55 29.3422 55 36.05ZM45.2294 42.8H40.4706C39.4244 42.8 38.4541 43.2641 37.7875 44.0319C39.2472 44.96 40.9853 45.5 42.85 45.5C44.7147 45.5 46.4528 44.96 47.8366 44.0319C47.2544 43.2641 46.2756 42.8 45.2294 42.8ZM52.3 36.05C52.3 30.8272 48.0728 26.6 42.85 26.6C37.6272 26.6 33.4 30.8272 33.4 36.05C33.4 38.4294 34.2859 40.6147 35.7372 42.2769C36.91 40.91 38.6228 40.1 40.4706 40.1H45.2294C47.0772 40.1 48.79 40.91 49.9628 42.2769C51.4141 40.6147 52.3 38.4294 52.3 36.05Z" fill="#00F8F7"/>
</g>
<defs>
<clipPath id="clip0_903_879">
<rect width="54" height="54" fill="white" transform="translate(0.945312)"/>
</clipPath>
</defs>
</svg>
