<svg width="54" height="54" viewBox="0 0 54 54" fill="none" xmlns="http://www.w3.org/2000/svg">
<g id="formkit:time">
<path id="Vector" d="M39.0625 35.4375H25.5625C24.6344 35.4375 23.875 36.1969 23.875 37.125C23.875 38.0531 24.6297 38.8125 25.5625 38.8125H39.0625C39.9953 38.8125 40.75 38.0578 40.75 37.125C40.75 36.1922 39.9906 35.4375 39.0625 35.4375ZM39.0625 25.3125H28.9375C28.0094 25.3125 27.25 26.0719 27.25 27C27.25 27.9281 28.0047 28.6875 28.9375 28.6875H39.0625C39.9906 28.6875 40.75 27.9281 40.75 27C40.75 26.0719 39.9906 25.3125 39.0625 25.3125ZM17.125 34.5938C15.7275 34.5938 14.5938 35.7265 14.5938 37.125C14.5938 38.5225 15.7275 39.6562 17.125 39.6562C18.5235 39.6562 19.6562 38.5225 19.6562 37.125C19.6562 35.7223 18.5277 34.5938 17.125 34.5938ZM40.75 6.75C39.8172 6.75 39.0625 7.50473 39.0625 8.4375C39.0625 9.37027 39.8219 10.125 40.75 10.125C42.6105 10.125 44.125 11.6374 44.125 13.5V47.25C44.125 49.1126 42.6105 50.625 40.75 50.625H13.75C11.8895 50.625 10.375 49.1126 10.375 47.25V13.5C10.375 11.6374 11.8895 10.125 13.75 10.125C14.6828 10.125 15.4375 9.37027 15.4375 8.4375C15.4375 7.50473 14.6823 6.75 13.75 6.75C10.027 6.75 7 9.77906 7 13.5V47.25C7 50.9709 10.027 54 13.75 54H40.75C44.473 54 47.5 50.9709 47.5 47.25V13.5C47.5 9.77906 44.473 6.75 40.75 6.75ZM18.8125 13.5H35.6875C36.6156 13.5 37.375 12.7406 37.375 11.8125C37.375 10.8844 36.6156 10.125 35.6875 10.125H33.0634C33.6414 9.12832 34 7.98609 34 6.75C34 3.02168 30.9783 0 27.25 0C23.5217 0 20.5 3.02168 20.5 6.75C20.5 7.98609 20.8564 9.12832 21.4362 10.125H18.8125C17.8844 10.125 17.125 10.8844 17.125 11.8125C17.125 12.7406 17.8844 13.5 18.8125 13.5ZM27.25 3.375C29.1105 3.375 30.625 4.88953 30.625 6.75C30.625 8.61047 29.1105 10.125 27.25 10.125C25.3895 10.125 23.875 8.61047 23.875 6.75C23.875 4.88953 25.3937 3.375 27.25 3.375ZM14.1982 24.1734C13.5654 24.859 13.6082 25.9232 14.2938 26.556L17.9494 29.931C18.2746 30.2273 18.6859 30.375 19.0973 30.375C19.5406 30.375 19.9838 30.2003 20.3154 29.8542L26.7838 23.1042C27.4298 22.4318 27.4067 21.364 26.7327 20.7185C26.0621 20.0758 24.9946 20.0956 24.3481 20.7712L18.9285 26.325L16.5808 24.0785C15.9005 23.4457 14.8279 23.4773 14.1982 24.1734Z" fill="#0B2840"/>
</g>
</svg>
