<svg width="54" height="54" viewBox="0 0 54 54" fill="none" xmlns="http://www.w3.org/2000/svg">
<g id="solar:money-bag-linear">
<path id="Vector" d="M51.3 5H16.2C14.7091 5 13.5 6.20909 13.5 7.7V15.8C9.02644 15.8 5.4 19.4264 5.4 23.9C5.4 28.3736 9.02644 32 13.5 32C17.9736 32 21.6 28.3736 21.6 23.9C21.6 20.3782 19.3388 17.4116 16.2 16.2961V7.7H51.3V37.4H45.9V32C45.9 30.5091 44.6909 29.3 43.2 29.3H32.4C30.9091 29.3 29.7 30.5091 29.7 32V37.4H25.7631C25.7133 37.3207 25.6762 37.2346 25.6238 37.157C24.1684 34.9953 21.6861 33.8571 19.1354 33.8571C16.7906 33.8579 16.2017 34.7 13.5 34.7C10.8025 34.7 10.2136 33.8579 7.86459 33.8579C5.31394 33.8579 2.83162 34.9953 1.37616 37.1578C0.507094 38.4479 0 40.0021 0 41.6753V44.825C0 46.6888 1.51116 48.2 3.375 48.2H23.625C25.4888 48.2 27 46.6888 27 44.825V41.6753C27 41.1344 26.9291 40.6122 26.8279 40.1H51.3C52.7909 40.1 54 38.8909 54 37.4V7.7C54 6.20909 52.7909 5 51.3 5ZM18.9 23.9C18.9 26.8776 16.4776 29.3 13.5 29.3C10.5224 29.3 8.1 26.8776 8.1 23.9C8.1 20.9224 10.5224 18.5 13.5 18.5C16.4776 18.5 18.9 20.9224 18.9 23.9ZM24.3 44.825C24.3 45.1971 23.9971 45.5 23.625 45.5H3.375C3.00291 45.5 2.7 45.1971 2.7 44.825V41.6753C2.7 40.5961 3.01641 39.5549 3.61547 38.6656C4.50394 37.346 6.09188 36.5579 7.86459 36.5579C9.70397 36.5579 10.395 37.4 13.5 37.4C16.6042 37.4 17.2977 36.5579 19.1354 36.5579C20.9073 36.5579 22.4961 37.346 23.3845 38.6656C23.9836 39.5549 24.3 40.5961 24.3 41.6753V44.825ZM43.2 37.4H32.4V32H43.2V37.4Z" fill="#0B2840"/>
</g>
</svg>
