<svg width="54" height="54" viewBox="0 0 54 54" fill="none" xmlns="http://www.w3.org/2000/svg">
<g id="ph:handshake-light">
<path id="Vector" d="M40.5 26.9C44.9719 26.9 48.6 23.2719 48.6 18.8C48.6 14.3281 44.9719 10.7 40.5 10.7C36.0281 10.7 32.4 14.3281 32.4 18.8C32.4 23.2719 36.0281 26.9 40.5 26.9ZM40.5 13.4C43.4784 13.4 45.9 15.8216 45.9 18.8C45.9 21.7784 43.4784 24.2 40.5 24.2C37.5216 24.2 35.1 21.7784 35.1 18.8C35.1 15.8216 37.5216 13.4 40.5 13.4ZM16.2 26.9C21.4228 26.9 25.65 22.6728 25.65 17.45C25.65 12.2272 21.4228 8 16.2 8C10.9772 8 6.75 12.2272 6.75 17.45C6.75 22.6728 10.9772 26.9 16.2 26.9ZM16.2 10.7C19.9209 10.7 22.95 13.7291 22.95 17.45C22.95 21.1709 19.9209 24.2 16.2 24.2C12.4791 24.2 9.45 21.1709 9.45 17.45C9.45 13.7291 12.4791 10.7 16.2 10.7ZM22.9584 28.5875C20.1403 28.5875 19.44 29.6 16.2 29.6C12.96 29.6 12.2597 28.5875 9.44156 28.5875C6.37875 28.5875 3.40031 29.9544 1.65375 32.5447C0.6075 34.0972 0 35.9619 0 37.97V41.75C0 43.9859 1.81406 45.8 4.05 45.8H28.35C30.5859 45.8 32.4 43.9859 32.4 41.75V37.97C32.4 35.9619 31.7925 34.0972 30.7463 32.5447C28.9997 29.9544 26.0213 28.5875 22.9584 28.5875ZM29.7 41.75C29.7 42.4925 29.0925 43.1 28.35 43.1H4.05C3.3075 43.1 2.7 42.4925 2.7 41.75V37.97C2.7 36.5694 3.11344 35.2109 3.88969 34.055C5.05406 32.3253 7.12969 31.2875 9.43313 31.2875C11.745 31.2875 12.5719 32.3 16.2 32.3C19.8281 32.3 20.655 31.2875 22.9584 31.2875C25.2619 31.2875 27.3375 32.3253 28.5019 34.055C29.2781 35.2109 29.6916 36.5694 29.6916 37.97V41.75H29.7ZM52.6247 32.0553C51.165 29.8953 48.6844 28.7563 46.1362 28.7563C43.7906 28.7563 43.2 29.6 40.5 29.6C37.8 29.6 37.2094 28.7563 34.8638 28.7563C33.75 28.7563 32.6616 29.0094 31.6491 29.4397C32.9316 30.7391 33.21 31.4309 33.3534 31.6841C33.8344 31.5491 34.3322 31.4647 34.8638 31.4647C36.7031 31.4647 37.395 32.3084 40.5 32.3084C43.605 32.3084 44.2969 31.4647 46.1362 31.4647C47.9081 31.4647 49.4944 32.2494 50.3888 33.5741C50.9878 34.46 51.3084 35.5063 51.3084 36.5863V39.725C51.3084 40.0963 51.0047 40.4 50.6334 40.4H35.1C35.1 41.8934 35.1253 42.2984 34.965 43.1H50.625C52.4897 43.1 54 41.5897 54 39.725V36.5778C54 34.8988 53.4938 33.3463 52.6247 32.0553Z" fill="#0B2840"/>
</g>
</svg>
