<svg width="54" height="54" viewBox="0 0 54 54" fill="none" xmlns="http://www.w3.org/2000/svg">
<g id="carbon:security" clip-path="url(#clip0_761_1060)">
<path id="Vector" d="M20.157 23.6254C20.157 21.767 18.6414 20.2462 16.7821 20.2462H13.406C9.6746 20.2462 6.65612 23.2647 6.65612 26.9012L6.74788 33.708C6.74788 37.4395 9.76741 40.458 13.4989 40.458H16.8738C18.7332 40.458 20.2488 38.9413 20.2488 37.083L20.157 23.6254ZM16.7821 37.083H13.4071C11.5477 37.083 10.0321 35.5664 10.0321 33.708V27.0003C10.0321 25.142 11.5488 23.6254 13.4071 23.6254L16.7842 23.6253L16.7821 37.083ZM40.4068 40.458C44.1382 40.458 47.1577 37.4395 47.1577 33.708L47.158 26.9972C47.158 23.2657 44.1395 20.3422 40.4081 20.3422H37.1281C35.2687 20.3422 33.7531 21.863 33.7531 23.7213L33.752 37.179C33.752 39.0373 35.2686 40.5539 37.1269 40.5539H40.4068V40.458ZM37.0318 23.6254L40.3118 23.6254C42.1712 23.6254 43.6868 25.142 43.6868 27.0003V33.708C43.6868 35.5664 42.1702 37.083 40.3118 37.083H36.9369L37.0318 23.6254ZM29.5542 0.119927C13.3649 -1.3872 0.42405 11.521 0.00217964 27.0036L7.00982e-06 28.6826C-0.00266132 29.6159 0.756799 30.3753 1.68966 30.3753C2.61303 30.3753 3.37292 29.6199 3.37714 28.6962L3.38598 27.0003C3.74838 13.5638 15.0313 2.17644 29.2061 3.47685C41.472 4.60324 50.6266 15.3208 50.6266 27.6394V45.474C50.6266 48.2699 48.3601 50.5364 45.5641 50.5364H36.8093C37.2397 49.389 37.2954 48.0537 36.5686 46.6668C35.6096 44.837 33.6113 43.7865 31.5462 43.7865L25.5042 43.8751C23.0563 43.8751 20.812 45.5299 20.35 47.9346C19.7246 51.1735 22.1925 54 25.2195 54L45.3743 54C50.0349 54 53.8127 50.2222 53.8127 45.6575V27.728C54.0015 13.6692 43.5497 1.4234 29.5542 0.119927ZM31.9694 50.625H25.2195C24.2833 50.625 23.532 49.8736 23.532 48.9375C23.532 48.0015 24.2835 47.2501 25.2195 47.2501H31.9704C32.9066 47.2501 33.6579 48.0015 33.6579 48.9375C33.6579 49.8736 33.0029 50.625 31.9694 50.625Z" fill="#0B2840"/>
</g>
<defs>
<clipPath id="clip0_761_1060">
<rect width="54" height="54" fill="white"/>
</clipPath>
</defs>
</svg>
