<svg width="30" height="30" viewBox="0 0 30 30" fill="none" xmlns="http://www.w3.org/2000/svg">
<g id="Component 13">
<circle id="Ellipse 26" cx="15" cy="15" r="15" fill="#25A7FF"/>
<path id="Vector" d="M8.40656 11.2873C8.2963 11.3966 8.20879 11.5267 8.14906 11.6701C8.08934 11.8134 8.05859 11.9672 8.05859 12.1225C8.05859 12.2778 8.08934 12.4316 8.14906 12.5749C8.20879 12.7183 8.2963 12.8484 8.40656 12.9577L14.2884 18.8395C14.3977 18.9498 14.5278 19.0373 14.6712 19.097C14.8145 19.1568 14.9683 19.1875 15.1236 19.1875C15.2789 19.1875 15.4326 19.1568 15.576 19.097C15.7193 19.0373 15.8495 18.9498 15.9588 18.8395L21.8406 12.9577C21.9509 12.8484 22.0384 12.7183 22.0981 12.5749C22.1578 12.4316 22.1886 12.2778 22.1886 12.1225C22.1886 11.9672 22.1578 11.8134 22.0981 11.6701C22.0384 11.5267 21.9509 11.3966 21.8406 11.2873C21.7313 11.177 21.6012 11.0895 21.4578 11.0298C21.3145 10.9701 21.1607 10.9393 21.0054 10.9393C20.8501 10.9393 20.6964 10.9701 20.553 11.0298C20.4097 11.0895 20.2795 11.177 20.1702 11.2873L15.1236 16.3456L10.077 11.2873C9.96764 11.177 9.83753 11.0895 9.69418 11.0298C9.55083 10.9701 9.39707 10.9393 9.24178 10.9393C9.08648 10.9393 8.93273 10.9701 8.78938 11.0298C8.64602 11.0895 8.51592 11.177 8.40656 11.2873Z" fill="#0B2840"/>
</g>
</svg>
