<svg width="17" height="11" viewBox="0 0 17 11" fill="none" xmlns="http://www.w3.org/2000/svg">
<path id="Vector" d="M5.9585 7.24838H0.85C0.3825 7.24838 0 7.64177 0 8.12257C0 8.60338 0.3825 8.99676 0.85 8.99676H5.9585V10.5616C5.9585 10.955 6.4175 11.1473 6.681 10.8675L9.044 8.42854C9.2055 8.2537 9.2055 7.9827 9.044 7.80786L6.681 5.36887C6.4175 5.08913 5.9585 5.29019 5.9585 5.67484V7.24838ZM11.0415 5.31642V3.75162H16.15C16.6175 3.75162 17 3.35823 17 2.87743C17 2.39662 16.6175 2.00324 16.15 2.00324H11.0415V0.438437C11.0415 0.0450508 10.5825 -0.147271 10.319 0.13247L7.956 2.57146C7.7945 2.7463 7.7945 3.0173 7.956 3.19214L10.319 5.63113C10.3789 5.69154 10.4549 5.73235 10.5373 5.74843C10.6198 5.76451 10.705 5.75513 10.7823 5.72147C10.8595 5.68782 10.9254 5.63139 10.9715 5.55931C11.0176 5.48723 11.042 5.40272 11.0415 5.31642Z" fill="#7B7B7B"/>
</svg>
