<svg width="55" height="54" viewBox="0 0 55 54" fill="none" xmlns="http://www.w3.org/2000/svg">
<g id="svgexport-3">
<path id="Vector" d="M27.0898 14.1961C27.7332 13.5527 28.7668 13.5527 29.368 14.1961L38.9445 24.068C41.7078 26.9367 41.5602 31.6723 38.4488 34.3406C36.2234 36.1863 33.0172 36.2918 30.5703 34.7836C30.2645 34.6465 30.1379 34.4988 29.8426 34.3406V37.0301H31.5301C32.5531 37.0301 33.2176 37.8844 33.2176 38.7176C33.2176 39.7406 32.5531 40.4051 31.5301 40.4051H24.7801C23.9469 40.4051 23.0926 39.7406 23.0926 38.7176C23.0926 37.8844 23.9469 37.0301 24.7801 37.0301H26.4676V34.3512C26.4254 34.4566 26.2777 34.5621 26.1301 34.657C23.6832 36.2918 20.3715 36.334 18.0069 34.3406C14.9451 31.6723 14.7975 26.9367 17.5618 24.068L27.0898 14.1961ZM19.9918 26.4094C18.5574 27.8965 18.6312 30.3855 20.2027 31.7777C21.4578 32.8113 23.4723 32.7375 24.8434 31.377L28.1656 27.7066L31.6355 31.3559C33.0383 32.7691 35.1055 32.7797 36.234 31.7988L36.2551 31.7777C37.8687 30.3961 37.8582 27.907 36.5187 26.4199L28.2289 17.877L19.9918 26.4094ZM8 6.75C8 3.02168 11.0217 0 14.75 0H41.75C45.473 0 48.5 3.02168 48.5 6.75V47.25C48.5 50.973 45.473 54 41.75 54H14.75C11.0217 54 8 50.973 8 47.25V6.75ZM11.375 6.75V47.25C11.375 49.1168 12.8864 50.625 14.75 50.625H41.75C43.6168 50.625 45.125 49.1168 45.125 47.25V6.75C45.125 4.88637 43.6168 3.375 41.75 3.375H14.75C12.8864 3.375 11.375 4.88637 11.375 6.75Z" fill="#00F8F7"/>
</g>
</svg>
