<svg width="55" height="54" viewBox="0 0 55 54" fill="none" xmlns="http://www.w3.org/2000/svg">
<g id="svgexport-4" clip-path="url(#clip0_903_1484)">
<path id="Vector" d="M4.375 41.8125C4.375 44.6074 6.64152 46.875 9.4375 46.875H53.3125C54.2406 46.875 55 47.6344 55 48.5625C55 49.4906 54.2406 50.25 53.3125 50.25H9.4375C4.77789 50.25 1 46.4742 1 41.8125V4.6875C1 3.75516 1.75558 3 2.6875 3C3.61984 3 4.375 3.75516 4.375 4.6875V41.8125ZM35.9418 31.1918C35.2879 31.8562 34.2121 31.8562 33.5582 31.1918L24.5301 22.2586L14.0043 32.8793C13.3504 33.5437 12.2746 33.5437 11.6207 32.8793C10.9605 32.2254 10.9605 31.1496 11.6207 30.4957L23.4332 18.6832C24.0871 18.0187 25.1629 18.0187 25.8168 18.6832L34.75 27.6164L48.7457 13.6207C49.3996 12.9562 50.4754 12.9562 51.1293 13.6207C51.7937 14.2746 51.7937 15.3504 51.1293 16.0043L35.9418 31.1918Z" fill="#00F8F7"/>
</g>
<defs>
<clipPath id="clip0_903_1484">
<rect width="54" height="54" fill="white" transform="translate(0.945312)"/>
</clipPath>
</defs>
</svg>
