<svg width="55" height="54" viewBox="0 0 55 54" fill="none" xmlns="http://www.w3.org/2000/svg">
<g id="svgexport-2 1" clip-path="url(#clip0_903_1482)">
<path id="Vector" d="M49 3H7C3.68594 3 1 5.68594 1 9V36C1 39.3141 3.68594 42 7 42H21.0344L19.2344 48H14.5C13.675 48 13 48.675 13 49.5C13 50.325 13.675 51 14.5 51H41.5C42.3284 51 43 50.3284 43 49.5C43 48.6716 42.325 48 41.5 48H36.7666L34.9666 42H49C52.3141 42 55 39.3141 55 36V9C55 5.68594 52.3094 3 49 3ZM22.3656 48L24.1656 42H31.8334L33.6334 48H22.3656ZM52 36C52 37.6538 50.6538 39 49 39H7C5.34625 39 4 37.6538 4 36V30H52V36ZM52 27H4V9C4 7.34625 5.34625 6 7 6H49C50.6538 6 52 7.34625 52 9V27Z" fill="#00F8F7"/>
</g>
<defs>
<clipPath id="clip0_903_1482">
<rect width="54" height="54" fill="white" transform="translate(0.945312)"/>
</clipPath>
</defs>
</svg>
