<svg width="54" height="65" viewBox="0 0 54 65" fill="none" xmlns="http://www.w3.org/2000/svg">
<g id="ion:person-outline" clip-path="url(#clip0_1065_1593)">
<path id="Vector" d="M7 8.61831C7 4.19719 10.0217 0.614014 13.75 0.614014H30.2137C31.5531 0.614014 32.8504 1.24648 33.7996 2.37246L46.0129 16.8602C46.9621 17.9858 47.5 19.5242 47.5 21.1125V56.6441C47.5 61.059 44.473 64.6484 40.75 64.6484H13.75C10.0217 64.6484 7 61.059 7 56.6441V8.61831ZM44.125 24.6269H32.3125C29.5176 24.6269 27.25 21.938 27.25 18.6237V4.61616H13.75C11.8864 4.61616 10.375 6.40838 10.375 8.61831V56.6441C10.375 58.8578 11.8864 60.6463 13.75 60.6463H40.75C42.6168 60.6463 44.125 58.8578 44.125 56.6441V24.6269ZM43.6293 19.6993L31.4055 5.20273C31.1945 4.94384 30.9203 4.76374 30.625 4.6762V18.6237C30.625 19.7243 31.3844 20.6248 32.3125 20.6248H44.0723C43.9984 20.2746 43.8508 19.9494 43.6293 19.6993Z" fill="#00F8F7"/>
</g>
<defs>
<clipPath id="clip0_1065_1593">
<rect width="54" height="64.0344" fill="white" transform="translate(0 0.611816)"/>
</clipPath>
</defs>
</svg>
