<svg width="54" height="55" viewBox="0 0 54 55" fill="none" xmlns="http://www.w3.org/2000/svg">
<g id="formkit:time">
<path id="Vector" d="M9.28125 20.875H4.21875C1.89211 20.875 0 22.7629 0 25.0938V47.0312C0 49.3621 1.89211 51.25 4.21875 51.25H9.28125C11.6121 51.25 13.5 49.3621 13.5 47.0312V25.0938C13.5 22.7629 11.6121 20.875 9.28125 20.875ZM10.125 47.0312C10.125 47.4953 9.74637 47.875 9.28125 47.875H4.21875C3.75363 47.875 3.375 47.4953 3.375 47.0312V25.0938C3.375 24.6297 3.75363 24.25 4.21875 24.25H9.28125C9.74637 24.25 10.125 24.6297 10.125 25.0938V47.0312ZM54 23.9863C54 20.4109 51.0891 17.5 47.5137 17.5H36.7031C37.9666 14.646 38.6891 11.8595 38.6891 10.3988C38.6965 7.25266 36.2391 4 32.1574 4C27.81 4 26.8102 7.07019 25.9221 9.78074C23.0027 18.6707 16.875 20.1156 16.875 22.5625C16.875 23.5223 17.666 24.25 18.5625 24.25C18.9949 24.25 19.4273 24.0813 19.7543 23.7543C25.3104 18.1602 26.8228 17.8364 29.121 10.8344C30.0902 7.89707 30.3961 7.375 32.1574 7.375C34.3364 7.375 35.3152 9.14371 35.3152 10.3988C35.3152 11.463 34.3774 15.0341 32.5076 18.3596C32.3635 18.6161 32.2918 18.9007 32.2918 19.1854C32.2945 20.1895 33.1172 20.875 33.982 20.875H47.5137C49.2328 20.875 50.625 22.2672 50.625 23.9863C50.625 25.6032 49.3509 26.9563 47.7267 27.066C46.8342 27.1273 46.1542 27.8727 46.1542 28.7493C46.1542 30.035 47.4261 30.1056 47.4261 31.9798C47.4261 33.4711 46.3598 34.7536 44.8917 35.0268C44.2823 35.1409 43.5143 35.7036 43.5143 36.6879C43.5143 37.6251 44.2278 37.8186 44.2278 39.1728C44.2278 42.4444 40.9045 41.5057 40.9045 43.7132C40.9045 44.0851 41.0295 44.2543 41.0295 44.7689C41.0273 46.4828 39.6352 47.875 37.916 47.875H32.052C23.4025 47.875 20.6297 41.1229 18.5625 41.1229C17.6267 41.1229 16.875 41.8815 16.875 42.8062C16.7801 44.5316 23.6883 51.25 32.052 51.25H37.9192C41.4956 51.25 44.4055 48.3412 44.4055 44.7668C46.362 43.6214 47.6044 41.4973 47.6044 39.1707C47.6044 38.6647 47.5417 38.1588 47.4215 37.6656C49.4581 36.5561 50.8028 34.3993 50.8028 31.9766C50.8028 31.2153 50.6677 30.4674 50.4073 29.7639C52.5445 28.7008 54 26.4965 54 23.9863Z" fill="white"/>
</g>
</svg>
