<svg width="54" height="54" viewBox="0 0 54 54" fill="none" xmlns="http://www.w3.org/2000/svg">
<g id="ion:person-outline" clip-path="url(#clip0_1065_1591)">
<path id="Vector" d="M26.6264 28.0016C34.0835 28.0016 40.1272 21.9568 40.1272 14.5008C40.1272 7.04477 34.0835 1 26.6264 1C19.1693 1 13.1256 7.04477 13.1256 14.5008C13.1256 21.9568 19.1693 28.0016 26.6264 28.0016ZM26.6264 4.3752C32.2102 4.3752 36.752 8.91695 36.752 14.5008C36.752 20.0836 32.2102 24.6264 26.6264 24.6264C21.0425 24.6264 16.5008 20.0804 16.5008 14.5008C16.5008 8.91695 21.0468 4.3752 26.6264 4.3752ZM31.974 33.0644H21.2788C11.1859 33.0644 3 41.2492 3 51.3432C3 53.362 4.63697 55 6.65576 55H46.5991C48.6179 55.0032 50.2528 53.3683 50.2528 51.3432C50.2528 41.2492 42.0679 33.0644 31.974 33.0644ZM46.5928 51.628H6.65576C6.50177 51.628 6.3752 51.5014 6.3752 51.3432C6.3752 43.1267 13.0623 36.4396 21.2788 36.4396H31.9634C40.1905 36.4396 46.8776 43.1267 46.8776 51.3432C46.8776 51.5014 46.751 51.628 46.5928 51.628Z" fill="#00F8F7"/>
</g>
<defs>
<clipPath id="clip0_1065_1591">
<rect width="54" height="54" fill="white"/>
</clipPath>
</defs>
</svg>
