<svg width="54" height="55" viewBox="0 0 54 55" fill="none" xmlns="http://www.w3.org/2000/svg">
<g id="formkit:time">
<path id="Vector" d="M48 4H6C2.68594 4 0 6.68594 0 10V37C0 40.3141 2.68594 43 6 43H20.0344L18.2344 49H13.5C12.675 49 12 49.675 12 50.5C12 51.325 12.675 52 13.5 52H40.5C41.3284 52 42 51.3284 42 50.5C42 49.6716 41.325 49 40.5 49H35.7666L33.9666 43H48C51.3141 43 54 40.3141 54 37V10C54 6.68594 51.3094 4 48 4ZM21.3656 49L23.1656 43H30.8334L32.6334 49H21.3656ZM51 37C51 38.6538 49.6538 40 48 40H6C4.34625 40 3 38.6538 3 37V31H51V37ZM51 28H3V10C3 8.34625 4.34625 7 6 7H48C49.6538 7 51 8.34625 51 10V28Z" fill="white"/>
</g>
</svg>
