<svg width="54" height="54" viewBox="0 0 54 54" fill="none" xmlns="http://www.w3.org/2000/svg">
<g id="ph:bag-simple" clip-path="url(#clip0_1065_1598)">
<path id="Vector" d="M25.8082 33.2543C26.1352 33.5812 26.5676 33.75 27 33.75C27.4324 33.75 27.8636 33.5853 28.1929 33.2556L40.0054 21.4431C40.6645 20.7839 40.6645 19.7155 40.0054 19.0574C39.3462 18.3992 38.2778 18.3982 37.6196 19.0574L28.6875 27.9914V1.6875C28.6875 0.754734 27.9328 0 27 0C26.0672 0 25.3125 0.754734 25.3125 1.6875V27.9914L16.3793 19.0582C15.7201 18.399 14.6517 18.399 13.9936 19.0582C13.3355 19.7174 13.3344 20.7858 13.9936 21.4439L25.8082 33.2543ZM48.9375 33.75H40.5C39.8608 33.75 39.2766 34.1111 38.9907 34.6828L36.0809 40.5H17.9191L15.0103 34.6834C14.7234 34.1086 14.1434 33.75 13.5 33.75H5.0625C2.26652 33.75 0 36.0176 0 38.8125V48.9375C0 51.7324 2.26652 54 5.0625 54H48.9375C51.7335 54 54 51.7335 54 48.9375V38.8125C54 36.0176 51.7324 33.75 48.9375 33.75ZM50.625 48.9375C50.625 49.8694 49.8696 50.625 48.9375 50.625H5.0625C4.13016 50.625 3.375 49.8656 3.375 48.9375V38.8125C3.375 37.8844 4.13016 37.125 5.0625 37.125H12.4569L15.3657 42.9427C15.6516 43.5164 16.2316 43.875 16.7801 43.875H37.125C37.7644 43.875 38.3484 43.5139 38.6343 42.942L41.5441 37.125H48.9375C49.8696 37.125 50.625 37.8806 50.625 38.8125V48.9375Z" fill="#00F8F7"/>
</g>
<defs>
<clipPath id="clip0_1065_1598">
<rect width="54" height="54" fill="white"/>
</clipPath>
</defs>
</svg>
