<svg width="54" height="54" viewBox="0 0 54 54" fill="none" xmlns="http://www.w3.org/2000/svg">
<g id="carbon:cloud">
<path id="Vector" d="M45.5277 13.2152L34.2953 1.98281C33.0191 0.71107 31.3105 0 29.5176 0H13.75C10.0217 0 7 3.02168 7 6.75L7.00069 47.25C7.00069 50.9783 10.0224 54 13.7507 54H40.75C44.4783 54 47.5 50.9783 47.5 47.25V17.9824C47.5 16.1895 46.7934 14.4809 45.5277 13.2152ZM30.625 3.59438C31.0972 3.75954 31.539 4.00001 31.9033 4.36419L43.1357 15.5966C43.5027 15.9574 43.7453 16.4004 43.9035 16.875H32.3125C31.3844 16.875 30.625 16.1156 30.625 15.1875V3.59438ZM44.125 47.25C44.125 49.1105 42.6105 50.625 40.75 50.625H13.75C11.8895 50.625 10.375 49.1105 10.375 47.25V6.75C10.375 4.88953 11.8895 3.375 13.75 3.375H27.25V15.1875C27.25 17.9824 29.5176 20.25 32.3125 20.25H44.125V47.25ZM27.25 32.4949L22.7254 26.0297C22.1915 25.265 21.137 25.0805 20.3755 25.6144C19.6109 26.1482 19.4263 27.2017 19.9602 27.9642L25.1934 35.4375L19.9621 42.9047C19.4282 43.6676 19.6128 44.7209 20.3774 45.2545C20.6687 45.4676 21.0063 45.5625 21.2488 45.5625C21.7811 45.5625 22.3056 45.312 22.6326 44.8424L27.25 38.3801L31.7736 44.8422C32.0066 45.3094 32.534 45.5625 33.1562 45.5625C33.4908 45.5625 33.8286 45.4636 34.1219 45.2576C34.8866 44.7237 35.0711 43.6703 34.5373 42.9077L29.3066 35.4375L34.5358 27.9671C35.0697 27.2042 34.8851 26.151 34.1204 25.6173C33.3558 25.0836 32.3043 25.268 31.7706 26.0326L27.25 32.4949Z" fill="#00F8F7"/>
</g>
</svg>
