<svg width="54" height="55" viewBox="0 0 54 55" fill="none" xmlns="http://www.w3.org/2000/svg">
<g id="formkit:time">
<path id="Vector" d="M13.5 47.1504C9.77727 47.1504 6.59618 45.8658 3.95673 43.2965C1.31727 40.7273 -0.00163484 37.5871 1.52078e-06 33.876C1.52078e-06 30.695 0.961365 27.8607 2.88409 25.373C4.80682 22.8853 7.32273 21.2948 10.4318 20.6015C11.4545 16.8496 13.5 13.8114 16.5682 11.4868C19.6364 9.16228 23.1136 8 27 8C31.7864 8 35.847 9.66226 39.1819 12.9868C42.5168 16.3113 44.1835 20.3585 44.1818 25.1283C47.0045 25.4545 49.347 26.6682 51.2092 28.7693C53.0714 30.8703 54.0016 33.327 54 36.1393C54 39.198 52.9257 41.7982 50.7772 43.94C48.6286 46.0819 46.0211 47.152 42.9545 47.1504H13.5ZM13.5 42.2566H42.9545C44.6727 42.2566 46.125 41.6652 47.3114 40.4826C48.4977 39.2999 49.0909 37.8522 49.0909 36.1393C49.0909 34.4265 48.4977 32.9788 47.3114 31.7961C46.125 30.6134 44.6727 30.0221 42.9545 30.0221H39.2727V25.1283C39.2727 21.7434 38.0757 18.8577 35.6817 16.4712C33.2877 14.0846 30.3938 12.8922 27 12.8938C23.6045 12.8938 20.7098 14.0871 18.3158 16.4736C15.9218 18.8602 14.7256 21.745 14.7273 25.1283H13.5C11.1273 25.1283 9.10227 25.9643 7.425 27.6364C5.74773 29.3084 4.90909 31.3271 4.90909 33.6924C4.90909 36.0578 5.74773 38.0765 7.425 39.7485C9.10227 41.4206 11.1273 42.2566 13.5 42.2566Z" fill="white"/>
</g>
</svg>
