<svg width="54" height="54" viewBox="0 0 54 54" fill="none" xmlns="http://www.w3.org/2000/svg">
<path id="Vector" d="M25.3125 11.8125C25.3125 10.8844 26.0719 10.125 27 10.125C27.9281 10.125 28.6875 10.8844 28.6875 11.8125V26.093L38.0637 32.3473C38.8336 32.8641 39.0445 33.9082 38.5277 34.6887C38.0109 35.4586 36.9668 35.6695 36.1863 35.1527L26.0613 28.4027C25.5973 28.0863 25.2176 27.559 25.2176 27L25.3125 11.8125ZM27 0C41.9133 0 54 12.0867 54 27C54 41.9133 41.9133 54 27 54C12.0867 54 0 41.9133 0 27C0 12.0867 12.0867 0 27 0ZM3.375 27C3.375 40.0465 13.9535 50.625 27 50.625C40.0465 50.625 50.625 40.0465 50.625 27C50.625 13.9535 40.0465 3.375 27 3.375C13.9535 3.375 3.375 13.9535 3.375 27Z" fill="white"/>
</svg>
