<svg width="32" height="42" viewBox="0 0 32 42" fill="none" xmlns="http://www.w3.org/2000/svg">
<g id="Group 108">
<path id="Vector" d="M15.6817 0.000320435L15.6161 0C7.00534 0 0 7.00598 0 15.6177C0 20.3389 2.41319 24.0214 5.10196 27.6884L15.5952 42C15.5952 42 25.5133 28.5347 26.1337 27.6888C28.8224 24.0217 31.2356 20.3393 31.2356 15.618C31.2356 7.02745 24.2646 0.0342865 15.6817 0.000320435ZM24.1496 26.2337C23.5285 27.0809 17.0125 36.0053 15.6266 37.8818L7.08609 26.2337C4.5553 22.7819 2.46062 19.6007 2.46062 15.6177C2.46062 8.38321 8.32874 2.49362 15.5549 2.46062H15.618C22.8729 2.46062 28.7753 8.36302 28.7753 15.618C28.7753 19.601 26.6803 22.7819 24.1496 26.2337Z" fill="black"/>
<path id="Vector_2" d="M15.6173 6.60205C10.6458 6.60205 6.60156 10.6466 6.60156 15.6178C6.60156 20.5893 10.6458 24.6339 15.6173 24.6339C20.5885 24.6339 24.6331 20.5893 24.6331 15.6178C24.6331 10.6466 20.5885 6.60205 15.6173 6.60205ZM15.6173 22.1732C12.0025 22.1732 9.06186 19.2326 9.06186 15.6178C9.06186 12.0033 12.0025 9.06267 15.6173 9.06267C19.2318 9.06267 22.1728 12.0033 22.1728 15.6178C22.1728 19.2326 19.2318 22.1732 15.6173 22.1732Z" fill="black"/>
</g>
</svg>
