<svg width="34" height="34" viewBox="0 0 34 34" fill="none" xmlns="http://www.w3.org/2000/svg">
<g id="Group">
<g id="Group_2">
<path id="Vector" d="M33.2123 0.287507C32.9346 0.00982606 32.5181 -0.0755588 32.1538 0.070217L0.616964 12.6848C0.256123 12.8291 0.0144937 13.1728 0.000622777 13.5612C-0.0131827 13.9496 0.203518 14.3095 0.553171 14.4791L12.9891 20.5104L19.0205 32.9464C19.185 33.2856 19.5285 33.4996 19.9033 33.4996C19.915 33.4996 19.9267 33.4994 19.9384 33.4989C20.3267 33.4851 20.6705 33.2435 20.8148 32.8827L33.4295 1.34602C33.5753 0.981447 33.4899 0.565122 33.2123 0.287507ZM3.40843 13.6823L28.4433 3.66849L13.5236 18.5881L3.40843 13.6823ZM19.8173 30.0912L14.9115 19.9759L29.8313 5.05637L19.8173 30.0912Z" fill="black"/>
</g>
</g>
</svg>
