<svg width="39" height="39" viewBox="0 0 39 39" fill="none" xmlns="http://www.w3.org/2000/svg">
<g id="Group 109">
<path id="Vector" d="M22.1891 0C21.7686 0 21.4277 0.340839 21.4277 0.761385C21.4277 1.18193 21.7686 1.52277 22.1891 1.52277C30.6093 1.52277 37.4593 8.37315 37.4593 16.793C37.4593 17.2135 37.8005 17.5544 38.2207 17.5544C38.6413 17.5544 38.9821 17.2135 38.9821 16.793C38.9821 7.53354 31.4489 0 22.1891 0Z" fill="black"/>
<path id="Vector_2" d="M33.6405 17.5548C34.0611 17.5548 34.4019 17.2137 34.4019 16.7934C34.4019 10.059 28.9232 4.58032 22.1891 4.58032C21.7686 4.58032 21.4277 4.92146 21.4277 5.34171C21.4277 5.76225 21.7686 6.10309 22.1891 6.10309C28.0836 6.10309 32.8791 10.8986 32.8791 16.7934C32.8791 17.2137 33.22 17.5548 33.6405 17.5548Z" fill="black"/>
<path id="Vector_3" d="M28.298 16.7933C28.298 17.2136 28.6389 17.5547 29.0594 17.5547C29.48 17.5547 29.8208 17.2136 29.8208 16.7933C29.8208 12.5852 26.3973 9.16162 22.1891 9.16162C21.7686 9.16162 21.4277 9.50246 21.4277 9.92271C21.4277 10.3433 21.7686 10.6841 22.1891 10.6841C25.5577 10.6841 28.298 13.4245 28.298 16.7933Z" fill="black"/>
<path id="Vector_4" d="M21.4277 14.5033C21.4277 14.9236 21.7686 15.2644 22.1891 15.2644C23.032 15.2644 23.7178 15.9503 23.7178 16.7934C23.7178 17.2137 24.0587 17.5548 24.4792 17.5548C24.8995 17.5548 25.2406 17.2137 25.2406 16.7934C25.2406 15.1107 23.8716 13.7419 22.1891 13.7419C21.7686 13.7419 21.4277 14.0828 21.4277 14.5033Z" fill="black"/>
<path id="Vector_5" d="M14.2708 24.7206C14.2708 25.1412 13.93 25.482 13.5094 25.482C13.0889 25.482 12.748 25.1412 12.748 24.7206C12.748 24.3004 13.0889 23.9592 13.5094 23.9592C13.93 23.9592 14.2708 24.3004 14.2708 24.7206Z" fill="black"/>
<path id="Vector_6" d="M20.8644 38.0585C24.3314 39.7577 28.5023 39.0507 31.2439 36.3091L32.8181 34.7349C33.6729 33.881 33.6732 32.4978 32.8184 31.6433L26.7357 25.5611C25.8824 24.7066 24.4988 24.7055 23.6446 25.5608L21.0601 28.1457C20.5539 28.6519 19.7726 28.7551 19.2027 28.3913C18.2736 27.7974 17.3698 27.1425 16.5165 26.4447C16.1908 26.1786 15.7114 26.2267 15.4452 26.5521C15.179 26.8778 15.2272 27.3575 15.5526 27.6234C16.4516 28.3586 17.4037 29.0486 18.3831 29.6744C19.5504 30.42 21.1291 30.23 22.1367 29.2223L24.7219 26.6372C24.9803 26.3784 25.3991 26.3778 25.6587 26.6375L31.7418 32.7199C32.0008 32.9793 32.0014 33.3986 31.7418 33.6577L30.1673 35.2325C27.8834 37.5163 24.4144 38.1026 21.5345 36.6913C10.9842 31.5178 5.24412 23.3144 2.28662 17.3435C0.87181 14.488 1.45921 11.0321 3.74842 8.74344L5.28844 7.20372C5.54659 6.94497 5.96565 6.94408 6.225 7.20402L12.3086 13.2874C12.5662 13.5446 12.5689 13.964 12.308 14.2242L9.7235 16.8091C8.71586 17.8167 8.52581 19.3954 9.27143 20.563C9.71071 21.2504 10.1842 21.9285 10.6791 22.5783C10.9337 22.9129 11.4113 22.9775 11.7459 22.7229C12.0805 22.4683 12.1454 21.9906 11.8905 21.6558C11.4212 21.0392 10.9715 20.3956 10.5545 19.7434C10.1907 19.1732 10.2939 18.3919 10.8001 17.8857L13.3844 15.3015C14.2389 14.4482 14.2398 13.0643 13.385 12.2104L7.30194 6.12767C6.44895 5.27319 5.06508 5.272 4.2112 6.12737L2.67177 7.6668C-0.0799204 10.4176 -0.783012 14.5781 0.922074 18.0195C3.98457 24.2019 9.92991 32.6967 20.8644 38.0585Z" fill="black"/>
</g>
</svg>
