<svg width="20" height="20" viewBox="0 0 20 20" fill="none" xmlns="http://www.w3.org/2000/svg">
<g id="Group">
<path id="Vector" d="M1 9.76889C1 6.28797 1 4.54705 2.08185 3.46612C3.16277 2.38428 4.90369 2.38428 8.38462 2.38428H12.0769C15.5578 2.38428 17.2988 2.38428 18.3797 3.46612C19.4615 4.54705 19.4615 6.28797 19.4615 9.76889V11.615C19.4615 15.096 19.4615 16.8369 18.3797 17.9178C17.2988 18.9997 15.5578 18.9997 12.0769 18.9997H8.38462C4.90369 18.9997 3.16277 18.9997 2.08185 17.9178C1 16.8369 1 15.096 1 11.615V9.76889Z" stroke="#7B7B7B"/>
<path id="Vector_2" d="M5.61576 2.38462V1M14.8465 2.38462V1M1.46191 7H19.0004" stroke="#7B7B7B" stroke-linecap="round"/>
<path id="Vector_3" d="M15.7683 14.3847C15.7683 14.6295 15.6711 14.8643 15.498 15.0374C15.3249 15.2105 15.0901 15.3077 14.8453 15.3077C14.6004 15.3077 14.3656 15.2105 14.1925 15.0374C14.0194 14.8643 13.9222 14.6295 13.9222 14.3847C13.9222 14.1399 14.0194 13.9051 14.1925 13.732C14.3656 13.5588 14.6004 13.4616 14.8453 13.4616C15.0901 13.4616 15.3249 13.5588 15.498 13.732C15.6711 13.9051 15.7683 14.1399 15.7683 14.3847ZM15.7683 10.6924C15.7683 10.9372 15.6711 11.172 15.498 11.3451C15.3249 11.5182 15.0901 11.6154 14.8453 11.6154C14.6004 11.6154 14.3656 11.5182 14.1925 11.3451C14.0194 11.172 13.9222 10.9372 13.9222 10.6924C13.9222 10.4475 14.0194 10.2128 14.1925 10.0397C14.3656 9.86654 14.6004 9.76929 14.8453 9.76929C15.0901 9.76929 15.3249 9.86654 15.498 10.0397C15.6711 10.2128 15.7683 10.4475 15.7683 10.6924ZM11.1529 14.3847C11.1529 14.6295 11.0557 14.8643 10.8826 15.0374C10.7095 15.2105 10.4747 15.3077 10.2299 15.3077C9.98505 15.3077 9.75026 15.2105 9.57715 15.0374C9.40404 14.8643 9.30679 14.6295 9.30679 14.3847C9.30679 14.1399 9.40404 13.9051 9.57715 13.732C9.75026 13.5588 9.98505 13.4616 10.2299 13.4616C10.4747 13.4616 10.7095 13.5588 10.8826 13.732C11.0557 13.9051 11.1529 14.1399 11.1529 14.3847ZM11.1529 10.6924C11.1529 10.9372 11.0557 11.172 10.8826 11.3451C10.7095 11.5182 10.4747 11.6154 10.2299 11.6154C9.98505 11.6154 9.75026 11.5182 9.57715 11.3451C9.40404 11.172 9.30679 10.9372 9.30679 10.6924C9.30679 10.4475 9.40404 10.2128 9.57715 10.0397C9.75026 9.86654 9.98505 9.76929 10.2299 9.76929C10.4747 9.76929 10.7095 9.86654 10.8826 10.0397C11.0557 10.2128 11.1529 10.4475 11.1529 10.6924ZM6.53756 14.3847C6.53756 14.6295 6.44031 14.8643 6.2672 15.0374C6.09409 15.2105 5.8593 15.3077 5.61448 15.3077C5.36967 15.3077 5.13488 15.2105 4.96177 15.0374C4.78866 14.8643 4.69141 14.6295 4.69141 14.3847C4.69141 14.1399 4.78866 13.9051 4.96177 13.732C5.13488 13.5588 5.36967 13.4616 5.61448 13.4616C5.8593 13.4616 6.09409 13.5588 6.2672 13.732C6.44031 13.9051 6.53756 14.1399 6.53756 14.3847ZM6.53756 10.6924C6.53756 10.9372 6.44031 11.172 6.2672 11.3451C6.09409 11.5182 5.8593 11.6154 5.61448 11.6154C5.36967 11.6154 5.13488 11.5182 4.96177 11.3451C4.78866 11.172 4.69141 10.9372 4.69141 10.6924C4.69141 10.4475 4.78866 10.2128 4.96177 10.0397C5.13488 9.86654 5.36967 9.76929 5.61448 9.76929C5.8593 9.76929 6.09409 9.86654 6.2672 10.0397C6.44031 10.2128 6.53756 10.4475 6.53756 10.6924Z" fill="#7B7B7B"/>
</g>
</svg>
