<svg width="100" height="93" viewBox="0 0 100 93" fill="none" xmlns="http://www.w3.org/2000/svg">
<path d="M18.75 68.75H25V75H12.5V12.5H6.25V81.25H25V87.5H0V6.25H12.5V0H31.25C34.1146 0 36.8652 0.439453 39.502 1.31836C42.1387 2.19727 44.5964 3.51562 46.875 5.27344C49.1211 3.51562 51.5625 2.19727 54.1992 1.31836C56.8359 0.439453 59.6029 0 62.5 0H81.25V6.25H93.75V46.2402L87.5 43.4082V12.5H81.25V40.5762L75 37.6953V6.25H62.5C60.1888 6.25 57.9753 6.64062 55.8594 7.42188C53.7435 8.20312 51.7904 9.35872 50 10.8887V40.5762L43.75 43.4082V10.8887C41.9922 9.39128 40.0553 8.25195 37.9395 7.4707C35.8236 6.68945 33.5938 6.28255 31.25 6.25H18.75V68.75ZM87.5 81.2012L65.625 92.1875L43.75 81.2012C43.75 80.0293 43.7663 78.7923 43.7988 77.4902C43.8314 76.1882 43.9616 74.8698 44.1895 73.5352C44.4173 72.2005 44.7428 70.9473 45.166 69.7754C45.5892 68.6035 46.1751 67.513 46.9238 66.5039L37.5 62.207V90.625H31.25V59.375L65.625 43.75L100 59.375L84.3262 66.5039L84.7168 67.041C85.4004 68.0501 85.9212 69.1406 86.2793 70.3125C86.6374 71.4844 86.9141 72.6725 87.1094 73.877C87.3047 75.0814 87.4186 76.3184 87.4512 77.5879C87.4837 78.8574 87.5 80.0618 87.5 81.2012ZM65.625 50.5859L46.3379 59.375L65.625 68.1641L84.9121 59.375L65.625 50.5859ZM65.625 85.2051L81.25 77.3438C81.2174 76.4974 81.1523 75.7324 81.0547 75.0488C80.957 74.3652 80.778 73.6979 80.5176 73.0469C80.2572 72.3958 79.9967 71.7611 79.7363 71.1426C79.4759 70.5241 79.1016 69.8405 78.6133 69.0918L65.625 75L52.6367 69.0918C52.1484 69.873 51.7578 70.5729 51.4648 71.1914C51.1719 71.8099 50.9115 72.4284 50.6836 73.0469C50.4557 73.6654 50.3092 74.3164 50.2441 75C50.179 75.6836 50.1139 76.4811 50.0488 77.3926L65.625 85.2051Z" fill="#1F50FF"/>
</svg>
