<svg width="106" height="99" viewBox="0 0 106 99" fill="none" xmlns="http://www.w3.org/2000/svg">
<path d="M13.7143 13.7144H6.57144C4.59899 13.7144 3 15.3133 3 17.2858V92.2861C3 94.2586 4.59899 95.8575 6.57144 95.8575H13.7143C15.6868 95.8575 17.2858 94.2586 17.2858 92.2861V17.2858C17.2858 15.3133 15.6868 13.7144 13.7143 13.7144Z" stroke="white" stroke-width="5.25" stroke-linejoin="round"/>
<path d="M20.8574 42.2859H49.429M20.8574 81.5718H49.429" stroke="white" stroke-width="5.25" stroke-linecap="round" stroke-linejoin="round"/>
<path d="M45.8575 28H24.4289C22.4564 28 20.8574 29.599 20.8574 31.5714V92.286C20.8574 94.2584 22.4564 95.8574 24.4289 95.8574H45.8575C47.83 95.8574 49.429 94.2584 49.429 92.286V31.5714C49.429 29.599 47.83 28 45.8575 28Z" stroke="white" stroke-width="5.25" stroke-linejoin="round"/>
<path d="M70.8572 3H56.5714C54.599 3 53 4.59899 53 6.57144V92.2861C53 94.2585 54.599 95.8575 56.5714 95.8575H70.8572C72.8297 95.8575 74.4287 94.2585 74.4287 92.2861V6.57144C74.4287 4.59899 72.8297 3 70.8572 3Z" stroke="white" stroke-width="5.25" stroke-linejoin="round"/>
<path d="M90.1561 13.7384L81.1382 14.6871C78.656 14.9483 76.8569 17.2697 77.136 19.8434L84.9306 91.6271C85.2119 94.2008 87.4686 96.0915 89.9507 95.8325L98.9686 94.8839C101.451 94.6227 103.25 92.3013 102.971 89.7276L95.1874 17.955C94.895 15.3701 92.6382 13.4773 90.1561 13.7384Z" stroke="white" stroke-width="5.25" stroke-linejoin="round"/>
</svg>
