<svg width="100" height="85" viewBox="0 0 100 85" fill="none" xmlns="http://www.w3.org/2000/svg">
<path d="M67.5192 31.4135L44.4423 16.0288C43.8629 15.6423 43.1895 15.4203 42.4938 15.3866C41.7981 15.3529 41.1064 15.5087 40.4924 15.8375C39.8783 16.1662 39.3651 16.6555 39.0074 17.2531C38.6498 17.8508 38.4611 18.5343 38.4615 19.2308V50C38.4611 50.6965 38.6498 51.38 39.0074 51.9776C39.3651 52.5753 39.8783 53.0646 40.4924 53.3933C41.1064 53.722 41.7981 53.8778 42.4938 53.8441C43.1895 53.8104 43.8629 53.5885 44.4423 53.2019L67.5192 37.8173C68.0468 37.4662 68.4794 36.9902 68.7787 36.4316C69.0779 35.873 69.2345 35.2491 69.2345 34.6154C69.2345 33.9817 69.0779 33.3578 68.7787 32.7992C68.4794 32.2406 68.0468 31.7646 67.5192 31.4135ZM46.1538 42.8125V26.4423L58.4519 34.6154L46.1538 42.8125ZM92.3077 0H7.69231C5.65218 0 3.69561 0.810437 2.25302 2.25302C0.810437 3.69561 0 5.65218 0 7.69231V61.5385C0 63.5786 0.810437 65.5352 2.25302 66.9777C3.69561 68.4203 5.65218 69.2308 7.69231 69.2308H92.3077C94.3478 69.2308 96.3044 68.4203 97.747 66.9777C99.1896 65.5352 100 63.5786 100 61.5385V7.69231C100 5.65218 99.1896 3.69561 97.747 2.25302C96.3044 0.810437 94.3478 0 92.3077 0ZM92.3077 61.5385H7.69231V7.69231H92.3077V61.5385ZM100 80.7692C100 81.7893 99.5948 82.7676 98.8735 83.4889C98.1522 84.2102 97.1739 84.6154 96.1538 84.6154H3.84615C2.82609 84.6154 1.84781 84.2102 1.12651 83.4889C0.405218 82.7676 0 81.7893 0 80.7692C0 79.7492 0.405218 78.7709 1.12651 78.0496C1.84781 77.3283 2.82609 76.9231 3.84615 76.9231H96.1538C97.1739 76.9231 98.1522 77.3283 98.8735 78.0496C99.5948 78.7709 100 79.7492 100 80.7692Z" fill="white"/>
</svg>
