<svg width="86" height="100" viewBox="0 0 86 100" fill="none" xmlns="http://www.w3.org/2000/svg">
<path d="M42.8571 100L28.5714 85.7143H9.52382C6.90477 85.7143 4.66191 84.781 2.79525 82.9143C0.928579 81.0476 -0.00316652 78.8063 8.08473e-06 76.1905V9.52382C8.08473e-06 6.90477 0.933342 4.66191 2.80001 2.79525C4.66667 0.928579 6.90794 -0.00316652 9.52382 8.08473e-06H76.1905C78.8095 8.08473e-06 81.0524 0.933342 82.919 2.80001C84.7857 4.66667 85.7175 6.90794 85.7143 9.52382V76.1905C85.7143 78.8095 84.781 81.0524 82.9143 82.919C81.0476 84.7857 78.8063 85.7175 76.1905 85.7143H57.1429L42.8571 100ZM9.52382 76.1905H32.381L42.8571 86.6667L53.3333 76.1905H76.1905V9.52382H9.52382V76.1905ZM42.6191 70.4762C44.2857 70.4762 45.6952 69.9 46.8476 68.7476C48 67.5952 48.5746 66.1873 48.5714 64.5238C48.5714 62.8571 47.9968 61.4476 46.8476 60.2952C45.6984 59.1429 44.2889 58.5683 42.6191 58.5714C40.9524 58.5714 39.5444 59.1476 38.3952 60.3C37.246 61.4524 36.6698 62.8603 36.6667 64.5238C36.6667 66.1905 37.2429 67.6 38.3952 68.7524C39.5476 69.9048 40.9556 70.4794 42.6191 70.4762ZM47.1429 52.1429C47.1429 49.2857 47.4603 47.1825 48.0952 45.8333C48.7302 44.4841 50.0794 42.7778 52.1429 40.7143C54.9206 37.9365 56.8841 35.6143 58.0333 33.7476C59.1825 31.881 59.7587 29.7587 59.7619 27.381C59.7619 23.1746 58.3333 19.781 55.4762 17.2C52.619 14.6191 48.7698 13.3302 43.9286 13.3333C39.5635 13.3333 35.854 14.4048 32.8 16.5476C29.746 18.6905 27.6222 21.6667 26.4286 25.4762L34.2857 28.5714C34.8413 26.4286 35.9524 24.7016 37.6191 23.3905C39.2857 22.0794 41.2302 21.4254 43.4524 21.4286C45.5952 21.4286 47.381 22.0048 48.8095 23.1571C50.2381 24.3095 50.9524 25.8365 50.9524 27.7381C50.9524 29.0873 50.5159 30.5159 49.6429 32.0238C48.7698 33.5318 47.3016 35.1984 45.2381 37.0238C42.6191 39.3254 40.8127 41.5286 39.8191 43.6333C38.8254 45.7381 38.3302 48.5746 38.3333 52.1429H47.1429Z" fill="#1F50FF"/>
</svg>
