<svg width="54" height="55" viewBox="0 0 54 55" fill="none" xmlns="http://www.w3.org/2000/svg">
<g id="formkit:time">
<path id="Vector" d="M25.3298 19.0006H28.658C28.9768 19.0006 29.2299 19.2631 29.2206 19.5819L28.5174 37.9577C28.508 38.2577 28.2549 38.5014 27.9549 38.5014H26.0329C25.7329 38.5014 25.4798 38.2671 25.4704 37.9577L24.7673 19.5819C24.7579 19.2631 25.011 19.0006 25.3298 19.0006ZM26.9986 40.3765C25.5454 40.3765 24.3735 41.5484 24.3735 43.0016C24.3735 44.4548 25.5454 45.6267 26.9986 45.6267C28.4518 45.6267 29.6237 44.4548 29.6237 43.0016C29.6237 41.5484 28.4518 40.3765 26.9986 40.3765ZM53.3903 45.2517L30.8988 6.25009C29.1737 3.24997 24.8329 3.24997 23.0984 6.25009L0.606878 45.2517C-1.11819 48.2425 1.03815 52.002 4.50704 52.002H49.4995C52.9497 52.002 55.1248 48.2518 53.3903 45.2517ZM49.4995 49.0019H4.49767C3.34449 49.0019 2.62259 47.7549 3.19449 46.7518L25.6954 7.75016C26.2673 6.75636 27.7205 6.74699 28.2924 7.75016L50.7933 46.7518C51.3746 47.7456 50.6527 49.0019 49.4995 49.0019Z" fill="white"/>
</g>
</svg>
