<svg width="41" height="54" viewBox="0 0 41 54" fill="none" xmlns="http://www.w3.org/2000/svg">
<path id="Vector" d="M33.75 0H6.75C3.02273 0 0 3.02273 0 6.75V47.25C0 50.9773 3.02273 54 6.75 54H33.75C37.4773 54 40.5 50.9773 40.5 47.25V6.75C40.5 3.02273 37.473 0 33.75 0ZM37.125 47.25C37.125 49.1105 35.6105 50.625 33.75 50.625H6.75C4.88953 50.625 3.375 49.1105 3.375 47.25V16.875H37.125V47.25ZM37.125 13.5H3.375V6.75C3.375 4.88953 4.88953 3.375 6.75 3.375H33.75C35.6105 3.375 37.125 4.88953 37.125 6.75V13.5ZM8.4375 45.5625H21.9375C22.8703 45.5625 23.625 44.8078 23.625 43.875C23.625 42.9422 22.8703 42.1875 21.9375 42.1875H8.4375C7.50516 42.1875 6.75 42.9469 6.75 43.875C6.75 44.8031 7.50516 45.5625 8.4375 45.5625ZM30.375 46.4062C31.7725 46.4062 32.9062 45.2725 32.9062 43.875C32.9062 42.4775 31.7725 41.3438 30.375 41.3438C28.9775 41.3438 27.8438 42.4775 27.8438 43.875C27.8438 45.2725 28.9723 46.4062 30.375 46.4062ZM30.375 36.2812C31.7725 36.2812 32.9062 35.1475 32.9062 33.75C32.9062 32.3525 31.7777 31.2188 30.375 31.2188C28.9723 31.2188 27.8438 32.3473 27.8438 33.75C27.8438 35.1527 28.9723 36.2812 30.375 36.2812ZM30.375 26.1562C31.7725 26.1562 32.9062 25.0225 32.9062 23.625C32.9062 22.2275 31.7777 21.0938 30.375 21.0938C28.9723 21.0938 27.8438 22.2223 27.8438 23.625C27.8438 25.0277 28.9723 26.1562 30.375 26.1562ZM20.25 36.2812C21.6475 36.2812 22.7812 35.1475 22.7812 33.75C22.7812 32.3525 21.6527 31.2188 20.25 31.2188C18.8473 31.2188 17.7188 32.3473 17.7188 33.75C17.7188 35.1527 18.8473 36.2812 20.25 36.2812ZM20.25 26.1562C21.6475 26.1562 22.7812 25.0225 22.7812 23.625C22.7812 22.2275 21.6527 21.0938 20.25 21.0938C18.8473 21.0938 17.7188 22.2223 17.7188 23.625C17.7188 25.0277 18.8473 26.1562 20.25 26.1562ZM10.125 36.2812C11.5225 36.2812 12.6562 35.1475 12.6562 33.75C12.6562 32.3525 11.5277 31.2188 10.125 31.2188C8.72227 31.2188 7.59375 32.3473 7.59375 33.75C7.59375 35.1527 8.72754 36.2812 10.125 36.2812ZM10.125 26.1562C11.5225 26.1562 12.6562 25.0225 12.6562 23.625C12.6562 22.2275 11.5277 21.0938 10.125 21.0938C8.72227 21.0938 7.59375 22.2223 7.59375 23.625C7.59375 25.0277 8.72754 26.1562 10.125 26.1562Z" fill="white"/>
</svg>
