<svg width="54" height="55" viewBox="0 0 54 55" fill="none" xmlns="http://www.w3.org/2000/svg">
<g id="formkit:time">
<path id="Vector" d="M52.3125 47.875H50.625V43.6562C50.625 42.2583 49.4917 41.125 48.0938 41.125H43.875V22.5625H40.5V41.125H33.75V22.5625H30.375V41.125H23.625V22.5625H20.25V41.125H13.5V22.5625H10.125V41.125H5.90625C4.50826 41.125 3.375 42.2583 3.375 43.6562V47.875H1.6875C0.755473 47.875 4.0062e-09 48.6305 4.0062e-09 49.5625V50.4062C4.0062e-09 50.63 0.0888949 50.8446 0.247129 51.0029C0.405362 51.1611 0.619974 51.25 0.84375 51.25H53.1562C53.38 51.25 53.5946 51.1611 53.7529 51.0029C53.9111 50.8446 54 50.63 54 50.4062V49.5625C54 48.6305 53.2445 47.875 52.3125 47.875ZM6.75 44.5H47.25V47.875H6.75V44.5ZM53.1844 14.9688L28.6009 4.25977C27.5617 3.91341 26.4383 3.91341 25.3991 4.25977L0.81559 14.9688C0.575741 15.06 0.369294 15.222 0.223633 15.4332C0.0779723 15.6445 -2.04095e-05 15.8951 4.0062e-09 16.1517V17.0781C4.0062e-09 17.7771 0.566684 18.3438 1.26562 18.3438H3.375V19.6094C3.375 20.3083 3.94168 20.875 4.64062 20.875H49.3594C50.0583 20.875 50.625 20.3083 50.625 19.6094V18.3438H52.7344C53.4333 18.3438 54 17.7771 54 17.0781V16.1517C54 15.6262 53.6755 15.1555 53.1844 14.9688ZM47.25 17.5H6.75V16.065L26.5721 7.43016C26.8526 7.35665 27.1474 7.35665 27.4279 7.43016L47.25 16.065V17.5Z" fill="white"/>
</g>
</svg>
