<svg width="54" height="54" viewBox="0 0 54 54" fill="none" xmlns="http://www.w3.org/2000/svg">
<path id="Vector" d="M53.9879 17.3571C53.9879 16.0795 53.6746 14.8259 53.0719 13.7049L47.1536 2.62768C46.6353 1.06071 45.1647 0 43.5013 0H10.4987C8.83527 0 7.36473 1.06071 6.83438 2.63973L0.916071 13.717C0.313393 14.8379 0 16.0915 0 17.3692C0.0120536 24.6616 0 50.1429 0 50.1429C0 52.2763 1.72366 54 3.85714 54H50.1429C52.2763 54 54 52.2763 54 50.1429C54 50.1429 53.9879 24.6616 53.9879 17.3571ZM43.5013 3.85714L49.6246 15.4286H34.4853L33.0388 3.85714H43.5013ZM23.1429 19.2857H30.8571V27H23.1429V19.2857ZM29.1576 3.85714L30.604 15.4286H23.396L24.8424 3.85714H29.1576ZM10.4987 3.85714H20.9612L19.5147 15.4286H4.37545L10.4987 3.85714ZM3.85714 50.1429C3.85714 50.1429 3.8692 28.3138 3.8692 19.2857H19.2857V27C19.2857 29.1335 21.0094 30.8571 23.1429 30.8571H30.8571C32.9906 30.8571 34.7143 29.1335 34.7143 27V19.2857H50.1308C50.1308 28.3138 50.1429 50.1429 50.1429 50.1429H3.85714Z" fill="white"/>
</svg>
