<svg width="55" height="55" viewBox="0 0 55 55" fill="none" xmlns="http://www.w3.org/2000/svg">
<g id="ion:person-outline" clip-path="url(#clip0_751_733)">
<path id="Vector" d="M26.3125 12.8125C26.3125 11.8844 27.0719 11.125 28 11.125C28.9281 11.125 29.6875 11.8844 29.6875 12.8125V27.093L39.0637 33.3473C39.8336 33.8641 40.0445 34.9082 39.5277 35.6887C39.0109 36.4586 37.9668 36.6695 37.1863 36.1527L27.0613 29.4027C26.5973 29.0863 26.2176 28.559 26.2176 28L26.3125 12.8125ZM28 1C42.9133 1 55 13.0867 55 28C55 42.9133 42.9133 55 28 55C13.0867 55 1 42.9133 1 28C1 13.0867 13.0867 1 28 1ZM4.375 28C4.375 41.0465 14.9535 51.625 28 51.625C41.0465 51.625 51.625 41.0465 51.625 28C51.625 14.9535 41.0465 4.375 28 4.375C14.9535 4.375 4.375 14.9535 4.375 28Z" fill="#00F8F7"/>
</g>
<defs>
<clipPath id="clip0_751_733">
<rect width="54" height="54" fill="white" transform="translate(0.945312 0.996094)"/>
</clipPath>
</defs>
</svg>
