<svg width="54" height="55" viewBox="0 0 54 55" fill="none" xmlns="http://www.w3.org/2000/svg">
<path id="Vector" d="M44.7209 15.0933C44.7209 18.4474 42.0735 20.9999 38.8143 20.9999C35.5552 20.9999 32.9078 18.4474 32.9078 15.0933C32.9078 11.9291 35.5552 9.18681 38.8143 9.18681C42.0735 9.18681 44.7209 11.9291 44.7209 15.0933ZM38.8143 17.6247C40.2171 17.6247 41.3457 16.5911 41.3457 15.0933C41.3457 13.7855 40.2171 12.562 38.8143 12.562C37.4115 12.562 36.283 13.7855 36.283 15.0933C36.283 16.5911 37.4115 17.6247 38.8143 17.6247ZM12.4986 30.2816H1.68757C1.10219 30.2816 0.559526 30.0706 0.25207 29.5749C-0.0554287 29.0792 -0.0834109 28.4569 0.178133 27.9295L5.52892 17.2345C6.67226 14.9457 9.00956 13.4058 11.5705 13.4058H21.0842C21.3479 13.0788 21.601 12.6885 21.8542 12.3088C30.4925 -0.429232 43.3603 -0.858722 51.0388 0.55642C52.2728 0.782029 53.2221 1.73298 53.4436 2.95964C54.8569 10.6424 54.435 23.5102 41.6938 32.1485C41.3141 32.4016 40.8289 32.6547 40.5019 32.9184V42.4322C40.5019 44.9952 39.0569 47.3261 36.7682 48.4758L26.0731 53.8233C25.5457 54.087 24.9234 54.0554 24.4277 53.7495C23.932 53.4436 23.6261 52.8952 23.6261 52.3151V41.3247C22.6979 41.7255 21.8753 42.0735 21.1053 42.3689C19.9451 42.8857 18.5106 42.6009 17.5614 41.6411L12.2139 36.2936C11.2435 35.3232 10.9587 33.8677 11.5072 32.6125C11.7814 31.9797 12.1189 31.2203 12.4986 30.3765V30.2816ZM19.924 39.1414C24.4488 37.3272 34.5848 32.8868 39.7952 29.3534C50.8278 21.8753 51.4079 10.8638 50.1739 3.82874C43.0438 2.5947 32.1273 3.1727 24.6492 14.2074C21.1264 19.3123 16.5805 29.3323 14.6187 33.9204L19.924 39.1414ZM35.2599 45.3643C36.4095 44.8791 37.1268 43.7189 37.1268 42.4322V34.8697C33.8993 36.6311 30.1971 38.2976 27.0013 39.8375V49.5833L35.2599 45.3643ZM8.54758 18.7427L4.41828 26.9064H14.0386C15.5152 23.816 17.3188 20.1139 19.1013 16.7809H11.5705C10.2879 16.7809 9.11925 17.5931 8.54758 18.7427Z" fill="#00F8F7"/>
</svg>
