<svg width="54" height="55" viewBox="0 0 54 55" fill="none" xmlns="http://www.w3.org/2000/svg">
<g id="svgexport-5">
<path id="Vector" d="M3.375 42.8125C3.375 45.6074 5.64152 47.875 8.4375 47.875H52.3125C53.2406 47.875 54 48.6344 54 49.5625C54 50.4906 53.2406 51.25 52.3125 51.25H8.4375C3.77789 51.25 0 47.4742 0 42.8125V5.6875C0 4.75516 0.755578 4 1.6875 4C2.61984 4 3.375 4.75516 3.375 5.6875V42.8125ZM34.9418 32.1918C34.2879 32.8562 33.2121 32.8562 32.5582 32.1918L23.5301 23.2586L13.0043 33.8793C12.3504 34.5437 11.2746 34.5437 10.6207 33.8793C9.96047 33.2254 9.96047 32.1496 10.6207 31.4957L22.4332 19.6832C23.0871 19.0187 24.1629 19.0187 24.8168 19.6832L33.75 28.6164L47.7457 14.6207C48.3996 13.9562 49.4754 13.9562 50.1293 14.6207C50.7937 15.2746 50.7937 16.3504 50.1293 17.0043L34.9418 32.1918Z" fill="#00F8F7"/>
</g>
</svg>
