<svg width="54" height="54" viewBox="0 0 54 54" fill="none" xmlns="http://www.w3.org/2000/svg">
<path d="M27 50.625C13.9725 50.625 3.375 40.0275 3.375 27C3.375 13.9725 13.9725 3.375 27 3.375C40.0275 3.375 50.625 13.9725 50.625 27C50.625 40.0275 40.0275 50.625 27 50.625ZM27 6.75C15.8288 6.75 6.75 15.8288 6.75 27C6.75 38.1712 15.8288 47.25 27 47.25C38.1712 47.25 47.25 38.1712 47.25 27C47.25 15.8288 38.1712 6.75 27 6.75Z" fill="white"/>
<path d="M33.7501 35.4375C33.4464 35.4375 33.1426 35.37 32.8726 35.2013L24.4351 30.1388C24.1852 29.9886 23.9789 29.7756 23.8368 29.521C23.6947 29.2664 23.6217 28.979 23.6251 28.6875V15.1875C23.6251 14.2425 24.3676 13.5 25.3126 13.5C26.2576 13.5 27.0001 14.2425 27.0001 15.1875V27.7425L34.6276 32.2987C34.9418 32.4913 35.1846 32.781 35.3193 33.124C35.454 33.467 35.4732 33.8446 35.3739 34.1994C35.2747 34.5543 35.0625 34.8672 34.7695 35.0906C34.4765 35.314 34.1186 35.4358 33.7501 35.4375Z" fill="white"/>
</svg>
