<svg width="43" height="43" viewBox="0 0 43 43" fill="none" xmlns="http://www.w3.org/2000/svg">
<path d="M40.7935 2.52797C40.7775 2.45103 40.7399 2.38025 40.6851 2.32395C40.6303 2.26764 40.5606 2.22817 40.4841 2.21016C35.386 0.963283 23.6091 5.40609 17.2219 11.7886C16.0836 12.9176 15.0456 14.1435 14.1197 15.4523C12.151 15.2742 10.1822 15.4242 8.50597 16.1555C3.77254 18.2367 2.39535 23.6723 2.01097 26.0058C1.99015 26.1336 1.99904 26.2646 2.03697 26.3884C2.0749 26.5123 2.14084 26.6258 2.22968 26.7201C2.31852 26.8143 2.42788 26.8869 2.54928 26.9321C2.67068 26.9773 2.80085 26.994 2.92972 26.9808L10.53 26.1464C10.5353 26.7197 10.5697 27.2923 10.6332 27.862C10.6728 28.2558 10.8485 28.6235 11.13 28.9017L14.0728 31.8445C14.3513 32.1262 14.7193 32.302 15.1135 32.3414C15.6798 32.4046 16.249 32.439 16.8188 32.4445L15.9853 40.0383C15.9723 40.167 15.9891 40.297 16.0343 40.4182C16.0796 40.5393 16.152 40.6485 16.2462 40.7372C16.3403 40.8259 16.4536 40.8918 16.5773 40.9298C16.701 40.9677 16.8317 40.9767 16.9594 40.9561C19.2938 40.5811 24.7407 39.2039 26.8097 34.4714C27.541 32.7933 27.691 30.8348 27.5222 28.8755C28.835 27.9504 30.0643 26.9124 31.1963 25.7733C37.6069 19.3983 42.0216 7.88016 40.7935 2.52797ZM25.4982 17.5148C24.9382 16.955 24.5569 16.2417 24.4023 15.4652C24.2478 14.6886 24.327 13.8837 24.63 13.1522C24.9329 12.4206 25.446 11.7954 26.1044 11.3555C26.7627 10.9156 27.5367 10.6808 28.3285 10.6808C29.1203 10.6808 29.8943 10.9156 30.5526 11.3555C31.2109 11.7954 31.724 12.4206 32.027 13.1522C32.3299 13.8837 32.4091 14.6886 32.2546 15.4652C32.1001 16.2417 31.7187 16.955 31.1588 17.5148C30.7874 17.887 30.3462 18.1823 29.8606 18.3838C29.3749 18.5852 28.8543 18.689 28.3285 18.689C27.8027 18.689 27.282 18.5852 26.7964 18.3838C26.3107 18.1823 25.8696 17.887 25.4982 17.5148Z" stroke="white" stroke-width="3" stroke-linecap="round" stroke-linejoin="round"/>
<path d="M7.77875 30.4824C6.84417 30.5971 5.97471 31.0208 5.30844 31.6862C3.65656 33.3437 3.5 39.4824 3.5 39.4824C3.5 39.4824 9.6425 39.3259 11.2953 37.6721C11.9634 37.0069 12.3877 36.136 12.5 35.1999" stroke="white" stroke-width="3" stroke-linecap="round" stroke-linejoin="round"/>
</svg>
