<svg width="10" height="12" viewBox="0 0 10 12" fill="none" xmlns="http://www.w3.org/2000/svg">
<path id="Vector" d="M10 5.53866V11.077C10 11.3218 9.90422 11.5565 9.73373 11.7296C9.56325 11.9028 9.33202 12 9.09091 12H0.909091C0.667985 12 0.436754 11.9028 0.266267 11.7296C0.0957789 11.5565 0 11.3218 0 11.077V5.53866C0 5.29385 0.0957789 5.05907 0.266267 4.88596C0.436754 4.71286 0.667985 4.61561 0.909091 4.61561H2.27273C2.39328 4.61561 2.5089 4.66423 2.59414 4.75079C2.67938 4.83734 2.72727 4.95473 2.72727 5.07713C2.72727 5.19954 2.67938 5.31693 2.59414 5.40348C2.5089 5.49003 2.39328 5.53866 2.27273 5.53866H0.909091V11.077H9.09091V5.53866H7.72727C7.60672 5.53866 7.4911 5.49003 7.40586 5.40348C7.32062 5.31693 7.27273 5.19954 7.27273 5.07713C7.27273 4.95473 7.32062 4.83734 7.40586 4.75079C7.4911 4.66423 7.60672 4.61561 7.72727 4.61561H9.09091C9.33202 4.61561 9.56325 4.71286 9.73373 4.88596C9.90422 5.05907 10 5.29385 10 5.53866ZM3.04886 3.09604L4.54545 1.57589V6.92323C4.54545 7.04563 4.59334 7.16303 4.67859 7.24958C4.76383 7.33613 4.87945 7.38476 5 7.38476C5.12055 7.38476 5.23617 7.33613 5.32141 7.24958C5.40666 7.16303 5.45455 7.04563 5.45455 6.92323V1.57589L6.95114 3.09604C7.03643 3.18264 7.15211 3.23129 7.27273 3.23129C7.39335 3.23129 7.50903 3.18264 7.59432 3.09604C7.67961 3.00944 7.72753 2.89198 7.72753 2.76951C7.72753 2.64704 7.67961 2.52958 7.59432 2.44298L5.32159 0.135359C5.27938 0.0924481 5.22924 0.0584064 5.17406 0.0351806C5.11888 0.0119547 5.05973 0 5 0C4.94027 0 4.88112 0.0119547 4.82594 0.0351806C4.77076 0.0584064 4.72062 0.0924481 4.67841 0.135359L2.40568 2.44298C2.32039 2.52958 2.27247 2.64704 2.27247 2.76951C2.27247 2.89198 2.32039 3.00944 2.40568 3.09604C2.49097 3.18264 2.60665 3.23129 2.72727 3.23129C2.84789 3.23129 2.96357 3.18264 3.04886 3.09604Z" fill="#fff"/>
</svg>
