<svg width="54" height="54" viewBox="0 0 54 54" fill="none" xmlns="http://www.w3.org/2000/svg">
<path id="Vector" d="M49.2645 4.73027C46.227 1.68434 42.3668 0 38.148 0C33.2174 0 27.7984 2.30766 22.6547 7.44926L13.616 16.4848C5.24496 24.8569 6.03703 38.7176 7.97555 43.6324L0.500977 51.107C0.171387 51.4266 0 51.8695 0 52.3125C0 53.209 0.725098 54 1.59258 54C2.02764 54 2.4627 53.8418 2.79176 53.499L10.2663 46.0245C12.0857 46.7364 15.0926 47.3017 18.6258 47.3017C24.6502 47.3017 32.0309 45.6732 37.4098 40.3871L46.4537 31.3432C56.0145 21.7898 55.8563 11.3379 49.2645 4.73027ZM15.9996 18.8789L25.0436 9.83496C29.2781 5.61621 33.8027 3.375 38.1375 3.375C41.3121 3.375 44.4255 4.66699 46.8777 7.11914C51.3338 11.5889 51.7029 17.6766 48.2614 23.6461H32.7364L36.6652 19.7174C37.3243 19.0582 37.3243 17.9898 36.6652 17.3317C36.006 16.6725 34.9386 16.6725 34.2795 17.3317L10.6861 40.925C9.62402 36.3762 9.26754 25.6184 15.9996 18.8789ZM18.7207 43.9172C16.2686 43.9172 14.4914 43.6271 13.0781 43.3107L19.2744 37.1145L35.9596 37.154L35.2107 37.9978C29.9637 43.1473 22.6336 43.9172 18.7207 43.9172ZM39.3293 33.7922H22.6125L29.2676 27.0285H45.7629C45.3094 27.675 39.3293 33.7922 39.3293 33.7922Z" fill="#25A7FF"/>
</svg>
