<svg width="54" height="54" viewBox="0 0 54 54" fill="none" xmlns="http://www.w3.org/2000/svg">
<g id="ph:handshake-light">
<path id="Vector" d="M52.977 26.1952C52.8559 26.5631 52.6631 26.9034 52.4096 27.1963C52.1562 27.4892 51.8472 27.729 51.5005 27.9017L46.438 30.4329L34.771 42.0999C34.5336 42.3365 34.2119 42.4693 33.8766 42.469C33.7728 42.4689 33.6694 42.4561 33.5687 42.4311L20.0687 39.0561C19.917 39.0167 19.7739 38.9494 19.6468 38.8578L7.91024 30.4793L2.75703 27.9017C2.0567 27.5514 1.52417 26.9373 1.27655 26.1944C1.02892 25.4515 1.08648 24.6407 1.43656 23.9403L6.67836 13.4588C7.02867 12.7585 7.64278 12.2259 8.38565 11.9783C9.12852 11.7307 9.93933 11.7882 10.6398 12.1383L15.4407 14.5388L26.7786 11.2988C27.0061 11.2337 27.2472 11.2337 27.4747 11.2988L38.8126 14.5388L43.6135 12.1383C44.314 11.7882 45.1248 11.7307 45.8676 11.9783C46.6105 12.2259 47.2246 12.7585 47.5749 13.4588L52.8167 23.9403C52.991 24.2869 53.0949 24.6647 53.1224 25.0517C53.1499 25.4387 53.1005 25.8274 52.977 26.1952ZM3.88977 25.6383L7.99883 27.7034L13.6266 16.4562L9.50703 14.4017C9.40688 14.352 9.29109 14.344 9.18509 14.3796C9.07908 14.4152 8.99155 14.4914 8.94172 14.5915L3.69992 25.073C3.65087 25.1729 3.64329 25.2882 3.67883 25.3936C3.69532 25.4467 3.72256 25.4958 3.75884 25.5379C3.79513 25.58 3.8397 25.6142 3.88977 25.6383ZM40.4157 32.8693L33.9336 27.6781C29.9258 31.1332 24.7409 31.6437 20.4758 28.9184C20.1026 28.6811 19.7875 28.363 19.5537 27.9877C19.32 27.6123 19.1735 27.1892 19.1251 26.7496C19.0767 26.3101 19.1276 25.8652 19.2742 25.448C19.4207 25.0308 19.659 24.6517 19.9716 24.339L29.6157 14.9818C29.756 14.8465 29.9256 14.7454 30.1114 14.6865L27.1266 13.8322L16.198 16.9456L10.1799 28.9901L20.9166 36.6577L33.4885 39.8007L40.4157 32.8693ZM44.1451 29.1399L38.1566 17.1565H31.0142L21.752 26.1425C21.7109 26.1856 21.6799 26.2373 21.6613 26.2938C21.6427 26.3504 21.6369 26.4104 21.6444 26.4694C21.6509 26.5338 21.6722 26.5959 21.7066 26.6508C21.741 26.7056 21.7875 26.7518 21.8427 26.7858C24.646 28.5767 29.0441 29.0787 32.9781 25.1152C33.1982 24.8942 33.4922 24.7623 33.8036 24.7448C34.1151 24.7273 34.422 24.8254 34.6656 25.0203L42.2213 31.0784L44.1451 29.1399ZM50.5491 25.073L45.3116 14.5915C45.2617 14.4914 45.1742 14.4152 45.0682 14.3796C44.9622 14.344 44.8464 14.352 44.7463 14.4017L40.6372 16.4562L46.2545 27.7034L50.3635 25.6489C50.4136 25.6247 50.4582 25.5906 50.4944 25.5485C50.5307 25.5064 50.558 25.4573 50.5745 25.4042C50.5935 25.3504 50.6015 25.2934 50.5978 25.2364C50.5942 25.1795 50.5791 25.1239 50.5534 25.073H50.5491Z" fill="#25A7FF"/>
</g>
</svg>
