<svg width="54" height="44" viewBox="0 0 54 44" fill="none" xmlns="http://www.w3.org/2000/svg">
<path id="Vector" d="M10.0491 2.84989L4.64906 0.225829C3.98461 -0.0357332 3.1725 0.152001 2.84513 0.827001C2.50763 1.49145 2.7713 2.30356 3.4463 2.6301L8.8463 5.25416C9.03656 5.34908 9.23906 5.40224 9.45 5.40224C10.0723 5.40224 10.6211 4.96981 10.7679 4.35852C10.9097 3.75692 10.6144 3.12411 10.0491 2.84989ZM9.45 24.2271C9.23906 24.2271 9.03867 24.2799 8.84883 24.3748L3.44883 26.9989C2.77383 27.3258 2.51058 28.1379 2.83711 28.802C3.17461 29.401 3.9863 29.7402 4.65117 29.4137L10.0512 26.7896C10.6102 26.5048 10.905 25.8725 10.7684 25.3468C10.6228 24.7334 10.0744 24.2271 9.45 24.2271ZM44.55 5.40224C44.7609 5.40224 44.9613 5.3495 45.1512 5.25458L50.5512 2.63052C51.2262 2.30356 51.4894 1.49145 51.1523 0.827423C50.8254 0.228361 50.0133 -0.110827 49.3484 0.226251L43.9484 2.85031C43.3894 3.12453 43.0945 3.75735 43.2312 4.3581C43.3772 4.96939 43.9256 5.40224 44.55 5.40224ZM8.1 14.7771C8.1 14.1021 7.49925 13.4271 6.75 13.4271H1.35C0.601172 13.4271 0 14.0283 0 14.7012C0 15.3741 0.601172 16.1271 1.35 16.1271H6.75C7.49925 16.1271 8.1 15.604 8.1 14.7771ZM52.65 13.4271H47.25C46.5012 13.4271 45.9 14.0283 45.9 14.7012C45.9 15.3741 46.5012 15.9753 47.25 15.9753H52.65C53.3988 15.9753 54 15.3741 54 14.7012C54 14.0283 53.4009 13.4271 52.65 13.4271ZM50.5491 27.1465L45.1491 24.5225C44.4846 24.2609 43.6725 24.4592 43.335 25.1236C43.008 25.7881 43.2717 26.6002 43.9467 26.9377L49.3467 29.5618C50.0112 29.8887 50.8233 29.625 51.1608 28.95C51.4941 28.2856 51.2241 27.4756 50.5491 27.1465ZM26.9578 0.00437864C18.7903 0.0281133 12.15 6.7438 12.15 14.9712C12.15 18.5917 13.4553 22.0874 15.8245 24.8093C16.9493 26.1011 18.8485 28.9935 19.5142 31.2235C19.6052 31.9565 20.2605 32.4571 21.0026 32.3803C21.7369 32.2986 22.2666 31.6239 22.1932 30.8911L22.1417 30.6116C21.2718 27.661 19.1042 24.4658 17.8614 23.0373C15.9216 20.8015 14.85 17.9412 14.85 14.9712C14.85 8.11658 20.1698 2.72839 26.9578 2.71152H27C30.2172 2.71152 33.248 3.96617 35.5388 6.2502C37.8675 8.56714 39.15 11.6637 39.15 14.9712C39.15 17.9404 38.081 20.8057 36.1403 23.0391C34.8958 24.4685 32.7282 27.6629 31.8583 30.6135L31.8056 30.8956C31.7172 31.6339 32.2222 32.3798 32.959 32.4718C33.0249 32.4797 33.0882 32.4849 33.1514 32.4849C33.8093 32.4849 34.3631 32.0529 34.4474 31.3779C35.1515 28.9943 37.0513 26.102 38.1768 24.8102C40.5422 22.084 41.85 18.5909 41.85 14.9712C41.85 10.9457 40.2848 7.16736 37.4439 4.33152C34.6359 1.52858 30.8475 -0.0958082 26.9578 0.00437864ZM32.3241 35.0271H21.6C20.8536 35.0271 20.2492 35.633 20.25 36.3797L20.2563 38.2646C20.2571 38.7936 20.4153 39.3159 20.7085 39.7564L22.1504 41.924C22.5913 42.5867 23.6034 43.1288 24.399 43.1288H29.6066C30.4013 43.1288 31.4131 42.5863 31.8536 41.9248L33.2955 39.7572C33.5447 39.3825 33.747 38.7143 33.7477 38.2655L33.7455 36.3805C33.6741 35.7106 33.1425 35.0271 32.3241 35.0271ZM31.0416 38.3431L29.6823 40.406C29.6421 40.443 29.54 40.4977 29.6091 40.5003L24.5221 40.5102C24.4864 40.5016 24.4261 40.4868 24.4021 40.4868C24.3902 40.4868 24.3907 40.4677 24.4021 40.4868L22.9593 38.3369L22.9584 37.7997H31.0534L31.0537 38.2368C31.0416 38.2756 31.0247 38.3431 31.0416 38.3431ZM28.35 6.75477C28.35 6.00889 27.7462 5.40477 27 5.40477C21.7898 5.40477 17.55 9.64377 17.55 14.7788C17.55 15.525 18.1538 16.1288 18.9 16.1288C19.6462 16.1288 20.25 15.5248 20.25 14.7788C20.25 11.0579 23.2774 8.10477 27 8.10477C27.7425 8.10392 28.35 7.50064 28.35 6.75477Z" fill="#25A7FF"/>
</svg>
