<svg width="52" height="52" viewBox="0 0 52 52" fill="none" xmlns="http://www.w3.org/2000/svg">
<path id="Vector" d="M14.3711 34.5211C15.0516 33.932 16.0773 34.0031 16.6664 34.6836C18.4844 36.7859 21.5922 39 26 39C30.4078 39 33.4242 36.7859 35.3336 34.6836C35.9227 34.0031 36.9484 33.932 37.6289 34.5211C38.3094 35.1102 38.3805 36.1359 37.7914 36.8164C35.5266 39.4164 31.5961 42.25 26 42.25C20.4039 42.25 16.4734 39.4164 14.2086 36.8164C13.6195 36.1359 13.6906 35.1102 14.3711 34.5211ZM0 26C0 11.6391 11.6391 0 26 0C40.3609 0 52 11.6391 52 26C52 40.3609 40.3609 52 26 52C11.6391 52 0 40.3609 0 26ZM26 48.75C38.5633 48.75 48.75 38.5633 48.75 26C48.75 24.3344 48.5672 22.6992 48.232 21.1352L47.7852 23.8164C47.257 26.9547 44.5453 29.25 41.3664 29.25H33.3836C30.2047 29.25 27.493 26.9547 26.9648 23.8164L26.1523 18.9414C26.0914 18.4945 26.0711 18.2305 26.0609 17.875H25.9391C25.9289 18.2305 25.9086 18.4945 25.8477 18.9414L25.0352 23.8164C24.507 26.9547 21.7953 29.25 18.6164 29.25H10.6336C7.45266 29.25 4.74094 26.9547 4.21789 23.8164L3.77102 21.1352C3.42977 22.6992 3.25 24.3344 3.25 26C3.25 38.5633 13.4367 48.75 26 48.75ZM26.9344 14.625C28.0516 12.6953 30.1336 11.375 32.5711 11.375H42.1789C42.5648 11.375 43.1031 11.4258 43.55 11.5172C39.3758 6.4675 33.0586 3.25 26 3.25C18.9414 3.25 12.6242 6.4675 8.45508 11.5172C8.89281 11.4258 9.34883 11.375 9.81703 11.375H19.4289C21.8664 11.375 23.9484 12.6953 25.0656 14.625H26.9344ZM30.1742 23.2883C30.357 24.4055 31.1086 25.3094 32.0023 25.7359L36.7047 21.125H34.125C33.4648 21.125 32.8758 20.7289 32.6219 20.1195C32.368 19.5102 32.5102 18.8195 32.9773 18.3523L36.7047 14.625H32.5711C30.5602 14.625 29.0266 16.4328 29.3617 18.4133L30.1742 23.2883ZM41.3664 26C42.8695 26 44.3117 24.8523 44.5758 23.2883L45.3883 18.4133C45.7234 16.4328 44.1898 14.625 42.1789 14.625H41.2953L38.0453 17.875H40.625C41.2852 17.875 41.8742 18.2711 42.1281 18.8805C42.382 19.4898 42.2398 20.1805 41.7727 20.6477L36.4203 26H41.3664ZM9.81703 14.625C7.80914 14.625 6.28164 16.4328 6.61172 18.4133L7.42422 23.2883C7.61008 24.4055 8.35453 25.3094 9.34273 25.7359L13.9547 21.125H11.375C10.7148 21.125 10.1248 20.7289 9.87391 20.1195C9.62203 19.5102 9.76117 18.8195 10.2273 18.3523L13.9547 14.625H9.81703ZM19.0227 20.6477L13.6703 26H18.6164C20.1195 26 21.5617 24.8523 21.8258 23.2883L22.6383 18.4133C22.9734 16.4328 21.4398 14.625 19.4289 14.625H18.5453L15.2953 17.875H17.7836C18.5352 17.875 19.1242 18.2711 19.3781 18.8805C19.632 19.4898 19.4898 20.1805 19.0227 20.6477Z" fill="#25A7FF"/>
</svg>
