<svg width="52" height="52" viewBox="0 0 52 52" fill="none" xmlns="http://www.w3.org/2000/svg">
<path id="Vector" d="M43.0623 14.5345C43.0623 17.7642 40.5131 20.222 37.3748 20.222C34.2366 20.222 31.6874 17.7642 31.6874 14.5345C31.6874 11.4877 34.2366 8.84705 37.3748 8.84705C40.5131 8.84705 43.0623 11.4877 43.0623 14.5345ZM37.3748 16.972C38.7256 16.972 39.8123 15.9767 39.8123 14.5345C39.8123 13.2752 38.7256 12.097 37.3748 12.097C36.0241 12.097 34.9373 13.2752 34.9373 14.5345C34.9373 15.9767 36.0241 16.972 37.3748 16.972ZM35.4045 46.6789L25.1061 51.8281C24.5983 52.082 23.9991 52.0516 23.5218 51.757C23.0444 51.4625 22.7499 50.9344 22.7499 50.3758V38.7266C22.7499 36.2079 21.7546 33.8009 19.9772 32.0235C18.1999 30.2462 15.7929 29.2509 13.2741 29.2509H1.62498C1.06131 29.2509 0.538775 28.9563 0.242721 28.479C-0.053373 28.0017 -0.0803174 27.4024 0.171526 26.8946L5.32387 16.5962C6.4248 14.3923 8.67542 12.9095 11.1413 12.9095H21.0233C29.1381 -0.379151 41.5897 -0.866547 49.1459 0.534705C50.3341 0.753571 51.2482 1.67169 51.4615 2.85184C52.863 10.4111 52.3755 22.8626 38.9998 30.886V40.8594C38.9998 43.3274 37.6084 45.5719 35.4045 46.6789ZM24.7202 33.161C37.1412 30.104 43.1943 24.5892 46.099 19.3892C49.0951 13.9556 49.0951 8.07518 48.3131 3.68668C43.9256 2.91075 38.0451 2.90872 32.6116 5.89769C27.3202 8.80846 21.8968 14.8595 18.8398 27.2806C20.0991 27.8899 21.2671 28.7126 22.2725 29.7282C23.2882 30.7337 24.1108 31.9016 24.7202 33.161ZM25.9999 47.7453L33.9522 43.6828C35.0592 43.2157 35.7498 42.0985 35.7498 40.8594V32.7243C32.9061 34.0954 29.6053 35.2938 25.7561 36.1673C25.9186 37.061 25.9999 37.8836 25.9999 38.7266V47.7453ZM15.7421 26.2446C16.7069 22.3954 17.9054 19.0033 19.2765 16.1595H11.1413C9.90635 16.1595 8.78104 16.9416 8.23058 18.0486L4.25442 26.0009H13.2741C14.0257 26.0009 14.9398 26.0821 15.7421 26.2446ZM16.9101 47.7352C11.8827 52.7625 0.0483821 51.95 0.0483821 51.95C0.0483821 51.95 -0.763353 40.0266 4.26356 35.0907C7.75628 31.597 13.4163 31.597 16.9101 35.0907C20.4038 38.5844 20.4038 44.2414 16.9101 47.7352ZM14.6148 37.386C12.2992 35.1618 8.78511 35.1618 6.56191 37.386C4.88004 39.0719 3.91216 42.3016 3.49779 45.7852C3.37286 46.8516 3.30685 47.8469 3.27536 48.7305C4.14981 48.6899 5.15325 48.6289 6.21152 48.507C9.69815 48.0906 12.9288 47.1156 14.6148 45.4399C16.839 43.2157 16.839 39.6102 14.6148 37.386Z" fill="#25A7FF"/>
</svg>
