<svg width="55" height="48" viewBox="0 0 55 48" fill="none" xmlns="http://www.w3.org/2000/svg">
<path id="Vector" d="M9.42857 17.1429H4.28571C1.92214 17.1429 0 19.0607 0 21.4286V43.7143C0 46.0821 1.92214 48 4.28571 48H9.42857C11.7964 48 13.7143 46.0821 13.7143 43.7143V21.4286C13.7143 19.0607 11.7964 17.1429 9.42857 17.1429ZM10.2857 43.7143C10.2857 44.1857 9.90107 44.5714 9.42857 44.5714H4.28571C3.81321 44.5714 3.42857 44.1857 3.42857 43.7143V21.4286C3.42857 20.9571 3.81321 20.5714 4.28571 20.5714H9.42857C9.90107 20.5714 10.2857 20.9571 10.2857 21.4286V43.7143ZM54.8571 20.3036C54.8571 16.6714 51.9 13.7143 48.2679 13.7143H37.2857C38.5693 10.815 39.3032 7.98429 39.3032 6.50036C39.3107 3.30429 36.8143 0 32.6679 0C28.2514 0 27.2357 3.11893 26.3336 5.8725C23.3679 14.9036 17.1429 16.3714 17.1429 18.8571C17.1429 19.8321 17.9464 20.5714 18.8571 20.5714C19.2964 20.5714 19.7357 20.4 20.0679 20.0679C25.7121 14.385 27.2486 14.0561 29.5832 6.94286C30.5679 3.95893 30.8786 3.42857 32.6679 3.42857C34.8814 3.42857 35.8757 5.22536 35.8757 6.50036C35.8757 7.58143 34.9231 11.2093 33.0236 14.5875C32.8772 14.8481 32.8044 15.1372 32.8044 15.4264C32.8071 16.4464 33.6429 17.1429 34.5214 17.1429H48.2679C50.0143 17.1429 51.4286 18.5571 51.4286 20.3036C51.4286 21.9461 50.1343 23.3207 48.4843 23.4321C47.5776 23.4944 46.8868 24.2517 46.8868 25.1421C46.8868 26.4482 48.1789 26.52 48.1789 28.4239C48.1789 29.9389 47.0957 31.2418 45.6043 31.5193C44.9852 31.6352 44.205 32.2068 44.205 33.2068C44.205 34.1589 44.9298 34.3554 44.9298 35.7311C44.9298 39.0546 41.5537 38.1011 41.5537 40.3436C41.5537 40.7214 41.6807 40.8932 41.6807 41.4161C41.6786 43.1571 40.2643 44.5714 38.5179 44.5714H32.5607C23.7739 44.5714 20.9571 37.7121 18.8571 37.7121C17.9065 37.7121 17.1429 38.4828 17.1429 39.4221C17.0464 41.175 24.0643 48 32.5607 48H38.5211C42.1543 48 45.1104 45.045 45.1104 41.4139C47.0979 40.2504 48.36 38.0925 48.36 35.7289C48.36 35.215 48.2964 34.701 48.1742 34.2C50.2431 33.0729 51.6092 30.8818 51.6092 28.4207C51.6092 27.6473 51.472 26.8875 51.2074 26.1729C53.3786 25.0929 54.8571 22.8536 54.8571 20.3036Z" fill="black"/>
</svg>
