<svg width="42" height="48" viewBox="0 0 42 48" fill="none" xmlns="http://www.w3.org/2000/svg">
<path id="Vector" d="M24.1969 33.0469C27.3675 28.6388 27.8953 23.5031 25.4616 18.8063C25.0749 18.0709 24.1725 17.7834 23.4375 18.1646C22.7021 18.5484 22.4147 19.4537 22.7959 20.1887C25.0219 24.4875 24.1031 29.1187 20.3438 33H12.3094C5.51345 33 -0.00936308 38.5359 1.19179e-05 45.3375C0.00385567 46.8094 1.22064 48 2.69626 48H33.3056C34.7813 48 35.9972 46.8103 36.0009 45.3347C36.0188 38.7094 30.75 33.3187 24.1969 33.0469ZM3.00095 45C3.17673 39.9844 7.27876 36 12.3066 36H23.6972C28.725 36 32.8266 39.9844 33.0028 45H3.00095ZM28.0688 3C26.6269 3 25.2563 3.23438 23.955 3.58594C21.4031 1.37063 17.8594 0 13.9313 0C6.87564 0 1.04064 4.42969 0.0187619 10.2094C-0.0466756 10.65 0.0822307 11.1188 0.375199 11.4656C0.679887 11.8125 1.11376 12.0094 1.57032 12H8.46189C5.43845 16.6781 5.16845 22.3594 7.9697 26.3531C8.63814 27.3188 9.80626 27.0562 10.3406 26.5312L21.8719 15H40.4344C40.8916 15.0117 41.3252 14.8125 41.6297 14.4609C41.9227 14.1211 42.0516 13.6523 41.9813 13.2066C40.9594 7.42969 35.1281 3 28.0688 3ZM20.625 12L9.59064 23.0438C7.9472 18.75 10.0125 12.4781 15.2531 9.525C15.9094 9.14156 16.1906 8.34375 15.9 7.64531C15.5531 6.82031 14.5594 6.45844 13.7906 6.91219C12.7875 7.50188 11.85 8.19938 10.9969 9H3.50439C5.04001 5.48438 9.20064 3 13.9388 3C17.0091 3 19.8694 4.00781 21.99 5.84812L23.1853 6.87937C24.1875 6.62156 26.1375 6 28.0688 6C32.8041 6 36.9638 8.48438 38.5031 12H20.625Z" fill="black"/>
</svg>
