<svg width="48" height="48" viewBox="0 0 48 48" fill="none" xmlns="http://www.w3.org/2000/svg">
<path id="Vector" d="M24 34.5C28.0688 34.5 30.8531 32.4562 32.6156 30.5156C33.1594 29.8875 34.1063 29.8219 34.7344 30.3656C35.3625 30.9094 35.4281 31.8563 34.8844 32.4844C32.7938 34.8844 29.1656 37.5 24 37.5C18.8344 37.5 15.2062 34.8844 13.1156 32.4844C12.5719 31.8563 12.6375 30.9094 13.2656 30.3656C13.8938 29.8219 14.8406 29.8875 15.3844 30.5156C17.0625 32.4562 19.9312 34.5 24 34.5ZM18.7875 19.5C18.7875 20.7469 17.775 21.75 16.5375 21.75C15.2906 21.75 14.2875 20.7469 14.2875 19.5C14.2875 18.2531 15.2906 17.25 16.5375 17.25C17.775 17.25 18.7875 18.2531 18.7875 19.5ZM29.2875 19.5C29.2875 18.2531 30.2906 17.25 31.5375 17.25C32.775 17.25 33.7875 18.2531 33.7875 19.5C33.7875 20.7469 32.775 21.75 31.5375 21.75C30.2906 21.75 29.2875 20.7469 29.2875 19.5ZM48 24C48 37.2562 37.2562 48 24 48C10.7438 48 0 37.2562 0 24C0 10.7438 10.7438 0 24 0C37.2562 0 48 10.7438 48 24ZM24 3C12.4031 3 3 12.4031 3 24C3 35.5969 12.4031 45 24 45C35.5969 45 45 35.5969 45 24C45 12.4031 35.5969 3 24 3Z" fill="black"/>
</svg>
