<svg width="60" height="48" viewBox="0 0 60 48" fill="none" xmlns="http://www.w3.org/2000/svg">
<path id="Vector" d="M21.525 0.361125C22.0875 -0.120375 22.9125 -0.120375 23.475 0.361125L44.475 18.3656C45.1032 18.9 45.1782 19.8469 44.6344 20.475C44.3438 20.8219 43.9313 20.9156 43.5094 20.9156H43.4907C43.1438 20.9156 42.8063 20.8781 42.525 20.6344L39 17.6156V20.9156H36V15.0469L22.5 3.47531L9.00003 15.0469V33C9.00003 34.6594 10.3407 36 12 36H25.5V39H12C8.68597 39 6.00003 36.3094 6.00003 33V17.6156L2.47597 20.6344C1.8469 21.1781 0.90031 21.1031 0.361154 20.475C-0.178002 19.8469 -0.105158 18.9 0.523904 18.3656L21.525 0.361125ZM51 24C53.4844 24 55.5 26.0156 55.5 28.5V40.5C55.5 41.325 54.825 42 54 42C53.175 42 52.5 41.325 52.5 40.5V28.5C52.5 27.675 51.825 27 51 27H33C32.175 27 31.5 27.675 31.5 28.5V40.5C31.5 41.325 30.825 42 29.9157 42C29.175 42 28.4157 41.325 28.4157 40.5V28.5C28.4157 26.0156 30.5157 24 33 24H51ZM58.5 45C59.325 45 60 45.675 60 46.5C60 47.325 59.325 48 58.5 48H25.4157C24.675 48 23.9157 47.325 23.9157 46.5C23.9157 45.675 24.675 45 25.4157 45H58.5ZM25.4157 16.5C27.1594 16.5 28.4157 17.8406 28.4157 19.5V21C28.4157 21.825 27.825 22.5 26.9157 22.5C26.175 22.5 25.4157 21.825 25.4157 21V19.5H19.4157V25.5H23.9157C24.825 25.5 25.4157 26.175 25.4157 27C25.4157 27.825 24.825 28.5 23.9157 28.5H19.4157C17.8407 28.5 16.4157 27.1594 16.4157 25.5V19.5C16.4157 17.8406 17.8407 16.5 19.4157 16.5H25.4157Z" fill="black"/>
</svg>
