<svg width="55" height="48" viewBox="0 0 55 48" fill="none" xmlns="http://www.w3.org/2000/svg">
<path id="Vector" d="M50.3375 4.7761C45.4851 0.0268376 40.2678 0 38.8937 0C37.5378 0 32.2894 0.0268385 27.4822 4.76322C22.6835 0.0268385 17.4447 0 16.0814 0C14.7073 0 9.4792 0.0268376 4.64406 4.7761C1.65108 7.63274 0 11.6692 0 15.8667C0 19.2536 1.11646 22.4237 3.09711 25.0839C3.41809 25.5176 3.93875 25.6679 4.47551 25.6679H16.5097L19.8065 18.0566L25.9138 31.626C26.5079 32.9453 28.3689 32.984 29.0162 31.6893L34.3559 21.0131L36.7316 25.7624H50.4835C51.02 25.7624 51.5414 25.5219 51.8619 25.0916C53.8479 22.4259 54.9643 19.259 54.9643 15.8667C54.9751 11.6692 53.3218 7.63274 50.3375 4.7761ZM49.6611 22.2326H38.8615L35.8878 16.3927C35.2569 15.1313 33.4585 15.1313 32.8272 16.3927L27.5659 26.9111L21.3309 13.0326C20.6975 11.6585 18.7544 11.6907 18.1747 13.0648L14.3101 22.2326H5.31501C4.32179 20.6632 0.738583 13.3514 7.27419 6.91348C9.70357 4.53885 12.8844 3.3451 16.0792 3.3451C19.7163 3.3451 21.931 4.01583 27.4908 9.48994C33.3962 3.68003 35.4906 3.3451 38.9023 3.3451C42.0971 3.3451 45.2779 4.53885 47.6934 6.91348C54.2343 13.462 50.638 20.7727 49.6611 22.2326ZM44.0574 29.1032C43.5923 29.1032 43.1407 29.2921 42.8174 29.6263L28.8509 44.0652C28.18 44.7225 27.1064 44.7225 26.4355 44.0652L12.1952 29.7044C11.8732 29.3823 11.433 29.1032 10.9714 29.1032C9.44807 29.1032 8.6805 30.9389 9.74865 32.0232L24.0372 46.5157C26.0501 48.5017 29.2588 48.4878 31.2717 46.5157L45.2919 32.0124C46.344 31.0141 45.571 29.1032 44.0574 29.1032Z" fill="black"/>
</svg>
