<svg width="212" height="207" viewBox="0 0 212 207" fill="none" xmlns="http://www.w3.org/2000/svg">
<g id="Group 89">
<path id="Vector" d="M127.653 86.0853L127.665 85.152L128.606 85.1251C128.822 85.1189 129.045 85.1118 129.273 85.1045C130.89 85.0529 132.773 84.9927 134.482 85.2011C172.473 88.4107 188.915 130.392 165.038 157.92C164.564 158.543 164.739 159.435 165.559 160.125C165.947 160.453 166.393 160.635 166.787 160.652C167.149 160.668 167.526 160.551 167.874 160.158L167.879 160.152L167.884 160.147C181.593 145.136 187.427 124.882 176.351 106.244C166.613 90.0151 148.117 78.4053 128.471 80.1606L127.455 80.2514L127.358 79.2407C125.959 64.5315 119.564 51.5614 107.389 45.1318C91.4749 36.9064 72.887 39.0581 57.9106 47.565C42.9276 56.0756 31.7306 70.8515 30.503 87.6338L30.5014 87.6563L30.4987 87.6788C30.4522 88.0671 30.5689 88.2844 30.703 88.4209C30.8612 88.5819 31.1294 88.7114 31.4661 88.7387C32.1548 88.7944 32.7152 88.4388 32.798 87.7482L32.8017 87.7166L32.8076 87.6853C35.2327 74.6828 44.024 62.1005 55.694 53.8338C67.3697 45.5631 82.0608 41.5232 96.31 45.85L96.3119 45.8505C113.303 51.0442 120.625 65.0366 121.774 80.2744L121.837 81.1029L121.027 81.2946C102.124 85.7669 86.2829 99.1448 77.0435 115.622C73.2958 122.363 73.7327 129.765 77.1496 134.811C80.5243 139.795 86.9416 142.676 95.6525 140.172C105.392 137.322 113.318 129.719 118.861 119.809C124.402 109.905 127.508 97.7849 127.653 86.0853ZM91.4525 104.951L91.4614 104.941L91.4706 104.932C99.4503 96.9417 109.441 89.3783 120.787 86.3163L122.145 85.9498L122.075 87.3487C121.385 101.083 116.244 115.386 108.778 124.845C105.526 129.246 100.955 134.495 94.6618 135.383L94.6498 135.385C92.2173 135.698 88.1396 135.726 84.747 134.632C83.0454 134.084 81.4232 133.224 80.2952 131.885C79.1392 130.513 78.5824 128.732 78.8707 126.536C79.8815 118.119 86.0658 110.643 91.4525 104.951Z" stroke="#25A7FF" stroke-width="2"/>
<path id="Vector_2" d="M158.378 151.503C158.349 150.474 157.624 149.897 156.864 149.811C156.484 149.767 156.148 149.857 155.914 150.035C155.698 150.199 155.487 150.499 155.451 151.057C155.07 158.891 156.232 167.035 157.922 174.843C158.046 175.414 158.429 175.978 158.964 176.367C159.496 176.754 160.1 176.913 160.64 176.81C165.811 175.823 170.614 174.616 175.577 172.804C176.18 172.574 176.9 172.343 177.64 172.105C177.875 172.029 178.111 171.953 178.347 171.876C179.353 171.548 180.381 171.193 181.327 170.769C183.29 169.891 184.56 168.867 184.822 167.56C184.941 166.902 184.909 166.385 184.763 166.02C184.635 165.703 184.391 165.416 183.839 165.225L183.839 165.225C182.576 164.787 181.077 165.079 179.391 165.756C178.565 166.088 177.746 166.49 176.935 166.892C176.887 166.916 176.838 166.94 176.789 166.964C176.043 167.335 175.291 167.708 174.599 167.986L174.579 167.994L174.558 168.001C171.122 169.208 167.384 170.216 163.903 171.154C163.652 171.221 163.402 171.289 163.153 171.356L162.162 171.623L161.898 170.628C160.278 164.533 158.559 158.027 158.378 151.503ZM158.378 151.503L159.382 151.498L158.378 151.503Z" stroke="#25A7FF" stroke-width="2"/>
</g>
</svg>
