<svg width="49" height="48" viewBox="0 0 49 48" fill="none" xmlns="http://www.w3.org/2000/svg">
<path id="Vector" d="M0.0632725 20.4043C0.0405291 20.2132 0.0238991 19.9458 0.0134206 19.6688C0.00446078 19.43 0 19.2007 0 18.9619V17.4336H0.0134206C0.261916 10.3556 3.9488 4.15153 9.45553 0.440581C10.7173 -0.411935 12.3985 0.0283165 13.2677 1.28307L24.4531 17.4336H39.7363V12.8486C39.7363 10.3174 41.79 8.26367 44.3213 8.26367H47.3779C48.2185 8.26367 48.9062 8.95141 48.9062 9.79199C48.9062 10.6326 48.2185 11.3203 47.3779 11.3203H44.3213C43.4807 11.3203 42.793 12.0081 42.793 12.8486V19.7261H42.7739C42.7643 19.984 42.7548 20.2323 42.7261 20.4902C42.5542 22.6108 42.0097 24.6931 41.1214 26.6513C40.0324 29.0011 38.4277 31.2744 36.4313 33.0989C34.435 34.9329 32.0756 36.3752 29.4966 37.3495C26.9271 38.3334 24.1666 38.8301 21.3965 38.8301C18.5404 38.8301 15.8659 38.3334 13.2964 37.3495C10.7173 36.3752 8.35991 34.9329 6.36259 33.0989C4.36526 31.2744 2.76435 29.0011 1.66682 26.6513C0.781163 24.6931 0.239345 22.6108 0.0632725 20.4043ZM20.7374 17.4336L10.8606 3.18201C6.33011 6.36855 3.31263 11.5496 3.07192 17.4336H20.7374ZM4.45219 25.4C5.37396 27.4345 6.72556 29.2876 8.42869 30.8542C10.1347 32.4111 12.1501 33.6529 14.3758 34.4935C16.6014 35.334 18.9894 35.7734 21.3105 35.7734C23.8036 35.7734 26.1916 35.334 28.4172 34.4935C30.6428 33.6529 32.6583 32.4111 34.3681 30.8542C36.0684 29.2876 37.4152 27.4345 38.3417 25.4C39.0486 23.8239 39.488 22.1714 39.6599 20.4902H24.4531C24.4436 20.4902 24.4436 20.4902 24.434 20.4902H3.1321C3.30022 22.1714 3.74438 23.8239 4.45314 25.4H4.45219ZM2.97067 43.415C2.97067 40.8838 5.10937 38.8301 7.55563 38.8301C10.1729 38.8301 12.1406 40.8838 12.1406 43.415C12.1406 45.9463 10.1729 48 7.55563 48C5.10937 48 2.97067 45.9463 2.97067 43.415ZM7.55563 44.9434C8.486 44.9434 9.08395 44.2556 9.08395 43.415C9.08395 42.5745 8.486 41.8867 7.55563 41.8867C6.7972 41.8867 6.02731 42.5745 6.02731 43.415C6.02731 44.2556 6.7972 44.9434 7.55563 44.9434ZM39.7363 43.415C39.7363 45.9463 37.6826 48 35.1514 48C32.6201 48 30.5664 45.9463 30.5664 43.415C30.5664 40.8838 32.6201 38.8301 35.1514 38.8301C37.6826 38.8301 39.7363 40.8838 39.7363 43.415ZM35.1514 41.8867C34.3108 41.8867 33.623 42.5745 33.623 43.415C33.623 44.2556 34.3108 44.9434 35.1514 44.9434C35.9919 44.9434 36.6797 44.2556 36.6797 43.415C36.6797 42.5745 35.9919 41.8867 35.1514 41.8867Z" fill="black"/>
</svg>
