<svg width="227" height="194" viewBox="0 0 227 194" fill="none" xmlns="http://www.w3.org/2000/svg">
<g id="Group">
<g id="Layer 1">
<path id="Vector" d="M185.5 0.531249L116.5 78.6913C116.76 79.6113 117.04 80.5013 117.35 81.3913L188.33 1.01125C187.39 0.821248 186.45 0.661249 185.5 0.531249ZM204.83 7.65125L126.21 96.7312C126.74 97.3512 127.29 97.9512 127.85 98.5412L206.85 9.02125C206.19 8.53125 205.52 8.09125 204.83 7.65125ZM192.67 2.08125L119.03 85.5312C119.39 86.3213 119.78 87.1113 120.18 87.8813L195.18 2.88125C194.33 2.61125 193.52 2.33125 192.67 2.08125ZM177.43 0.0012501L114.92 70.8313C115.047 71.8846 115.207 72.9246 115.4 73.9512L180.61 0.0612477C179.564 0.014581 178.504 -0.00541656 177.43 0.0012501ZM209.99 11.4712L130.72 101.291C131.33 101.831 131.95 102.341 132.59 102.841L211.79 13.1012C211.21 12.5312 210.61 12.0012 209.99 11.4712ZM170.54 0.531249C169.73 0.641249 168.93 0.77125 168.13 0.91125L114.54 61.6312C114.54 62.4412 114.48 63.2412 114.48 64.0512C114.48 64.4812 114.48 64.9013 114.48 65.3313L171.79 0.39125C171.39 0.39125 170.97 0.421249 170.54 0.531249ZM139.4 14.0712L123.93 31.6012C122.204 34.4179 120.69 37.3594 119.4 40.4013L147.59 8.45125C144.725 10.1184 141.987 11.9969 139.4 14.0712ZM156.82 4.01125L116.18 50.0113C115.8 51.5813 115.48 53.1613 115.23 54.7513L161.43 2.40125C159.87 2.88791 158.334 3.42458 156.82 4.01125ZM199.08 4.49125L122.33 91.5312C122.777 92.1979 123.247 92.8879 123.74 93.6013L201.37 5.60125C200.604 5.22125 199.84 4.86458 199.08 4.53125V4.49125ZM188.44 107.281L223.66 67.3712C224.23 65.6212 224.66 63.8512 225.12 62.0612L183.33 109.421C185.06 108.781 186.76 108.071 188.44 107.281ZM172.21 112.341C173.52 112.121 174.82 111.881 176.1 111.581L226.33 54.6813C226.46 53.3813 226.53 52.0713 226.57 50.7513L172.21 112.341ZM218.45 79.3412L199.66 100.631C207.346 94.9091 213.747 87.6395 218.45 79.2913V79.3412ZM226.08 41.6712L163.01 113.131C164.1 113.131 165.21 113.131 166.33 113.041L226.43 44.9413C226.33 43.7913 226.23 42.6912 226.08 41.6212V41.6712ZM218.52 21.2112L141.52 108.431C142.29 108.801 143.06 109.141 143.85 109.431L219.85 23.3313C219.43 22.5813 218.99 21.8612 218.52 21.1612V21.2112ZM214.52 16.0312L135.81 105.221C136.49 105.671 137.19 106.101 137.9 106.521L216.09 17.9212C215.62 17.2212 215.09 16.6012 214.55 15.9812L214.52 16.0312ZM221.8 27.1412L147.88 110.891C148.74 111.151 149.6 111.401 150.48 111.621L222.87 29.6212C222.56 28.7112 222.21 27.8912 221.83 27.0912L221.8 27.1412ZM224.37 33.8913L154.98 112.521C155.98 112.671 156.91 112.791 157.89 112.891L225.13 36.7113C224.93 35.7013 224.68 34.7712 224.4 33.8412L224.37 33.8913Z" fill="#25A7FF"/>
<path id="Vector_2" d="M69.05 83.6605L1.98 159.66C2.23 160.55 2.51 161.42 2.81 162.28L71.81 84.1405C70.88 83.9505 69.97 83.7905 69.05 83.6605ZM87.84 90.5805L11.4 177.19C11.92 177.79 12.4 178.38 13 178.95L89.81 91.9505C89.16 91.4605 88.51 91.0105 87.84 90.5805ZM76.01 85.1705L4.42 166.3C4.77 167.07 5.15 167.84 5.54 168.59L78.45 85.9705C77.65 85.6805 76.84 85.4205 76.01 85.1705ZM61.2 83.1705L0.43 152.01C0.55 153.01 0.71 154.01 0.9 155.01L64.33 83.2105C63.2833 83.1571 62.24 83.1372 61.2 83.1505V83.1705ZM92.86 94.3205L15.79 181.62C16.38 182.14 16.99 182.62 17.61 183.13L94.61 95.8905C94.04 95.3405 93.45 94.8205 92.86 94.3005V94.3205ZM54.5 83.6205C53.71 83.7205 52.94 83.8505 52.16 83.9905L0.0599995 142.99C0.0599995 143.77 0 144.55 0 145.34C0 145.76 0 146.17 0 146.58L55.75 83.5305C55.33 83.5305 54.92 83.5305 54.5 83.6205ZM24.22 96.8305L9.22 113.83C7.53558 116.565 6.06134 119.423 4.81 122.38L32.22 91.3805C29.4207 92.9944 26.7465 94.8162 24.22 96.8305ZM41.16 87.0405L1.65 131.81C1.28 133.33 0.98 134.87 0.73 136.42L45.65 85.5305C44.1033 85.9772 42.6067 86.4805 41.16 87.0405ZM82.24 87.5205L7.59 172.1C8.03 172.767 8.49 173.434 8.97 174.1L84.44 88.5905C83.72 88.2205 82.99 87.8605 82.24 87.5305V87.5205ZM71.9 187.45L106.15 148.64C106.69 146.94 107.15 145.22 107.56 143.48L66.92 189.53C68.61 188.91 70.27 188.21 71.9 187.45ZM56.12 192.36C57.39 192.15 58.66 191.92 59.91 191.63L108.73 136.31C108.85 135.04 108.92 133.77 108.96 132.49L56.12 192.36ZM101.12 160.23L82.85 180.93C90.3042 175.378 96.5139 168.327 101.08 160.23H101.12ZM108.54 123.61L47.18 193.09C48.24 193.09 49.32 193.09 50.4 192.99L108.83 126.79C108.75 125.724 108.64 124.664 108.5 123.61H108.54ZM101.19 103.72L26.33 188.53C27.07 188.88 27.83 189.21 28.59 189.53L102.47 105.83C102.03 105.1 101.6 104.4 101.15 103.72H101.19ZM97.33 98.7205L20.81 185.42C21.47 185.86 22.15 186.28 22.81 186.68L98.81 100.55C98.3167 99.8705 97.8233 99.2505 97.33 98.6905V98.7205ZM104.33 109.53L32.5 190.91C33.33 191.16 34.17 191.4 35.02 191.61L105.4 111.87C105.08 111.06 104.73 110.26 104.33 109.53ZM106.84 116.1L39.4 192.53C40.34 192.68 41.28 192.79 42.23 192.89L107.6 118.83C107.38 117.86 107.13 116.95 106.87 116.05L106.84 116.1Z" fill="#25A7FF"/>
<g id="Group_2" style="mix-blend-mode:multiply">
<path id="Vector_3" d="M111.316 184.725C165.584 179.892 207.172 148.975 204.206 115.672C201.239 82.3682 154.842 59.289 100.573 64.1227C46.3054 68.9565 4.71724 99.8728 7.68364 133.176C10.65 166.48 57.0477 189.559 111.316 184.725Z" fill="url(#paint0_radial_688_681)"/>
</g>
<path id="Vector_4" d="M58.6406 149.181C36.8306 149.181 20.3906 132.531 20.3906 110.531C20.3906 86.3512 40.0606 64.0612 64.2306 60.8412L176.391 46.1012C178.33 45.8393 180.284 45.7056 182.241 45.7012C204.051 45.7012 220.491 62.3212 220.491 84.3412C220.491 108.521 200.821 130.811 176.651 134.031L64.5006 148.791C62.5579 149.049 60.6004 149.18 58.6406 149.181Z" fill="#0B2840"/>
<path id="Vector_5" d="M182.241 46.7012C203.241 46.7012 219.491 62.5512 219.491 84.3412C219.491 108.081 200.251 129.881 176.491 133.041L64.3306 147.791C62.4314 148.048 60.5172 148.178 58.6006 148.181C37.6006 148.181 21.3506 132.331 21.3506 110.541C21.3506 86.8012 40.5906 65.0012 64.3506 61.8412L176.521 47.0912C178.417 46.8343 180.327 46.704 182.241 46.7012ZM182.241 44.7012C180.234 44.7055 178.23 44.8391 176.241 45.1012L64.1006 59.8612C39.4506 63.1412 19.3906 85.8612 19.3906 110.541C19.3906 133.141 36.2606 150.181 58.6406 150.181C60.6471 150.177 62.6513 150.043 64.6406 149.781L176.791 135.021C201.451 131.741 221.501 109.021 221.501 84.3412C221.501 61.7412 204.631 44.7012 182.251 44.7012H182.241Z" fill="#25A7FF"/>
<path id="Vector_6" d="M56.7291 116.121C54.4045 116.49 52.0317 116.429 49.7291 115.941C47.5731 115.491 45.5315 114.606 43.7291 113.341C41.9604 112.111 40.4629 110.532 39.3291 108.701C38.1496 106.762 37.3836 104.6 37.0791 102.351C36.722 100.115 36.8344 97.8301 37.4091 95.6406C37.9741 93.5516 38.9686 91.6034 40.3291 89.9206C41.7005 88.1999 43.4001 86.7689 45.3291 85.7106C49.7838 83.3666 54.9266 82.6825 59.8391 83.7806C62.1451 84.3518 64.2854 85.4545 66.0891 87.0006L62.0891 92.0006C60.8744 91.0129 59.4682 90.2876 57.9591 89.8706C56.4786 89.4766 54.9318 89.3982 53.4191 89.6406C51.9841 89.828 50.5968 90.2825 49.3291 90.9806C48.1808 91.6123 47.178 92.4782 46.3856 93.5221C45.5932 94.566 45.0289 95.7647 44.7291 97.0406C44.4144 98.4221 44.3669 99.8512 44.5891 101.251C44.7781 102.638 45.2331 103.976 45.9291 105.191C46.5859 106.326 47.4671 107.317 48.5191 108.101C49.5747 108.883 50.7849 109.432 52.0691 109.711C53.4594 110.013 54.8939 110.054 56.2991 109.831C57.7034 109.616 59.064 109.177 60.3291 108.531C61.7194 107.788 62.955 106.787 63.9691 105.581L68.8891 110.231C67.2763 111.833 65.3943 113.14 63.3291 114.091C61.2407 115.087 59.0168 115.771 56.7291 116.121ZM62.0791 110.271L60.3291 98.4306L66.9991 97.4306L68.8891 110.221L62.0791 110.271Z" fill="#25A7FF"/>
<path id="Vector_7" d="M75.6481 112.781L72.0781 88.5312L78.7881 87.5312L79.7881 94.3812L78.5581 92.5312C78.9927 90.7758 80.0164 89.2227 81.4581 88.1312C83.1091 86.9334 85.0416 86.1825 87.0681 85.9512L88.0681 92.4312H87.2481L86.4781 92.5212C84.7579 92.6938 83.1726 93.5295 82.0581 94.8512C81.0581 96.1212 80.6881 97.9112 81.0581 100.231L82.7481 111.661L75.6481 112.781Z" fill="#25A7FF"/>
<path id="Vector_8" d="M100.841 109.442C99.176 109.727 97.4683 109.638 95.8414 109.182C94.4945 108.801 93.2817 108.049 92.3414 107.012C91.4731 105.987 90.9075 104.741 90.7079 103.413C90.5083 102.084 90.6826 100.727 91.2114 99.492C91.877 98.2057 92.9251 97.1576 94.2114 96.492C96.0351 95.531 98.0227 94.9204 100.071 94.692L106.511 93.692L107.111 97.782L101.441 98.622C100.23 98.6692 99.0719 99.1317 98.1614 99.932C97.9005 100.223 97.7085 100.57 97.5994 100.945C97.4904 101.321 97.4671 101.716 97.5314 102.102C97.575 102.523 97.7231 102.927 97.9624 103.276C98.2017 103.625 98.5245 103.909 98.9014 104.102C99.8381 104.536 100.889 104.662 101.901 104.462C103.001 104.309 104.038 103.86 104.901 103.162C105.751 102.46 106.337 101.491 106.561 100.412L108.121 103.492C107.892 105.062 107.082 106.49 105.851 107.492C104.386 108.579 102.656 109.253 100.841 109.442ZM108.171 107.992L107.471 103.262L106.871 102.262L105.621 93.792C105.556 93.1456 105.353 92.5207 105.027 91.9586C104.701 91.3965 104.26 90.9102 103.731 90.532C102.396 89.7774 100.827 89.5491 99.3314 89.892C98.0403 90.0819 96.7879 90.4768 95.6214 91.062C94.5231 91.5839 93.5274 92.2985 92.6814 93.172L89.4414 88.642C90.7477 87.4352 92.2533 86.4642 93.8914 85.772C95.665 84.9929 97.535 84.4547 99.4514 84.172C103.151 83.632 106.141 84.072 108.451 85.512C110.761 86.952 112.171 89.512 112.721 93.212L114.721 107.042L108.171 107.992Z" fill="#25A7FF"/>
<path id="Vector_9" d="M115.519 88.2211L114.719 82.8211L131.519 80.3411L132.309 85.7511L115.519 88.2211ZM131.049 104.981C128.648 105.491 126.143 105.061 124.049 103.781C122.235 102.561 121.119 100.508 120.699 97.6211L117.569 76.3711L124.569 75.3711L127.729 96.5311C127.764 96.9627 127.885 97.3829 128.084 97.7675C128.283 98.152 128.557 98.4931 128.889 98.7711C129.22 99.0142 129.598 99.1852 130 99.273C130.401 99.3608 130.816 99.3636 131.219 99.2811C132.243 99.1635 133.197 98.6975 133.919 97.9611L136.549 102.641C135.838 103.289 135.019 103.807 134.129 104.171C133.139 104.565 132.105 104.837 131.049 104.981Z" fill="#25A7FF"/>
<path id="Vector_10" d="M150.958 102.051C149.1 102.356 147.197 102.226 145.398 101.671C143.718 101.136 142.249 100.087 141.198 98.6709C139.984 96.8993 139.225 94.8557 138.988 92.7209L136.988 79.0309L143.988 78.0309L145.858 90.6809C145.955 92.2872 146.643 93.801 147.788 94.9309C148.326 95.3485 148.947 95.6443 149.61 95.798C150.273 95.9516 150.962 95.9595 151.628 95.8209C152.636 95.6858 153.592 95.297 154.408 94.6909C155.203 94.0667 155.783 93.2103 156.068 92.2409C156.414 91.0108 156.475 89.7183 156.248 88.4609L154.478 76.4609L161.478 75.4609L165.048 99.6909L158.378 100.691L157.378 94.0209L158.878 95.7809C158.372 97.5102 157.319 99.0291 155.878 100.111C154.425 101.156 152.734 101.823 150.958 102.051Z" fill="#25A7FF"/>
<path id="Vector_11" d="M171.06 70.5309C169.91 70.7503 168.719 70.5136 167.74 69.8709C167.306 69.5698 166.937 69.1826 166.658 68.7333C166.38 68.284 166.196 67.7821 166.119 67.2589C166.042 66.7357 166.074 66.2023 166.212 65.6917C166.349 65.1812 166.591 64.7044 166.92 64.2909C167.675 63.3904 168.751 62.8199 169.92 62.7009C171.059 62.4798 172.239 62.6901 173.23 63.2909C173.673 63.5659 174.047 63.9371 174.326 64.3769C174.604 64.8167 174.78 65.3137 174.84 65.8309C174.938 66.3689 174.92 66.9214 174.79 67.4522C174.659 67.9829 174.417 68.4801 174.08 68.9109C173.711 69.3692 173.253 69.7488 172.735 70.027C172.216 70.3053 171.646 70.4766 171.06 70.5309ZM171.62 98.6509L168.05 74.4309L175.05 73.4309L178.62 97.6609L171.62 98.6509Z" fill="#25A7FF"/>
<path id="Vector_12" d="M179.601 78.7821L178.801 73.3721L195.601 70.9021L196.391 76.3021L179.601 78.7821ZM195.131 95.5321C192.729 96.0439 190.222 95.6105 188.131 94.3221C186.317 93.1021 185.201 91.0521 184.781 88.1721L181.651 66.9121L188.651 65.9121L191.771 87.0721C191.845 87.9459 192.262 88.7547 192.931 89.3221C193.264 89.5602 193.643 89.7274 194.044 89.8134C194.445 89.8994 194.859 89.9023 195.261 89.8221C196.285 89.701 197.239 89.2397 197.971 88.5121L200.591 93.1821C199.887 93.8387 199.066 94.3577 198.171 94.7121C197.194 95.1066 196.173 95.3819 195.131 95.5321Z" fill="#25A7FF"/>
<path id="Vector_13" d="M206.95 99.6207L144.21 107.971C141.149 108.438 138.35 109.966 136.301 112.287C134.252 114.609 133.084 117.576 133 120.671C132.96 122.09 133.236 123.5 133.807 124.8C134.379 126.1 135.231 127.257 136.303 128.187C137.376 129.118 138.641 129.799 140.008 130.182C141.375 130.565 142.81 130.639 144.21 130.401L206.95 122.051C210.011 121.579 212.811 120.049 214.861 117.727C216.911 115.405 218.082 112.437 218.17 109.341C218.208 107.921 217.931 106.511 217.358 105.212C216.786 103.912 215.932 102.756 214.859 101.827C213.786 100.897 212.52 100.217 211.152 99.8353C209.785 99.4539 208.349 99.3806 206.95 99.6207Z" fill="#00F8BC"/>
<path id="Vector_14" style="mix-blend-mode:screen" d="M182.64 16.8809L43.75 174.251C67.59 168.571 101 145.251 131.12 111.111C161.24 76.9709 180.13 41.0509 182.64 16.8809Z" fill="url(#paint1_radial_688_681)"/>
<path id="Vector_15" d="M157.85 124.78L156 110.83L162 110.03C163.103 109.855 164.231 109.913 165.31 110.2C166.21 110.453 167.017 110.965 167.63 111.67C168.223 112.424 168.602 113.322 168.729 114.272C168.855 115.222 168.725 116.188 168.35 117.07C167.94 117.905 167.293 118.601 166.49 119.07C165.526 119.622 164.456 119.963 163.35 120.07L159.1 120.63L160.34 118.99L161.05 124.29L157.85 124.78ZM160.42 119.41L158.78 118.06L162.85 117.52C163.652 117.478 164.412 117.148 164.99 116.59C165.21 116.337 165.37 116.038 165.459 115.714C165.547 115.39 165.561 115.05 165.5 114.72C165.471 114.381 165.365 114.051 165.192 113.757C165.019 113.463 164.783 113.211 164.5 113.02C163.792 112.635 162.969 112.514 162.18 112.68L158.12 113.22L159.33 111.53L160.42 119.41Z" fill="#0B2840"/>
<path id="Vector_16" d="M172.02 122.891L170.59 112.171L173.59 111.781L173.99 114.781L173.46 113.961C173.655 113.189 174.115 112.509 174.76 112.041C175.494 111.519 176.353 111.198 177.25 111.111L177.63 113.971H177.27H176.93C176.547 113.997 176.173 114.098 175.829 114.27C175.486 114.442 175.18 114.68 174.93 114.971C174.688 115.311 174.52 115.697 174.435 116.105C174.351 116.513 174.352 116.934 174.44 117.341L175.12 122.401L172.02 122.891Z" fill="#0B2840"/>
<path id="Vector_17" d="M180.448 109.341C179.94 109.43 179.417 109.319 178.988 109.031C178.798 108.895 178.638 108.72 178.518 108.519C178.397 108.318 178.319 108.095 178.288 107.863C178.258 107.63 178.274 107.394 178.338 107.169C178.402 106.943 178.511 106.733 178.658 106.551C179.002 106.167 179.476 105.925 179.988 105.871C180.493 105.786 181.011 105.886 181.448 106.151C181.641 106.278 181.804 106.446 181.923 106.643C182.042 106.84 182.116 107.062 182.138 107.291C182.177 107.528 182.167 107.771 182.106 108.003C182.046 108.236 181.938 108.453 181.788 108.641C181.45 109.041 180.969 109.292 180.448 109.341ZM180.518 121.761L179.098 111.041L182.198 110.621L183.628 121.341L180.518 121.761Z" fill="#0B2840"/>
<path id="Vector_18" d="M185.172 121.141L189.172 114.201L189.342 115.921L183.922 110.401L187.402 109.941L190.852 113.551L189.542 113.771L192.012 109.321L195.312 108.881L191.502 115.581L191.282 113.901L196.902 119.581L193.372 120.051L189.762 116.191H191.082L188.592 120.681L185.172 121.141Z" fill="#0B2840"/>
</g>
</g>
<defs>
<radialGradient id="paint0_radial_688_681" cx="0" cy="0" r="1" gradientUnits="userSpaceOnUse" gradientTransform="translate(105.544 119.812) rotate(-5.09) scale(98.65 60.1765)">
<stop offset="0.01" stop-color="#25A7FF"/>
<stop offset="0.16" stop-color="#25A7FF" stop-opacity="0.79"/>
<stop offset="0.31" stop-color="#7CC5F7"/>
<stop offset="0.46" stop-color="#C4E7FF"/>
<stop offset="0.61" stop-color="#DDF1FF"/>
<stop offset="0.75" stop-color="#E8F6FF"/>
<stop offset="0.88" stop-color="#FFFAFB"/>
<stop offset="0.90625" stop-color="#FFFBFC"/>
<stop offset="1" stop-color="white"/>
</radialGradient>
<radialGradient id="paint1_radial_688_681" cx="0" cy="0" r="1" gradientUnits="userSpaceOnUse" gradientTransform="translate(99.9993 63.2886) rotate(40.4622) scale(44.3482 118.832)">
<stop offset="0.22" stop-color="#FFC263"/>
<stop offset="0.23" stop-color="#F7BC60"/>
<stop offset="0.32" stop-color="#BE904A"/>
<stop offset="0.41" stop-color="#8B6A36"/>
<stop offset="0.51" stop-color="#604925"/>
<stop offset="0.6" stop-color="#3D2F18"/>
<stop offset="0.7" stop-color="#221A0D"/>
<stop offset="0.8" stop-color="#0F0C06"/>
<stop offset="0.9" stop-color="#040301"/>
<stop offset="1"/>
</radialGradient>
</defs>
</svg>
