<svg width="54" height="54" viewBox="0 0 54 54" fill="none" xmlns="http://www.w3.org/2000/svg">
<g id="svgexport-4" clip-path="url(#clip0_903_1124)">
<path id="Vector" d="M3.42969 41.8125C3.42969 44.6074 5.69621 46.875 8.49219 46.875H52.3672C53.2953 46.875 54.0547 47.6344 54.0547 48.5625C54.0547 49.4906 53.2953 50.25 52.3672 50.25H8.49219C3.83258 50.25 0.0546875 46.4742 0.0546875 41.8125V4.6875C0.0546875 3.75516 0.810266 3 1.74219 3C2.67453 3 3.42969 3.75516 3.42969 4.6875V41.8125ZM34.9965 31.1918C34.3426 31.8562 33.2668 31.8562 32.6129 31.1918L23.5848 22.2586L13.059 32.8793C12.4051 33.5437 11.3293 33.5437 10.6754 32.8793C10.0152 32.2254 10.0152 31.1496 10.6754 30.4957L22.4879 18.6832C23.1418 18.0187 24.2176 18.0187 24.8715 18.6832L33.8047 27.6164L47.8004 13.6207C48.4543 12.9562 49.5301 12.9562 50.184 13.6207C50.8484 14.2746 50.8484 15.3504 50.184 16.0043L34.9965 31.1918Z" fill="#00F8F7"/>
</g>
<defs>
<clipPath id="clip0_903_1124">
<rect width="54" height="54" fill="white"/>
</clipPath>
</defs>
</svg>
