<svg width="55" height="54" viewBox="0 0 55 54" fill="none" xmlns="http://www.w3.org/2000/svg">
<g id="svgexport-2 1" clip-path="url(#clip0_903_1122)">
<path id="Vector" d="M46 30H34C33.1716 30 32.5 30.6716 32.5 31.5C32.5 32.3284 33.175 33 34 33H46C46.8284 33 47.5 32.3284 47.5 31.5C47.5 30.6716 46.825 30 46 30ZM19 27C22.3141 27 25 24.3141 25 21C25 17.6859 22.3094 15 19 15C15.6906 15 13 17.6906 13 21C13 24.3094 15.6906 27 19 27ZM19 18C20.6537 18 22 19.3463 22 21C22 22.6537 20.65 24 19 24C17.35 24 16 22.65 16 21C16 19.35 17.35 18 19 18ZM22 30H16C11.8581 30 8.5 33.3581 8.5 37.5C8.5 38.325 9.17125 39 10 39C10.8287 39 11.5 38.3284 11.5 37.5C11.5 35.0156 13.5156 33 16 33H22C24.4853 33 26.5 35.0147 26.5 37.5C26.5 38.3284 27.1716 39 28 39C28.8284 39 29.5 38.3284 29.5 37.5C29.5 33.3563 26.1437 30 22 30ZM49 6H7C3.68594 6 1 8.68594 1 12V42C1 45.3141 3.68594 48 7 48H49C52.3141 48 55 45.3141 55 42V12C55 8.68594 52.3094 6 49 6ZM52 42C52 43.6538 50.6538 45 49 45H7C5.34625 45 4 43.6538 4 42V12C4 10.3463 5.34625 9 7 9H49C50.6538 9 52 10.3463 52 12V42ZM46 24H34C33.1716 24 32.5 24.6716 32.5 25.5C32.5 26.3284 33.175 27 34 27H46C46.8284 27 47.5 26.3284 47.5 25.5C47.5 24.6716 46.825 24 46 24ZM46 18H34C33.1716 18 32.5 18.6716 32.5 19.5C32.5 20.3284 33.175 21 34 21H46C46.8284 21 47.5 20.3284 47.5 19.5C47.5 18.6716 46.825 18 46 18Z" fill="#00F8F7"/>
</g>
<defs>
<clipPath id="clip0_903_1122">
<rect width="54" height="54" fill="white" transform="translate(0.945312)"/>
</clipPath>
</defs>
</svg>
