<svg width="55" height="54" viewBox="0 0 55 54" fill="none" xmlns="http://www.w3.org/2000/svg">
<g id="svgexport-3" clip-path="url(#clip0_903_1126)">
<path id="Vector" d="M14.5 42.1875C13.5681 42.1875 12.8125 42.9429 12.8125 43.875C12.8125 44.8069 13.5681 45.5625 14.5 45.5625H21.25C22.1819 45.5625 22.9375 44.8069 22.9375 43.875C22.9375 42.9429 22.1819 42.1875 21.25 42.1875H14.5ZM33.0625 30.375C32.1344 30.375 31.375 31.1344 31.375 32.0625L31.2801 47.25C31.2801 49.1136 29.7698 50.625 28 50.625H7.75C5.88637 50.625 4.375 49.1136 4.375 47.25V6.75C4.375 4.88637 5.88637 3.375 7.75 3.375H22.9375C23.8656 3.375 24.625 2.61984 24.625 1.6875C24.625 0.755367 23.8656 0 22.9375 0H7.75C4.02168 0 1 3.02168 1 6.75V47.25C1 50.9783 4.02168 54 7.75 54H28C31.7283 54 34.75 50.9783 34.75 47.25V32.0625C34.75 31.1344 33.9906 30.375 33.0625 30.375ZM33.0625 18.5625C31.1989 18.5625 29.6875 20.0739 29.6875 21.9375C29.6875 23.8011 31.1989 25.3125 33.0625 25.3125C34.9261 25.3125 36.4375 23.8011 36.4375 21.9375C36.4375 20.0707 34.9293 18.5625 33.0625 18.5625ZM31.375 8.4375C30.4422 8.4375 29.6875 9.19223 29.6875 10.125C29.6875 11.0578 30.4422 11.8125 31.375 11.8125C37.8877 11.8125 43.1875 17.1123 43.1875 23.625C43.1875 24.5578 43.9422 25.3125 44.875 25.3125C45.8078 25.3125 46.5625 24.5578 46.5625 23.625C46.5625 15.2508 39.7492 8.4375 31.375 8.4375ZM31.375 0C30.4422 0 29.6875 0.754734 29.6875 1.6875C29.6875 2.62027 30.4469 3.375 31.375 3.375C42.5441 3.375 51.625 12.459 51.625 23.625C51.625 24.5578 52.3797 25.3125 53.3125 25.3125C54.2453 25.3125 55 24.5531 55 23.625C55 10.5996 44.4004 0 31.375 0Z" fill="#00F8F7"/>
</g>
<defs>
<clipPath id="clip0_903_1126">
<rect width="54" height="54" fill="white" transform="translate(0.945312)"/>
</clipPath>
</defs>
</svg>
