<svg width="26" height="26" viewBox="0 0 26 26" fill="none" xmlns="http://www.w3.org/2000/svg">
<g id="Group 671">
<path id="Vector" d="M13 8.85689C13.5522 8.85689 14 8.44106 14 7.9283C14 7.41555 13.5522 7 13 7C12.4478 7 12 7.41555 12 7.9283C12 8.44106 12.4478 8.85689 13 8.85689ZM15.5 19.0714H13.5V11.1784C13.5 10.923 13.275 10.7141 13 10.7141H11.5C11.2237 10.7141 11 10.923 11 11.1784C11 11.4337 11.2237 11.6427 11.5 11.6427H12.5V19.0714H10.5C10.2236 19.0714 10 19.2803 10 19.5357C10 19.7911 10.2236 20 10.5 20H15.5C15.7764 20 16 19.7923 16 19.5357C16 19.2791 15.775 19.0714 15.5 19.0714Z" fill="#0B2840"/>
<circle id="Ellipse 34" cx="13" cy="13" r="12.5" stroke="#0B2840"/>
</g>
</svg>
