<svg width="150" height="30" viewBox="0 0 150 30" fill="none" xmlns="http://www.w3.org/2000/svg">
<path d="M21.0099 4.21847C21.0396 4.5088 21.0099 4.80141 20.9596 5.08717C20.0543 10.1577 19.181 15.2328 18.214 20.2918C17.9374 21.7412 16.5246 22.6328 15.2627 22.427C13.8865 22.2007 12.9034 20.9342 13.1572 19.3271C13.9733 14.1857 14.8535 9.05351 15.8045 3.93499C16.0948 2.37361 17.5236 1.51633 18.8907 1.79066C20.052 2.02384 20.8818 3.00685 21.0099 4.22075V4.21847Z" fill="url(#paint0_linear_146_3106)"/>
<path d="M6.65834 17.2997C6.59662 16.8196 6.63091 16.3327 6.71778 15.8549C7.22986 12.9905 7.76709 9.71909 8.45519 6.47743C8.75467 5.06464 9.90914 4.33996 11.3448 4.59371C12.7553 4.84289 13.6926 5.83962 13.4686 7.30499C12.929 10.8393 12.2889 14.3621 11.5437 17.8575C11.2556 19.204 10.0783 19.8555 8.74095 19.6064C7.58191 19.3892 6.83437 18.6851 6.65834 17.2974V17.2997Z" fill="url(#paint1_linear_146_3106)"/>
<path d="M21.147 13.9279C21.3847 12.5676 21.6271 10.7868 22.0203 9.03795C22.3563 7.54057 23.7988 6.65129 25.1545 6.9439C26.4964 7.23423 27.3857 8.44357 27.1891 9.94094C26.965 11.6601 26.6701 13.3792 26.2815 15.0686C25.9157 16.6689 24.6355 17.5238 23.241 17.277C21.8877 17.0392 21.0944 15.9327 21.147 13.9256V13.9279Z" fill="url(#paint2_linear_146_3106)"/>
<path d="M5.91045 9.36669C5.9676 9.83533 5.9356 10.3086 5.85558 10.7749C5.63612 12.0597 5.3938 13.6302 5.05317 15.1779C4.7377 16.6021 3.37062 17.5097 2.06299 17.2033C0.63191 16.8696 -0.156785 15.8957 0.0261004 14.4212C0.254708 12.5878 0.583902 10.7612 0.988537 8.95977C1.31316 7.5104 2.37161 6.84744 3.82784 6.99146C4.97316 7.10576 5.73671 7.94704 5.91045 9.36669Z" fill="url(#paint3_linear_146_3106)"/>
<path d="M48.3287 2.36841H38.2448V10.4588H47.6749C48.2693 10.4588 48.7516 10.9435 48.7516 11.5424C48.7516 12.1414 48.2693 12.626 47.6749 12.626H38.2448V21.4914C38.2448 22.1635 37.703 22.7076 37.0355 22.7076C36.368 22.7076 35.8262 22.1635 35.8262 21.4914V1.00363C35.8262 0.553272 36.1897 0.1875 36.6377 0.1875H48.3287C48.9231 0.1875 49.4054 0.672147 49.4054 1.2711V1.2871C49.4054 1.88605 48.9231 2.3707 48.3287 2.3707V2.36841Z" fill="white"/>
<path d="M49.7232 21.288L58.2365 1.51799C58.584 0.711011 59.3841 0.1875 60.2688 0.1875C61.1535 0.1875 61.9514 0.711011 62.3011 1.51571L70.8465 21.2857C71.2511 22.223 70.5584 23.2654 69.5297 23.2654H69.484C68.9147 23.2654 68.4004 22.9316 68.1718 22.415L65.8674 17.2142H54.5788L52.359 22.399C52.135 22.9248 51.616 23.2654 51.0399 23.2654C50.0112 23.2654 49.3185 22.223 49.7232 21.2857V21.288ZM59.7042 4.41902L55.5092 14.9944H64.937L60.7055 4.43502C60.2277 3.22112 59.7019 4.41902 59.7019 4.41902H59.7042Z" fill="white"/>
<path d="M80.0041 16.5541C80.0041 18.6435 79.5423 20.2849 78.6165 21.4783C77.6906 22.6716 76.271 23.266 74.3598 23.266C73.8706 23.266 73.4134 23.2317 72.9882 23.1631C72.947 23.1562 72.9059 23.1494 72.867 23.1425C72.2246 23.0282 71.836 22.3516 72.0372 21.7206C72.204 21.1971 72.7275 20.893 73.2625 20.9845C73.2831 20.9891 73.3036 20.9913 73.3242 20.9936C73.6305 21.0416 73.9552 21.0645 74.2981 21.0645C75.3474 21.0645 76.1612 20.7102 76.7396 20.0038C77.3157 19.2974 77.606 18.152 77.606 16.5678V1.28311C77.606 0.677297 78.0907 0.185791 78.6873 0.185791H78.9274C79.524 0.185791 80.0087 0.677297 80.0087 1.28311V16.5541H80.0041Z" fill="white"/>
<path d="M86.8099 23.2656C86.1424 23.2656 85.6006 22.7032 85.6006 22.0083V1.25758C85.6006 0.562618 86.1424 0.000244141 86.8099 0.000244141C87.4775 0.000244141 88.0192 0.562618 88.0192 1.25758V22.0083C88.0192 22.7032 87.4775 23.2656 86.8099 23.2656Z" fill="white"/>
<path d="M149.048 27.968C148.228 28.503 147.208 28.9007 145.93 29.0288C147.128 28.8504 148.166 28.4938 149.048 27.968Z" fill="white"/>
<defs>
<linearGradient id="paint0_linear_146_3106" x1="7.39629" y1="24.025" x2="21.9243" y2="5.98788" gradientUnits="userSpaceOnUse">
<stop stop-color="#25A7FF"/>
<stop offset="1" stop-color="#00F8F7"/>
</linearGradient>
<linearGradient id="paint1_linear_146_3106" x1="3.16979" y1="20.6214" x2="17.6978" y2="2.58426" gradientUnits="userSpaceOnUse">
<stop stop-color="#25A7FF"/>
<stop offset="1" stop-color="#00F8F7"/>
</linearGradient>
<linearGradient id="paint2_linear_146_3106" x1="11.7307" y1="27.5163" x2="26.2586" y2="9.47916" gradientUnits="userSpaceOnUse">
<stop stop-color="#25A7FF"/>
<stop offset="1" stop-color="#00F8F7"/>
</linearGradient>
<linearGradient id="paint3_linear_146_3106" x1="-1.10779" y1="17.1759" x2="13.4202" y2="-0.861197" gradientUnits="userSpaceOnUse">
<stop stop-color="#25A7FF"/>
<stop offset="1" stop-color="#00F8F7"/>
</linearGradient>
</defs>
</svg>
