<svg width="50" height="44" viewBox="0 0 50 44" fill="none" xmlns="http://www.w3.org/2000/svg">
<g id="Group 782">
<rect id="Rectangle 265" x="0.5" y="0.5" width="49" height="43" rx="4.5" stroke="#959799"/>
<path id="Vector" fill-rule="evenodd" clip-rule="evenodd" d="M24.9468 11H25.0532C25.9731 11 26.7395 11 27.3473 11.0819C27.99 11.1678 28.5701 11.3581 29.0357 11.8237C29.5023 12.2903 29.6927 12.8705 29.7786 13.5121C29.84 13.9623 29.8553 14.4985 29.8594 15.1186C30.5225 15.1401 31.114 15.18 31.6399 15.2496C32.8392 15.4113 33.8102 15.751 34.5767 16.5164C35.342 17.2828 35.6818 18.2539 35.8434 19.4531C36 20.6196 36 22.1085 36 23.9892V24.1038C36 25.9846 36 27.4744 35.8434 28.6399C35.6818 29.8392 35.342 30.8102 34.5767 31.5767C33.8102 32.342 32.8392 32.6818 31.6399 32.8434C30.4734 33 28.9846 33 27.1038 33H22.8962C21.0154 33 19.5256 33 18.3601 32.8434C17.1608 32.6818 16.1898 32.342 15.4233 31.5767C14.658 30.8102 14.3182 29.8392 14.1566 28.6399C14 27.4734 14 25.9846 14 24.1038V23.9892C14 22.1085 14 20.6186 14.1566 19.4531C14.3182 18.2539 14.658 17.2828 15.4233 16.5164C16.1898 15.751 17.1608 15.4113 18.3601 15.2496C18.951 15.1764 19.5453 15.1327 20.1406 15.1186C20.1447 14.4985 20.161 13.9623 20.2214 13.5121C20.3073 12.8705 20.4977 12.2903 20.9633 11.8237C21.4299 11.3581 22.01 11.1688 22.6516 11.0819C23.2605 11 24.0279 11 24.9468 11ZM21.6765 15.0951C22.0633 15.093 22.4695 15.093 22.8962 15.093H27.1038C27.5305 15.093 27.9367 15.093 28.3235 15.0951C28.3194 14.5118 28.3051 14.0718 28.258 13.7167C28.1936 13.245 28.0841 13.0424 27.9511 12.9094C27.818 12.7764 27.6154 12.6669 27.1427 12.6024C26.6495 12.5369 25.9864 12.5349 25 12.5349C24.0136 12.5349 23.3505 12.5369 22.8563 12.6034C22.3846 12.6669 22.182 12.7764 22.0489 12.9104C21.9159 13.0434 21.8064 13.245 21.742 13.7167C21.6949 14.0708 21.6806 14.5108 21.6765 15.0951ZM18.5637 16.7712C17.5343 16.9093 16.9408 17.1692 16.507 17.602C16.0752 18.0349 15.8153 18.6284 15.6771 19.6578C15.5359 20.7087 15.5339 22.0952 15.5339 24.0465C15.5339 25.9979 15.5359 27.3844 15.6771 28.4363C15.8153 29.4647 16.0752 30.0581 16.508 30.491C16.9408 30.9238 17.5343 31.1837 18.5637 31.3219C19.6156 31.4631 21.0011 31.4651 22.9525 31.4651H27.0455C28.9968 31.4651 30.3833 31.4631 31.4353 31.3219C32.4636 31.1837 33.0571 30.9238 33.49 30.491C33.9228 30.0581 34.1827 29.4647 34.3208 28.4353C34.462 27.3844 34.4641 25.9979 34.4641 24.0465C34.4641 22.0952 34.462 20.7097 34.3208 19.6567C34.1827 18.6284 33.9228 18.0349 33.49 17.602C33.0571 17.1692 32.4636 16.9093 31.4342 16.7712C30.3833 16.63 28.9968 16.6279 27.0455 16.6279H22.9525C21.0011 16.6279 19.6167 16.63 18.5637 16.7712ZM25 19.186C25.2035 19.186 25.3987 19.2669 25.5427 19.4108C25.6866 19.5547 25.7674 19.75 25.7674 19.9535V19.9637C26.8818 20.2441 27.814 21.1231 27.814 22.3407C27.814 22.5443 27.7331 22.7395 27.5892 22.8834C27.4453 23.0273 27.25 23.1082 27.0465 23.1082C26.843 23.1082 26.6478 23.0273 26.5038 22.8834C26.3599 22.7395 26.2791 22.5443 26.2791 22.3407C26.2791 21.9478 25.8432 21.4034 25 21.4034C24.1568 21.4034 23.7209 21.9478 23.7209 22.3407C23.7209 22.7337 24.1568 23.2791 25 23.2791C26.4172 23.2791 27.814 24.2614 27.814 25.7523C27.814 26.97 26.8818 27.8479 25.7674 28.1293V28.1395C25.7674 28.3431 25.6866 28.5383 25.5427 28.6822C25.3987 28.8261 25.2035 28.907 25 28.907C24.7965 28.907 24.6013 28.8261 24.4573 28.6822C24.3134 28.5383 24.2326 28.3431 24.2326 28.1395V28.1293C23.1182 27.8489 22.186 26.97 22.186 25.7523C22.186 25.5487 22.2669 25.3535 22.4108 25.2096C22.5547 25.0657 22.75 24.9848 22.9535 24.9848C23.157 24.9848 23.3522 25.0657 23.4962 25.2096C23.6401 25.3535 23.7209 25.5487 23.7209 25.7523C23.7209 26.1452 24.1568 26.6896 25 26.6896C25.8432 26.6896 26.2791 26.1452 26.2791 25.7523C26.2791 25.3593 25.8432 24.814 25 24.814C23.5828 24.814 22.186 23.8316 22.186 22.3407C22.186 21.1231 23.1182 20.2441 24.2326 19.9637V19.9535C24.2326 19.75 24.3134 19.5547 24.4573 19.4108C24.6013 19.2669 24.7965 19.186 25 19.186Z" fill="#7B7B7B"/>
</g>
</svg>
