<svg width="55" height="54" viewBox="0 0 55 54" fill="none" xmlns="http://www.w3.org/2000/svg">
<path d="M30.0674 33.75C30.0674 34.6781 29.2295 35.4375 28.1007 35.4375C27.1814 35.4375 26.2388 34.6781 26.2388 33.75V21.9375C26.2388 21.0094 27.1814 20.25 28.1007 20.25C29.2295 20.25 30.0674 21.0094 30.0674 21.9375V33.75ZM16.929 1.6875C16.929 0.755578 17.8716 0 18.7909 0H37.5152C38.5393 0 39.3772 0.755578 39.3772 1.6875C39.3772 2.61984 38.5393 3.375 37.5152 3.375H30.0674V10.1893C35.8162 10.5891 40.9017 12.8039 44.9281 16.2L49.2339 12.3082C49.9554 11.6437 51.1424 11.6437 51.8639 12.3082C52.5971 12.9621 52.5971 14.0379 51.8639 14.6918L47.4185 18.7207C50.5489 22.4227 52.4109 27.0422 52.4109 32.0625C52.4109 44.1809 41.5766 54 28.2054 54C14.8343 54 4 44.1809 4 32.0625C4 20.5137 13.8451 11.0531 26.3435 10.1893V3.375H18.8957C17.8716 3.375 17.0337 2.61984 17.0337 1.6875H16.929ZM28.1007 50.625C39.5168 50.625 48.687 42.3141 48.687 32.0625C48.687 21.8109 39.5168 13.5 28.1007 13.5C16.8941 13.5 7.61918 21.8109 7.61918 32.0625C7.61918 42.3141 16.8941 50.625 28.1007 50.625Z" fill="#00F8F7"/>
</svg>
