<svg width="54" height="54" viewBox="0 0 54 54" fill="none" xmlns="http://www.w3.org/2000/svg">
<path d="M6.075 12.725C6.075 10.1153 8.19028 8 10.8 8C13.4072 8 15.525 10.1153 15.525 12.725C15.525 15.3322 13.4072 17.45 10.8 17.45C8.19028 17.45 6.075 15.3322 6.075 12.725ZM10.8 14.75C11.9222 14.75 12.825 13.8472 12.825 12.725C12.825 11.607 11.9222 10.7 10.8 10.7C9.67781 10.7 8.775 11.607 8.775 12.725C8.775 13.8472 9.67781 14.75 10.8 14.75ZM0 28.925C0 24.0819 3.9285 20.15 8.775 20.15H12.825C13.9472 20.15 15.0272 20.3609 16.0144 20.7491C16.7147 21.0191 17.0522 21.8038 16.7822 22.4956C16.5122 23.1959 15.7275 23.5334 15.0356 23.2634C14.3522 22.9934 13.6097 22.85 12.825 22.85H8.775C8.54719 22.85 8.32191 22.8584 8.1 22.8837V40.4H13.5V37.7C13.5 36.9575 14.1075 36.35 14.85 36.35C15.5925 36.35 16.2 36.9575 16.2 37.7V41.075C16.2 42.1972 15.2972 43.1 14.175 43.1H7.425C6.30703 43.1 5.4 42.1972 5.4 41.075V37.025C2.23088 35.7087 0 32.5784 0 28.925ZM5.4 33.9791V23.8709C3.77156 24.9594 2.7 26.8156 2.7 28.925C2.7 31.0259 3.77072 32.8147 5.4 33.9791ZM43.2 17.45C40.5928 17.45 38.475 15.3322 38.475 12.725C38.475 10.1153 40.5928 8 43.2 8C45.8072 8 47.925 10.1153 47.925 12.725C47.925 15.3322 45.8072 17.45 43.2 17.45ZM45.225 12.725C45.225 11.607 44.3222 10.7 43.2 10.7C42.0778 10.7 41.175 11.607 41.175 12.725C41.175 13.8472 42.0778 14.75 43.2 14.75C44.3222 14.75 45.225 13.8472 45.225 12.725ZM48.6 37.025V41.075C48.6 42.1972 47.6972 43.1 46.575 43.1H39.825C38.7028 43.1 37.8 42.1972 37.8 41.075V37.7C37.8 36.9575 38.4075 36.35 39.15 36.35C39.8925 36.35 40.5 36.9575 40.5 37.7V40.4H45.9V22.8837C45.6806 22.8584 45.4528 22.85 45.225 22.85H41.175C40.3903 22.85 39.6478 22.9934 38.9644 23.2634C38.2725 23.5334 37.4878 23.1959 37.2178 22.4956C36.9478 21.8038 37.2178 21.0191 37.9856 20.7491C38.9728 20.3609 40.0528 20.0741 41.175 20.0741H45.225C50.0681 20.0741 54 24.0819 54 28.8491C54 32.5784 51.7725 35.7087 48.6 37.025ZM51.3 28.925C51.3 26.8156 50.2284 24.9594 48.6 23.8709V33.9791C50.2284 32.8147 51.3 31.0259 51.3 28.925ZM32.4 13.4C32.4 16.3784 29.9784 18.8 27 18.8C24.0216 18.8 21.6 16.3784 21.6 13.4C21.6 10.4173 24.0216 8 27 8C29.9784 8 32.4 10.4173 32.4 13.4ZM27 10.7C25.5066 10.7 24.3 11.9091 24.3 13.4C24.3 14.8934 25.5066 16.1 27 16.1C28.4934 16.1 29.7 14.8934 29.7 13.4C29.7 11.9091 28.4934 10.7 27 10.7ZM28.35 21.5C33.1931 21.5 37.125 25.4319 37.125 30.275C37.125 33.6584 35.2097 36.5947 32.4 38.0628V43.775C32.4 44.8972 31.4972 45.8 30.375 45.8H23.625C22.5028 45.8 21.6 44.8972 21.6 43.775V38.0628C18.7903 36.5947 16.875 33.6584 16.875 30.275C16.875 25.4319 20.8069 21.5 25.65 21.5H28.35ZM19.575 30.275C19.575 32.0722 20.3597 33.6922 21.6 34.8059V25.7441C20.3597 26.8578 19.575 28.4778 19.575 30.275ZM29.7 43.1V24.3519C29.2697 24.2506 28.8141 24.2 28.35 24.2H25.65C25.1859 24.2 24.7303 24.2506 24.3 24.3519V43.1H29.7ZM34.425 30.275C34.425 28.4778 33.6403 26.8578 32.4 25.7441V34.8059C33.6403 33.6922 34.425 32.0722 34.425 30.275Z" fill="#00F8F7"/>
</svg>
