<svg width="55" height="54" viewBox="0 0 55 54" fill="none" xmlns="http://www.w3.org/2000/svg">
<g id="svgexport-3" clip-path="url(#clip0_903_548)">
<path id="Vector" d="M54.1404 22.8444C53.2869 21.672 51.9645 21.0061 50.4358 21.0061H13.5864C11.72 21.0061 10.0224 22.1785 9.36872 23.9229L4.00122 38.2444V12.0024C4.00122 10.348 5.34802 9.00122 7.00245 9.00122H18.0226C18.8244 9.00122 19.5776 9.31335 20.145 9.88049L25.263 15.0037H43.0171C44.6715 15.0037 46.0183 16.3505 46.0183 18.0049H49.0196C49.0196 14.6895 46.3325 12.0024 43.0171 12.0024H26.5104L22.2618 7.75853C21.1363 6.63213 19.617 6 18.0226 6H7.00245C3.68703 6 1 8.68703 1 12.0024V42.0147C1 45.3301 3.68703 48.0171 7.00245 48.0171H44.8085C46.7883 48.0171 48.5159 46.7482 49.1049 44.8574L54.7322 26.8501C55.2471 25.4704 55.0033 24.0073 54.1404 22.8444ZM51.9458 25.9581L46.3185 43.9655C46.1215 44.5938 45.5494 45.0159 44.8085 45.0159H7.00245C6.69088 45.0159 6.40623 44.9263 6.12337 44.8379C5.91854 44.7281 5.73799 44.5723 5.59853 44.3711C5.31426 43.9608 5.25123 43.4567 5.42708 42.9896L12.1798 24.9823C12.3953 24.4012 12.958 24.0073 13.5864 24.0073H50.5202C51.0023 24.0073 51.4434 24.2301 51.7291 24.6185C52.0114 25.0109 52.0958 25.4986 51.9458 25.9581Z" fill="#00F8F7"/>
</g>
<defs>
<clipPath id="clip0_903_548">
<rect width="54" height="54" fill="white" transform="translate(0.945312)"/>
</clipPath>
</defs>
</svg>
