<svg width="76" height="46" viewBox="0 0 76 46" fill="none" xmlns="http://www.w3.org/2000/svg">
<path d="M24.6139 44C26.3276 44 27.9711 43.3192 29.1829 42.1074C30.3947 40.8957 31.0754 39.2521 31.0754 37.5384C31.0754 35.8247 30.3947 34.1812 29.1829 32.9694C27.9711 31.7577 26.3276 31.0769 24.6139 31.0769C22.9002 31.0769 21.2567 31.7577 20.0449 32.9694C18.8331 34.1812 18.1523 35.8247 18.1523 37.5384C18.1523 39.2521 18.8331 40.8957 20.0449 42.1074C21.2567 43.3192 22.9002 44 24.6139 44ZM56.9216 44C58.6353 44 60.2788 43.3192 61.4906 42.1074C62.7024 40.8957 63.3831 39.2521 63.3831 37.5384C63.3831 35.8247 62.7024 34.1812 61.4906 32.9694C60.2788 31.7577 58.6353 31.0769 56.9216 31.0769C55.2079 31.0769 53.5644 31.7577 52.3526 32.9694C51.1408 34.1812 50.46 35.8247 50.46 37.5384C50.46 39.2521 51.1408 40.8957 52.3526 42.1074C53.5644 43.3192 55.2079 44 56.9216 44Z" stroke="#7B7B7B" stroke-width="4" stroke-miterlimit="1.5" stroke-linecap="round" stroke-linejoin="round"/>
<path d="M31.2385 37.5385H47.2308V3.93846C47.2308 3.42435 47.0265 2.93129 46.663 2.56776C46.2995 2.20423 45.8064 2 45.2923 2H2M17.0231 37.5385H10.4C10.1454 37.5385 9.89337 37.4883 9.65818 37.3909C9.423 37.2935 9.2093 37.1507 9.0293 36.9707C8.8493 36.7907 8.70651 36.577 8.6091 36.3418C8.51168 36.1066 8.46154 35.8546 8.46154 35.6V19.7692" stroke="#7B7B7B" stroke-width="4" stroke-linecap="round"/>
<path d="M5.23438 11.6924H18.1575" stroke="#7B7B7B" stroke-width="4" stroke-linecap="round" stroke-linejoin="round"/>
<path d="M47.2305 11.6924H65.3551C65.7298 11.6925 66.0964 11.8012 66.4106 12.0053C66.7248 12.2094 66.9732 12.5002 67.1255 12.8425L72.9086 25.8561C73.0188 26.1032 73.076 26.3706 73.0766 26.6412V35.6001C73.0766 35.8546 73.0265 36.1067 72.9291 36.3419C72.8317 36.5771 72.6889 36.7908 72.5089 36.9708C72.3289 37.1508 72.1152 37.2936 71.88 37.391C71.6448 37.4884 71.3927 37.5385 71.1382 37.5385H64.9997M47.2305 37.5385H50.4612" stroke="#7B7B7B" stroke-width="4" stroke-linecap="round"/>
</svg>
