<svg width="44" height="42" viewBox="0 0 44 42" fill="none" xmlns="http://www.w3.org/2000/svg">
<path d="M25.1228 15.2036C25.1228 14.7594 24.9463 14.3334 24.6322 14.0193C24.3182 13.7053 23.8922 13.5288 23.448 13.5288H10.0498C9.6056 13.5288 9.17961 13.7053 8.86553 14.0193C8.55145 14.3334 8.375 14.7594 8.375 15.2036C8.375 15.6478 8.55145 16.0738 8.86553 16.3878C9.17961 16.7019 9.6056 16.8784 10.0498 16.8784H23.448C23.8922 16.8784 24.3182 16.7019 24.6322 16.3878C24.9463 16.0738 25.1228 15.6478 25.1228 15.2036ZM22.8897 21.9027C22.8897 21.4585 22.7133 21.0325 22.3992 20.7185C22.0851 20.4044 21.6591 20.2279 21.215 20.2279H10.0498C9.6056 20.2279 9.17961 20.4044 8.86553 20.7185C8.55145 21.0325 8.375 21.4585 8.375 21.9027C8.375 22.3469 8.55145 22.7729 8.86553 23.0869C9.17961 23.401 9.6056 23.5775 10.0498 23.5775H21.215C21.6591 23.5775 22.0851 23.401 22.3992 23.0869C22.7133 22.7729 22.8897 22.3469 22.8897 21.9027ZM23.448 26.927C23.8922 26.927 24.3182 27.1035 24.6322 27.4176C24.9463 27.7316 25.1228 28.1576 25.1228 28.6018C25.1228 29.046 24.9463 29.472 24.6322 29.7861C24.3182 30.1001 23.8922 30.2766 23.448 30.2766H10.0498C9.6056 30.2766 9.17961 30.1001 8.86553 29.7861C8.55145 29.472 8.375 29.046 8.375 28.6018C8.375 28.1576 8.55145 27.7316 8.86553 27.4176C9.17961 27.1035 9.6056 26.927 10.0498 26.927H23.448Z" fill="#7B7B7B"/>
<path fill-rule="evenodd" clip-rule="evenodd" d="M8.37389 42H37.4034C39.032 42 40.594 41.353 41.7456 40.2014C42.8972 39.0498 43.5442 37.4878 43.5442 35.8591V23.5774C43.5442 23.1333 43.3678 22.7073 43.0537 22.3932C42.7396 22.0791 42.3136 21.9027 41.8694 21.9027H34.6121V4.46935C34.6121 1.29174 31.0191 -0.557212 28.4333 1.28951L28.0425 1.56864C27.1867 2.17608 26.1629 2.50166 25.1135 2.50006C24.0641 2.49846 23.0413 2.16976 22.1875 1.55971C20.7619 0.545167 19.0557 0 17.306 0C15.5563 0 13.8501 0.545167 12.4246 1.55971C11.5707 2.16976 10.5479 2.49846 9.49853 2.50006C8.44913 2.50166 7.42532 2.17608 6.56959 1.56864L6.17881 1.28951C3.59296 -0.557212 0 1.28951 0 4.46935V33.6261C0 35.847 0.882246 37.9769 2.45266 39.5474C4.02306 41.1178 6.15299 42 8.37389 42ZM14.3718 4.28401C15.2292 3.67539 16.2546 3.34843 17.306 3.34843C18.3575 3.34843 19.3829 3.67539 20.2402 4.28401C21.662 5.30031 23.3655 5.84761 25.1132 5.84962C26.8608 5.85162 28.5656 5.30822 29.9897 4.29518L30.3805 4.01605C30.4639 3.95667 30.562 3.92137 30.6641 3.914C30.7662 3.90663 30.8684 3.92749 30.9594 3.97429C31.0505 4.02108 31.1269 4.09202 31.1804 4.17933C31.2338 4.26664 31.2622 4.36698 31.2625 4.46935V35.8591C31.2625 36.864 31.5037 37.8131 31.9324 38.6504H8.37389C7.04135 38.6504 5.76339 38.1211 4.82115 37.1789C3.8789 36.2366 3.34956 34.9586 3.34956 33.6261V4.46935C3.34982 4.36698 3.37824 4.26664 3.43169 4.17933C3.48515 4.09202 3.56158 4.02108 3.65264 3.97429C3.74369 3.92749 3.84586 3.90663 3.94797 3.914C4.05009 3.92137 4.14821 3.95667 4.2316 4.01605L4.62239 4.29518C6.0465 5.30822 7.75123 5.85162 9.49889 5.84962C11.2466 5.84761 12.95 5.30031 14.3718 4.28401ZM34.6121 35.8591V25.2522H40.1947V35.8591C40.1947 36.5994 39.9006 37.3094 39.3771 37.8329C38.8536 38.3564 38.1437 38.6504 37.4034 38.6504C36.6631 38.6504 35.9531 38.3564 35.4296 37.8329C34.9062 37.3094 34.6121 36.5994 34.6121 35.8591Z" fill="#7B7B7B"/>
</svg>
