<svg width="64" height="42" viewBox="0 0 64 42" fill="none" xmlns="http://www.w3.org/2000/svg">
<path d="M43.919 41.9881C43.3458 41.9881 42.7961 41.7604 42.3908 41.3551C41.9855 40.9498 41.7577 40.4001 41.7577 39.8268C41.7577 39.2536 41.9855 38.7039 42.3908 38.2986C42.7961 37.8933 43.3458 37.6656 43.919 37.6656H53.2291C54.2406 37.6653 55.237 37.4209 56.1338 36.9531C57.0305 36.4853 57.8011 35.808 58.3801 34.9787C58.9591 34.1494 59.3294 33.1926 59.4595 32.1895C59.5896 31.1865 59.4756 30.1669 59.1274 29.2173C58.7791 28.2677 58.2067 27.4162 57.459 26.7352C56.7112 26.0541 55.8101 25.5636 54.8322 25.3053C53.8543 25.047 52.8285 25.0286 51.8419 25.2515C50.8554 25.4745 49.9372 25.9323 49.1655 26.5861L49.175 26.5789C48.7353 26.9309 48.1757 27.0975 47.6151 27.0434C47.0545 26.9893 46.5371 26.7187 46.1728 26.2892C45.8085 25.8597 45.6261 25.305 45.6643 24.7431C45.7024 24.1812 45.9582 23.6564 46.3772 23.28L46.3796 23.2777C47.8019 22.0709 49.5188 21.2629 51.3552 20.9359L51.4194 20.9264C51.3963 17.3617 50.2335 13.8978 48.101 11.0412C45.9686 8.18453 42.9782 6.08492 39.5672 5.04927C36.1562 4.01362 32.5033 4.09624 29.1426 5.28504C25.7818 6.47385 22.8895 8.70651 20.8884 11.6566L20.8504 11.716C22.4847 12.2971 24.01 13.148 25.3629 14.2335L25.3321 14.2098C25.6845 14.488 25.9416 14.869 26.0678 15.3C26.1939 15.7309 26.1829 16.1904 26.0362 16.6148C25.8896 17.0391 25.6145 17.4074 25.2491 17.6684C24.8838 17.9294 24.4463 18.0703 23.9973 18.0716C23.4982 18.0726 23.0145 17.8996 22.6293 17.5823L22.634 17.5847C20.6543 15.9811 18.1825 15.1088 15.6348 15.1147H15.6016C12.6121 15.1147 9.7474 16.3023 7.63351 18.4161C5.51962 20.53 4.33205 23.3971 4.33205 26.3866C4.33205 29.3761 5.51962 32.2431 7.63351 34.357C9.7474 36.4709 12.6144 37.6585 15.6039 37.6585H20.5749C21.1481 37.6585 21.6978 37.8862 22.1031 38.2915C22.5084 38.6968 22.7361 39.2465 22.7361 39.8197C22.7361 40.3929 22.5084 40.9427 22.1031 41.348C21.6978 41.7533 21.1481 41.981 20.5749 41.981H15.5968C11.4603 41.981 7.49317 40.3378 4.5682 37.4128C1.64323 34.4878 0 30.5207 0 26.3842C0 22.2477 1.64323 18.2805 4.5682 15.3556C7.49317 12.4306 11.4603 10.7874 15.5968 10.7874C15.8391 10.7874 16.0766 10.8064 16.3212 10.8183C19.9859 4.3178 26.8449 0 34.711 0C40.2907 0.000629615 45.6417 2.21725 49.5873 6.16244C53.5329 10.1076 55.7502 15.4584 55.7514 21.038V21.0808C60.4255 22.254 63.8336 26.4174 63.8336 31.3789C63.833 34.1905 62.7158 36.8869 60.7276 38.875C58.7395 40.8632 56.0432 41.9804 53.2315 41.981L43.919 41.9881ZM29.7496 39.8268V29.8826L27.3057 32.3289C26.9 32.7342 26.35 32.9618 25.7765 32.9616C25.2031 32.9614 24.6532 32.7333 24.2479 32.3277C23.8425 31.922 23.6149 31.372 23.6151 30.7985C23.6154 30.2251 23.8434 29.6752 24.249 29.2698L30.3837 23.1328C30.5189 23.0012 30.6706 22.8879 30.835 22.7955L30.8469 22.7908C30.8872 22.767 30.9276 22.748 30.968 22.729C31.1225 22.646 31.2869 22.583 31.4572 22.5414L31.4715 22.539H31.4953C31.6793 22.5054 31.867 22.4966 32.0534 22.5129H32.0463H32.07C32.1104 22.5129 32.1508 22.5176 32.1888 22.5271H32.1864C32.3906 22.5509 32.5759 22.5984 32.7516 22.672L32.7374 22.6673C32.8547 22.7178 32.9676 22.7781 33.0746 22.8478L33.0675 22.843C33.1008 22.862 33.1269 22.8858 33.1578 22.9048C33.2393 22.9631 33.317 23.0266 33.3905 23.0948L33.4428 23.1375L39.5822 29.2746C39.7831 29.4753 39.9424 29.7136 40.0512 29.9759C40.16 30.2382 40.216 30.5193 40.2161 30.8033C40.2162 31.0872 40.1604 31.3684 40.0518 31.6308C39.9433 31.8932 39.7841 32.1316 39.5834 32.3324C39.3827 32.5333 39.1444 32.6927 38.8821 32.8014C38.6198 32.9102 38.3387 32.9662 38.0547 32.9663C37.7708 32.9665 37.4896 32.9106 37.2272 32.8021C36.9648 32.6935 36.7264 32.5343 36.5256 32.3336L34.0793 29.8874V39.8387C34.0793 40.4119 33.8516 40.9617 33.4463 41.367C33.0409 41.7723 32.4912 42 31.918 42C31.3448 42 30.7951 41.7723 30.3898 41.367C29.9844 40.9617 29.7567 40.4119 29.7567 39.8387L29.7496 39.8268Z" fill="#7B7B7B"/>
</svg>
