<svg width="53" height="42" viewBox="0 0 53 42" fill="none" xmlns="http://www.w3.org/2000/svg">
<path d="M0 32.2124V39.646H21.3333V34.9628H5.06667V32.2124C5.06667 30.6265 13.4133 27.0088 21.3333 27.0088C23.8933 27.0336 26.4267 27.3557 28.88 27.9504L32.9333 24.1841C29.2 23.0195 25.3333 22.3752 21.3333 22.3009C14.2133 22.3009 0 25.5965 0 32.2124ZM21.3333 0C15.44 0 10.6667 4.4354 10.6667 9.9115C10.6667 15.3876 15.44 19.823 21.3333 19.823C27.2267 19.823 32 15.3876 32 9.9115C32 4.4354 27.2267 0 21.3333 0ZM21.3333 14.8673C18.4 14.8673 16 12.6619 16 9.9115C16 7.16106 18.4 4.95575 21.3333 4.95575C24.2667 4.95575 26.6667 7.18584 26.6667 9.9115C26.6667 12.6372 24.2933 14.8673 21.3333 14.8673ZM52.5333 23.1681L49.8667 25.646L44.4 20.6903L47.0667 18.2124C47.3408 17.9627 47.7094 17.8228 48.0933 17.8228C48.4772 17.8228 48.8458 17.9627 49.12 18.2124L52.5333 21.3841C53.0933 21.9044 53.0933 22.7717 52.5333 23.292M26.6667 37.0195L42.8267 22.0035L48.2933 26.9593L32.2933 42H26.6667V37.0195Z" fill="#7B7B7B"/>
</svg>
