<svg width="58" height="48" viewBox="0 0 58 48" fill="none" xmlns="http://www.w3.org/2000/svg">
<path d="M41 3H7C4.79086 3 3 4.79086 3 7V31C3 33.2091 4.79086 35 7 35H41C43.2091 35 45 33.2091 45 31V7C45 4.79086 43.2091 3 41 3Z" stroke="#7B7B7B" stroke-width="4.57143" stroke-linecap="round" stroke-linejoin="round"/>
<path d="M24 24.9999C27.3137 24.9999 30 22.3136 30 18.9999C30 15.6862 27.3137 12.9999 24 12.9999C20.6863 12.9999 18 15.6862 18 18.9999C18 22.3136 20.6863 24.9999 24 24.9999Z" stroke="#7B7B7B" stroke-width="4.57143" stroke-linecap="round" stroke-linejoin="round"/>
<path d="M15 45.0001H51C52.0609 45.0001 53.0783 44.5787 53.8284 43.8285C54.5786 43.0784 55 42.061 55 41.0001V21.0001" stroke="#7B7B7B" stroke-width="4.57143" stroke-linecap="round" stroke-linejoin="round"/>
</svg>
