<svg width="39" height="42" viewBox="0 0 39 42" fill="none" xmlns="http://www.w3.org/2000/svg">
<path d="M0 0V39H24V36H3V3H18V12H27V15H30V9.9L29.55 9.45L20.55 0.45L20.1 0H0ZM21 5.1L24.9 9H21V5.1ZM6 15V18H24V15H6ZM31.5 18V21C28.95 21.45 27 23.55 27 26.25C27 29.25 29.25 31.5 32.25 31.5H33.75C34.95 31.5 36 32.55 36 33.75C36 34.95 34.95 36 33.75 36H28.5V39H31.5V42H34.5V39C37.05 38.55 39 36.45 39 33.75C39 30.75 36.75 28.5 33.75 28.5H32.25C31.05 28.5 30 27.45 30 26.25C30 25.05 31.05 24 32.25 24H37.5V21H34.5V18H31.5ZM6 22.5V25.5H16.5V22.5H6ZM19.5 22.5V25.5H24V22.5H19.5ZM6 28.5V31.5H16.5V28.5H6ZM19.5 28.5V31.5H24V28.5H19.5Z" fill="#7B7B7B"/>
</svg>
