<svg width="50" height="44" viewBox="0 0 50 44" fill="none" xmlns="http://www.w3.org/2000/svg">
<g id="Group 783">
<rect id="Rectangle 251" x="0.5" y="0.5" width="49" height="43" rx="4.5" stroke="#959799"/>
<g id="Group">
<path id="Vector" d="M30.2331 28.2667C30.2331 27.7275 30.0188 27.2103 29.6375 26.8289C29.2562 26.4476 28.739 26.2334 28.1997 26.2334H22.0997C21.5605 26.2334 21.0433 26.4476 20.662 26.8289C20.2806 27.2103 20.0664 27.7275 20.0664 28.2667" stroke="#7B7B7B" stroke-width="1.33" stroke-linecap="round" stroke-linejoin="round"/>
<path id="Vector_2" d="M32.2667 14.0332H18.0333C16.9104 14.0332 16 14.9436 16 16.0665V30.2999C16 31.4228 16.9104 32.3332 18.0333 32.3332H32.2667C33.3896 32.3332 34.3 31.4228 34.3 30.2999V16.0665C34.3 14.9436 33.3896 14.0332 32.2667 14.0332Z" stroke="#7B7B7B" stroke-width="1.33" stroke-linecap="round" stroke-linejoin="round"/>
<path id="Vector_3" d="M25.1505 22.1668C26.2735 22.1668 27.1839 21.2564 27.1839 20.1334C27.1839 19.0105 26.2735 18.1001 25.1505 18.1001C24.0275 18.1001 23.1172 19.0105 23.1172 20.1334C23.1172 21.2564 24.0275 22.1668 25.1505 22.1668Z" stroke="#7B7B7B" stroke-width="1.33" stroke-linecap="round" stroke-linejoin="round"/>
<path id="Vector_4" d="M21.084 12V14.0333M29.2173 12V14.0333" stroke="#7B7B7B" stroke-width="1.33" stroke-linecap="round" stroke-linejoin="round"/>
</g>
</g>
</svg>
