<svg width="50" height="44" viewBox="0 0 50 44" fill="none" xmlns="http://www.w3.org/2000/svg">
<g id="Group 792">
<rect id="Rectangle 251" x="0.5" y="0.5" width="49" height="43" rx="4.5" stroke="#959799"/>
<g id="Group 791">
<path id="Vector" d="M17.5 24.25H22.75V26H17.5V24.25ZM17.5 27.75H26.25V29.5H17.5V27.75Z" fill="#7B7B7B"/>
<path id="Vector_2" d="M33.25 12H15.75C15.286 12.0005 14.8412 12.185 14.5131 12.5131C14.185 12.8412 14.0005 13.286 14 13.75V31.25C14.0005 31.714 14.185 32.1588 14.5131 32.4869C14.8412 32.815 15.286 32.9995 15.75 33H33.25C33.714 32.9995 34.1588 32.815 34.4869 32.4869C34.815 32.1588 34.9995 31.714 35 31.25V13.75C34.9995 13.286 34.815 12.8412 34.4869 12.5131C34.1588 12.185 33.714 12.0005 33.25 12ZM26.25 13.75V17.25H22.75V13.75H26.25ZM15.75 31.25V13.75H21V19H28V13.75H33.25L33.2509 31.25H15.75Z" fill="#7B7B7B"/>
</g>
</g>
</svg>
