<svg width="52" height="53" viewBox="0 0 52 53" fill="none" xmlns="http://www.w3.org/2000/svg">
<g id="svgexport-5" clip-path="url(#clip0_631_1392)">
<path id="Vector" d="M46.4286 0.0078125H5.57143C2.49437 0.0078125 0 2.50219 0 5.57924V46.4364C0 49.5134 2.49437 52.0078 5.57143 52.0078H46.4286C49.5056 52.0078 52 49.5134 52 46.4364V5.57924C52 2.50219 49.5056 0.0078125 46.4286 0.0078125ZM46.4286 3.7221C47.4527 3.7221 48.2857 4.55526 48.2857 5.57924V46.4364C48.2857 47.4604 47.4527 48.2935 46.4286 48.2935H5.57143C4.54745 48.2935 3.71429 47.4604 3.71429 46.4364V5.57924C3.71429 4.55526 4.54745 3.7221 5.57143 3.7221H46.4286ZM42.4472 15.1311L41.4663 14.1422C40.9246 13.5961 40.0427 13.5925 39.4966 14.1343L20.5257 32.9529L12.5196 24.8822C11.9779 24.336 11.096 24.3324 10.5498 24.8743L9.56092 25.8552C9.0148 26.3969 9.01121 27.2788 9.55303 27.8249L19.521 37.8734C20.0627 38.4196 20.9446 38.4232 21.4907 37.8813L42.4393 17.1008C42.9853 16.5591 42.9889 15.6772 42.4472 15.1311Z" fill="#00F8F7"/>
</g>
<defs>
<clipPath id="clip0_631_1392">
<rect width="52" height="52" fill="white" transform="translate(0 0.00390625)"/>
</clipPath>
</defs>
</svg>
