<svg width="54" height="44" viewBox="0 0 54 44" fill="none" xmlns="http://www.w3.org/2000/svg">
<path id="Vector" d="M49.95 0H41.85C39.6132 0 37.8 1.81322 37.8 4.05V6.75H16.2V4.05C16.2 1.81322 14.3868 0 12.15 0H4.05C1.81322 0 0 1.81322 0 4.05V12.15C0 14.3868 1.81322 16.2 4.05 16.2H12.0538L19.5429 28.874C19.1405 29.5034 18.8992 30.2467 18.8992 31.05V39.15C18.8992 41.3868 20.7124 43.2 22.9492 43.2H31.0492C33.2859 43.2 35.0992 41.3868 35.0992 39.15V31.05C35.0992 28.8132 33.2859 27 31.0492 27H22.9492C22.5104 27 22.0961 27.0878 21.7004 27.2168L14.661 15.3048C15.5925 14.5623 16.2 13.4325 16.2 12.15V9.45H37.8V12.15C37.8 14.3868 39.6132 16.2 41.85 16.2H49.95C52.1868 16.2 54 14.3868 54 12.15V4.05C54 1.81322 52.1868 0 49.95 0ZM2.7 12.15V4.05C2.7 3.30581 3.30581 2.7 4.05 2.7H12.15C12.8942 2.7 13.5 3.30581 13.5 4.05V12.15C13.5 12.8942 12.8942 13.5 12.15 13.5H4.05C3.30581 13.5 2.7 12.8942 2.7 12.15ZM31.05 29.7C31.7942 29.7 32.4 30.3058 32.4 31.05V39.15C32.4 39.8942 31.7942 40.5 31.05 40.5H22.95C22.2058 40.5 21.6 39.8942 21.6 39.15V31.05C21.6 30.3058 22.2058 29.7 22.95 29.7H31.05ZM51.3 12.15C51.3 12.8942 50.6942 13.5 49.95 13.5H41.85C41.1058 13.5 40.5 12.8942 40.5 12.15V4.05C40.5 3.30581 41.1058 2.7 41.85 2.7H49.95C50.6942 2.7 51.3 3.30581 51.3 4.05V12.15Z" fill="#00F8F7"/>
</svg>
