<svg width="54" height="43" viewBox="0 0 54 43" fill="none" xmlns="http://www.w3.org/2000/svg">
<path id="Vector" d="M39.0017 21.0009C39.0017 27.6293 33.6296 33.0014 27.0012 33.0014C20.3728 33.0014 15.0007 27.6293 15.0007 21.0009C15.0007 14.3725 20.3728 9.00039 27.0012 9.00039C33.6296 9.00039 39.0017 14.3725 39.0017 21.0009ZM27.0012 12.0005C21.9478 12.0005 18.0008 15.9476 18.0008 21.0009C18.0008 25.9699 21.9478 30.0013 27.0012 30.0013C31.9701 30.0013 36.0016 25.9699 36.0016 21.0009C36.0016 15.9476 31.9701 12.0005 27.0012 12.0005ZM45.0582 7.55658C49.4459 11.6255 52.3804 16.4163 53.768 19.8477C54.0774 20.5884 54.0774 21.4134 53.768 22.1541C52.3804 25.5011 49.4459 30.2919 45.0582 34.4452C40.6424 38.5517 34.5765 42.0018 27.0012 42.0018C19.4259 42.0018 13.36 38.5517 8.94602 34.4452C4.55833 30.2919 1.62571 25.5011 0.23074 22.1541C-0.0769135 21.4134 -0.0769135 20.5884 0.23074 19.8477C1.62571 16.4163 4.55833 11.6255 8.94602 7.55658C13.36 3.4539 19.4259 0 27.0012 0C34.5765 0 40.6424 3.4539 45.0582 7.55658ZM3.00014 21.0009C4.24988 24.001 6.95 28.5012 10.988 32.2514C15.0288 36.0016 20.4009 39.0017 27.0012 39.0017C33.6015 39.0017 38.9736 36.0016 43.0144 32.2514C47.0552 28.5012 49.7553 24.001 51.0022 21.0009C49.7553 17.9164 47.0552 13.4162 43.0144 9.75042C38.9736 5.99932 33.6015 3.00013 27.0012 3.00013C20.4009 3.00013 15.0288 5.99932 10.988 9.75042C6.95 13.4162 4.24988 17.9164 3.00014 21.0009Z" fill="#00F8F7"/>
</svg>
