<svg width="48" height="54" viewBox="0 0 48 54" fill="none" xmlns="http://www.w3.org/2000/svg">
<path id="Vector" d="M10.1428 13.5238C10.1428 6.05506 16.1968 0 23.6666 0C31.1364 0 37.1904 6.05506 37.1904 13.5238C37.1904 20.9935 31.1364 27.0475 23.6666 27.0475C16.1968 27.0475 10.1428 20.9935 10.1428 13.5238ZM33.8094 13.5238C33.8094 7.92197 29.2663 3.38094 23.6666 3.38094C17.9718 3.38094 13.5238 7.92197 13.5238 13.5238C13.5238 19.1235 17.9718 23.6666 23.6666 23.6666C29.2663 23.6666 33.8094 19.1235 33.8094 13.5238ZM27.0475 32.119C27.9773 32.119 28.738 32.8797 28.738 33.8094C28.738 34.7392 27.9773 35.4999 27.0475 35.4999H26.0121L28.1147 41.818L32.0767 33.9045C40.6453 34.792 47.3332 42.0399 47.3332 50.8515C47.3332 52.6371 45.8752 54 44.0896 54H3.24571C1.45275 54 0 52.6371 0 50.8515C0 42.0399 6.68581 34.792 15.2565 33.9045L19.2185 41.818L21.3211 35.4999H20.1906C19.3559 35.4999 18.5001 34.7392 18.5001 33.8094C18.5001 32.8797 19.3559 32.119 20.1906 32.119H27.0475ZM23.6666 50.6191L25.9804 46.0865L23.6666 39.1555L21.3528 46.0865L23.6666 50.6191ZM43.8572 50.6191C43.8889 44.5017 39.6838 39.2823 33.9573 37.687L27.449 50.6191H43.8572ZM19.8842 50.6191L13.3759 37.687C7.65255 39.2823 3.44222 44.5017 3.382 50.6191H19.8842Z" fill="#00F8F7"/>
</svg>
