<svg width="54" height="55" viewBox="0 0 54 55" fill="none" xmlns="http://www.w3.org/2000/svg">
<g id="svgexport-5" clip-path="url(#clip0_624_1006)">
<path id="Vector" d="M51.1101 35.868L40.3734 31.2632C38.4222 30.4524 36.1336 31.0127 34.8099 32.6427L31.3147 36.9111C25.7554 33.8852 21.1254 29.2551 18.0984 23.6969L22.372 20.1964C24.0247 18.8337 24.5689 16.5936 23.7262 14.6234L19.132 3.88668C18.2144 1.76771 15.9047 0.605867 13.6687 1.12171L3.70933 3.43211C1.52613 3.92993 0 5.84102 0 8.07907C0 33.9484 21.0515 55 46.923 55C49.1621 55 51.0795 53.477 51.5816 51.2949L53.8808 41.3312C54.3902 39.0848 53.23 36.7855 51.1101 35.868ZM48.2941 50.5387C48.1491 51.1682 47.5723 51.6261 46.9251 51.6261C22.9099 51.6261 3.37711 32.0932 3.37711 8.07801C3.37711 7.42537 3.82366 6.86723 4.46765 6.71957L14.4249 4.40875C14.5304 4.38403 14.6359 4.37249 14.7397 4.37249C15.2917 4.37249 15.806 4.69881 16.0317 5.21951L20.628 15.9457C20.8722 16.525 20.714 17.1895 20.2289 17.5902L14.9027 21.9566C14.3016 22.4523 14.1117 23.2961 14.4598 24.0027C17.9803 31.1546 23.8581 37.0281 31.0078 40.5508C31.7082 40.9002 32.5613 40.7123 33.0581 40.1058L37.4234 34.7796C37.814 34.2984 38.495 34.1402 39.0582 34.3742L49.7738 38.9684C50.3967 39.2388 50.7395 39.9144 50.5879 40.5737L48.2941 50.5387Z" fill="#00F8F7"/>
</g>
<defs>
<clipPath id="clip0_624_1006">
<rect width="54" height="54" fill="white" transform="translate(0 0.996094)"/>
</clipPath>
</defs>
</svg>
