<svg width="54" height="55" viewBox="0 0 54 55" fill="none" xmlns="http://www.w3.org/2000/svg">
<g id="svgexport-5">
<path id="Vector" d="M9.28125 21.4286H4.21875C1.89211 21.4286 0 23.2665 0 25.5357V46.8929C0 49.1621 1.89211 51 4.21875 51H9.28125C11.6121 51 13.5 49.1621 13.5 46.8929V25.5357C13.5 23.2665 11.6121 21.4286 9.28125 21.4286ZM10.125 46.8929C10.125 47.3446 9.74637 47.7143 9.28125 47.7143H4.21875C3.75363 47.7143 3.375 47.3446 3.375 46.8929V25.5357C3.375 25.0839 3.75363 24.7143 4.21875 24.7143H9.28125C9.74637 24.7143 10.125 25.0839 10.125 25.5357V46.8929ZM54 24.4576C54 20.9768 51.0891 18.1429 47.5137 18.1429H36.7031C37.9666 15.3644 38.6891 12.6516 38.6891 11.2295C38.6965 8.16661 36.2391 5 32.1574 5C27.81 5 26.8102 7.98897 25.9221 10.6278C23.0027 19.2826 16.875 20.6893 16.875 23.0714C16.875 24.0058 17.666 24.7143 18.5625 24.7143C18.9949 24.7143 19.4273 24.55 19.7543 24.2317C25.3104 18.7856 26.8228 18.4704 29.121 11.6536C30.0902 8.79397 30.3961 8.28571 32.1574 8.28571C34.3364 8.28571 35.3152 10.0076 35.3152 11.2295C35.3152 12.2655 34.3774 15.7422 32.5076 18.9797C32.3635 19.2294 32.2918 19.5065 32.2918 19.7837C32.2945 20.7612 33.1172 21.4286 33.982 21.4286H47.5137C49.2328 21.4286 50.625 22.7839 50.625 24.4576C50.625 26.0317 49.3509 27.349 47.7267 27.4558C46.8342 27.5155 46.1542 28.2412 46.1542 29.0946C46.1542 30.3462 47.4261 30.415 47.4261 32.2396C47.4261 33.6915 46.3598 34.94 44.8917 35.206C44.2823 35.3171 43.5143 35.8649 43.5143 36.8232C43.5143 37.7356 44.2278 37.9239 44.2278 39.2423C44.2278 42.4274 40.9045 41.5135 40.9045 43.6626C40.9045 44.0246 41.0295 44.1893 41.0295 44.6904C41.0273 46.3589 39.6352 47.7143 37.916 47.7143H32.052C23.4025 47.7143 20.6297 41.1408 18.5625 41.1408C17.6267 41.1408 16.875 41.8794 16.875 42.7796C16.7801 44.4594 23.6883 51 32.052 51H37.9192C41.4956 51 44.4055 48.1681 44.4055 44.6884C46.362 43.5733 47.6044 41.5053 47.6044 39.2402C47.6044 38.7477 47.5417 38.2551 47.4215 37.775C49.4581 36.6948 50.8028 34.595 50.8028 32.2365C50.8028 31.4953 50.6677 30.7672 50.4073 30.0823C52.5445 29.0473 54 26.9013 54 24.4576Z" fill="#00F8F7"/>
</g>
</svg>
