<svg width="42" height="41" viewBox="0 0 42 41" fill="none" xmlns="http://www.w3.org/2000/svg">
<path id="Vector" d="M38.1831 40.378L29.1921 31.5862C27.7784 32.7842 26.1291 33.7173 24.2443 34.3854C22.3594 35.0535 20.3567 35.3876 18.2362 35.3876C13.147 35.3876 8.83537 33.6597 5.30122 30.2038C1.76707 26.748 0 22.578 0 17.6938C0 12.8096 1.76707 8.63954 5.30122 5.18373C8.83537 1.72791 13.1235 0 18.1655 0C23.1604 0 27.4132 1.72791 30.9238 5.18373C34.4344 8.63954 36.1897 12.8096 36.1897 17.6938C36.1897 19.6751 35.8598 21.5873 35.2001 23.4304C34.5404 25.2735 33.5508 27.0015 32.2314 28.6142L41.3638 37.406C41.7879 37.7746 42 38.2469 42 38.8228C42 39.3988 41.7644 39.9172 41.2932 40.378C40.8691 40.7926 40.3507 41 39.7381 41C39.1256 41 38.6072 40.7926 38.1831 40.378ZM18.1655 31.2406C21.9824 31.2406 25.2338 29.9159 27.9198 27.2664C30.6057 24.6169 31.9487 21.4261 31.9487 17.6938C31.9487 13.9615 30.6057 10.7706 27.9198 8.12117C25.2338 5.47171 21.9824 4.14698 18.1655 4.14698C14.3015 4.14698 11.0148 5.47171 8.30525 8.12117C5.59573 10.7706 4.24098 13.9615 4.24098 17.6938C4.24098 21.4261 5.59573 24.6169 8.30525 27.2664C11.0148 29.9159 14.3015 31.2406 18.1655 31.2406Z" fill="#959799"/>
</svg>
