<svg width="54" height="55" viewBox="0 0 54 55" fill="none" xmlns="http://www.w3.org/2000/svg">
<g id="ion:person-outline" clip-path="url(#clip0_612_493)">
<path id="Vector" d="M19.0918 10.8566C19.2084 10.9831 19.3519 11.1106 19.5043 11.2371C18.1234 11.2998 16.7783 11.4369 15.4781 11.6452V9.49836C15.4781 7.87761 16.2492 6.55232 17.2177 5.56181C18.1951 4.56492 19.5223 3.74551 21.0467 3.09084C24.0956 1.77596 28.2115 0.996094 32.6951 0.996094C37.098 0.996094 41.2947 1.77596 44.3436 3.09084C45.868 3.74551 47.1951 4.56492 48.1726 5.56181C49.141 6.55232 49.9122 7.87761 49.9122 9.49836V20.5513V32.6564C49.9122 34.2931 49.1769 35.6534 48.1995 36.695C47.1413 37.7365 45.8859 38.5974 44.3615 39.2882C43.4379 39.7026 42.4066 40.0746 41.3037 40.3828V36.8756C42.039 36.6418 42.7205 36.3868 43.3482 36.1104C44.6754 35.5047 45.6528 34.8351 46.2805 34.1656C46.8992 33.5066 47.0427 32.9859 47.0427 32.6564V25.6208C46.2626 26.2159 45.3569 26.7367 44.3615 27.1831C43.4379 27.5975 42.4066 27.9695 41.3037 28.2777V24.7705C42.039 24.5367 42.7205 24.2817 43.3482 24.0053C44.6754 23.3996 45.6528 22.7194 46.2805 22.0605C46.8992 21.3059 47.0427 20.8808 47.0427 20.5513V14.3978C46.2536 14.9823 45.3389 15.4818 44.3436 15.9069C42.7922 16.5765 40.9719 17.1079 38.9632 17.4586C38.8018 17.161 38.6314 17.0654 38.4611 16.8847C37.5554 15.9176 36.5152 15.1311 35.4301 14.4934C38.5418 14.249 41.2947 13.6007 43.2854 12.708C44.7023 12.1341 45.6797 11.4879 46.2984 10.8566C46.9261 10.22 47.0427 9.75555 47.0427 9.49836C47.0427 9.24116 46.9261 8.77673 46.2984 8.14012C45.6797 7.50883 44.7023 6.86266 43.2854 6.28663C40.7029 5.13988 36.9277 4.397 32.6951 4.397C28.4626 4.397 24.6874 5.13988 22.0241 6.28663C20.688 6.86266 19.7106 7.50883 19.0918 8.14012C18.4641 8.77673 18.2669 9.24116 18.2669 9.49836C18.2669 9.75555 18.4641 10.22 19.0918 10.8566ZM4 23.102C4 21.4759 4.76688 20.1581 5.73964 19.074C6.71707 18.1707 8.04781 17.3523 9.56686 16.6934C12.6175 15.3755 16.7335 14.5997 21.2171 14.5997C25.62 14.5997 29.8167 15.3755 32.8655 16.6934C34.3899 17.3523 35.7171 18.1707 36.6945 19.074C37.663 20.1581 38.4342 21.4759 38.4342 23.102V46.26C38.4342 47.8967 37.6989 49.2571 36.7214 50.2986C35.6633 51.3401 34.4079 52.201 32.8834 52.8918C29.8346 54.2734 25.7007 54.9961 21.2171 54.9961C16.6528 54.9961 12.6041 54.2734 9.54623 52.8918C8.0227 52.201 6.69107 51.3401 5.71453 50.2986C4.73899 49.2571 4.00003 47.8967 4.00003 46.26L4 23.102ZM7.61021 24.4623C8.22984 25.0894 9.21086 25.7377 10.5479 26.3116C13.2093 27.4594 16.9845 28.2033 21.2171 28.2033C25.4496 28.2033 29.2248 27.4594 31.8074 26.3116C33.2242 25.7377 34.2016 25.0894 34.8204 24.4623C35.4481 23.8247 35.5647 23.357 35.5647 23.102C35.5647 22.8469 35.4481 22.3793 34.8204 21.7416C34.2016 21.1146 33.2242 20.4663 31.8074 19.8924C29.2248 18.6489 25.4496 18.0006 21.2171 18.0006C16.9845 18.0006 13.2093 18.6489 10.5479 19.8924C9.21086 20.4663 8.22984 21.1146 7.61021 21.7416C6.98609 22.3793 6.86951 22.8469 6.86951 23.102C6.86951 23.357 6.98609 23.8247 7.61021 24.4623ZM32.8655 29.5106C29.8167 30.8284 25.62 31.6042 21.2171 31.6042C16.7335 31.6042 12.6175 30.8284 9.56686 29.5106C8.57149 29.0854 7.65684 28.5753 6.86951 28.0014V34.1549C6.86951 34.4844 7.01389 34.9095 7.63532 35.6641C8.25585 36.323 9.23597 37.0032 10.5685 37.609C13.2273 38.7993 16.9845 39.5751 21.2171 39.5751C25.4496 39.5751 29.2069 38.7993 31.8702 37.609C33.1973 37.0032 34.1747 36.323 34.8024 35.6641C35.4212 34.9095 35.5647 34.4844 35.5647 34.1549V28.0014C34.7755 28.5753 33.8609 29.0854 32.8655 29.5106ZM7.63532 47.7692C8.25585 48.4387 9.23597 49.1083 10.5685 49.7141C13.2273 50.9044 16.9845 51.5952 21.2171 51.5952C25.4496 51.5952 29.2069 50.9044 31.8702 49.7141C33.1973 49.1083 34.1747 48.4387 34.8024 47.7692C35.4212 47.1102 35.5647 46.5895 35.5647 46.26V39.2244C34.7845 39.8196 33.8788 40.3403 32.8834 40.7867C29.8346 42.1683 25.7007 42.976 21.2171 42.976C16.6528 42.976 12.6041 42.1683 9.54623 40.7867C8.55894 40.3403 7.65146 39.8196 6.78881 39.2244V46.26C6.78881 46.5895 7.01389 47.1102 7.63532 47.7692Z" fill="#00F8F7"/>
</g>
<defs>
<clipPath id="clip0_612_493">
<rect width="54" height="54" fill="white" transform="translate(0 0.996094)"/>
</clipPath>
</defs>
</svg>
