<svg width="54" height="55" viewBox="0 0 54 55" fill="none" xmlns="http://www.w3.org/2000/svg">
<g id="svgexport-5">
<path id="Vector" d="M26.9916 32.9961C31.8355 32.9961 35.6906 29.0676 35.6906 24.2211C35.6906 19.3746 31.7638 15.4461 26.9916 15.4461C22.1476 15.4461 18.2925 19.3746 18.2925 24.2211C18.2166 29.0642 22.1484 32.9961 26.9916 32.9961ZM26.9916 18.1461C30.3396 18.1461 33.0632 20.8714 33.0632 24.2211C33.0632 27.5708 30.3328 30.2961 26.9916 30.2961C23.6503 30.2961 20.9166 27.5708 20.9166 24.2211C20.9166 20.8714 23.6419 18.1461 26.9916 18.1461ZM31.2103 35.6961H22.7897C16.1663 35.6961 10.8 40.7333 10.8 46.9433C10.8 48.192 11.8716 49.1961 13.1962 49.1961H40.8038C42.1284 49.1961 43.2 48.192 43.2 46.9433C43.2 40.7333 37.8338 35.6961 31.2103 35.6961ZM13.5169 46.4961C13.7718 41.9896 17.836 38.3961 22.7222 38.3961H31.2103C36.1699 38.3961 40.23 41.9896 40.4156 46.4961H13.5169ZM43.2 19.4961C46.9277 19.4961 49.95 16.4738 49.95 12.7461C49.95 9.01841 46.9294 5.99609 43.2 5.99609C39.4723 5.99609 36.45 9.01841 36.45 12.7461C36.45 16.4738 39.4706 19.4961 43.2 19.4961ZM43.2 8.69609C45.4334 8.69609 47.25 10.5127 47.25 12.7461C47.25 14.9795 45.4359 16.7961 43.2 16.7961C40.9641 16.7961 39.15 14.9795 39.15 12.7461C39.15 10.5127 40.9641 8.69609 43.2 8.69609ZM10.8 19.4961C14.5277 19.4961 17.55 16.4738 17.55 12.7461C17.55 9.01841 14.5294 5.99609 10.8 5.99609C7.07231 5.99609 4.05 9.01841 4.05 12.7461C4.05 16.4738 7.07231 19.4961 10.8 19.4961ZM10.8 8.69609C13.0334 8.69609 14.85 10.5127 14.85 12.7461C14.85 14.9795 13.0359 16.7961 10.8 16.7961C8.56406 16.7961 6.75 14.982 6.75 12.7461C6.75 10.5102 8.56406 8.69609 10.8 8.69609ZM47.3428 22.1961H41.85C40.9084 22.1961 39.987 22.407 39.1103 22.8237C38.4367 23.144 38.1493 23.9492 38.4696 24.6217C38.7899 25.2942 39.5985 25.5827 40.2676 25.2624C40.7784 25.0227 41.31 24.8961 41.85 24.8961H47.3411C49.4522 24.8961 51.3 26.8114 51.3 29.1739V30.2961C51.3 31.0423 51.9038 31.6461 52.65 31.6461C53.3962 31.6461 54 31.0386 54 30.2961V29.1739C54 25.3264 51.0131 22.1961 47.3428 22.1961ZM13.7363 25.2589C14.406 25.5793 15.2153 25.2905 15.5343 24.6182C15.8547 23.9458 15.5672 23.1399 14.8935 22.8201C14.0147 22.407 13.095 22.1961 12.15 22.1961H6.65887C2.98772 22.1961 0 25.3264 0 29.1739V30.2961C0 31.0423 0.603788 31.6461 1.35 31.6461C2.09621 31.6461 2.7 31.0386 2.7 30.2961V29.1739C2.7 26.8114 4.47609 24.8961 6.65887 24.8961H12.15C12.69 24.8961 13.2216 25.0227 13.7363 25.2589Z" fill="#00F8F7"/>
</g>
</svg>
