<svg width="54" height="55" viewBox="0 0 54 55" fill="none" xmlns="http://www.w3.org/2000/svg">
<g id="ion:person-outline" clip-path="url(#clip0_612_491)">
<path id="Vector" d="M18.8125 14.4961H35.6875C36.6156 14.4961 37.375 13.7367 37.375 12.8086C37.375 11.8805 36.6156 11.1211 35.6875 11.1211H33.0634C33.6414 10.1244 34 8.98219 34 7.74609C34 4.01777 30.9783 0.996094 27.25 0.996094C23.5217 0.996094 20.5 4.01777 20.5 7.74609C20.5 8.98219 20.8564 10.1244 21.4362 11.1211H18.8125C17.8844 11.1211 17.125 11.8805 17.125 12.8086C17.125 13.7367 17.8844 14.4961 18.8125 14.4961ZM27.25 4.37109C29.1105 4.37109 30.625 5.88562 30.625 7.74609C30.625 9.60656 29.1105 11.1211 27.25 11.1211C25.3895 11.1211 23.875 9.60656 23.875 7.74609C23.875 5.88562 25.3937 4.37109 27.25 4.37109ZM40.75 7.74609C39.8172 7.74609 39.0625 8.50083 39.0625 9.43359C39.0625 10.3664 39.8219 11.1211 40.75 11.1211C42.6105 11.1211 44.125 12.6335 44.125 14.4961V48.2461C44.125 50.1087 42.6105 51.6211 40.75 51.6211H13.75C11.8895 51.6211 10.375 50.1087 10.375 48.2461V14.4961C10.375 12.6335 11.8895 11.1211 13.75 11.1211C14.6828 11.1211 15.4375 10.3664 15.4375 9.43359C15.4375 8.50083 14.6823 7.74609 13.75 7.74609C10.027 7.74609 7 10.7752 7 14.4961V48.2461C7 51.967 10.027 54.9961 13.75 54.9961H40.75C44.473 54.9961 47.5 51.967 47.5 48.2461V14.4961C47.5 10.7752 44.473 7.74609 40.75 7.74609ZM14.5938 27.9961C14.5938 29.3936 15.7275 30.5273 17.125 30.5273C18.5235 30.5273 19.6562 29.3936 19.6562 27.9961C19.6562 26.5976 18.5235 25.4648 17.125 25.4648C15.7275 25.4648 14.5938 26.5934 14.5938 27.9961ZM17.125 35.5898C15.7275 35.5898 14.5938 36.7226 14.5938 38.1211C14.5938 39.5186 15.7275 40.6523 17.125 40.6523C18.5235 40.6523 19.6562 39.5186 19.6562 38.1211C19.6562 36.7184 18.5277 35.5898 17.125 35.5898ZM39.0625 26.3086H25.5625C24.6344 26.3086 23.875 27.068 23.875 27.9961C23.875 28.9242 24.6297 29.6836 25.5625 29.6836H39.0625C39.9906 29.6836 40.75 28.9242 40.75 27.9961C40.75 27.068 39.9906 26.3086 39.0625 26.3086ZM39.0625 36.4336H25.5625C24.6344 36.4336 23.875 37.193 23.875 38.1211C23.875 39.0492 24.6297 39.8086 25.5625 39.8086H39.0625C39.9953 39.8086 40.75 39.0539 40.75 38.1211C40.75 37.1883 39.9906 36.4336 39.0625 36.4336Z" fill="#00F8F7"/>
</g>
<defs>
<clipPath id="clip0_612_491">
<rect width="54" height="54" fill="white" transform="translate(0 0.996094)"/>
</clipPath>
</defs>
</svg>
