<svg width="54" height="55" viewBox="0 0 54 55" fill="none" xmlns="http://www.w3.org/2000/svg">
<g id="svgexport-5" clip-path="url(#clip0_612_489)">
<path id="Vector" d="M28.625 34.7461C28.625 35.6742 27.8656 36.4336 26.8426 36.4336C26.0094 36.4336 25.1551 35.6742 25.1551 34.7461V22.9336C25.1551 22.0055 26.0094 21.2461 26.8426 21.2461C27.8656 21.2461 28.625 22.0055 28.625 22.9336V34.7461ZM16.7176 2.68359C16.7176 1.75167 17.5719 0.996094 18.4051 0.996094H35.375C36.3031 0.996094 37.0625 1.75167 37.0625 2.68359C37.0625 3.61594 36.3031 4.37109 35.375 4.37109H28.625V11.1854C33.8352 11.5852 38.4441 13.8 42.0934 17.1961L45.9957 13.3043C46.6496 12.6398 47.7254 12.6398 48.3793 13.3043C49.0437 13.9582 49.0437 15.034 48.3793 15.6879L44.3504 19.7168C47.1875 23.4188 48.875 28.0383 48.875 33.0586C48.875 45.177 39.0559 54.9961 26.9375 54.9961C14.8191 54.9961 5 45.177 5 33.0586C5 21.5098 13.9227 12.0492 25.25 11.1854V4.37109H18.5C17.5719 4.37109 16.8125 3.61594 16.8125 2.68359H16.7176ZM26.8426 51.6211C37.1891 51.6211 45.5 43.3102 45.5 33.0586C45.5 22.807 37.1891 14.4961 26.8426 14.4961C16.6859 14.4961 8.28008 22.807 8.28008 33.0586C8.28008 43.3102 16.6859 51.6211 26.8426 51.6211Z" fill="#00F8F7"/>
</g>
<defs>
<clipPath id="clip0_612_489">
<rect width="54" height="54" fill="white" transform="translate(0 0.996094)"/>
</clipPath>
</defs>
</svg>
