<svg width="30" height="30" viewBox="0 0 30 30" fill="none" xmlns="http://www.w3.org/2000/svg">
<g id="Group 248">
<circle id="Ellipse 16" cx="15" cy="15" r="15" fill="#25A7FF"/>
<path id="Vector" d="M11.3478 21.7819C11.4572 21.8922 11.5873 21.9797 11.7306 22.0394C11.874 22.0991 12.0278 22.1299 12.183 22.1299C12.3383 22.1299 12.4921 22.0991 12.6354 22.0394C12.7788 21.9797 12.9089 21.8922 13.0183 21.7819L18.9001 15.9001C19.0103 15.7907 19.0979 15.6606 19.1576 15.5173C19.2173 15.3739 19.248 15.2202 19.248 15.0649C19.248 14.9096 19.2173 14.7558 19.1576 14.6125C19.0979 14.4691 19.0103 14.339 18.9001 14.2297L13.0183 8.34785C12.9089 8.23759 12.7788 8.15008 12.6354 8.09035C12.4921 8.03063 12.3383 7.99988 12.183 7.99988C12.0278 7.99988 11.874 8.03063 11.7306 8.09035C11.5873 8.15008 11.4572 8.23759 11.3478 8.34785C11.2376 8.45721 11.1501 8.58732 11.0903 8.73067C11.0306 8.87402 10.9999 9.02778 10.9999 9.18307C10.9999 9.33836 11.0306 9.49212 11.0903 9.63547C11.1501 9.77882 11.2376 9.90893 11.3478 10.0183L16.4062 15.0649L11.3478 20.1115C11.2376 20.2208 11.1501 20.3509 11.0903 20.4943C11.0306 20.6376 10.9999 20.7914 10.9999 20.9467C10.9999 21.102 11.0306 21.2558 11.0903 21.3991C11.1501 21.5425 11.2376 21.6726 11.3478 21.7819Z" fill="#0B2840"/>
</g>
</svg>
