<svg width="569" height="569" viewBox="0 0 569 569" fill="none" xmlns="http://www.w3.org/2000/svg">
<path d="M247.358 130.87C247.785 134.028 244.826 147.463 243.603 151.454C242.491 155.067 240.616 158.4 238.105 161.226C235.637 164.107 234.001 166.61 231.327 169.292C228.492 172.146 226.71 175.877 226.27 179.875C226.07 181.81 226.647 183.915 225.558 185.522C224.932 186.461 224.349 187.884 221.803 187.884C217.493 187.884 208.503 188.716 203.766 188.666C197.613 188.851 186.696 187.13 183.808 187.116C181.617 187.116 180.878 183.879 180.373 181.731C179.868 179.583 179.711 177.343 178.73 175.38C177.748 173.417 176.013 171.888 174.462 170.323C166.546 162.499 161.468 152.222 158.103 141.603C156.908 137.819 157.719 122.477 161.204 116.282C163.646 111.85 166.436 107.619 169.547 103.629C172.876 99.4043 177.506 96.5877 182.236 94.0059C186.852 91.481 195.444 89.4966 200.686 88.9134C209.719 87.9034 217.834 88.6431 228.254 96.1397C234.748 100.848 240.089 105.976 243.247 115.222C245.102 120.299 246.478 125.538 247.358 130.87Z" fill="#FFBE58"/>
<path d="M244.621 119.326C244.208 117.989 243.76 116.609 243.277 115.208C240.09 105.962 234.742 100.848 228.234 96.1539C217.814 88.6573 209.699 87.9176 200.666 88.9276C195.424 89.5108 186.832 91.4952 182.216 94.0201C177.486 96.602 172.856 99.4185 169.527 103.643C166.415 107.633 163.626 111.864 161.184 116.296C157.699 122.491 156.917 137.833 158.083 141.617C161.447 152.236 166.519 162.514 174.442 170.337C176.021 171.902 177.742 173.403 178.709 175.394C179.677 177.386 179.862 179.619 180.352 181.746C180.843 183.872 181.597 187.116 183.788 187.13C184.691 187.13 186.384 187.308 188.461 187.535C188.717 182.521 188.318 176.155 184.968 172.315C166.476 151.091 162.713 122.527 179.399 108.871C197.323 94.2264 225.19 94.1126 244.621 119.326Z" fill="#FFD696"/>
<path d="M206.882 86.6302C196.149 86.5164 184.975 89.4752 176.013 95.4071C160.487 105.67 151.006 128.125 157.521 146.098C159.881 152.835 163.186 159.202 167.336 165.01C169.307 167.551 171.418 169.98 173.659 172.286C176.988 175.906 177.479 179.256 178.837 183.631C179.177 184.97 179.825 186.212 180.729 187.258C179.136 188.78 178.296 191.006 179.683 193.19C179.71 193.222 179.738 193.253 179.769 193.282C176.831 197.052 178.161 199.328 181.369 200.701C176.554 207.671 186.348 209.278 195.928 209.378C196.009 210.869 196.333 212.337 196.889 213.723C197.77 215.53 200.224 215.679 201.988 215.651C204.044 215.651 206.967 215.438 208.731 214.349C210.495 213.261 210.808 210.729 210.929 208.716C215.474 208.517 223.568 209.164 226.967 205.587C228.639 203.823 228.148 201.839 226.789 200.366C229.364 198.986 230.282 196.86 227.835 193.581C228.959 191.902 228.511 189.74 226.413 187.678C226.796 187.248 227.121 186.769 227.38 186.255C228.653 183.716 227.949 181.141 228.504 178.431C229.45 173.844 232.693 170.906 235.566 167.499C239.123 163.232 242.871 159.007 244.884 153.786C251.726 136.005 250.239 114.113 236.121 100.13C228.312 92.4198 218.02 86.7725 206.882 86.6302ZM185.672 189.192C191.661 189.904 197.721 190.665 203.759 190.615C209.094 190.615 214.428 190.202 219.777 189.904C221.143 189.874 222.501 189.685 223.824 189.342C227.842 193.09 216.626 194.036 213.866 194.114C210.495 194.207 207.123 194.114 203.752 194.008C200.096 193.887 196.433 193.773 192.785 193.531C191.071 193.41 177.848 191.355 183.41 188.801C184.153 188.989 184.909 189.119 185.672 189.192ZM195.978 164.832C195.615 158.011 195.772 150.87 194.25 144.206C197.119 143.286 199.846 141.969 202.351 140.294C204.793 142.377 207.648 143.919 210.729 144.818C206.946 157.969 207.678 173.63 208.468 186.817C206.825 186.817 205.224 186.746 203.759 186.753C201.54 186.753 199.335 186.653 197.137 186.483C196.749 179.28 196.362 172.066 195.978 164.839V164.832ZM200.594 133.537C199.172 131.119 197.955 126.972 200.68 124.767C203.93 122.122 205.85 125.272 206.37 128.324C206.903 131.475 205.402 134.305 202.899 136.574C202.011 135.661 201.231 134.649 200.573 133.559L200.594 133.537ZM215.801 199.769C211.711 199.947 207.621 199.811 203.539 199.769C200.061 199.769 196.597 199.705 193.126 199.534C190.694 199.406 178.979 199.733 182.059 195.139C186.817 197.464 195.893 196.597 199.613 196.746C207.365 197.038 215.865 197.912 223.496 196.113C224.195 195.945 224.874 195.707 225.523 195.402C227.792 199.292 217.529 199.712 215.801 199.79V199.769ZM206.412 212.116C204.978 212.549 203.486 212.756 201.988 212.728C200.822 212.728 199.918 212.849 199.413 211.931C199.085 211.114 198.893 210.25 198.844 209.371C202.401 209.307 205.737 209.086 207.984 208.923C207.87 210.245 207.579 211.689 206.412 212.137V212.116ZM216.789 205.423C213.468 205.679 210.125 205.843 206.832 206.014C203.624 206.184 200.431 206.348 197.202 206.405C196.128 206.405 180.722 206.554 184.072 201.945C184.148 201.843 184.21 201.73 184.257 201.611C190.843 203.147 200.772 202.664 203.567 202.692C205.829 202.692 216.725 203.304 223.596 201.547C227.935 203.965 218.07 205.345 216.789 205.445V205.423ZM242.729 147.143C241.342 152.833 238.966 156.98 235.332 161.525C232.316 165.302 228.347 168.773 226.22 173.161C223.845 178.054 225.303 184.342 219.044 185.963C216.538 186.531 213.974 186.798 211.405 186.76C210.932 179.036 210.932 171.29 211.405 163.566C211.782 157.826 212.017 151.226 213.574 145.308C214.303 145.408 215.037 145.456 215.772 145.451C221.683 145.387 231.818 140.877 228.653 132.975C227.643 130.443 224.442 129.931 222.017 130.244C217.095 130.891 214.079 135.678 212.394 139.896C212.124 140.55 211.889 141.226 211.683 141.901C210.931 141.705 210.196 141.448 209.485 141.133C207.831 140.386 206.28 139.429 204.869 138.288C210.281 133.473 212.522 125.77 205.466 120.834C200.317 117.235 195.509 125.571 196.22 130.08C196.808 133.2 198.29 136.082 200.487 138.374C198.344 139.717 196.008 140.724 193.56 141.361C191.682 135.301 187.635 127.954 180.295 130.6C175.786 132.228 175.935 138.011 178.609 141.268C181.725 145.109 186.568 145.764 191.412 144.825C192.649 150.515 192.671 156.482 192.977 162.293C193.403 170.231 193.828 178.168 194.25 186.106C193.418 186.027 192.578 185.942 191.746 185.85C190.082 185.672 187.991 185.729 186.362 185.273C182.962 184.328 182.656 182.258 181.881 178.986C179.79 170.081 171.284 164.704 166.81 156.859C162.336 149.014 159.143 141.212 159.697 132.15C160.323 122.065 163.83 114.298 169.939 106.275C182.848 89.3188 210.267 85.6487 227.294 97.74C236.655 104.404 241.192 113.089 244.052 124.092C246.093 132.243 244.67 139.206 242.729 147.165V147.143ZM214.464 142.428C214.834 141.4 215.266 140.395 215.758 139.419C217.55 135.913 218.34 134.953 222.387 134.725C225.509 134.547 227.223 134.519 225.502 137.684C223.383 141.61 218.752 142.84 214.464 142.449V142.428ZM190.615 141.987C188.514 142.332 186.363 142.21 184.314 141.631C181.995 140.87 178.581 138.153 179.719 135.23C182.315 128.509 189.051 137.57 189.968 140.017C190.189 140.664 190.388 141.325 190.615 141.987Z" fill="white"/>
<path d="M266.006 97.2564C261.113 99.4683 256.099 101.524 251.717 104.675C250.202 105.763 251.66 108.302 253.19 107.2C257.578 104.049 262.585 101.993 267.479 99.7813C269.171 99.006 267.685 96.4811 266.006 97.2564Z" fill="white"/>
<path d="M232.117 85.3855C235.431 81.118 237.963 76.4949 240.588 71.8078C241.505 70.1648 238.98 68.6854 238.063 70.3355C235.566 74.7808 233.198 79.283 230.047 83.3158C228.902 84.781 230.957 86.8649 232.117 85.3855Z" fill="white"/>
<path d="M203.169 76.4451C203.525 71.3383 203.689 66.2315 203.66 61.1248C203.66 59.24 200.723 59.2328 200.737 61.1248C200.737 66.2363 200.573 71.3431 200.246 76.4451C200.118 78.3228 203.041 78.3157 203.169 76.4451Z" fill="white"/>
<path d="M172.747 85.4923C173.786 87.0499 176.303 85.5848 175.272 84.02C172.164 79.3755 168.686 74.7738 166.694 69.539C166.033 67.7964 163.202 68.5503 163.849 70.3213C165.962 75.8478 169.475 80.6131 172.747 85.4923Z" fill="white"/>
<path d="M152.918 104.248C148.514 101.022 143.717 98.3695 138.644 96.3531C136.894 95.6418 136.14 98.4868 137.868 99.1981C142.696 101.145 147.256 103.697 151.439 106.794C152.918 107.89 154.398 105.357 152.918 104.248Z" fill="white"/>
<path d="M332.675 348.434C332.817 343.818 330.989 338.441 330.157 333.918C329.057 327.948 327.926 321.983 326.764 316.023C326.238 313.299 324.588 309.316 324.887 306.52C325.136 304.187 328.521 302.075 328.735 300.368C328.848 299.465 327.362 296.541 326.956 295.901C325.797 294.073 327.248 295.034 325.008 294.479C323.386 294.059 321.451 294.813 319.83 294.55C319.787 294.55 318.955 294.507 318.407 294.55C316.985 295.823 315.32 298.889 314.602 300.951C317.539 304.927 319.78 305.02 318.478 310.197C316.529 317.986 314.104 325.646 312.148 333.434C311.188 337.275 310.263 341.137 309.573 345.034C308.741 349.736 309.083 349.779 312.646 352.51C315.391 354.643 318.535 356.742 320.939 359.231C321.089 359.388 321.188 359.508 321.273 359.615C321.296 359.579 321.325 359.548 321.359 359.523C322.279 358.837 323.144 358.08 323.948 357.261C326.394 355.077 328.749 352.787 331.174 350.582C331.719 350.162 332.236 349.708 332.725 349.224C332.649 348.968 332.632 348.698 332.675 348.434Z" fill="#00F8F7"/>
<path d="M334.929 344.089C333.201 333.754 331.195 323.462 329.189 313.185C328.869 311.556 328.193 309.685 328.165 308.035C328.122 305.667 327.93 306.52 329.808 304.017C332.461 300.46 331.75 296.698 328.883 293.042C326.927 290.546 320.612 290.702 317.781 291.62C314.95 292.537 312.496 297.608 311.621 300.524C311.488 300.732 311.422 300.976 311.432 301.223C311.442 301.47 311.528 301.708 311.678 301.904C311.703 301.945 311.731 301.983 311.764 302.018C313.577 304.557 316.031 305.774 315.924 308.249C315.711 312.075 313.677 316.464 312.653 320.134C309.865 330.091 306.906 340.212 305.825 350.54C305.819 350.795 305.881 351.047 306.007 351.27C306.132 351.493 306.315 351.678 306.536 351.806C309.406 353.655 312.146 355.698 314.737 357.922C316.202 359.124 318.293 361.728 320.171 362.311C322.667 363.107 324.104 360.995 325.974 359.316C328.485 357.076 334.154 353.52 335.477 350.348C336.202 348.641 335.213 345.796 334.929 344.089ZM331.145 350.589C328.72 352.794 326.366 355.084 323.919 357.268C323.115 358.088 322.25 358.844 321.33 359.53C321.296 359.555 321.267 359.587 321.245 359.622C321.159 359.516 321.06 359.395 320.91 359.238C318.506 356.749 315.362 354.622 312.617 352.517C309.061 349.786 308.712 349.743 309.544 345.042C310.256 341.144 311.159 337.282 312.119 333.441C314.075 325.653 316.5 317.993 318.449 310.205C319.751 305.02 317.51 304.927 314.573 300.958C315.284 298.882 316.927 295.816 318.378 294.557C318.926 294.557 319.758 294.557 319.801 294.557C321.451 294.82 323.357 294.066 324.979 294.486C327.219 295.062 325.768 294.102 326.927 295.908C327.333 296.549 328.819 299.465 328.706 300.375C328.492 302.082 325.107 304.195 324.858 306.527C324.559 309.323 326.209 313.306 326.735 316.03C327.892 321.99 329.023 327.955 330.128 333.925C330.96 338.448 332.788 343.825 332.646 348.441C332.606 348.7 332.623 348.965 332.696 349.217C332.208 349.706 331.69 350.165 331.145 350.589Z" fill="white"/>
<path d="M409.152 325.753C394.287 309.394 376.691 294.571 359.165 281.029C375.297 271.726 386.541 253.682 386.1 234.798C385.645 215.445 375.076 194.2 357.394 185.067C348.347 180.394 336.057 179.249 326.014 179.619C316.041 179.985 306.289 182.663 297.529 187.443C282.002 195.729 269.263 209.997 268.573 228.333C268.268 236.462 268.965 245.836 272.585 253.226C277.201 262.686 284.37 270.659 292.792 276.868C282.187 280.474 271.945 285.24 261.788 289.898C256.489 292.331 251.212 294.813 245.906 297.238C244.014 298.099 242.122 298.988 240.216 299.785C239.547 300.163 238.829 300.448 238.082 300.631H237.278C237.357 300.631 237.506 300.631 237.414 300.546C235.621 299.486 234.569 293.903 233.971 292.011C232.876 288.682 231.901 285.304 231.005 281.918C228.48 272.402 224.825 263.347 221.951 253.952C218.63 243.077 213.893 226.554 198.722 231.434C196.473 232.105 194.455 233.391 192.897 235.146C191.339 236.901 190.302 239.057 189.902 241.37C188.48 249.194 190.322 259.051 191.801 266.833C194.76 282.331 201.474 297.167 205.941 312.274C209.021 322.694 213.494 335.674 225.564 337.723C236.112 339.508 246.752 333.839 255.906 329.287C258.751 327.865 261.639 326.442 264.548 325.148C268.374 323.434 275.928 318.32 277.806 324.55C278.474 326.798 277.45 329.913 277.094 332.26C276.141 338.96 275.238 345.667 274.335 352.375C270.615 380.071 267.115 407.802 264.135 435.591C262.499 450.819 260.864 466.096 259.868 481.381C259.405 488.686 259.356 497.029 262.883 503.657C264.896 507.456 269.285 511.922 273.915 511.823C279.121 511.702 283.161 505.941 285.352 501.865C289.804 493.693 292.955 484.375 295.886 475.584C301.775 457.874 302.998 438.094 311.149 421.202C313.631 416.067 317.216 410.861 323.432 417.155C327.045 420.811 328.724 426.323 330.21 431.089C333.29 440.918 336.74 450.57 340.225 460.25C344.073 470.983 347.921 481.723 351.989 492.37C354.315 498.451 356.527 507.733 363.205 510.606C368.974 513.089 374.948 509.255 377.473 504.013C381.385 495.891 378.938 484.454 378.234 475.869C376.456 454.268 372.9 432.888 368.319 411.721C375.325 410.718 381.584 406.031 386.328 400.953C393.86 392.916 401.385 384.217 408.099 375.497C420.155 359.964 423.043 341.051 409.152 325.753ZM406.954 370.632C401.186 378.869 393.938 386.28 387.438 393.933C384.968 397.014 382.231 399.87 379.258 402.468C374.372 406.494 364.77 411.28 359.5 405.377C352.786 397.838 368.035 384.395 372.466 378.776C377.288 372.624 383.319 366.749 387.174 359.957C390.83 353.513 390.78 348.299 385.418 342.794C377.096 334.259 367.864 326.137 358.931 318.249C357.778 317.232 355.453 317.822 355.602 319.629C357.43 341.976 358.404 364.388 360.367 386.721C360.385 386.967 360.448 387.208 360.552 387.432C360.054 388.044 359.564 388.655 359.059 389.26C356.598 392.219 354.514 394.95 354.279 398.926C353.916 404.95 356.776 410.939 363.092 411.821C363.547 411.885 363.988 411.92 364.436 411.949C368.621 430.677 371.727 449.63 373.739 468.714C374.592 477.249 375.787 486.175 375.439 494.767C375.318 497.832 375.069 501.069 373.305 503.7C370.218 508.273 364.343 508.181 361.214 503.7C358.675 500.066 357.394 495.457 355.823 491.346C349.236 474.112 342.743 456.729 336.861 439.247C334.805 433.123 333.475 426.679 330.566 420.875C328.39 416.529 324.044 409.687 318.51 409.403C308.19 408.883 304.072 428.478 302.152 435.548C297.4 453.216 294.107 470.84 287.251 487.917C284.897 493.778 278.261 514.397 268.758 504.902C261.902 498.06 263.474 485.698 264.185 476.907C265.314 463.1 266.608 449.313 268.069 435.548C270.914 409.232 274.185 382.951 277.685 356.713C278.659 349.402 279.641 342.097 280.672 334.792C281.305 330.319 282.848 324.835 281.17 320.567C277.5 311.207 259.334 323.192 253.943 325.866C244.555 330.539 227.99 339.7 218.665 330.191C214.227 325.667 211.866 318.149 210.045 312.281C207.74 304.899 205.692 297.495 203.06 290.233C197.84 275.809 193.003 260.83 193.594 245.232C193.828 239.172 197.2 234.407 203.772 234.613C209.753 234.805 213.295 239.826 215.308 244.912C217.157 249.606 218.032 254.727 219.675 259.528C221.233 264.08 222.989 268.554 224.476 273.127C226.951 280.773 228.537 288.668 231.29 296.229C232.264 298.903 233.53 304.401 236.98 304.899C239.028 305.19 242.101 303.213 243.836 302.445C249.057 300.155 254.206 297.694 259.384 295.332C271.874 289.557 284.434 283.518 297.607 279.45C297.966 279.337 298.286 279.123 298.527 278.834C298.769 278.545 298.924 278.193 298.972 277.819C299.021 277.446 298.962 277.066 298.802 276.725C298.642 276.384 298.387 276.095 298.069 275.894C280.288 264.194 268.815 244.599 272.983 222.877C277.194 200.921 300.075 186.44 320.978 183.972C332.358 182.628 347.096 183.438 357.16 189.449C367.53 195.636 374.585 205.807 378.54 216.96C387.075 241.142 377.942 267.323 354.628 279.059C353.205 279.77 353.568 281.612 354.628 282.43C368.966 293.419 382.26 305.439 395.382 317.836C402.36 324.43 411.03 331.179 413.875 340.746C416.976 351.258 413.007 362.026 406.954 370.625V370.632ZM363.981 383.221C362.345 363.627 361.377 343.982 359.87 324.38C363.319 327.538 366.719 330.738 370.104 333.953C374.415 338.043 379.429 341.777 383.341 346.236C388.576 352.211 384.052 358.178 380.033 363.1C376.328 367.61 372.715 372.19 369.109 376.785C367.416 378.947 365.707 381.092 363.981 383.221Z" fill="white"/>
<path d="M376.466 505.905C373.557 510.172 368.336 512.833 363.272 510.656C360.541 509.483 358.564 507.228 357.013 504.568C346.095 504.027 333.791 503.721 320.782 503.721C307.46 503.721 294.893 504.042 283.797 504.603C281.471 508.11 278.107 511.716 273.989 511.823C270.305 511.901 266.741 509.056 264.43 505.962C248.882 507.441 239.188 509.518 239.188 511.823C239.18 516.296 275.717 519.924 320.775 519.924C365.833 519.924 402.37 516.296 402.37 511.823C402.377 509.49 392.405 507.384 376.466 505.905Z" fill="#E6E6E6"/>
<path d="M304.075 212.913C303.455 217.886 303.165 222.894 303.207 227.906C303.207 230.417 307.126 230.417 307.105 227.906C307.063 222.894 307.353 217.886 307.972 212.913C308.285 210.43 304.416 210.452 304.075 212.913Z" fill="white"/>
<path d="M340.979 214.975C340.282 219.597 339.919 224.263 339.891 228.937C339.891 231.448 343.795 231.448 343.795 228.937C343.801 224.612 344.117 220.293 344.741 216.014C345.09 213.56 341.334 212.5 340.979 214.975Z" fill="white"/>
</svg>
