<svg width="15" height="15" viewBox="0 0 15 15" fill="none" xmlns="http://www.w3.org/2000/svg">
<path id="Vector" d="M0.74984 8.25015H1.49984V13.5002C1.49984 14.3274 2.17259 15.0002 2.99984 15.0002H11.9998C12.8271 15.0002 13.4998 14.3274 13.4998 13.5002V8.25015H14.2498C14.3982 8.25012 14.5431 8.20612 14.6664 8.1237C14.7897 8.04129 14.8858 7.92417 14.9426 7.78714C14.9994 7.65012 15.0142 7.49934 14.9853 7.35388C14.9564 7.20841 14.8849 7.07479 14.7801 6.9699L8.03009 0.219901C7.9605 0.150192 7.87785 0.0948881 7.78686 0.0571551C7.69587 0.0194221 7.59834 0 7.49984 0C7.40134 0 7.30381 0.0194221 7.21282 0.0571551C7.12183 0.0948881 7.03918 0.150192 6.96959 0.219901L0.21959 6.9699C0.114733 7.07479 0.0433283 7.20841 0.0144026 7.35388C-0.0145231 7.49934 0.000329213 7.65012 0.0570817 7.78714C0.113834 7.92417 0.209939 8.04129 0.333246 8.1237C0.456554 8.20612 0.601527 8.25012 0.74984 8.25015ZM5.99984 13.5002V9.75015H8.99984V13.5002H5.99984ZM7.49984 1.81065L11.9998 6.31065V9.75015L12.0006 13.5002H10.4998V9.75015C10.4998 8.9229 9.82709 8.25015 8.99984 8.25015H5.99984C5.17259 8.25015 4.49984 8.9229 4.49984 9.75015V13.5002H2.99984V6.31065L7.49984 1.81065Z" fill="white"/>
</svg>
