<svg width="11" height="11" viewBox="0 0 11 11" fill="none" xmlns="http://www.w3.org/2000/svg">
<path id="Vector" d="M9.14577 9.89069L6.99219 7.73712C6.65359 8.03058 6.25855 8.25914 5.80708 8.4228C5.3556 8.58646 4.87591 8.66829 4.368 8.66829C3.14903 8.66829 2.11628 8.24503 1.26977 7.39852C0.423256 6.552 0 5.53055 0 4.33414C0 3.13774 0.423256 2.11628 1.26977 1.26977C2.11628 0.423256 3.14338 0 4.35107 0C5.54748 0 6.56612 0.423256 7.40698 1.26977C8.24785 2.11628 8.66829 3.13774 8.66829 4.33414C8.66829 4.81948 8.58928 5.28788 8.43126 5.73935C8.27325 6.19083 8.03623 6.61408 7.72019 7.00912L9.90763 9.16269C10.0092 9.25299 10.06 9.36868 10.06 9.50976C10.06 9.65085 10.0036 9.77783 9.8907 9.89069C9.78912 9.99228 9.66496 10.0431 9.51823 10.0431C9.3715 10.0431 9.24735 9.99228 9.14577 9.89069ZM4.35107 7.65247C5.26531 7.65247 6.0441 7.32797 6.68745 6.67898C7.3308 6.02999 7.65247 5.24838 7.65247 4.33414C7.65247 3.41991 7.3308 2.6383 6.68745 1.9893C6.0441 1.34031 5.26531 1.01581 4.35107 1.01581C3.42555 1.01581 2.6383 1.34031 1.9893 1.9893C1.34031 2.6383 1.01582 3.41991 1.01582 4.33414C1.01582 5.24838 1.34031 6.02999 1.9893 6.67898C2.6383 7.32797 3.42555 7.65247 4.35107 7.65247Z" fill="#7B7B7B"/>
</svg>
