<svg width="38" height="44" viewBox="0 0 38 44" fill="none" xmlns="http://www.w3.org/2000/svg">
<g id="Group 908">
<path id="Vector" d="M15.7143 22.927L11.6443 18.857L9.42859 21.0727L15.7143 27.3584L28.2857 14.787L26.07 12.5713L15.7143 22.927Z" fill="#7B7B7B"/>
<path id="Vector_2" d="M18.8572 44L9.15201 38.8253C6.38525 37.3533 4.07153 35.1558 2.45917 32.4684C0.846812 29.7811 -0.00332053 26.7054 9.74691e-06 23.5714V3.14286C0.000841782 2.30957 0.332231 1.51066 0.921451 0.92144C1.51067 0.332221 2.30958 0.000832035 3.14287 0H34.5714C35.4047 0.000832035 36.2036 0.332221 36.7929 0.92144C37.3821 1.51066 37.7135 2.30957 37.7143 3.14286V23.5714C37.7176 26.7054 36.8675 29.7811 35.2551 32.4684C33.6428 35.1558 31.3291 37.3533 28.5623 38.8253L18.8572 44ZM3.14287 3.14286V23.5714C3.14026 26.1357 3.83603 28.6523 5.1555 30.851C6.47496 33.0497 8.3683 34.8476 10.6323 36.0517L18.8572 40.4376L27.082 36.0533C29.3462 34.8491 31.2397 33.0509 32.5592 30.8519C33.8787 28.6529 34.5743 26.136 34.5714 23.5714V3.14286H3.14287Z" fill="#7B7B7B"/>
</g>
</svg>
