<svg width="54" height="54" viewBox="0 0 54 54" fill="none" xmlns="http://www.w3.org/2000/svg">
<g id="svgexport-5">
<path id="Vector" d="M50 25.4643C50.0018 23.5366 49.5293 21.6381 48.6241 19.9361C47.7189 18.2342 46.4089 16.781 44.8096 15.7049C43.2103 14.6287 41.3708 13.9626 39.4532 13.7652C37.5356 13.5678 35.599 13.8452 33.814 14.573C32.0289 15.3007 30.4504 16.4565 29.2175 17.9384C27.9846 19.4202 27.1352 21.1827 26.7442 23.0703C26.3532 24.9579 26.4327 26.9128 26.9756 28.7624C27.5184 30.6121 28.508 32.2998 29.8571 33.6767V45.6071C29.8569 45.8934 29.9299 46.175 30.0692 46.4251C30.2085 46.6752 30.4095 46.8855 30.653 47.036C30.8964 47.1866 31.1744 47.2724 31.4604 47.2852C31.7463 47.2981 32.0309 47.2376 32.2869 47.1095L38.25 44.1258L44.2131 47.1095C44.4691 47.2376 44.7536 47.2981 45.0396 47.2852C45.3256 47.2724 45.6036 47.1866 45.847 47.036C46.0905 46.8855 46.2915 46.6752 46.4308 46.4251C46.57 46.175 46.6431 45.8934 46.6429 45.6071V33.6767C48.7957 31.4855 50.0014 28.5361 50 25.4643ZM38.25 17.0714C39.9099 17.0714 41.5326 17.5637 42.9128 18.4859C44.293 19.4081 45.3687 20.7189 46.004 22.2525C46.6392 23.7861 46.8054 25.4736 46.4816 27.1017C46.1577 28.7297 45.3584 30.2252 44.1846 31.3989C43.0109 32.5727 41.5154 33.372 39.8874 33.6959C38.2593 34.0197 36.5718 33.8535 35.0382 33.2183C33.5046 32.583 32.1938 31.5073 31.2716 30.1271C30.3494 28.7469 29.8571 27.1242 29.8571 25.4643C29.8571 23.2384 30.7414 21.1036 32.3153 19.5296C33.8893 17.9557 36.0241 17.0714 38.25 17.0714ZM39.0012 40.7477C38.768 40.631 38.5108 40.5702 38.25 40.5702C37.9892 40.5702 37.732 40.631 37.4988 40.7477L33.2143 42.8921V36.0792C34.7878 36.8265 36.508 37.2143 38.25 37.2143C39.992 37.2143 41.7122 36.8265 43.2857 36.0792V42.8921L39.0012 40.7477ZM26.5 38.8929C26.5 39.338 26.3231 39.765 26.0084 40.0798C25.6936 40.3946 25.2666 40.5714 24.8214 40.5714H6.35714C5.46677 40.5714 4.61287 40.2177 3.98328 39.5881C3.3537 38.9586 3 38.1047 3 37.2143V10.3571C3 9.46677 3.3537 8.61287 3.98328 7.98328C4.61287 7.3537 5.46677 7 6.35714 7H43.2857C44.1761 7 45.03 7.3537 45.6596 7.98328C46.2892 8.61287 46.6429 9.46677 46.6429 10.3571C46.6429 10.8023 46.466 11.2293 46.1512 11.5441C45.8364 11.8589 45.4095 12.0357 44.9643 12.0357C44.5191 12.0357 44.0921 11.8589 43.7774 11.5441C43.4626 11.2293 43.2857 10.8023 43.2857 10.3571H6.35714V37.2143H24.8214C25.2666 37.2143 25.6936 37.3911 26.0084 37.7059C26.3231 38.0207 26.5 38.4477 26.5 38.8929ZM23.1429 27.1429C23.1429 27.588 22.966 28.015 22.6512 28.3298C22.3364 28.6446 21.9095 28.8214 21.4643 28.8214H13.0714C12.6262 28.8214 12.1993 28.6446 11.8845 28.3298C11.5697 28.015 11.3929 27.588 11.3929 27.1429C11.3929 26.6977 11.5697 26.2707 11.8845 25.9559C12.1993 25.6411 12.6262 25.4643 13.0714 25.4643H21.4643C21.9095 25.4643 22.3364 25.6411 22.6512 25.9559C22.966 26.2707 23.1429 26.6977 23.1429 27.1429ZM23.1429 20.4286C23.1429 20.8738 22.966 21.3007 22.6512 21.6155C22.3364 21.9303 21.9095 22.1071 21.4643 22.1071H13.0714C12.6262 22.1071 12.1993 21.9303 11.8845 21.6155C11.5697 21.3007 11.3929 20.8738 11.3929 20.4286C11.3929 19.9834 11.5697 19.5564 11.8845 19.2416C12.1993 18.9268 12.6262 18.75 13.0714 18.75H21.4643C21.9095 18.75 22.3364 18.9268 22.6512 19.2416C22.966 19.5564 23.1429 19.9834 23.1429 20.4286Z" fill="#00F8F7"/>
</g>
</svg>
