<svg width="54" height="54" viewBox="0 0 54 54" fill="none" xmlns="http://www.w3.org/2000/svg">
<g id="svgexport-2 1">
<path id="Vector" d="M28.6875 33.75C28.6875 34.6781 27.9281 35.4375 26.9051 35.4375C26.0719 35.4375 25.2176 34.6781 25.2176 33.75V21.9375C25.2176 21.0094 26.0719 20.25 26.9051 20.25C27.9281 20.25 28.6875 21.0094 28.6875 21.9375V33.75ZM16.7801 1.6875C16.7801 0.755578 17.6344 0 18.4676 0H35.4375C36.3656 0 37.125 0.755578 37.125 1.6875C37.125 2.61984 36.3656 3.375 35.4375 3.375H28.6875V10.1893C33.8977 10.5891 38.5066 12.8039 42.1559 16.2L46.0582 12.3082C46.7121 11.6437 47.7879 11.6437 48.4418 12.3082C49.1062 12.9621 49.1062 14.0379 48.4418 14.6918L44.4129 18.7207C47.25 22.4227 48.9375 27.0422 48.9375 32.0625C48.9375 44.1809 39.1184 54 27 54C14.8816 54 5.0625 44.1809 5.0625 32.0625C5.0625 20.5137 13.9852 11.0531 25.3125 10.1893V3.375H18.5625C17.6344 3.375 16.875 2.61984 16.875 1.6875H16.7801ZM26.9051 50.625C37.2516 50.625 45.5625 42.3141 45.5625 32.0625C45.5625 21.8109 37.2516 13.5 26.9051 13.5C16.7484 13.5 8.34258 21.8109 8.34258 32.0625C8.34258 42.3141 16.7484 50.625 26.9051 50.625Z" fill="#00F8F7"/>
</g>
</svg>
