<svg width="54" height="54" viewBox="0 0 54 54" fill="none" xmlns="http://www.w3.org/2000/svg">
<g id="svgexport-4" clip-path="url(#clip0_527_245)">
<path id="Vector" d="M54 39.15C54 39.8963 53.3962 40.5 52.65 40.5H48.6C46.8425 40.5 45.3575 39.3677 44.7989 37.8H42.1259C41.9829 38.177 41.8281 38.5537 41.5615 38.8834L40.7942 39.8326C39.613 41.2957 37.5719 41.6788 35.9502 40.8426L34.24 42.9495C32.7187 44.8032 29.9816 45.0799 28.1388 43.5743L27.6246 43.1288C26.6847 43.8881 25.5051 44.3843 24.2302 44.5159C24.0047 44.5416 23.7769 44.55 23.5491 44.55C22.0658 44.55 20.6398 44.0438 19.4712 43.0946L12.6141 37.8H9.20531C8.64 39.3694 7.15753 40.5 5.4 40.5H2.7C1.95379 40.5 1.35 39.8963 1.35 39.15C1.35 38.4038 1.95413 37.8 2.7 37.8L5.4 37.7949C6.14486 37.7949 6.75 37.1936 6.75 36.45V18.9H1.35C0.603788 18.9 0 18.2925 0 17.55C0 16.8075 0.603788 16.2 1.35 16.2H11.0447C13.8755 13.3988 17.5373 11.5501 21.4059 10.9882C22.1468 10.8708 22.8285 11.3916 22.9348 12.1298C23.0428 12.8672 22.5281 13.5532 21.7941 13.6595C18.3431 14.1582 15.0778 15.871 12.5972 18.4697L12.2006 18.8832L9.45 18.9V35.1H13.5329L21.152 40.9801C21.9641 41.6367 22.9424 41.9294 23.9532 41.829C24.9556 41.7261 25.8567 41.2383 26.4921 40.4553L27.3822 39.5669L28.447 40.2682L29.8772 41.5125C30.539 42.0531 31.5723 41.9424 32.146 41.2436L35.521 37.0881L37.0027 38.3301C37.5049 38.7283 38.2759 38.6544 38.6927 38.135L39.46 37.1858C39.8779 36.669 39.7988 35.9041 39.282 35.4823L30.1274 28.048C29.5486 27.5773 29.4616 26.7267 29.9309 26.1479C30.399 25.5704 31.2489 25.4808 31.8311 25.9514L40.9857 33.3883C41.5532 33.8499 41.8928 34.4573 42.1265 35.0994H44.55V18.9H41.8238L41.427 18.4953C38.3147 15.3225 34.1466 13.5 30.0038 13.5H29.3142C29.0137 13.5 28.7276 13.6147 28.4902 13.831L20.6213 21.195C19.7691 22.0135 19.8956 23.2116 20.5116 23.895C20.7225 24.1229 21.2541 24.4772 21.87 24.511C22.3024 24.5189 22.723 24.3752 23.1036 24.0298L23.1576 24.0891C23.8528 23.3213 25.5234 21.7688 29.5397 18.0394C30.0855 17.5345 30.9386 17.5622 31.4474 18.1093C31.955 18.6551 31.9234 19.5091 31.3775 20.017L24.9244 26.0213C24.0722 26.7975 23.0428 27.211 21.9544 27.211C21.8819 27.211 21.8093 27.2083 21.7355 27.2057C20.2922 27.135 19.1194 26.3841 18.5119 25.7007C16.8497 23.8706 16.9189 21.0997 18.6582 19.3396L18.6891 19.305L26.66 11.8514C27.405 11.1679 28.3416 10.8 29.3119 10.8H30.0014C34.6859 10.8 39.367 12.7618 42.9445 16.2H52.65C53.3925 16.2 54 16.8075 54 17.55C54 18.2925 53.3925 18.9 52.65 18.9H47.25V36.45C47.25 37.1936 47.855 37.8009 48.5241 37.8009L52.65 37.8C53.3925 37.8 54 38.4075 54 39.15Z" fill="#00F8F7"/>
</g>
<defs>
<clipPath id="clip0_527_245">
<rect width="54" height="54" fill="white"/>
</clipPath>
</defs>
</svg>
