<svg width="54" height="54" viewBox="0 0 54 54" fill="none" xmlns="http://www.w3.org/2000/svg">
<g id="svgexport-5">
<path id="Vector" d="M27 10.1249C28.8636 10.1249 30.375 8.61355 30.375 6.74992C30.375 4.88629 28.8636 3.37598 27 3.37598C25.1364 3.37598 23.625 4.88629 23.625 6.74992C23.625 8.61355 25.1364 10.1249 27 10.1249ZM35.4375 47.2499H28.6875V18.5624C28.6875 17.6343 27.9281 16.8749 27 16.8749H21.9375C21.0052 16.8749 20.25 17.6343 20.25 18.5624C20.25 19.4905 21.0052 20.2499 21.9375 20.2499H25.3125V47.2499H18.5625C17.6297 47.2499 16.875 48.0093 16.875 48.9374C16.875 49.8655 17.6297 50.6249 18.5625 50.6249H35.4375C36.3703 50.6249 37.125 49.8702 37.125 48.9374C37.125 48.0047 36.3656 47.2499 35.4375 47.2499Z" fill="#00F8F7"/>
</g>
</svg>
