<svg width="54" height="54" viewBox="0 0 54 54" fill="none" xmlns="http://www.w3.org/2000/svg">
<g id="svgexport-3">
<path id="Vector" d="M9.28125 20.25H4.21875C1.89211 20.25 0 22.1379 0 24.4688V46.4062C0 48.7371 1.89211 50.625 4.21875 50.625H9.28125C11.6121 50.625 13.5 48.7371 13.5 46.4062V24.4688C13.5 22.1379 11.6121 20.25 9.28125 20.25ZM10.125 46.4062C10.125 46.8703 9.74637 47.25 9.28125 47.25H4.21875C3.75363 47.25 3.375 46.8703 3.375 46.4062V24.4688C3.375 24.0047 3.75363 23.625 4.21875 23.625H9.28125C9.74637 23.625 10.125 24.0047 10.125 24.4688V46.4062ZM54 23.3613C54 19.7859 51.0891 16.875 47.5137 16.875H36.7031C37.9666 14.021 38.6891 11.2345 38.6891 9.77379C38.6965 6.62766 36.2391 3.375 32.1574 3.375C27.81 3.375 26.8102 6.44519 25.9221 9.15574C23.0027 18.0457 16.875 19.4906 16.875 21.9375C16.875 22.8973 17.666 23.625 18.5625 23.625C18.9949 23.625 19.4273 23.4563 19.7543 23.1293C25.3104 17.5352 26.8228 17.2114 29.121 10.2094C30.0902 7.27207 30.3961 6.75 32.1574 6.75C34.3364 6.75 35.3152 8.51871 35.3152 9.77379C35.3152 10.838 34.3774 14.4091 32.5076 17.7346C32.3635 17.9911 32.2918 18.2757 32.2918 18.5604C32.2945 19.5645 33.1172 20.25 33.982 20.25H47.5137C49.2328 20.25 50.625 21.6422 50.625 23.3613C50.625 24.9782 49.3509 26.3313 47.7267 26.441C46.8342 26.5023 46.1542 27.2477 46.1542 28.1243C46.1542 29.41 47.4261 29.4806 47.4261 31.3548C47.4261 32.8461 46.3598 34.1286 44.8917 34.4018C44.2823 34.5159 43.5143 35.0786 43.5143 36.0629C43.5143 37.0001 44.2278 37.1936 44.2278 38.5478C44.2278 41.8194 40.9045 40.8807 40.9045 43.0882C40.9045 43.4601 41.0295 43.6293 41.0295 44.1439C41.0273 45.8578 39.6352 47.25 37.916 47.25H32.052C23.4025 47.25 20.6297 40.4979 18.5625 40.4979C17.6267 40.4979 16.875 41.2565 16.875 42.1812C16.7801 43.9066 23.6883 50.625 32.052 50.625H37.9192C41.4956 50.625 44.4055 47.7162 44.4055 44.1418C46.362 42.9964 47.6044 40.8723 47.6044 38.5457C47.6044 38.0397 47.5417 37.5338 47.4215 37.0406C49.4581 35.9311 50.8028 33.7743 50.8028 31.3516C50.8028 30.5903 50.6677 29.8424 50.4073 29.1389C52.5445 28.0758 54 25.8715 54 23.3613Z" fill="#00F8F7"/>
</g>
</svg>
