<svg width="16" height="8" viewBox="0 0 16 8" fill="none" xmlns="http://www.w3.org/2000/svg">
<path id="Vector" d="M13.7434 0.211824C13.815 0.14416 13.8992 0.0912632 13.9912 0.0561515C14.0833 0.0210399 14.1813 0.00440153 14.2798 0.00718729C14.3783 0.00997305 14.4753 0.0321281 14.5652 0.0723872C14.6551 0.112646 14.7362 0.170221 14.8039 0.241824C14.8715 0.313427 14.9244 0.397657 14.9595 0.489704C14.9946 0.58175 15.0113 0.679811 15.0085 0.778287C15.0057 0.876764 14.9835 0.973728 14.9433 1.06364C14.903 1.15356 14.8455 1.23466 14.7739 1.30232L8.02385 7.67732C7.8846 7.80898 7.70024 7.88233 7.5086 7.88233C7.31697 7.88233 7.1326 7.80898 6.99335 7.67732L0.242601 1.30232C0.169431 1.23511 0.110345 1.15402 0.0687761 1.06378C0.0272073 0.97353 0.00398537 0.875925 0.00045773 0.77663C-0.00306991 0.677334 0.0131674 0.578326 0.0482273 0.485359C0.0832863 0.392391 0.136467 0.307316 0.204683 0.235076C0.2729 0.162835 0.35479 0.104869 0.445597 0.0645445C0.536405 0.0242198 0.63432 0.00234054 0.733655 0.000177189C0.83299 -0.00198616 0.931765 0.0156094 1.02424 0.0519424C1.11672 0.0882754 1.20105 0.142621 1.27235 0.211824L7.5086 6.10082L13.7434 0.211824Z" fill="#7B7B7B"/>
</svg>
