<svg width="102" height="102" viewBox="0 0 102 102" fill="none" xmlns="http://www.w3.org/2000/svg">
<path id="Vector" d="M57.375 28.6875C57.375 36.2959 54.3526 43.5927 48.9726 48.9726C43.5927 54.3526 36.2959 57.375 28.6875 57.375C21.0791 57.375 13.7823 54.3526 8.40237 48.9726C3.02242 43.5927 0 36.2959 0 28.6875C0 21.0791 3.02242 13.7823 8.40237 8.40237C13.7823 3.02242 21.0791 0 28.6875 0C36.2959 0 43.5927 3.02242 48.9726 8.40237C54.3526 13.7823 57.375 21.0791 57.375 28.6875ZM31.875 15.9375C31.875 15.0921 31.5392 14.2814 30.9414 13.6836C30.3436 13.0858 29.5329 12.75 28.6875 12.75C27.8421 12.75 27.0314 13.0858 26.4336 13.6836C25.8358 14.2814 25.5 15.0921 25.5 15.9375V25.5H15.9375C15.0921 25.5 14.2814 25.8358 13.6836 26.4336C13.0858 27.0314 12.75 27.8421 12.75 28.6875C12.75 29.5329 13.0858 30.3436 13.6836 30.9414C14.2814 31.5392 15.0921 31.875 15.9375 31.875H25.5V41.4375C25.5 42.2829 25.8358 43.0936 26.4336 43.6914C27.0314 44.2892 27.8421 44.625 28.6875 44.625C29.5329 44.625 30.3436 44.2892 30.9414 43.6914C31.5392 43.0936 31.875 42.2829 31.875 41.4375V31.875H41.4375C42.2829 31.875 43.0936 31.5392 43.6914 30.9414C44.2892 30.3436 44.625 29.5329 44.625 28.6875C44.625 27.8421 44.2892 27.0314 43.6914 26.4336C43.0936 25.8358 42.2829 25.5 41.4375 25.5H31.875V15.9375ZM82.875 19.125H62.4304C61.8066 16.9229 60.9675 14.7876 59.925 12.75H82.875C87.9473 12.75 92.8118 14.7649 96.3984 18.3516C99.9851 21.9382 102 26.8027 102 31.875V82.875C102 87.9473 99.9851 92.8118 96.3984 96.3984C92.8118 99.9851 87.9473 102 82.875 102H31.875C26.8027 102 21.9382 99.9851 18.3516 96.3984C14.7649 92.8118 12.75 87.9473 12.75 82.875V59.925C14.7709 60.9577 16.9001 61.7993 19.125 62.4304V82.875C19.125 85.2529 19.7753 87.4778 20.91 89.3775L50.6749 60.129C52.463 58.3731 54.8689 57.3892 57.375 57.3892C59.8811 57.3892 62.287 58.3731 64.0751 60.129L93.8464 89.3775C95.0148 87.4101 95.6294 85.1632 95.625 82.875V31.875C95.625 28.4935 94.2817 25.2505 91.8906 22.8594C89.4995 20.4683 86.2565 19.125 82.875 19.125ZM82.875 41.4375C82.875 42.6933 82.6277 43.9367 82.1471 45.0969C81.6665 46.2571 80.9622 47.3112 80.0742 48.1992C79.1862 49.0872 78.1321 49.7915 76.9719 50.2721C75.8117 50.7527 74.5683 51 73.3125 51C72.0567 51 70.8133 50.7527 69.6531 50.2721C68.4929 49.7915 67.4388 49.0872 66.5508 48.1992C65.6628 47.3112 64.9585 46.2571 64.4779 45.0969C63.9973 43.9367 63.75 42.6933 63.75 41.4375C63.75 38.9014 64.7575 36.4691 66.5508 34.6758C68.3441 32.8825 70.7764 31.875 73.3125 31.875C75.8486 31.875 78.2809 32.8825 80.0742 34.6758C81.8675 36.4691 82.875 38.9014 82.875 41.4375ZM76.5 41.4375C76.5 40.5921 76.1642 39.7814 75.5664 39.1836C74.9686 38.5858 74.1579 38.25 73.3125 38.25C72.4671 38.25 71.6564 38.5858 71.0586 39.1836C70.4608 39.7814 70.125 40.5921 70.125 41.4375C70.125 42.2829 70.4608 43.0936 71.0586 43.6914C71.6564 44.2892 72.4671 44.625 73.3125 44.625C74.1579 44.625 74.9686 44.2892 75.5664 43.6914C76.1642 43.0936 76.5 42.2829 76.5 41.4375ZM25.4235 93.8783C27.3792 95.0267 29.607 95.6299 31.875 95.625H82.875C85.2337 95.625 87.4331 94.9875 89.3265 93.8783L59.6063 64.6807C59.0104 64.0967 58.2093 63.7696 57.375 63.7696C56.5407 63.7696 55.7396 64.0967 55.1437 64.6807L25.4235 93.8783Z" fill="#959799"/>
</svg>
