<svg width="54" height="55" viewBox="0 0 54 55" fill="none" xmlns="http://www.w3.org/2000/svg">
<g id="ion:calendar-clear-outline">
<path id="Vector" d="M13.5 6.06055V9.43555M40.5 6.06055V9.43555M48.9375 17.873H5.0625" stroke="#00F8F7" stroke-width="3.375" stroke-linecap="round" stroke-linejoin="round"/>
<path id="Vector_2" d="M45 33H33C32.1716 33 31.5 33.6716 31.5 34.5C31.5 35.3284 32.175 36 33 36H45C45.8284 36 46.5 35.3284 46.5 34.5C46.5 33.6716 45.825 33 45 33ZM18 30C21.3141 30 24 27.3141 24 24C24 20.6859 21.3094 18 18 18C14.6906 18 12 20.6906 12 24C12 27.3094 14.6906 30 18 30ZM18 21C19.6537 21 21 22.3463 21 24C21 25.6537 19.65 27 18 27C16.35 27 15 25.65 15 24C15 22.35 16.35 21 18 21ZM21 33H15C10.8581 33 7.5 36.3581 7.5 40.5C7.5 41.325 8.17125 42 9 42C9.82875 42 10.5 41.3284 10.5 40.5C10.5 38.0156 12.5156 36 15 36H21C23.4853 36 25.5 38.0147 25.5 40.5C25.5 41.3284 26.1716 42 27 42C27.8284 42 28.5 41.3284 28.5 40.5C28.5 36.3563 25.1437 33 21 33ZM48 9H6C2.68594 9 0 11.6859 0 15V45C0 48.3141 2.68594 51 6 51H48C51.3141 51 54 48.3141 54 45V15C54 11.6859 51.3094 9 48 9ZM51 45C51 46.6538 49.6538 48 48 48H6C4.34625 48 3 46.6538 3 45V15C3 13.3463 4.34625 12 6 12H48C49.6538 12 51 13.3463 51 15V45ZM45 27H33C32.1716 27 31.5 27.6716 31.5 28.5C31.5 29.3284 32.175 30 33 30H45C45.8284 30 46.5 29.3284 46.5 28.5C46.5 27.6716 45.825 27 45 27ZM45 21H33C32.1716 21 31.5 21.6716 31.5 22.5C31.5 23.3284 32.175 24 33 24H45C45.8284 24 46.5 23.3284 46.5 22.5C46.5 21.6716 45.825 21 45 21Z" fill="#00F8F7"/>
</g>
</svg>
