<svg width="54" height="55" viewBox="0 0 54 55" fill="none" xmlns="http://www.w3.org/2000/svg">
<g id="ph:bag-simple">
<path id="Vector" d="M0 14.75C0 11.0217 3.02168 8 6.75 8H47.25C50.973 8 54 11.0217 54 14.75V41.75C54 45.473 50.973 48.5 47.25 48.5H6.75C3.02168 48.5 0 45.473 0 41.75V14.75ZM3.375 14.75V18.9582L24.0047 34.0824C25.7871 35.3902 28.2129 35.3902 29.9953 34.0824L50.625 18.9582V14.75C50.625 12.8832 49.1168 11.375 47.25 11.375H6.65508C4.88637 11.375 3.28008 12.8832 3.28008 14.75H3.375ZM3.375 23.1453V41.75C3.375 43.6168 4.88637 45.125 6.75 45.125H47.25C49.1168 45.125 50.625 43.6168 50.625 41.75V23.1453L31.9887 36.8035C29.0145 38.9867 24.9855 38.9867 22.0113 36.8035L3.375 23.1453Z" fill="#00F8F7"/>
</g>
</svg>
