<svg width="54" height="55" viewBox="0 0 54 55" fill="none" xmlns="http://www.w3.org/2000/svg">
<g id="carbon:cloud" clip-path="url(#clip0_1065_1928)">
<path id="Vector" d="M27 1C41.9133 1 54 13.0867 54 28C54 42.9133 41.9133 55 27 55C12.0867 55 0 42.9133 0 28C0 13.0867 12.0867 1 27 1ZM27 51.625C28.7613 51.625 31.2609 50.1063 33.5285 45.5816C34.5727 43.4934 35.448 40.8777 35.9754 38.125H17.9297C18.552 40.8777 19.4273 43.4934 20.4715 45.5816C22.7391 50.1063 25.2387 51.625 27 51.625ZM17.3285 34.75H36.6715C36.9668 32.6195 37.125 30.352 37.125 28C37.125 25.648 36.9668 23.3805 36.6715 21.25H17.3285C17.0332 23.3805 16.875 25.648 16.875 28C16.875 30.352 17.0332 32.6195 17.3285 34.75ZM35.9754 17.875C35.448 15.0273 34.5727 12.5066 33.5285 10.4173C31.2609 5.89059 28.7613 4.375 27 4.375C25.2387 4.375 22.7391 5.89059 20.4715 10.4173C19.4273 12.5066 18.552 15.0273 17.9297 17.875H35.9754ZM39.9832 21.25C40.3523 23.4121 40.5 25.6691 40.5 28C40.5 30.3309 40.3523 32.5879 39.9832 34.75H49.6441C50.2875 32.609 50.625 30.3414 50.625 28C50.625 25.6586 50.2875 23.391 49.6441 21.25H39.9832ZM34.541 5.60477C36.7559 8.5927 38.5066 12.8547 39.5191 17.875H48.3469C45.6258 12.127 40.6371 7.65719 34.541 5.60477ZM19.459 5.60477C13.3629 7.65719 8.37844 12.127 5.64891 17.875H14.4809C15.4934 12.8547 17.2441 8.5927 19.459 5.60477ZM3.375 28C3.375 30.3414 3.71672 32.609 4.35375 34.75H13.9219C13.6477 32.5879 13.5 30.3309 13.5 28C13.5 25.6691 13.6477 23.4121 13.9219 21.25H4.35375C3.71672 23.391 3.375 25.6586 3.375 28ZM48.3469 38.125H39.5191C38.5066 43.1453 36.7559 47.4062 34.541 50.391C40.6371 48.3449 45.6258 43.873 48.3469 38.125ZM14.4809 38.125H5.64891C8.37844 43.873 13.3629 48.3449 19.459 50.391C17.2441 47.4062 15.4934 43.1453 14.4809 38.125Z" fill="#00F8F7"/>
</g>
<defs>
<clipPath id="clip0_1065_1928">
<rect width="54" height="54" fill="white" transform="translate(0 0.998047)"/>
</clipPath>
</defs>
</svg>
