<svg width="54" height="55" viewBox="0 0 54 55" fill="none" xmlns="http://www.w3.org/2000/svg">
<g id="ion:person-outline" clip-path="url(#clip0_1065_1922)">
<path id="Vector" d="M15.4375 17.875H22.1875C23.1156 17.875 23.875 17.1156 23.875 16.1875C23.875 15.2594 23.1156 14.5 22.1875 14.5H15.4375C14.5052 14.5 13.75 15.2594 13.75 16.1875C13.75 17.1156 14.5052 17.875 15.4375 17.875ZM15.4375 11.125H22.1875C23.1156 11.125 23.875 10.3698 23.875 9.4375C23.875 8.50516 23.1156 7.75 22.1875 7.75H15.4375C14.5052 7.75 13.75 8.50516 13.75 9.4375C13.75 10.3698 14.5052 11.125 15.4375 11.125ZM45.5277 14.2152L34.2953 2.98281C33.0191 1.71107 31.3105 1 29.5176 1H13.75C10.0217 1 7 4.02168 7 7.75L7.00069 48.25C7.00069 51.9783 10.0224 55 13.7507 55H40.75C44.4783 55 47.5 51.9783 47.5 48.25V18.9824C47.5 17.1895 46.7934 15.4809 45.5277 14.2152ZM30.625 4.59438C31.0972 4.75954 31.539 5.00001 31.9033 5.36419L43.1357 16.5966C43.5027 16.9574 43.7453 17.4004 43.9035 17.875H32.3125C31.3844 17.875 30.625 17.1156 30.625 16.1875V4.59438ZM44.125 48.25C44.125 50.1105 42.6105 51.625 40.75 51.625H13.75C11.8895 51.625 10.375 50.1105 10.375 48.25V7.75C10.375 5.88953 11.8895 4.375 13.75 4.375H27.25V16.1875C27.25 18.9824 29.5176 21.25 32.3125 21.25H44.125V48.25ZM13.75 29.6875V36.4375C13.75 38.298 15.2645 39.8125 17.125 39.8125H37.375C39.2355 39.8125 40.75 38.298 40.75 36.4375V29.6875C40.75 27.827 39.2355 26.3125 37.375 26.3125H17.125C15.2645 26.3125 13.75 27.8312 13.75 29.6875ZM37.375 36.4375H17.125V29.6875H37.375V36.4375ZM39.0625 44.875H32.3125C31.3797 44.875 30.625 45.6297 30.625 46.5625C30.625 47.4953 31.3797 48.25 32.3125 48.25H39.0625C39.9953 48.25 40.75 47.4953 40.75 46.5625C40.75 45.6297 39.9906 44.875 39.0625 44.875Z" fill="#00F8F7"/>
</g>
<defs>
<clipPath id="clip0_1065_1922">
<rect width="54" height="54" fill="white" transform="translate(0 0.998047)"/>
</clipPath>
</defs>
</svg>
