<svg width="56" height="60" viewBox="0 0 56 60" fill="none" xmlns="http://www.w3.org/2000/svg">
<g id="Group 795">
<path id="Vector" d="M50 20H36V6C36 4.4087 35.3679 2.88258 34.2426 1.75736C33.1174 0.632141 31.5913 0 30 0H6C4.4087 0 2.88258 0.632141 1.75736 1.75736C0.632141 2.88258 0 4.4087 0 6V58C0 58.5304 0.210714 59.0391 0.585786 59.4142C0.960859 59.7893 1.46957 60 2 60H15C15.2652 60 15.5196 59.8946 15.7071 59.7071C15.8946 59.5196 16 59.2652 16 59V50.0563C16 48.98 16.8275 48.0562 17.9037 48.0025C18.1742 47.9895 18.4444 48.0315 18.6981 48.126C18.9518 48.2205 19.1837 48.3655 19.3797 48.5523C19.5757 48.739 19.7317 48.9637 19.8384 49.2125C19.945 49.4614 20 49.7293 20 50V59C20 59.2652 20.1054 59.5196 20.2929 59.7071C20.4804 59.8946 20.7348 60 21 60H54C54.5304 60 55.0391 59.7893 55.4142 59.4142C55.7893 59.0391 56 58.5304 56 58V26C56 24.4087 55.3679 22.8826 54.2426 21.7574C53.1174 20.6321 51.5913 20 50 20ZM8.26 51.9837C7.84579 52.0379 7.42501 51.961 7.05672 51.7639C6.68843 51.5667 6.39112 51.2592 6.20652 50.8845C6.02191 50.5097 5.95928 50.0866 6.02742 49.6744C6.09556 49.2623 6.29104 48.8818 6.58642 48.5864C6.88181 48.291 7.26228 48.0956 7.67443 48.0274C8.08657 47.9593 8.50971 48.0219 8.88445 48.2065C9.25919 48.3911 9.56672 48.6884 9.76388 49.0567C9.96104 49.425 10.0379 49.8458 9.98375 50.26C9.92658 50.6971 9.72658 51.1031 9.41485 51.4149C9.10312 51.7266 8.69713 51.9266 8.26 51.9837ZM8.26 41.9837C7.84579 42.0379 7.42501 41.961 7.05672 41.7639C6.68843 41.5667 6.39112 41.2592 6.20652 40.8845C6.02191 40.5097 5.95928 40.0866 6.02742 39.6744C6.09556 39.2623 6.29104 38.8818 6.58642 38.5864C6.88181 38.291 7.26228 38.0956 7.67443 38.0274C8.08657 37.9593 8.50971 38.0219 8.88445 38.2065C9.25919 38.3911 9.56672 38.6884 9.76388 39.0567C9.96104 39.425 10.0379 39.8458 9.98375 40.26C9.92658 40.6971 9.72658 41.1031 9.41485 41.4149C9.10312 41.7266 8.69713 41.9266 8.26 41.9837ZM8.26 31.9837C7.84579 32.0379 7.42501 31.961 7.05672 31.7639C6.68843 31.5667 6.39112 31.2592 6.20652 30.8845C6.02191 30.5097 5.95928 30.0866 6.02742 29.6744C6.09556 29.2623 6.29104 28.8818 6.58642 28.5864C6.88181 28.291 7.26228 28.0956 7.67443 28.0274C8.08657 27.9593 8.50971 28.0219 8.88445 28.2065C9.25919 28.3911 9.56672 28.6884 9.76388 29.0567C9.96104 29.425 10.0379 29.8458 9.98375 30.26C9.92658 30.6971 9.72658 31.1031 9.41485 31.4149C9.10312 31.7266 8.69713 31.9266 8.26 31.9837ZM8.26 21.9837C7.84579 22.0379 7.42501 21.961 7.05672 21.7639C6.68843 21.5667 6.39112 21.2592 6.20652 20.8845C6.02191 20.5097 5.95928 20.0866 6.02742 19.6744C6.09556 19.2623 6.29104 18.8818 6.58642 18.5864C6.88181 18.291 7.26228 18.0956 7.67443 18.0274C8.08657 17.9593 8.50971 18.0219 8.88445 18.2065C9.25919 18.3911 9.56672 18.6884 9.76388 19.0567C9.96104 19.425 10.0379 19.8458 9.98375 20.26C9.92658 20.6971 9.72658 21.1031 9.41485 21.4149C9.10312 21.7266 8.69713 21.9266 8.26 21.9837ZM8.26 11.9838C7.84579 12.0379 7.42501 11.961 7.05672 11.7639C6.68843 11.5667 6.39112 11.2592 6.20652 10.8845C6.02191 10.5097 5.95928 10.0866 6.02742 9.67443C6.09556 9.26228 6.29104 8.88181 6.58642 8.58642C6.88181 8.29104 7.26228 8.09556 7.67443 8.02742C8.08657 7.95928 8.50971 8.02191 8.88445 8.20652C9.25919 8.39112 9.56672 8.68843 9.76388 9.05672C9.96104 9.42501 10.0379 9.84579 9.98375 10.26C9.92658 10.6971 9.72658 11.1031 9.41485 11.4149C9.10312 11.7266 8.69713 11.9266 8.26 11.9838ZM18.26 41.9837C17.8458 42.0379 17.425 41.961 17.0567 41.7639C16.6884 41.5667 16.3911 41.2592 16.2065 40.8845C16.0219 40.5097 15.9593 40.0866 16.0274 39.6744C16.0956 39.2623 16.291 38.8818 16.5864 38.5864C16.8818 38.291 17.2623 38.0956 17.6744 38.0274C18.0866 37.9593 18.5097 38.0219 18.8845 38.2065C19.2592 38.3911 19.5667 38.6884 19.7639 39.0567C19.961 39.425 20.0379 39.8458 19.9837 40.26C19.9266 40.6971 19.7266 41.1031 19.4149 41.4149C19.1031 41.7266 18.6971 41.9266 18.26 41.9837ZM18.26 31.9837C17.8458 32.0379 17.425 31.961 17.0567 31.7639C16.6884 31.5667 16.3911 31.2592 16.2065 30.8845C16.0219 30.5097 15.9593 30.0866 16.0274 29.6744C16.0956 29.2623 16.291 28.8818 16.5864 28.5864C16.8818 28.291 17.2623 28.0956 17.6744 28.0274C18.0866 27.9593 18.5097 28.0219 18.8845 28.2065C19.2592 28.3911 19.5667 28.6884 19.7639 29.0567C19.961 29.425 20.0379 29.8458 19.9837 30.26C19.9266 30.6971 19.7266 31.1031 19.4149 31.4149C19.1031 31.7266 18.6971 31.9266 18.26 31.9837ZM18.26 21.9837C17.8458 22.0379 17.425 21.961 17.0567 21.7639C16.6884 21.5667 16.3911 21.2592 16.2065 20.8845C16.0219 20.5097 15.9593 20.0866 16.0274 19.6744C16.0956 19.2623 16.291 18.8818 16.5864 18.5864C16.8818 18.291 17.2623 18.0956 17.6744 18.0274C18.0866 17.9593 18.5097 18.0219 18.8845 18.2065C19.2592 18.3911 19.5667 18.6884 19.7639 19.0567C19.961 19.425 20.0379 19.8458 19.9837 20.26C19.9266 20.6971 19.7266 21.1031 19.4149 21.4149C19.1031 21.7266 18.6971 21.9266 18.26 21.9837ZM18.26 11.9838C17.8458 12.0379 17.425 11.961 17.0567 11.7639C16.6884 11.5667 16.3911 11.2592 16.2065 10.8845C16.0219 10.5097 15.9593 10.0866 16.0274 9.67443C16.0956 9.26228 16.291 8.88181 16.5864 8.58642C16.8818 8.29104 17.2623 8.09556 17.6744 8.02742C18.0866 7.95928 18.5097 8.02191 18.8845 8.20652C19.2592 8.39112 19.5667 8.68843 19.7639 9.05672C19.961 9.42501 20.0379 9.84579 19.9837 10.26C19.9266 10.6971 19.7266 11.1031 19.4149 11.4149C19.1031 11.7266 18.6971 11.9266 18.26 11.9838ZM28.26 51.9837C27.8458 52.0379 27.425 51.961 27.0567 51.7639C26.6884 51.5667 26.3911 51.2592 26.2065 50.8845C26.0219 50.5097 25.9593 50.0866 26.0274 49.6744C26.0956 49.2623 26.291 48.8818 26.5864 48.5864C26.8818 48.291 27.2623 48.0956 27.6744 48.0274C28.0866 47.9593 28.5097 48.0219 28.8845 48.2065C29.2592 48.3911 29.5667 48.6884 29.7639 49.0567C29.961 49.425 30.0379 49.8458 29.9837 50.26C29.9266 50.6971 29.7266 51.1031 29.4149 51.4149C29.1031 51.7266 28.6971 51.9266 28.26 51.9837ZM28.26 41.9837C27.8458 42.0379 27.425 41.961 27.0567 41.7639C26.6884 41.5667 26.3911 41.2592 26.2065 40.8845C26.0219 40.5097 25.9593 40.0866 26.0274 39.6744C26.0956 39.2623 26.291 38.8818 26.5864 38.5864C26.8818 38.291 27.2623 38.0956 27.6744 38.0274C28.0866 37.9593 28.5097 38.0219 28.8845 38.2065C29.2592 38.3911 29.5667 38.6884 29.7639 39.0567C29.961 39.425 30.0379 39.8458 29.9837 40.26C29.9266 40.6971 29.7266 41.1031 29.4149 41.4149C29.1031 41.7266 28.6971 41.9266 28.26 41.9837ZM28.26 31.9837C27.8458 32.0379 27.425 31.961 27.0567 31.7639C26.6884 31.5667 26.3911 31.2592 26.2065 30.8845C26.0219 30.5097 25.9593 30.0866 26.0274 29.6744C26.0956 29.2623 26.291 28.8818 26.5864 28.5864C26.8818 28.291 27.2623 28.0956 27.6744 28.0274C28.0866 27.9593 28.5097 28.0219 28.8845 28.2065C29.2592 28.3911 29.5667 28.6884 29.7639 29.0567C29.961 29.425 30.0379 29.8458 29.9837 30.26C29.9266 30.6971 29.7266 31.1031 29.4149 31.4149C29.1031 31.7266 28.6971 31.9266 28.26 31.9837ZM28.26 21.9837C27.8458 22.0379 27.425 21.961 27.0567 21.7639C26.6884 21.5667 26.3911 21.2592 26.2065 20.8845C26.0219 20.5097 25.9593 20.0866 26.0274 19.6744C26.0956 19.2623 26.291 18.8818 26.5864 18.5864C26.8818 18.291 27.2623 18.0956 27.6744 18.0274C28.0866 17.9593 28.5097 18.0219 28.8845 18.2065C29.2592 18.3911 29.5667 18.6884 29.7639 19.0567C29.961 19.425 30.0379 19.8458 29.9837 20.26C29.9266 20.6971 29.7266 21.1031 29.4149 21.4149C29.1031 21.7266 28.6971 21.9266 28.26 21.9837ZM28.26 11.9838C27.8458 12.0379 27.425 11.961 27.0567 11.7639C26.6884 11.5667 26.3911 11.2592 26.2065 10.8845C26.0219 10.5097 25.9593 10.0866 26.0274 9.67443C26.0956 9.26228 26.291 8.88181 26.5864 8.58642C26.8818 8.29104 27.2623 8.09556 27.6744 8.02742C28.0866 7.95928 28.5097 8.02191 28.8845 8.20652C29.2592 8.39112 29.5667 8.68843 29.7639 9.05672C29.961 9.42501 30.0379 9.84579 29.9837 10.26C29.9266 10.6971 29.7266 11.1031 29.4149 11.4149C29.1031 11.7266 28.6971 11.9266 28.26 11.9838ZM51.5 56H36V24H50C50.5304 24 51.0391 24.2107 51.4142 24.5858C51.7893 24.9609 52 25.4696 52 26V55.5C52 55.6326 51.9473 55.7598 51.8536 55.8536C51.7598 55.9473 51.6326 56 51.5 56Z" fill="#7B7B7B"/>
<path id="Vector_2" d="M48 48C47.6044 48 47.2178 48.1173 46.8889 48.3371C46.56 48.5568 46.3036 48.8692 46.1522 49.2346C46.0009 49.6001 45.9613 50.0022 46.0384 50.3902C46.1156 50.7781 46.3061 51.1345 46.5858 51.4142C46.8655 51.6939 47.2219 51.8844 47.6098 51.9616C47.9978 52.0387 48.3999 51.9991 48.7654 51.8478C49.1308 51.6964 49.4432 51.44 49.6629 51.1111C49.8827 50.7822 50 50.3956 50 50C50 49.4696 49.7893 48.9609 49.4142 48.5858C49.0391 48.2107 48.5304 48 48 48ZM48 38C47.6044 38 47.2178 38.1173 46.8889 38.3371C46.56 38.5568 46.3036 38.8692 46.1522 39.2346C46.0009 39.6001 45.9613 40.0022 46.0384 40.3902C46.1156 40.7781 46.3061 41.1345 46.5858 41.4142C46.8655 41.6939 47.2219 41.8844 47.6098 41.9616C47.9978 42.0387 48.3999 41.9991 48.7654 41.8478C49.1308 41.6964 49.4432 41.44 49.6629 41.1111C49.8827 40.7822 50 40.3956 50 40C50 39.4696 49.7893 38.9609 49.4142 38.5858C49.0391 38.2107 48.5304 38 48 38ZM48 28C47.6044 28 47.2178 28.1173 46.8889 28.3371C46.56 28.5568 46.3036 28.8692 46.1522 29.2346C46.0009 29.6001 45.9613 30.0022 46.0384 30.3902C46.1156 30.7781 46.3061 31.1345 46.5858 31.4142C46.8655 31.6939 47.2219 31.8844 47.6098 31.9616C47.9978 32.0387 48.3999 31.9991 48.7654 31.8478C49.1308 31.6964 49.4432 31.44 49.6629 31.1111C49.8827 30.7822 50 30.3956 50 30C50 29.4696 49.7893 28.9609 49.4142 28.5858C49.0391 28.2107 48.5304 28 48 28ZM40 48C39.6044 48 39.2178 48.1173 38.8889 48.3371C38.56 48.5568 38.3036 48.8692 38.1522 49.2346C38.0009 49.6001 37.9613 50.0022 38.0384 50.3902C38.1156 50.7781 38.3061 51.1345 38.5858 51.4142C38.8655 51.6939 39.2219 51.8844 39.6098 51.9616C39.9978 52.0387 40.3999 51.9991 40.7654 51.8478C41.1308 51.6964 41.4432 51.44 41.6629 51.1111C41.8827 50.7822 42 50.3956 42 50C42 49.4696 41.7893 48.9609 41.4142 48.5858C41.0391 48.2107 40.5304 48 40 48ZM40 38C39.6044 38 39.2178 38.1173 38.8889 38.3371C38.56 38.5568 38.3036 38.8692 38.1522 39.2346C38.0009 39.6001 37.9613 40.0022 38.0384 40.3902C38.1156 40.7781 38.3061 41.1345 38.5858 41.4142C38.8655 41.6939 39.2219 41.8844 39.6098 41.9616C39.9978 42.0387 40.3999 41.9991 40.7654 41.8478C41.1308 41.6964 41.4432 41.44 41.6629 41.1111C41.8827 40.7822 42 40.3956 42 40C42 39.4696 41.7893 38.9609 41.4142 38.5858C41.0391 38.2107 40.5304 38 40 38ZM40 28C39.6044 28 39.2178 28.1173 38.8889 28.3371C38.56 28.5568 38.3036 28.8692 38.1522 29.2346C38.0009 29.6001 37.9613 30.0022 38.0384 30.3902C38.1156 30.7781 38.3061 31.1345 38.5858 31.4142C38.8655 31.6939 39.2219 31.8844 39.6098 31.9616C39.9978 32.0387 40.3999 31.9991 40.7654 31.8478C41.1308 31.6964 41.4432 31.44 41.6629 31.1111C41.8827 30.7822 42 30.3956 42 30C42 29.4696 41.7893 28.9609 41.4142 28.5858C41.0391 28.2107 40.5304 28 40 28Z" fill="#7B7B7B"/>
</g>
</svg>
