<svg width="60" height="60" viewBox="0 0 60 60" fill="none" xmlns="http://www.w3.org/2000/svg">
<path id="Vector" d="M57.9925 11.9987C57.9925 13.3117 57.2684 14.6119 55.8614 15.825C54.4545 17.0381 52.3923 18.1403 49.7926 19.0688C47.1929 19.9973 44.1066 20.7337 40.71 21.2362C37.3133 21.7387 33.6728 21.9973 29.9963 21.9973C22.5712 21.9973 15.4502 20.9439 10.1999 19.0688C4.9496 17.1937 2 14.6505 2 11.9987M57.9925 11.9987C57.9925 10.6856 57.2684 9.38544 55.8614 8.17234C54.4545 6.95925 52.3923 5.857 49.7926 4.92854C47.1929 4.00008 44.1066 3.26358 40.71 2.7611C37.3133 2.25862 33.6728 2 29.9963 2C26.3197 2 22.6792 2.25862 19.2826 2.7611C15.8859 3.26358 12.7996 4.00008 10.1999 4.92854C7.60022 5.857 5.53803 6.95925 4.13109 8.17234C2.72414 9.38544 2 10.6856 2 11.9987M57.9925 11.9987V47.9939C57.9925 49.749 56.6989 51.4732 54.2417 52.9932C51.7846 54.5132 48.2504 55.7754 43.9944 56.653C39.7384 57.5305 34.9106 57.9925 29.9963 57.9925C25.0819 57.9925 20.2541 57.5305 15.9981 56.653C11.7422 55.7754 8.20797 54.5132 5.75079 52.9932C3.2936 51.4732 2 49.749 2 47.9939V11.9987M57.9925 35.9955C57.9925 37.7506 56.6989 39.4748 54.2417 40.9948C51.7846 42.5148 48.2504 43.777 43.9944 44.6546C39.7384 45.5321 34.9106 45.9941 29.9963 45.9941C25.0819 45.9941 20.2541 45.5321 15.9981 44.6546C11.7422 43.777 8.20797 42.5148 5.75079 40.9948C3.2936 39.4748 2 37.7506 2 35.9955M57.9925 23.9971C57.9925 25.7522 56.6989 27.4764 54.2417 28.9964C51.7846 30.5164 48.2504 31.7786 43.9944 32.6562C39.7384 33.5337 34.9106 33.9957 29.9963 33.9957C25.0819 33.9957 20.2541 33.5337 15.9981 32.6562C11.7422 31.7786 8.20797 30.5164 5.75079 28.9964C3.2936 27.4764 2 25.7522 2 23.9971" stroke="#7B7B7B" stroke-width="4" stroke-linecap="round" stroke-linejoin="round"/>
</svg>
