<svg width="57" height="57" viewBox="0 0 57 57" fill="none" xmlns="http://www.w3.org/2000/svg">
<g id="Vector">
<path d="M28.4445 0C22.8187 0 17.3192 1.66824 12.6416 4.79375C7.96391 7.91927 4.31811 12.3617 2.16522 17.5592C0.0123246 22.7568 -0.55097 28.476 0.546565 33.9937C1.6441 39.5114 4.35317 44.5797 8.3312 48.5577C12.3092 52.5357 17.3775 55.2448 22.8952 56.3423C28.4129 57.4399 34.1321 56.8766 39.3297 54.7237C44.5272 52.5708 48.9696 48.925 52.0951 44.2473C55.2207 39.5697 56.8889 34.0702 56.8889 28.4444C56.8889 20.9005 53.8921 13.6656 48.5577 8.33119C43.2234 2.99682 35.9884 0 28.4445 0ZM28.4445 53.3333C23.5219 53.3333 18.7099 51.8736 14.6169 49.1388C10.524 46.404 7.3339 42.5169 5.45012 37.969C3.56634 33.4212 3.07346 28.4168 4.0338 23.5889C4.99414 18.7609 7.36458 14.3261 10.8454 10.8453C14.3261 7.36457 18.7609 4.99413 23.5889 4.03379C28.4168 3.07345 33.4212 3.56633 37.969 5.45011C42.5169 7.33389 46.404 10.524 49.1388 14.6169C51.8736 18.7099 53.3333 23.5219 53.3333 28.4444C53.3333 35.0454 50.7111 41.376 46.0436 46.0435C41.376 50.7111 35.0454 53.3333 28.4445 53.3333Z" fill="#7B7B7B"/>
<path d="M28.9643 12.3021C27.0379 12.2702 25.128 12.6631 23.3705 13.4528C21.613 14.2424 20.051 15.4095 18.7955 16.871C18.621 17.0326 18.4808 17.2276 18.3831 17.4444C18.2854 17.6612 18.2321 17.8954 18.2266 18.1332C18.2264 18.3525 18.2705 18.5697 18.356 18.7717C18.4415 18.9737 18.5667 19.1564 18.7243 19.309C18.8819 19.4616 19.0685 19.5809 19.2732 19.6599C19.4778 19.7389 19.6962 19.7759 19.9155 19.7688C20.3851 19.7571 20.8342 19.5737 21.1777 19.2532C22.1278 18.1397 23.3079 17.2453 24.6368 16.6316C25.9656 16.0178 27.4117 15.6992 28.8755 15.6976C33.071 15.6976 35.6843 18.3999 35.6843 21.7599V21.8488C35.6843 25.7776 32.5555 27.9643 27.6132 28.3376C27.4131 28.3454 27.2169 28.3953 27.0374 28.4841C26.8579 28.5729 26.6992 28.6986 26.5716 28.853C26.4441 29.0074 26.3506 29.187 26.2972 29.38C26.2439 29.5731 26.2319 29.7752 26.2621 29.9732C26.2621 29.9732 26.2621 34.0976 26.2621 34.8621C26.3063 35.3021 26.513 35.7099 26.8417 36.0057C27.1704 36.3016 27.5976 36.4643 28.0399 36.4621H28.2355C28.6755 36.4179 29.0833 36.2112 29.3791 35.8825C29.675 35.5538 29.8377 35.1266 29.8355 34.6843V31.0221C35.1688 30.2754 39.4888 27.4665 39.4888 21.6354V21.5465C39.4355 16.2132 35.2755 12.3021 28.9643 12.3021Z" fill="#7B7B7B"/>
<path d="M28.0503 45.2442C29.2776 45.2442 30.2726 44.2493 30.2726 43.022C30.2726 41.7947 29.2776 40.7998 28.0503 40.7998C26.823 40.7998 25.8281 41.7947 25.8281 43.022C25.8281 44.2493 26.823 45.2442 28.0503 45.2442Z" fill="#7B7B7B"/>
</g>
</svg>
