<svg width="57" height="57" viewBox="0 0 57 57" fill="none" xmlns="http://www.w3.org/2000/svg">
<path id="Vector" d="M47.8962 8.29871C45.3008 5.67766 42.2132 3.59525 38.8106 2.17111C35.408 0.746966 31.7575 0.00916338 28.0689 8.48158e-05C24.3803 -0.00899375 20.7263 0.710831 17.3167 2.11821C13.9071 3.52558 10.8093 5.59277 8.20101 8.20101C5.59277 10.8093 3.52558 13.9071 2.11821 17.3167C0.710831 20.7263 -0.00899375 24.3803 8.48158e-05 28.0689C0.00916338 31.7575 0.746967 35.408 2.17111 38.8106C3.59525 42.2132 5.67766 45.3008 8.29871 47.8962C10.8941 50.5173 13.9818 52.5997 17.3844 54.0238C20.787 55.448 24.4374 56.1858 28.126 56.1948C31.8146 56.2039 35.4687 55.4841 38.8782 54.0767C42.2878 52.6693 45.3857 50.6022 47.9939 47.9939C50.6022 45.3857 52.6693 42.2878 54.0767 38.8782C55.4841 35.4687 56.2039 31.8146 56.1948 28.126C56.1858 24.4374 55.448 20.787 54.0238 17.3844C52.5997 13.9818 50.5173 10.8941 47.8962 8.29871ZM4.09746 28.0975C4.09656 25.9733 4.3782 23.8586 4.93496 21.8087C5.85246 23.7837 7.18496 25.49 8.09121 27.5162C9.26246 30.1212 12.4075 29.3987 13.7962 31.6812C15.0287 33.7075 13.7125 36.27 14.635 38.39C15.305 39.9287 16.885 40.265 17.975 41.39C19.0887 42.525 19.065 44.08 19.235 45.56C19.4268 47.2989 19.7379 49.0225 20.1662 50.7187C20.1662 50.7312 20.1662 50.745 20.1762 50.7575C10.8225 47.4725 4.09746 38.5562 4.09746 28.0975ZM28.0975 52.0975C26.7571 52.097 25.4192 51.985 24.0975 51.7625C24.1112 51.4237 24.1175 51.1075 24.1512 50.8875C24.455 48.9 25.45 46.9562 26.7925 45.4687C28.1187 44.0012 29.9362 43.0087 31.0562 41.3437C32.1537 39.7187 32.4825 37.5312 32.03 35.6325C31.3637 32.8275 27.5525 31.8912 25.4975 30.37C24.3162 29.495 23.265 28.1425 21.7137 28.0325C20.9987 27.9825 20.4 28.1362 19.6912 27.9537C19.0412 27.785 18.5312 27.435 17.8387 27.5262C16.545 27.6962 15.7287 29.0787 14.3387 28.8912C13.02 28.715 11.6612 27.1712 11.3612 25.915C10.9762 24.3 12.2537 23.7762 13.6225 23.6325C14.1937 23.5725 14.835 23.5075 15.3837 23.7175C16.1062 23.985 16.4475 24.6925 17.0962 25.05C18.3125 25.7175 18.5587 24.6512 18.3725 23.5712C18.0937 21.9537 17.7687 21.295 19.2112 20.1812C20.2112 19.4137 21.0662 18.8587 20.9062 17.48C20.8112 16.67 20.3675 16.3037 20.7812 15.4975C21.095 14.8837 21.9562 14.33 22.5175 13.9637C23.9662 13.0187 28.7237 13.0887 26.78 10.4437C26.2087 9.66746 25.155 8.27996 24.155 8.08996C22.905 7.85371 22.35 9.24871 21.4787 9.86371C20.5787 10.5 18.8262 11.2225 17.925 10.2387C16.7125 8.91496 18.7287 8.48121 19.175 7.55621C19.3812 7.12496 19.175 6.52621 18.8275 5.96246C19.2783 5.77246 19.7366 5.59621 20.2025 5.43371C20.4944 5.64933 20.8407 5.77921 21.2025 5.80871C22.0387 5.86371 22.8275 5.41121 23.5575 5.98121C24.3675 6.60621 24.9512 7.39621 26.0262 7.59121C27.0662 7.77996 28.1675 7.17371 28.425 6.10871C28.5812 5.46121 28.425 4.77746 28.275 4.10871C32.95 4.13561 37.514 5.53569 41.4 8.13496C41.15 8.03996 40.8512 8.05121 40.4825 8.22246C39.7237 8.57496 38.6487 9.47246 38.56 10.3625C38.4587 11.3725 39.9487 11.515 40.6562 11.515C41.7187 11.515 42.795 11.04 42.4525 9.81246C42.3037 9.27996 42.1012 8.72621 41.775 8.39121C42.5592 8.93541 43.3105 9.52561 44.025 10.1587C44.0137 10.17 44.0025 10.18 43.9912 10.1925C43.2712 10.9425 42.435 11.5362 41.9425 12.4487C41.595 13.0912 41.2037 13.3962 40.5 13.5625C40.1125 13.6537 39.67 13.6875 39.345 13.9475C38.44 14.66 38.955 16.3725 39.8125 16.8862C40.8962 17.535 42.5037 17.23 43.3212 16.3037C43.96 15.5787 44.3362 14.32 45.485 14.3212C45.9907 14.3202 46.4765 14.5182 46.8375 14.8725C47.3125 15.365 47.2187 15.825 47.32 16.44C47.4987 17.5325 48.4625 16.94 49.0487 16.3887C49.476 17.1492 49.8616 17.9325 50.2037 18.735C49.5587 19.6637 49.0462 20.6762 47.495 19.5937C46.5662 18.945 45.995 18.0037 44.8287 17.7112C43.81 17.4612 42.7662 17.7212 41.76 17.895C40.6162 18.0937 39.26 18.1812 38.3925 19.0475C37.5537 19.8825 37.11 21 36.2175 21.8387C34.4912 23.4637 33.7625 25.2375 34.88 27.535C35.955 29.7437 38.2037 30.9425 40.63 30.785C43.0137 30.6262 45.49 29.2437 45.4212 32.7075C45.3962 33.9337 45.6525 34.7825 46.0287 35.9212C46.3775 36.9712 46.3537 37.9887 46.4337 39.0725C46.5098 40.3415 46.7082 41.6003 47.0262 42.8312C44.7857 45.7159 41.9155 48.0504 38.6349 49.6564C35.3543 51.2624 31.7501 52.0973 28.0975 52.0975Z" fill="#7B7B7B"/>
</svg>
