<svg width="52" height="58" viewBox="0 0 52 58" fill="none" xmlns="http://www.w3.org/2000/svg">
<g id="Group">
<path id="Vector" d="M5.51467 51.4267C9.02933 55.3333 14.688 55.3333 26 55.3333C37.3147 55.3333 42.9707 55.3333 46.4853 51.4267C50 47.5253 50 41.2373 50 28.6667C50 16.096 50 9.81067 46.4853 5.904C42.9707 2 37.312 2 26 2C14.6853 2 9.02933 2 5.51467 5.904C2 9.81333 2 16.096 2 28.6667C2 41.2373 2 47.5227 5.51467 51.4267Z" stroke="#7B7B7B" stroke-width="4"/>
<path id="Vector_2" d="M12.6665 18C12.6665 16.76 12.6665 16.1413 12.8025 15.632C12.9844 14.9543 13.3413 14.3363 13.8374 13.8402C14.3336 13.344 14.9515 12.9871 15.6292 12.8053C16.1438 12.6666 16.7625 12.6666 17.9998 12.6666H33.9998C35.2398 12.6666 35.8585 12.6666 36.3678 12.8026C37.0455 12.9845 37.6635 13.3414 38.1596 13.8375C38.6558 14.3337 39.0127 14.9516 39.1945 15.6293C39.3332 16.144 39.3332 16.7626 39.3332 18C39.3332 19.2373 39.3332 19.8586 39.1972 20.368C39.0153 21.0456 38.6584 21.6636 38.1623 22.1597C37.6661 22.6559 37.0482 23.0128 36.3705 23.1946C35.8585 23.3333 35.2372 23.3333 33.9998 23.3333H17.9998C16.7598 23.3333 16.1412 23.3333 15.6318 23.1973C14.9542 23.0154 14.3362 22.6585 13.8401 22.1624C13.3439 21.6662 12.987 21.0483 12.8052 20.3706C12.6665 19.856 12.6665 19.2373 12.6665 18Z" stroke="#7B7B7B" stroke-width="4"/>
<path id="Vector_3" d="M15.3332 34C16.8059 34 17.9998 32.8061 17.9998 31.3333C17.9998 29.8605 16.8059 28.6666 15.3332 28.6666C13.8604 28.6666 12.6665 29.8605 12.6665 31.3333C12.6665 32.8061 13.8604 34 15.3332 34Z" fill="#7B7B7B"/>
<path id="Vector_4" d="M15.3332 44.6667C16.8059 44.6667 17.9998 43.4728 17.9998 42C17.9998 40.5273 16.8059 39.3334 15.3332 39.3334C13.8604 39.3334 12.6665 40.5273 12.6665 42C12.6665 43.4728 13.8604 44.6667 15.3332 44.6667Z" fill="#7B7B7B"/>
<path id="Vector_5" d="M26.0002 34C27.4729 34 28.6668 32.8061 28.6668 31.3333C28.6668 29.8605 27.4729 28.6666 26.0002 28.6666C24.5274 28.6666 23.3335 29.8605 23.3335 31.3333C23.3335 32.8061 24.5274 34 26.0002 34Z" fill="#7B7B7B"/>
<path id="Vector_6" d="M26.0002 44.6667C27.4729 44.6667 28.6668 43.4728 28.6668 42C28.6668 40.5273 27.4729 39.3334 26.0002 39.3334C24.5274 39.3334 23.3335 40.5273 23.3335 42C23.3335 43.4728 24.5274 44.6667 26.0002 44.6667Z" fill="#7B7B7B"/>
<path id="Vector_7" d="M36.6667 34C38.1394 34 39.3333 32.8061 39.3333 31.3333C39.3333 29.8605 38.1394 28.6666 36.6667 28.6666C35.1939 28.6666 34 29.8605 34 31.3333C34 32.8061 35.1939 34 36.6667 34Z" fill="#7B7B7B"/>
<path id="Vector_8" d="M36.6667 44.6667C38.1394 44.6667 39.3333 43.4728 39.3333 42C39.3333 40.5273 38.1394 39.3334 36.6667 39.3334C35.1939 39.3334 34 40.5273 34 42C34 43.4728 35.1939 44.6667 36.6667 44.6667Z" fill="#7B7B7B"/>
</g>
</svg>
