<svg width="54" height="56" viewBox="0 0 54 56" fill="none" xmlns="http://www.w3.org/2000/svg">
<path id="Vector" d="M52.3125 35.1156L48.2188 31.6156C48.4125 30.4281 48.5125 29.2156 48.5125 28.0031C48.5125 26.7906 48.4125 25.5781 48.2188 24.3906L52.3125 20.8906C52.6213 20.6263 52.8423 20.2742 52.9461 19.8812C53.0499 19.4883 53.0317 19.073 52.8938 18.6906L52.8375 18.5281C51.7105 15.3783 50.0229 12.4583 47.8563 9.90937L47.7438 9.77812C47.4809 9.46908 47.1306 9.24691 46.739 9.14092C46.3474 9.03493 45.9328 9.05008 45.55 9.18437L40.4688 10.9906C38.5938 9.45312 36.5 8.24063 34.2375 7.39063L33.2563 2.07812C33.1822 1.67839 32.9883 1.31064 32.7003 1.02374C32.4123 0.736832 32.0438 0.544354 31.6438 0.471875L31.475 0.440625C28.2188 -0.146875 24.7938 -0.146875 21.5375 0.440625L21.3688 0.471875C20.9687 0.544354 20.6002 0.736832 20.3122 1.02374C20.0242 1.31064 19.8303 1.67839 19.7563 2.07812L18.7688 7.41563C16.5243 8.2658 14.4342 9.47766 12.5813 11.0031L7.46251 9.18437C7.0798 9.04901 6.66496 9.03332 6.27311 9.13937C5.88126 9.24543 5.53096 9.46821 5.26876 9.77812L5.15626 9.90937C2.99218 12.4601 1.30486 15.3796 0.175013 18.5281L0.118763 18.6906C-0.162487 19.4719 0.0687627 20.3469 0.700013 20.8906L4.84376 24.4281C4.65001 25.6031 4.55626 26.8031 4.55626 27.9969C4.55626 29.1969 4.65001 30.3969 4.84376 31.5656L0.700013 35.1031C0.391236 35.3675 0.17024 35.7195 0.0664125 36.1125C-0.0374154 36.5055 -0.0191563 36.9208 0.118763 37.3031L0.175013 37.4656C1.30626 40.6156 2.98126 43.5219 5.15626 46.0844L5.26876 46.2156C5.5316 46.5247 5.88191 46.7468 6.27353 46.8528C6.66514 46.9588 7.07968 46.9437 7.46251 46.8094L12.5813 44.9906C14.4438 46.5219 16.525 47.7344 18.7688 48.5781L19.7563 53.9156C19.8303 54.3154 20.0242 54.6831 20.3122 54.97C20.6002 55.2569 20.9687 55.4494 21.3688 55.5219L21.5375 55.5531C24.8237 56.1438 28.1888 56.1438 31.475 55.5531L31.6438 55.5219C32.0438 55.4494 32.4123 55.2569 32.7003 54.97C32.9883 54.6831 33.1822 54.3154 33.2563 53.9156L34.2375 48.6031C36.4991 47.7554 38.6047 46.5389 40.4688 45.0031L45.55 46.8094C45.9327 46.9447 46.3476 46.9604 46.7394 46.8544C47.1313 46.7483 47.4816 46.5255 47.7438 46.2156L47.8563 46.0844C50.0313 43.5156 51.7063 40.6156 52.8375 37.4656L52.8938 37.3031C53.175 36.5344 52.9438 35.6594 52.3125 35.1156ZM43.7813 25.1281C43.9375 26.0719 44.0188 27.0406 44.0188 28.0094C44.0188 28.9781 43.9375 29.9469 43.7813 30.8906L43.3688 33.3969L48.0375 37.3906C47.3297 39.0212 46.4363 40.5647 45.375 41.9906L39.575 39.9344L37.6125 41.5469C36.1188 42.7719 34.4563 43.7344 32.6563 44.4094L30.275 45.3031L29.1563 51.3656C27.3911 51.5656 25.6089 51.5656 23.8438 51.3656L22.725 45.2906L20.3625 44.3844C18.5813 43.7094 16.925 42.7469 15.4438 41.5281L13.4813 39.9094L7.64376 41.9844C6.58126 40.5531 5.69376 39.0094 4.98126 37.3844L9.70001 33.3531L9.29376 30.8531C9.14376 29.9219 9.06251 28.9594 9.06251 28.0094C9.06251 27.0531 9.13751 26.0969 9.29376 25.1656L9.70001 22.6656L4.98126 18.6344C5.68751 17.0031 6.58126 15.4656 7.64376 14.0344L13.4813 16.1094L15.4438 14.4906C16.925 13.2719 18.5813 12.3094 20.3625 11.6344L22.7313 10.7406L23.85 4.66563C25.6063 4.46563 27.4 4.46563 29.1625 4.66563L30.2813 10.7281L32.6625 11.6219C34.4563 12.2969 36.125 13.2594 37.6188 14.4844L39.5813 16.0969L45.3813 14.0406C46.4438 15.4719 47.3313 17.0156 48.0438 18.6406L43.375 22.6344L43.7813 25.1281ZM26.5125 16.3844C20.4375 16.3844 15.5125 21.3094 15.5125 27.3844C15.5125 33.4594 20.4375 38.3844 26.5125 38.3844C32.5875 38.3844 37.5125 33.4594 37.5125 27.3844C37.5125 21.3094 32.5875 16.3844 26.5125 16.3844ZM31.4625 32.3344C30.8133 32.9855 30.0417 33.5018 29.1922 33.8536C28.3427 34.2054 27.432 34.3858 26.5125 34.3844C24.6438 34.3844 22.8875 33.6531 21.5625 32.3344C20.9114 31.6851 20.3951 30.9136 20.0433 30.0641C19.6915 29.2145 19.5111 28.3039 19.5125 27.3844C19.5125 25.5156 20.2438 23.7594 21.5625 22.4344C22.8875 21.1094 24.6438 20.3844 26.5125 20.3844C28.3813 20.3844 30.1375 21.1094 31.4625 22.4344C32.1136 23.0836 32.6299 23.8552 32.9817 24.7047C33.3336 25.5542 33.5139 26.4649 33.5125 27.3844C33.5125 29.2531 32.7813 31.0094 31.4625 32.3344Z" fill="#7B7B7B"/>
</svg>
