<svg width="54" height="55" viewBox="0 0 54 55" fill="none" xmlns="http://www.w3.org/2000/svg">
<g id="ion:calendar-clear-outline">
<path id="Vector" d="M13.5 6.06055V9.43555M40.5 6.06055V9.43555M48.9375 17.873H5.0625" stroke="#00F8F7" stroke-width="3.375" stroke-linecap="round" stroke-linejoin="round"/>
<path id="Vector_2" d="M52.3125 49.875H50.625V45.6562C50.625 44.2583 49.4917 43.125 48.0938 43.125H43.875V24.5625H40.5V43.125H33.75V24.5625H30.375V43.125H23.625V24.5625H20.25V43.125H13.5V24.5625H10.125V43.125H5.90625C4.50826 43.125 3.375 44.2583 3.375 45.6562V49.875H1.6875C0.755473 49.875 4.0062e-09 50.6305 4.0062e-09 51.5625V52.4062C4.0062e-09 52.63 0.0888949 52.8446 0.247129 53.0029C0.405362 53.1611 0.619974 53.25 0.84375 53.25H53.1562C53.38 53.25 53.5946 53.1611 53.7529 53.0029C53.9111 52.8446 54 52.63 54 52.4062V51.5625C54 50.6305 53.2445 49.875 52.3125 49.875ZM6.75 46.5H47.25V49.875H6.75V46.5ZM53.1844 16.9688L28.6009 6.25977C27.5617 5.91341 26.4383 5.91341 25.3991 6.25977L0.81559 16.9688C0.575741 17.06 0.369294 17.222 0.223633 17.4332C0.0779723 17.6445 -2.04095e-05 17.8951 4.0062e-09 18.1517V19.0781C4.0062e-09 19.7771 0.566684 20.3438 1.26562 20.3438H3.375V21.6094C3.375 22.3083 3.94168 22.875 4.64062 22.875H49.3594C50.0583 22.875 50.625 22.3083 50.625 21.6094V20.3438H52.7344C53.4333 20.3438 54 19.7771 54 19.0781V18.1517C54 17.6262 53.6755 17.1555 53.1844 16.9688ZM47.25 19.5H6.75V18.065L26.5721 9.43016C26.8526 9.35665 27.1474 9.35665 27.4279 9.43016L47.25 18.065V19.5Z" fill="#00F8F7"/>
</g>
</svg>
