<svg width="54" height="55" viewBox="0 0 54 55" fill="none" xmlns="http://www.w3.org/2000/svg">
<g id="formkit:time">
<g id="Group">
<path id="Vector" d="M35.5 14.928C35.5 10.6977 35.5 8.58484 34.1815 7.27045C32.863 5.95605 30.7435 5.95605 26.5 5.95605C22.2565 5.95605 20.137 5.95605 18.8185 7.27045C17.5 8.58484 17.5 10.6977 17.5 14.928M4 32.8719C4 24.4136 4 20.1833 6.637 17.5568C9.27175 14.928 13.5153 14.928 22 14.928H31C39.4847 14.928 43.7282 14.928 46.363 17.5568C49 20.1833 49 24.4136 49 32.8719C49 41.3303 49 45.5605 46.363 48.1871C43.7282 50.8159 39.4847 50.8159 31 50.8159H22C13.5153 50.8159 9.27175 50.8159 6.637 48.1871C4 45.5605 4 41.3303 4 32.8719Z" stroke="white" stroke-width="5"/>
</g>
</g>
</svg>
