<svg width="54" height="55" viewBox="0 0 54 55" fill="none" xmlns="http://www.w3.org/2000/svg">
<g id="ion:person-outline" clip-path="url(#clip0_1065_1471)">
<path id="Vector" d="M7 7.75C7 4.02168 10.0217 1 13.75 1H30.2137C31.5531 1 32.8504 1.53336 33.7996 2.48289L46.0129 14.7004C46.9621 15.6496 47.5 16.9469 47.5 18.2863V48.25C47.5 51.973 44.473 55 40.75 55H13.75C10.0217 55 7 51.973 7 48.25V7.75ZM44.125 21.25H32.3125C29.5176 21.25 27.25 18.9824 27.25 16.1875V4.375H13.75C11.8864 4.375 10.375 5.88637 10.375 7.75V48.25C10.375 50.1168 11.8864 51.625 13.75 51.625H40.75C42.6168 51.625 44.125 50.1168 44.125 48.25V21.25ZM43.6293 17.0945L31.4055 4.86965C31.1945 4.65133 30.9203 4.49945 30.625 4.42562V16.1875C30.625 17.1156 31.3844 17.875 32.3125 17.875H44.0723C43.9984 17.5797 43.8508 17.3055 43.6293 17.0945Z" fill="#00F8F7"/>
</g>
<defs>
<clipPath id="clip0_1065_1471">
<rect width="54" height="54" fill="white" transform="translate(0 0.998047)"/>
</clipPath>
</defs>
</svg>
