<svg width="54" height="55" viewBox="0 0 54 55" fill="none" xmlns="http://www.w3.org/2000/svg">
<g id="carbon:cloud" clip-path="url(#clip0_1065_1477)">
<path id="Vector" d="M45.5277 14.2152L34.2953 2.98281C33.0191 1.71107 31.3105 1 29.5176 1H13.75C10.0217 1 7 4.02168 7 7.75L7.00069 48.25C7.00069 51.9783 10.0224 55 13.7507 55H40.75C44.4783 55 47.5 51.9783 47.5 48.25V18.9824C47.5 17.1895 46.7934 15.4809 45.5277 14.2152ZM30.625 4.59438C31.0972 4.75954 31.539 5.00001 31.9033 5.36419L43.1357 16.5966C43.5027 16.9574 43.7453 17.4004 43.9035 17.875H32.3125C31.3844 17.875 30.625 17.1156 30.625 16.1875V4.59438ZM44.125 48.25C44.125 50.1105 42.6105 51.625 40.75 51.625H13.75C11.8895 51.625 10.375 50.1105 10.375 48.25V7.75C10.375 5.88953 11.8895 4.375 13.75 4.375H27.25V16.1875C27.25 18.9824 29.5176 21.25 32.3125 21.25H44.125V48.25ZM27.25 42.3438C25.8525 42.3438 24.7188 43.4775 24.7188 44.875C24.7188 46.2725 25.8525 47.4062 27.25 47.4062C28.6485 47.4062 29.7812 46.2725 29.7812 44.875C29.7812 43.4775 28.6527 42.3438 27.25 42.3438ZM27.1551 39.8125C28.1781 39.8125 28.9375 39.0531 28.9375 38.125V26.3125C28.9375 25.3844 28.1781 24.625 27.25 24.625C26.3219 24.625 25.5625 25.3844 25.5625 26.3125V38.125C25.5625 39.0531 26.3113 39.8125 27.1551 39.8125Z" fill="#00F8F7"/>
</g>
<defs>
<clipPath id="clip0_1065_1477">
<rect width="54" height="54" fill="white" transform="translate(0 0.998047)"/>
</clipPath>
</defs>
</svg>
