<svg width="55" height="54" viewBox="0 0 55 54" fill="none" xmlns="http://www.w3.org/2000/svg">
<path id="Vector" d="M39.4351 1.73329C41.7493 -0.577764 45.4899 -0.577764 47.804 1.73329L52.3054 6.2379C54.6196 8.54885 54.6196 12.2926 52.3054 14.6068L19.2632 47.6596C18.0586 48.8536 16.5793 49.7306 14.952 50.2167L2.16831 53.9679C1.57446 54.0524 0.932742 53.989 0.495279 53.5452C0.0577732 53.112 -0.105863 52.4674 0.0687626 51.8757L3.82835 39.0899C4.30702 37.4627 5.18723 35.9833 6.38656 34.7787L39.4351 1.73329ZM45.4159 4.12455C44.4226 3.13339 42.8165 3.13339 41.8232 4.12455L36.0326 9.91513L44.1268 17.9142L49.9174 12.2187C50.9106 11.2254 50.9106 9.61926 49.9174 8.62915L45.4159 4.12455ZM11.5812 42.4607L18.3228 43.8133L41.6436 20.3973L33.6446 12.3032L10.2329 35.7191L11.5812 42.4607ZM7.45063 39.0582C7.29953 39.3752 7.17273 39.7028 7.07234 40.0409L4.18762 49.8574L13.9904 46.9727C14.3391 46.8671 14.6667 46.7403 14.9837 46.5923L9.8123 45.5568C9.14343 45.4194 8.62037 44.9016 8.48617 44.2254L7.45063 39.0582Z" fill="#00F8F7"/>
</svg>
