<svg width="212" height="206" viewBox="0 0 212 206" fill="none" xmlns="http://www.w3.org/2000/svg">
<g id="Group 89">
<g id="Vector">
<mask id="path-1-inside-1_47_329" fill="white">
<path d="M164.25 156.283C187.653 129.33 171.543 88.3167 134.397 85.1921C132.539 84.963 130.452 85.0696 128.655 85.1209C128.36 108.828 116.077 134.241 95.9518 140.129C77.7917 145.349 68.3479 128.174 76.1584 114.127C85.5094 97.4495 101.56 83.8724 120.77 79.3273C119.64 64.3598 112.493 50.8336 96.0325 45.8019C68.2889 37.3776 38.5364 61.4554 33.7928 86.8883C33.4707 89.5777 29.1758 89.2301 29.4979 86.5407C32.0106 52.1903 75.259 26.4107 107.839 43.2549C120.43 49.9016 126.937 63.2581 128.356 78.1704C148.462 76.3739 167.309 88.2496 177.21 104.753C188.586 123.895 182.522 144.617 168.633 159.825C166.453 162.286 162.359 158.687 164.25 156.283ZM92.1898 104.641C86.793 110.344 80.8314 117.614 79.8648 125.682C78.8376 133.47 89.8037 134.004 94.4953 133.399C100.345 132.574 104.705 127.653 107.968 123.234C115.302 113.95 120.387 99.8395 121.068 86.278C109.962 89.2752 100.117 96.7034 92.1898 104.641Z"/>
</mask>
<path d="M164.25 156.283L162.654 155.038L162.683 155.001L162.714 154.965L164.25 156.283ZM134.397 85.1921L134.272 87.1754L134.232 87.1721L134.193 87.1672L134.397 85.1921ZM128.655 85.1209L126.645 85.0517L126.669 83.185L128.552 83.1313L128.655 85.1209ZM95.9518 140.129L96.5606 142.039L96.5517 142.041L95.9518 140.129ZM76.1584 114.127L74.393 113.137L74.3964 113.131L76.1584 114.127ZM120.77 79.3273L122.774 79.2234L122.899 80.8804L121.278 81.2639L120.77 79.3273ZM96.0325 45.8019L96.5818 43.9L96.5854 43.9011L96.0325 45.8019ZM33.7928 86.8883L31.7972 86.6101L31.8048 86.5469L31.8165 86.4843L33.7928 86.8883ZM29.4979 86.5407L31.5022 86.7288L31.4989 86.774L31.4935 86.8189L29.4979 86.5407ZM107.839 43.2549L108.737 41.4948L108.745 41.4989L108.753 41.503L107.839 43.2549ZM128.356 78.1704L128.581 80.1528L126.547 80.3344L126.355 78.3129L128.356 78.1704ZM177.21 104.753L178.931 103.765L178.936 103.772L177.21 104.753ZM168.633 159.825L167.11 158.493L167.119 158.482L167.129 158.471L168.633 159.825ZM92.1898 104.641L90.7093 103.263L90.7271 103.244L90.7455 103.225L92.1898 104.641ZM79.8648 125.682L81.8605 125.961L81.8591 125.972L81.8575 125.984L79.8648 125.682ZM94.4953 133.399L94.8223 135.37L94.8104 135.371L94.7985 135.373L94.4953 133.399ZM107.968 123.234L106.337 122.036L106.356 122.01L106.375 121.986L107.968 123.234ZM121.068 86.278L120.5 84.3567L123.216 83.6237L123.075 86.4214L121.068 86.278ZM162.714 154.965C185.11 129.172 169.681 90.1539 134.272 87.1754L134.522 83.2088C173.405 86.4795 190.196 129.487 165.786 157.6L162.714 154.965ZM134.193 87.1672C132.529 86.962 130.641 87.0568 128.758 87.1105L128.552 83.1313C130.264 83.0824 132.549 82.964 134.601 83.217L134.193 87.1672ZM130.664 85.1901C130.513 97.3516 127.292 109.952 121.503 120.301C115.721 130.638 107.269 138.906 96.5606 142.039L95.343 138.219C104.761 135.464 112.513 128.081 117.977 118.313C123.434 108.557 126.502 96.5973 126.645 85.0517L130.664 85.1901ZM96.5517 142.041C86.7356 144.863 78.8691 141.659 74.655 135.436C70.5253 129.337 70.1738 120.725 74.393 113.137L77.9237 115.117C74.3325 121.576 74.7977 128.575 77.9772 133.27C81.0725 137.841 87.0079 140.615 95.352 138.216L96.5517 142.041ZM74.3964 113.131C83.9711 96.0547 100.438 82.0811 120.261 77.3908L121.278 81.2639C102.682 85.6637 87.0478 98.8443 77.9203 115.123L74.3964 113.131ZM118.766 79.4313C117.677 65.0041 110.88 52.4103 95.4795 47.7027L96.5854 43.9011C114.106 49.2568 121.603 63.7155 122.774 79.2234L118.766 79.4313ZM95.4832 47.7038C82.3662 43.7209 68.6265 47.3811 57.4807 55.2765C46.3238 63.1796 38.0342 75.1481 35.7692 87.2922L31.8165 86.4843C34.295 73.1956 43.2534 60.4087 55.0946 52.0208C66.9468 43.6251 81.9551 39.4586 96.5818 43.9L95.4832 47.7038ZM35.7884 87.1665C35.4706 89.8195 33.1288 90.8646 31.2849 90.7153C30.3478 90.6395 29.334 90.264 28.5632 89.4795C27.7444 88.6463 27.3537 87.503 27.5023 86.2625L31.4935 86.8189C31.4846 86.8935 31.4981 86.896 31.4836 86.8524C31.4688 86.808 31.4412 86.7654 31.4124 86.736C31.3874 86.7105 31.3771 86.7107 31.399 86.7201C31.4216 86.7299 31.464 86.743 31.5226 86.7477C31.5809 86.7525 31.6383 86.7475 31.6869 86.7357C31.7349 86.724 31.7619 86.7088 31.7721 86.7018C31.7769 86.6985 31.7782 86.697 31.7774 86.6978C31.7771 86.6981 31.7766 86.6987 31.7761 86.6993C31.7755 86.7 31.7753 86.7005 31.7753 86.7005C31.7753 86.7004 31.7759 86.6995 31.7769 86.6973C31.7779 86.695 31.7797 86.691 31.7818 86.6848C31.7859 86.6728 31.7926 86.649 31.7972 86.6101L35.7884 87.1665ZM27.4936 86.3525C28.8075 68.3915 40.7343 52.8458 56.3643 43.9677C72.0049 35.0835 91.6963 32.6845 108.737 41.4948L106.941 45.015C91.4016 36.9811 73.1789 39.0499 58.4221 47.432C43.6548 55.8202 32.7011 70.3395 31.5022 86.7288L27.4936 86.3525ZM108.753 41.503C122.169 48.5853 128.899 62.7123 130.356 78.0278L126.355 78.3129C124.975 63.8039 118.691 51.2179 106.925 45.0068L108.753 41.503ZM128.131 76.1879C149.157 74.3093 168.702 86.7146 178.931 103.765L175.488 105.741C165.915 89.7845 147.768 78.4384 128.581 80.1528L128.131 76.1879ZM178.936 103.772C190.911 123.921 184.385 145.576 170.137 161.178L167.129 158.471C180.659 143.657 186.262 123.869 175.484 105.734L178.936 103.772ZM170.156 161.156C169.217 162.216 167.977 162.691 166.719 162.636C165.526 162.584 164.445 162.066 163.633 161.382C162.107 160.097 160.798 157.398 162.654 155.038L165.846 157.527C165.767 157.628 165.763 157.683 165.786 157.78C165.822 157.931 165.949 158.165 166.197 158.374C166.444 158.583 166.678 158.653 166.806 158.659C166.87 158.662 166.958 158.664 167.11 158.493L170.156 161.156ZM93.6702 106.02C88.2559 111.741 82.7427 118.596 81.8605 125.961L77.8692 125.404C78.92 116.632 85.3302 108.947 90.7093 103.263L93.6702 106.02ZM81.8575 125.984C81.6672 127.427 82.0318 128.342 82.5886 129.003C83.2033 129.733 84.2221 130.346 85.6183 130.796C88.4319 131.703 92.0197 131.705 94.1922 131.425L94.7985 135.373C92.2793 135.697 88.0383 135.735 84.4527 134.579C82.6493 133.998 80.826 133.055 79.5268 131.513C78.1698 129.903 77.5489 127.831 77.8722 125.381L81.8575 125.984ZM94.1683 131.428C99.1182 130.73 103.052 126.484 106.337 122.036L109.6 124.432C106.358 128.822 101.571 134.417 94.8223 135.37L94.1683 131.428ZM106.375 121.986C113.433 113.051 118.398 99.3375 119.061 86.1345L123.075 86.4214C122.376 100.341 117.171 114.849 109.562 124.482L106.375 121.986ZM121.637 88.1992C111.011 91.0669 101.456 98.2247 93.634 106.057L90.7455 103.225C98.778 95.182 108.913 87.4835 120.5 84.3567L121.637 88.1992Z" fill="#00F8BC" mask="url(#path-1-inside-1_47_329)"/>
</g>
<path id="Vector_2" d="M163.152 170.357L162.161 170.624L161.897 169.629C160.277 163.534 158.558 157.028 158.377 150.504C158.348 149.475 157.623 148.898 156.863 148.812C156.483 148.768 156.147 148.858 155.913 149.036C155.697 149.2 155.486 149.5 155.45 150.058C155.069 157.891 156.231 166.036 157.921 173.844C158.045 174.414 158.428 174.979 158.963 175.368C159.495 175.755 160.099 175.914 160.639 175.811C165.81 174.824 170.613 173.617 175.576 171.805C176.179 171.575 176.899 171.344 177.639 171.106C177.874 171.03 178.111 170.954 178.346 170.877C179.352 170.549 180.38 170.194 181.326 169.77C183.289 168.892 184.559 167.868 184.821 166.561C184.94 165.902 184.908 165.386 184.762 165.021C184.634 164.704 184.39 164.417 183.838 164.226L183.838 164.226C182.575 163.788 181.076 164.08 179.39 164.757C178.564 165.089 177.745 165.491 176.934 165.893C176.886 165.917 176.837 165.941 176.788 165.965C176.042 166.336 175.29 166.709 174.598 166.987L174.578 166.995L174.557 167.002C171.121 168.209 167.383 169.217 163.902 170.155C163.651 170.222 163.401 170.29 163.152 170.357Z" stroke="#00F8BC" stroke-width="2"/>
</g>
</svg>
