<svg width="54" height="54" viewBox="0 0 54 54" fill="none" xmlns="http://www.w3.org/2000/svg">
<g id="ph:bag-simple">
<path id="Vector" d="M45.5625 13.5H37.125C37.125 10.8147 36.0583 8.23935 34.1595 6.34054C32.2607 4.44174 29.6853 3.375 27 3.375C24.3147 3.375 21.7393 4.44174 19.8405 6.34054C17.9417 8.23935 16.875 10.8147 16.875 13.5H8.4375C7.54239 13.5 6.68395 13.8556 6.05101 14.4885C5.41808 15.1215 5.0625 15.9799 5.0625 16.875V42.1875C5.0625 43.0826 5.41808 43.941 6.05101 44.574C6.68395 45.2069 7.54239 45.5625 8.4375 45.5625H45.5625C46.4576 45.5625 47.316 45.2069 47.949 44.574C48.5819 43.941 48.9375 43.0826 48.9375 42.1875V16.875C48.9375 15.9799 48.5819 15.1215 47.949 14.4885C47.316 13.8556 46.4576 13.5 45.5625 13.5ZM27 6.75C28.7902 6.75 30.5071 7.46116 31.773 8.72703C33.0388 9.9929 33.75 11.7098 33.75 13.5H20.25C20.25 11.7098 20.9612 9.9929 22.227 8.72703C23.4929 7.46116 25.2098 6.75 27 6.75ZM45.5625 42.1875H8.4375V16.875H45.5625V42.1875Z" fill="#00F8F7"/>
</g>
</svg>
