<svg width="220" height="102" viewBox="0 0 220 102" fill="none" xmlns="http://www.w3.org/2000/svg"><g xmlns="http://www.w3.org/2000/svg" id="Group" opacity="0.1">
<path id="Vector_34" d="M107.506 17.8613L107.738 19.7108C107.781 20.0412 107.757 20.3766 107.67 20.6979C107.582 21.0192 107.432 21.3201 107.228 21.5832C107.023 21.8463 106.769 22.0666 106.48 22.2313C106.19 22.396 105.871 22.5019 105.541 22.543L101.339 23.077L101.656 25.592C101.739 26.2609 101.554 26.9355 101.14 27.4679C100.727 28.0002 100.119 28.3469 99.4506 28.4319L10.4595 39.6371C10.1288 39.6782 9.7931 39.6539 9.47175 39.5653C9.1504 39.4767 8.84963 39.3258 8.58663 39.121C8.32363 38.9162 8.10355 38.6616 7.93894 38.3717C7.77434 38.0819 7.66844 37.7624 7.62729 37.4316L7.31002 34.9167L3.10809 35.4429C2.44124 35.5261 1.76858 35.3415 1.23765 34.9295C0.706709 34.5176 0.360829 33.9118 0.275855 33.2452L0.0204873 31.388C-0.0448021 30.8772 0.0468071 30.3587 0.283152 29.9012C0.519496 29.4437 0.889399 29.0689 1.34375 28.8266L47.5959 1.35543C48.5714 0.883782 49.6166 0.572821 50.6912 0.434561C51.7738 0.297952 52.8713 0.337149 53.9414 0.550636L105.556 15.7101C106.063 15.8251 106.522 16.0933 106.87 16.4782C107.219 16.8631 107.441 17.346 107.506 17.8613ZM115.879 84.3725L116.088 86.0517C116.116 86.2718 116.101 86.4952 116.043 86.7093C115.984 86.9233 115.884 87.1238 115.748 87.2992C115.613 87.4746 115.444 87.6214 115.251 87.7314C115.058 87.8413 114.846 87.9122 114.626 87.9399L10.4905 101.033C10.0452 101.088 9.59648 100.964 9.24254 100.688C8.8886 100.413 8.65838 100.008 8.60232 99.5629L8.40113 97.9379C8.28946 97.0482 8.53569 96.1506 9.08567 95.4425C9.63565 94.7343 10.4444 94.2736 11.334 94.1615L14.6924 93.7359L13.64 85.3398C13.5555 84.6781 13.6024 84.0062 13.7781 83.3626C13.9538 82.719 14.2548 82.1165 14.6639 81.5895C15.073 81.0626 15.582 80.6215 16.1619 80.2917C16.7418 79.9619 17.3811 79.7498 18.0431 79.6676L26.4315 78.592L21.7885 41.6413L28.5209 40.7746L33.1639 77.7253L46.5977 76.0306L41.9314 39.1263L48.6483 38.2751L53.2913 75.2258L66.7251 73.5311L62.0821 36.5882L68.799 35.7369L73.442 72.6876L86.8758 70.9929L82.2328 34.05L88.9497 33.1988L93.5927 70.1494L102.035 69.0583C102.697 68.9748 103.368 69.0225 104.012 69.1986C104.655 69.3748 105.257 69.6759 105.784 70.0848C106.31 70.4936 106.751 71.0023 107.081 71.5817C107.412 72.1611 107.624 72.7998 107.707 73.4614L108.76 81.8576L112.118 81.4319C113.006 81.3269 113.9 81.577 114.604 82.1278C115.309 82.6786 115.767 83.4854 115.879 84.3725ZM94.0493 19.3703L52.4324 7.16693C52.1448 7.12824 51.8533 7.12824 51.5657 7.16693C51.2773 7.20718 50.9943 7.27987 50.7222 7.3836L13.4311 29.5308L13.818 32.3862L94.413 22.2413L94.0493 19.3703ZM21.4016 92.8537L102.035 82.701L101.192 75.9841L20.5581 86.1369L21.4016 92.8537Z" fill="#0B4859"/>
</g></svg>