<svg width="220" height="118" viewBox="0 0 220 118" fill="none" xmlns="http://www.w3.org/2000/svg"><g xmlns="http://www.w3.org/2000/svg" id="Group" opacity="0.1">
<path id="Vector_30" d="M90.3881 7.87367L107.319 91.6665C107.768 94.2242 107.218 96.8566 105.781 99.0201C104.345 101.184 102.133 102.713 99.6015 103.292L28.7045 117.608C26.1466 118.059 23.5132 117.509 21.3493 116.073C19.1853 114.636 17.6564 112.423 17.0788 109.89L0.154871 26.0977C-0.297771 23.5415 0.250447 20.9091 1.68591 18.7461C3.12138 16.5831 5.33403 15.0553 7.86531 14.4794L78.7698 0.155717C81.3273 -0.298586 83.9615 0.24988 86.1251 1.68717C88.2887 3.12445 89.8154 5.34006 90.3881 7.87367ZM83.9477 9.17377C83.718 8.35088 83.1997 7.63821 82.4876 7.16623C81.7755 6.69425 80.9172 6.49453 80.0699 6.60363L9.17293 20.9273C8.35375 21.1563 7.64357 21.6709 7.17079 22.378C6.69802 23.0851 6.49387 23.938 6.59527 24.7825L11.1569 47.3277L88.5018 31.7339L83.9477 9.17377ZM89.8019 38.1743L12.4871 53.8056L23.5567 108.59C23.7876 109.411 24.305 110.122 25.0152 110.593C25.7253 111.065 26.5811 111.266 27.427 111.16L98.3315 96.8368C99.1521 96.606 99.8627 96.0885 100.334 95.3783C100.806 94.6682 101.007 93.8125 100.902 92.9666L89.8019 38.1743ZM28.667 100.842L20.8588 62.1699C20.686 61.3149 20.8596 60.4263 21.3415 59.6992C21.8234 58.9721 22.5742 58.466 23.429 58.2921L81.4376 46.5762C81.8606 46.4896 82.2965 46.4875 82.7203 46.57C83.1441 46.6525 83.5474 46.8179 83.907 47.0567C84.2667 47.2955 84.5756 47.6031 84.816 47.9617C85.0564 48.3203 85.2236 48.7229 85.3079 49.1463L93.1235 87.8187C93.2964 88.6737 93.1228 89.5624 92.6409 90.2895C92.159 91.0166 91.4082 91.5226 90.5534 91.6965L32.5447 103.412C31.6897 103.585 30.8011 103.412 30.074 102.93C29.3469 102.448 28.8409 101.697 28.667 100.842ZM30.5608 76.982L43.4491 74.3818L40.8413 61.486L27.953 64.0862L30.5608 76.982ZM34.4611 96.3183L47.3569 93.7105L44.7492 80.8222L31.8609 83.3999L34.4611 96.3183ZM49.897 73.0742L62.7853 70.4665L60.1776 57.5782L47.2892 60.1859L49.897 73.0742ZM53.8198 92.418L66.7157 89.8102L64.1079 76.9219L51.2196 79.5296L53.8198 92.418ZM73.1636 88.5101L86.0519 85.9099L79.5213 53.6704L66.5954 56.2781L70.5032 75.6143L73.1636 88.5101Z" fill="#0B4859"/>
</g></svg>