<svg width="20" height="20" viewBox="0 0 20 20" fill="none" xmlns="http://www.w3.org/2000/svg">
<g id="Group">
<path id="Vector" d="M1 9.76938C1 6.28846 1 4.54753 2.08185 3.46661C3.16277 2.38477 4.90369 2.38477 8.38462 2.38477H12.0769C15.5578 2.38477 17.2988 2.38477 18.3797 3.46661C19.4615 4.54753 19.4615 6.28846 19.4615 9.76938V11.6155C19.4615 15.0965 19.4615 16.8374 18.3797 17.9183C17.2988 19.0001 15.5578 19.0002 12.0769 19.0002H8.38462C4.90369 19.0002 3.16277 19.0001 2.08185 17.9183C1 16.8374 1 15.0965 1 11.6155V9.76938Z" stroke="#7B7B7B"/>
<path id="Vector_2" d="M5.61478 2.38462V1M14.8456 2.38462V1M1.46094 7H18.9994" stroke="#7B7B7B" stroke-linecap="round"/>
<path id="Vector_3" d="M15.7644 14.3849C15.7644 14.6297 15.6672 14.8645 15.4941 15.0376C15.321 15.2107 15.0862 15.308 14.8413 15.308C14.5965 15.308 14.3617 15.2107 14.1886 15.0376C14.0155 14.8645 13.9183 14.6297 13.9183 14.3849C13.9183 14.1401 14.0155 13.9053 14.1886 13.7322C14.3617 13.5591 14.5965 13.4618 14.8413 13.4618C15.0862 13.4618 15.321 13.5591 15.4941 13.7322C15.6672 13.9053 15.7644 14.1401 15.7644 14.3849ZM15.7644 10.6926C15.7644 10.9374 15.6672 11.1722 15.4941 11.3453C15.321 11.5184 15.0862 11.6157 14.8413 11.6157C14.5965 11.6157 14.3617 11.5184 14.1886 11.3453C14.0155 11.1722 13.9183 10.9374 13.9183 10.6926C13.9183 10.4478 14.0155 10.213 14.1886 10.0399C14.3617 9.86678 14.5965 9.76953 14.8413 9.76953C15.0862 9.76953 15.321 9.86678 15.4941 10.0399C15.6672 10.213 15.7644 10.4478 15.7644 10.6926ZM11.149 14.3849C11.149 14.6297 11.0518 14.8645 10.8787 15.0376C10.7056 15.2107 10.4708 15.308 10.226 15.308C9.98115 15.308 9.74636 15.2107 9.57325 15.0376C9.40014 14.8645 9.30288 14.6297 9.30288 14.3849C9.30288 14.1401 9.40014 13.9053 9.57325 13.7322C9.74636 13.5591 9.98115 13.4618 10.226 13.4618C10.4708 13.4618 10.7056 13.5591 10.8787 13.7322C11.0518 13.9053 11.149 14.1401 11.149 14.3849ZM11.149 10.6926C11.149 10.9374 11.0518 11.1722 10.8787 11.3453C10.7056 11.5184 10.4708 11.6157 10.226 11.6157C9.98115 11.6157 9.74636 11.5184 9.57325 11.3453C9.40014 11.1722 9.30288 10.9374 9.30288 10.6926C9.30288 10.4478 9.40014 10.213 9.57325 10.0399C9.74636 9.86678 9.98115 9.76953 10.226 9.76953C10.4708 9.76953 10.7056 9.86678 10.8787 10.0399C11.0518 10.213 11.149 10.4478 11.149 10.6926ZM6.53365 14.3849C6.53365 14.6297 6.4364 14.8645 6.26329 15.0376C6.09018 15.2107 5.85539 15.308 5.61058 15.308C5.36576 15.308 5.13097 15.2107 4.95786 15.0376C4.78475 14.8645 4.6875 14.6297 4.6875 14.3849C4.6875 14.1401 4.78475 13.9053 4.95786 13.7322C5.13097 13.5591 5.36576 13.4618 5.61058 13.4618C5.85539 13.4618 6.09018 13.5591 6.26329 13.7322C6.4364 13.9053 6.53365 14.1401 6.53365 14.3849ZM6.53365 10.6926C6.53365 10.9374 6.4364 11.1722 6.26329 11.3453C6.09018 11.5184 5.85539 11.6157 5.61058 11.6157C5.36576 11.6157 5.13097 11.5184 4.95786 11.3453C4.78475 11.1722 4.6875 10.9374 4.6875 10.6926C4.6875 10.4478 4.78475 10.213 4.95786 10.0399C5.13097 9.86678 5.36576 9.76953 5.61058 9.76953C5.85539 9.76953 6.09018 9.86678 6.26329 10.0399C6.4364 10.213 6.53365 10.4478 6.53365 10.6926Z" fill="#7B7B7B"/>
</g>
</svg>
