<svg width="220" height="115" viewBox="0 0 220 115" fill="none" xmlns="http://www.w3.org/2000/svg"><g xmlns="http://www.w3.org/2000/svg" id="Group" opacity="0.1">
<path id="Vector_17" d="M99.304 58.6425C100.479 68.2652 98.8216 78.0216 94.5353 86.7167C90.2491 95.4118 83.5199 102.668 75.1721 107.596C66.8243 112.525 57.2203 114.912 47.5364 114.465C37.8526 114.017 28.5095 110.755 20.6515 105.078C12.7935 99.4014 6.76179 91.5559 3.29525 82.5028C-0.171296 73.4496 -0.922176 63.582 1.13458 54.1085C3.19134 44.6351 7.96643 35.9672 14.875 29.1666C21.7835 22.3659 30.5255 17.7279 40.0301 15.8205L39.1432 8.61972L34.0661 9.24623C33.3641 9.32901 32.6579 9.1308 32.1016 8.69485C31.5452 8.2589 31.1838 7.62059 31.0963 6.91921L30.8766 5.1536C30.7937 4.45073 30.9917 3.74356 31.4275 3.18589C31.8632 2.62822 32.5016 2.26516 33.2036 2.17567L50.8678 0.0195119C51.5698 -0.0656943 52.2771 0.130347 52.835 0.564822C53.393 0.999298 53.7563 1.6369 53.8458 2.3384L54.0573 4.104C54.1454 4.80021 53.9557 5.50309 53.5293 6.06045C53.1029 6.6178 52.4741 6.98479 51.7791 7.08194L46.2545 7.75726L47.1332 14.9092C57.9599 14.3051 68.6869 17.2597 77.6774 23.3223L81.0703 18.9855C81.2864 18.709 81.5549 18.4778 81.8605 18.3052C82.1661 18.1326 82.5028 18.022 82.8512 17.9796C83.1996 17.9373 83.553 17.9641 83.891 18.0585C84.229 18.153 84.5451 18.3131 84.8212 18.5299L86.2369 19.6283C86.5137 19.8452 86.7451 20.1144 86.9178 20.4207C87.0905 20.727 87.2012 21.0644 87.2435 21.4134C87.2858 21.7625 87.2589 22.1165 87.1644 22.4552C87.0699 22.7939 86.9095 23.1106 86.6925 23.3873L83.3078 27.7241C92.1978 35.761 97.8796 46.7431 99.304 58.6425ZM92.2416 59.505C91.215 51.119 87.7248 43.2258 82.2122 36.8235C76.6996 30.4212 69.4123 25.7974 61.2719 23.5367C53.1314 21.2761 44.5034 21.4801 36.4789 24.1231C28.4544 26.7661 21.3938 31.7292 16.19 38.385C10.9863 45.0407 7.8731 53.0901 7.24411 61.5152C6.61512 69.9403 8.4986 78.3627 12.6564 85.7173C16.8142 93.072 23.0595 99.0285 30.6026 102.834C38.1457 106.639 46.6478 108.122 55.0337 107.095C60.6028 106.416 65.9836 104.646 70.8683 101.887C75.7531 99.1272 80.046 95.4319 83.5016 91.012C86.9572 86.5922 89.5078 81.5346 91.0074 76.1284C92.5071 70.7222 92.9265 65.0734 92.2416 59.505ZM50.6888 78.9348C49.9856 79.0199 49.2773 78.8227 48.7191 78.3865C48.1609 77.9504 47.7984 77.3107 47.7109 76.6078L43.1708 39.5056C43.088 38.8037 43.2862 38.0974 43.7221 37.5411C44.1581 36.9847 44.7964 36.6233 45.4978 36.5358L47.2634 36.3161C47.9663 36.2332 48.6734 36.4312 49.2311 36.867C49.7888 37.3028 50.1518 37.9411 50.2413 38.6432L54.7815 75.7453C54.8642 76.4473 54.666 77.1535 54.2301 77.7098C53.7941 78.2662 53.1558 78.6276 52.4544 78.7151L50.6888 78.9348Z" fill="#0B4859"/>
</g></svg>