<svg width="72" height="72" viewBox="0 0 72 72" fill="none" xmlns="http://www.w3.org/2000/svg">
<g id="formkit:time">
<path id="Vector" d="M36 67.5C18.63 67.5 4.5 53.37 4.5 36C4.5 18.63 18.63 4.5 36 4.5C53.37 4.5 67.5 18.63 67.5 36C67.5 53.37 53.37 67.5 36 67.5ZM36 9C21.105 9 9 21.105 9 36C9 50.895 21.105 63 36 63C50.895 63 63 50.895 63 36C63 21.105 50.895 9 36 9Z" fill="#00F8BC"/>
<path id="Vector_2" d="M45.0002 47.25C44.5952 47.25 44.1902 47.16 43.8302 46.935L32.5801 40.185C32.2469 39.9848 31.9719 39.7008 31.7825 39.3613C31.593 39.0219 31.4957 38.6387 31.5001 38.25V20.25C31.5001 18.99 32.4901 18 33.7501 18C35.0101 18 36.0002 18.99 36.0002 20.25V36.99L46.1702 43.065C46.589 43.3217 46.9128 43.708 47.0924 44.1654C47.272 44.6227 47.2975 45.1261 47.1653 45.5992C47.033 46.0724 46.75 46.4896 46.3593 46.7874C45.9686 47.0853 45.4915 47.2477 45.0002 47.25Z" fill="#00F8BC"/>
</g>
</svg>
