<svg width="85" height="81" viewBox="0 0 85 81" fill="none" xmlns="http://www.w3.org/2000/svg">
<path d="M70.3124 21.1971L52.2458 28.4676C51.9353 28.5925 51.7835 28.9488 51.9084 29.2594L53.2716 32.6469C53.3966 32.9574 53.7529 33.1092 54.0634 32.9842L72.1301 25.7138C72.4406 25.5888 72.5924 25.2325 72.4674 24.922L71.1042 21.5345C70.9793 21.224 70.623 21.0722 70.3124 21.1971ZM64.7181 34.6007L56.1082 38.0655C55.7977 38.1904 55.6459 38.5467 55.7708 38.8573L57.134 42.2448C57.259 42.5553 57.6153 42.7071 57.9258 42.5821L66.5357 39.1173C66.8462 38.9924 66.9981 38.6361 66.8731 38.3255L65.5099 34.938C65.3849 34.6275 65.0286 34.4757 64.7181 34.6007ZM34.7637 28.1636L31.7079 29.3933C31.2703 29.5694 31.0595 30.0643 31.2356 30.5018L38.2788 48.0039C38.381 48.258 38.5947 48.4426 38.859 48.5084L52.4516 51.9439C52.9067 52.0559 53.3723 51.7865 53.4844 51.3314L54.3013 48.1244L54.2984 48.1174C54.4105 47.6623 54.134 47.1995 53.6789 47.0874L42.1359 44.2213L35.8651 28.6388C35.6961 28.1984 35.1942 27.9904 34.7637 28.1636Z" fill="white"/>
<path d="M67.8567 43.6617L63.7776 45.3032C63.3824 45.4622 63.0907 45.8174 63.0153 46.2414C62.6899 48.0206 62.1737 49.7535 61.4567 51.4361C60.2211 54.336 58.4678 56.9276 56.2474 59.1331C53.9454 61.4208 51.2411 63.1979 48.2064 64.4191C45.1647 65.6431 41.9833 66.2346 38.7454 66.1764C35.6163 66.1236 32.5565 65.4689 29.6566 64.2332C26.7567 62.9975 24.1651 61.2442 21.9596 59.0239C19.6748 56.7289 17.8977 54.0246 16.6736 50.9829C15.4496 47.9412 14.8609 44.7668 14.9163 41.5218C14.9691 38.3927 15.6238 35.333 16.8595 32.4331C18.0952 29.5332 19.8485 26.9415 22.0688 24.736C24.3638 22.4512 27.0752 20.6713 30.1098 19.4501C33.1515 18.226 36.333 17.6345 39.5709 17.6928C42.7 17.7456 45.7597 18.4003 48.6596 19.636C50.3422 20.3529 51.9149 21.2452 53.382 22.3031C53.7301 22.5566 54.1864 22.6107 54.5817 22.4517L58.6608 20.8102C59.1477 20.6142 59.2538 19.9811 58.8617 19.6387C50.5769 12.3371 38.853 10.1423 28.3882 14.2142C13.0607 20.1609 5.41688 37.7431 11.5203 52.9911C17.635 68.2674 34.9906 75.6744 50.2555 69.5314C60.8062 65.2856 67.8885 55.4981 68.8132 44.3674C68.8587 43.8489 68.3366 43.4685 67.8567 43.6617Z" fill="white"/>

</svg>
