<svg width="54" height="54" viewBox="0 0 54 54" fill="none" xmlns="http://www.w3.org/2000/svg">
<g id="carbon:cloud">
<path id="Vector" d="M27.0013 11.8125C27.857 11.8123 28.7106 11.8971 29.5495 12.0656C32.2005 12.5734 34.6384 13.8641 36.5485 15.7712C38.4586 17.6783 39.7532 20.1142 40.2651 22.7644L40.7038 25.0425L42.982 25.4475C45.2829 25.8432 47.3502 27.0916 48.7717 28.9438C50.1931 30.796 50.8643 33.1158 50.6514 35.4409C50.4385 37.7659 49.3571 39.9252 47.6229 41.4884C45.8887 43.0516 43.629 43.9038 41.2945 43.875H12.6576C10.323 43.9038 8.06337 43.0516 6.32916 41.4884C4.59494 39.9252 3.51358 37.7659 3.30067 35.4409C3.08776 33.1158 3.75893 30.796 5.18038 28.9438C6.60183 27.0916 8.66912 25.8432 10.9701 25.4475L13.2313 25.0425L13.6701 22.7644C14.2648 19.67 15.9232 16.8812 18.3579 14.881C20.7927 12.8808 23.8504 11.7953 27.0013 11.8125ZM27.0013 8.43751C23.0739 8.43424 19.2683 9.80099 16.2403 12.3022C13.2123 14.8035 11.1516 18.2826 10.4132 22.14C7.3054 22.7027 4.52026 24.407 2.60485 26.9183C0.689439 29.4295 -0.217828 32.5661 0.0612512 35.7121C0.340331 38.8581 1.78559 41.7861 4.11315 43.9209C6.44072 46.0558 9.48238 47.2432 12.6407 47.25H41.3282C44.4865 47.2432 47.5282 46.0558 49.8558 43.9209C52.1833 41.7861 53.6286 38.8581 53.9077 35.7121C54.1868 32.5661 53.2795 29.4295 51.3641 26.9183C49.4487 24.407 46.6635 22.7027 43.5557 22.14C42.9201 18.8221 41.3033 15.7713 38.9145 13.3825C36.5257 10.9937 33.4749 9.37685 30.157 8.74126C29.1166 8.54381 28.0603 8.44213 27.0013 8.43751Z" fill="#00F8F7"/>
</g>
</svg>
