<svg width="109" height="97" viewBox="0 0 109 97" fill="none" xmlns="http://www.w3.org/2000/svg">
<g id="Group" opacity="0.1">
<path id="Vector" d="M105.575 13.8409L108.97 53.7539C109.733 62.4294 95.6935 70.7767 77.1142 73.1344L77.4042 76.5451C78.1672 85.7012 62.4339 94.5674 42.2294 96.2842C22.0248 98.0009 5.00971 91.9503 4.2238 82.7636L0.836035 42.8429C0.0730244 33.5723 15.3332 25.7438 32.6917 23.5311L32.4018 20.0594C31.7685 12.6658 41.9242 7.48498 42.1073 7.38578C48.486 3.83015 57.4667 1.18251 67.5766 0.320305C91.2528 -1.69404 104.918 6.14971 105.575 13.8409ZM67.9199 37.1356C67.4545 31.6266 53.4227 28.3152 36.5755 29.7496C19.7282 31.1841 6.45943 36.8151 6.92487 42.324C7.39031 47.833 21.4221 51.1368 38.2693 49.71C55.1166 48.2832 68.3854 42.6521 67.9199 37.1356ZM68.1641 46.7266C61.9227 51.5717 51.2253 55.3105 38.834 56.3634C26.4427 57.4164 15.2722 55.5394 8.31354 51.7854L9.19864 62.2005C9.4428 65.0923 20.5446 71.2879 39.9785 69.6322C59.4124 67.9765 69.301 60.0259 69.0492 57.1493L68.1641 46.7266ZM69.8656 66.687C63.6166 71.5321 52.9191 75.2632 40.5279 76.3162C28.1366 77.3691 16.9661 75.4921 10.0074 71.7381L10.8925 82.1532C11.1367 85.0374 22.2385 91.233 41.68 89.5849C61.1215 87.9368 71.0101 79.9481 70.766 77.0639L69.8656 66.687ZM99.5009 14.3521C99.0355 8.84313 85.0038 5.53167 68.1565 6.96613C51.3092 8.40059 38.0404 14.024 38.5135 19.5329C38.6203 20.7995 39.5131 21.9211 40.9094 22.9131C47.3034 22.7452 57.4209 23.2488 65.4783 27.102C66.9128 27.102 68.3167 27.0486 69.8351 26.9265C86.6747 25.4997 99.974 19.8686 99.5009 14.3597V14.3521ZM99.7222 23.9507C93.8852 28.5288 84.1721 31.9929 72.8566 33.3129C73.4642 34.3245 73.8515 35.4529 73.9935 36.6244L74.8252 46.4367C91.9929 44.1476 100.836 37.0898 100.607 34.3658L99.7222 23.9507ZM101.416 43.9035C95.7393 48.3061 86.3314 51.7015 75.3898 53.0596L76.5267 66.3894C93.7173 64.1538 102.53 57.012 102.301 54.2881L101.416 43.9035Z" fill="#0B4859"/>
</g>
</svg>
