<svg width="10" height="6" viewBox="0 0 10 6" fill="none" xmlns="http://www.w3.org/2000/svg">
<path id="Vector" d="M5.59189 5.74688L9.75513 1.46825C9.83276 1.38847 9.89434 1.29375 9.93636 1.1895C9.97837 1.08525 10 0.973523 10 0.860688C10 0.632806 9.91192 0.414258 9.75513 0.253122C9.67749 0.173335 9.58532 0.110045 9.48389 0.0668647C9.38246 0.0236845 9.27374 0.00146096 9.16395 0.00146096C8.94221 0.00146095 8.72956 0.0919858 8.57277 0.253122L5.00071 3.93274L1.42865 0.253122C1.35125 0.172916 1.25916 0.109255 1.15769 0.065811C1.05623 0.022367 0.947394 -3.95702e-07 0.837475 -4.00507e-07C0.727555 -4.05311e-07 0.618724 0.0223669 0.517258 0.065811C0.415792 0.109255 0.323702 0.172916 0.246296 0.253122C0.168254 0.332672 0.106308 0.427317 0.0640355 0.531595C0.0217631 0.635873 -3.97865e-07 0.747721 -4.02803e-07 0.860687C-4.07741e-07 0.973653 0.0217631 1.0855 0.0640355 1.18978C0.106308 1.29406 0.168254 1.3887 0.246296 1.46825L4.40953 5.74688C4.48694 5.82708 4.57903 5.89074 4.68049 5.93419C4.78196 5.97763 4.89079 6 5.00071 6C5.11063 6 5.21946 5.97763 5.32093 5.93419C5.42239 5.89074 5.51448 5.82708 5.59189 5.74688Z" fill="white"/>
</svg>
