<svg width="54" height="54" viewBox="0 0 54 54" fill="none" xmlns="http://www.w3.org/2000/svg">
<g id="healthicons:city-worker-outline">
<path id="Vector" fill-rule="evenodd" clip-rule="evenodd" d="M27 29.7778C34.6736 29.7778 40.8889 23.5625 40.8889 15.8889C40.8889 8.21528 34.6736 2 27 2C19.3264 2 13.1111 8.21528 13.1111 15.8889C13.1111 23.5625 19.3264 29.7778 27 29.7778ZM38.1111 15.8889C38.1111 22.0278 33.1389 27 27 27C20.8611 27 15.8889 22.0278 15.8889 15.8889C15.8889 9.75 20.8611 4.77778 27 4.77778C33.1389 4.77778 38.1111 9.75 38.1111 15.8889ZM33.9931 32.3806L29.7778 44.4222V43.6667L28.9792 38.0819C29.2341 38.0282 29.4688 37.9039 29.6564 37.7231C29.8441 37.5424 29.9771 37.3125 30.0403 37.0597L30.7347 34.2819C30.786 34.0773 30.79 33.8636 30.7463 33.6572C30.7027 33.4507 30.6126 33.2569 30.4828 33.0905C30.3531 32.9241 30.1872 32.7895 29.9976 32.6968C29.8081 32.6041 29.5999 32.5558 29.3889 32.5556H24.6139C24.4029 32.5556 24.1947 32.6037 24.0051 32.6963C23.8155 32.7888 23.6495 32.9233 23.5197 33.0896C23.3898 33.2558 23.2995 33.4495 23.2557 33.6559C23.2119 33.8622 23.2156 34.0759 23.2667 34.2806L23.9611 37.0583C24.0241 37.3114 24.157 37.5415 24.3446 37.7226C24.5323 37.9036 24.7671 38.0281 25.0222 38.0819L24.2417 43.5431L20 32.3653L19.9722 32.3056C19.7673 31.8848 19.4248 31.5466 19.0016 31.3468C18.5783 31.147 18.0996 31.0977 17.6444 31.2069C17.1708 31.3222 16.6486 31.4431 16.0972 31.5736C14.7958 31.8778 13.3278 32.2208 11.9361 32.6083C9.97361 33.1556 7.94028 33.8444 6.52778 34.7722C3.92639 36.4806 2 38.7403 2 41.5833V52H52V41.5833C52 38.7403 50.075 36.4792 47.4722 34.7722C46.0611 33.8444 44.0278 33.1556 42.0653 32.6083C40.6855 32.2349 39.2981 31.89 37.9042 31.5736C37.3879 31.4537 36.8721 31.3315 36.3569 31.2069C35.902 31.0978 35.4235 31.1472 35.0005 31.3469C34.5774 31.5467 34.2353 31.8849 34.0306 32.3056L33.9931 32.3806ZM37.3389 34.2944L36.3486 34.0611L31.0403 49.2222H49.2222V41.5833C49.2222 40.1306 48.2444 38.6014 45.9486 37.0944C44.9292 36.4236 43.2681 35.8264 41.3208 35.2847C40.001 34.9271 38.6725 34.5969 37.3389 34.2944ZM17.6694 34.0569L23.4236 49.2222H4.77778V41.5833C4.77778 40.1306 5.75556 38.6014 8.05139 37.0944C9.07083 36.4236 10.7319 35.8264 12.6792 35.2847C13.9989 34.9267 15.3261 34.5965 16.6597 34.2944L17.6694 34.0569Z" fill="#00F8F7"/>
</g>
</svg>
