<svg width="95" height="95" viewBox="0 0 95 95" fill="none" xmlns="http://www.w3.org/2000/svg">
<g clip-path="url(#clip0_13_595)">
<path d="M68.6906 40.1937C70.0845 39.553 71.5152 39.2152 72.9827 39.1802C74.4503 39.1451 75.8574 39.3681 77.204 39.8491C78.5506 40.3301 79.7742 41.0723 80.8749 42.0756C81.9756 43.079 82.8463 44.2776 83.4869 45.6714C83.9917 46.7696 84.3129 47.9137 84.4506 49.1038C84.5884 50.294 84.5232 51.4878 84.2551 52.6854L90.4287 66.1169L80.4554 65.7896L74.2095 73.5718L68.0359 60.1403C66.9736 59.5542 66.0356 58.8214 65.2221 57.9419C64.4085 57.0624 63.7388 56.0784 63.2129 54.99C62.5723 53.5961 62.2344 52.1654 62.1994 50.6979C62.1644 49.2303 62.3874 47.8232 62.8684 46.4766C63.3494 45.13 64.0915 43.9064 65.0949 42.8057C66.0982 41.705 67.2968 40.8344 68.6906 40.1937ZM70.5543 44.2485C69.7096 44.6368 68.9905 45.1592 68.3969 45.8157C67.8033 46.4722 67.3582 47.2012 67.0615 48.0027C66.7648 48.8041 66.6279 49.6472 66.6509 50.532C66.6738 51.4168 66.8795 52.2815 67.2677 53.1263C67.656 53.971 68.1784 54.6902 68.8349 55.2837C69.4915 55.8773 70.2204 56.3224 71.0219 56.6191C71.8234 56.9158 72.6665 57.0527 73.5512 57.0297C74.436 57.0068 75.3008 56.8011 76.1455 56.4129C76.9903 56.0246 77.7094 55.5022 78.303 54.8457C78.8965 54.1892 79.3416 53.4602 79.6383 52.6587C79.9351 51.8572 80.0719 51.0141 80.049 50.1294C80.026 49.2446 79.8204 48.3799 79.4321 47.5351C79.0438 46.6904 78.5214 45.9712 77.8649 45.3777C77.2084 44.7841 76.4794 44.339 75.6779 44.0423C74.8765 43.7456 74.0334 43.6087 73.1486 43.6316C72.2639 43.6546 71.3991 43.8602 70.5543 44.2485ZM83.3453 61.3916L81.6709 57.7486C80.6659 58.9013 79.4453 59.8076 78.0092 60.4677C76.5732 61.1277 75.0905 61.4639 73.5613 61.4761L75.2357 65.1191L78.3587 61.2279L83.3453 61.3916ZM60.3039 21.9471C59.1846 22.4616 58.2363 23.1533 57.459 24.0222C56.6817 24.8911 56.0827 25.8698 55.6622 26.9584C55.2417 28.047 55.054 29.1693 55.0993 30.3251C55.1445 31.481 55.4187 32.634 55.9217 33.7842C56.8148 35.7271 57.2215 37.7528 57.1419 39.8614C57.0623 41.97 56.5023 43.9797 55.462 45.8903C55.9506 45.896 56.4278 45.9324 56.8936 45.9997C57.3594 46.067 57.8406 46.14 58.3372 46.2187L57.4756 50.6052C56.1011 50.3417 54.7197 50.286 53.3315 50.438C51.9433 50.5901 50.6156 50.9573 49.3485 51.5397C47.659 52.3162 46.2313 53.3562 45.0653 54.6595C43.8993 55.9629 43.0091 57.4208 42.3945 59.0335C41.78 60.6461 41.5005 62.3477 41.5562 64.1384C41.6118 65.929 42.0182 67.648 42.7753 69.2952L38.7205 71.1589C38.0119 69.6173 37.5388 68.0313 37.3011 66.4011C37.0634 64.7709 37.044 63.1427 37.243 61.5164C37.442 59.8901 37.8576 58.3178 38.4898 56.7993C39.1221 55.2808 39.9701 53.8423 41.0339 52.4836C38.9372 52.0404 37.0628 51.1624 35.4107 49.8498C33.7586 48.5372 32.486 46.9094 31.593 44.9665C31.0785 43.8472 30.3869 42.8989 29.518 42.1215C28.6491 41.3442 27.6703 40.7453 26.5817 40.3248C25.4931 39.9042 24.3709 39.7166 23.215 39.7618C22.0591 39.8071 20.9061 40.0813 19.756 40.5843C18.6367 41.0988 17.6884 41.7905 16.911 42.6593C16.1337 43.5282 15.5348 44.507 15.1143 45.5956C14.6937 46.6842 14.5061 47.8064 14.5514 48.9623C14.5966 50.1182 14.8708 51.2712 15.3738 52.4213L11.319 54.2851C10.8143 53.1869 10.4719 52.0524 10.2919 50.8817C10.112 49.711 10.0724 48.5397 10.1733 47.3678C10.2741 46.1959 10.5405 45.0503 10.9725 43.9308C11.4044 42.8114 11.9799 41.7539 12.699 40.7583C11.6624 40.3395 10.7307 39.7317 9.90406 38.9349C9.07741 38.1382 8.4157 37.2273 7.91895 36.2022C7.40448 35.0829 7.13518 33.9404 7.11104 32.7748C7.0869 31.6092 7.26968 30.4764 7.65939 29.3764C8.0491 28.2764 8.63747 27.3025 9.4245 26.4547C10.2115 25.607 11.1704 24.9104 12.3011 24.3651C13.4204 23.8507 14.5628 23.5814 15.7284 23.5572C16.894 23.5331 18.0268 23.7159 19.1268 24.1056C20.2269 24.4953 21.2008 25.0837 22.0485 25.8707C22.8963 26.6577 23.5928 27.6166 24.1381 28.7473C24.6138 29.7821 24.8848 30.8726 24.9511 32.0188C25.0175 33.165 24.8616 34.2727 24.4833 35.3419C26.6518 35.4962 28.6686 36.1552 30.5336 37.3189C30.7155 36.212 31.0208 35.1508 31.4493 34.1353C31.8778 33.1198 32.4183 32.1807 33.0706 31.3181C33.7229 30.4555 34.4765 29.6742 35.3315 28.9743C36.1865 28.2744 37.1314 27.6866 38.1662 27.2109C39.1799 26.745 40.2307 26.4155 41.3187 26.2224C42.4066 26.0293 43.4903 25.9661 44.5697 26.0327C45.6491 26.0993 46.7243 26.2958 47.7952 26.6222C48.8661 26.9485 49.8702 27.4079 50.8076 28.0003C51.1389 25.8271 51.952 23.8674 53.247 22.1211C52.2103 21.7023 51.2786 21.0945 50.452 20.2978C49.6253 19.501 48.9636 18.5901 48.4669 17.565C47.9524 16.4457 47.6831 15.3032 47.659 14.1376C47.6348 12.972 47.8176 11.8392 48.2073 10.7392C48.597 9.63922 49.1854 8.66532 49.9724 7.81755C50.7595 6.96978 51.7183 6.27325 52.849 5.72796C53.9683 5.2135 55.1108 4.94419 56.2764 4.92005C57.442 4.89591 58.5748 5.07869 59.6748 5.4684C60.7748 5.85811 61.7487 6.44648 62.5965 7.23351C63.4442 8.02054 64.1408 8.97941 64.686 10.1101C65.1617 11.1449 65.4327 12.2354 65.4991 13.3816C65.5654 14.5278 65.4095 15.6355 65.0312 16.7047C66.255 16.8072 67.4218 17.0639 68.5315 17.4748C69.6413 17.8856 70.6794 18.4189 71.6458 19.0746C72.6123 19.7303 73.4861 20.5182 74.2671 21.4382C75.0481 22.3583 75.691 23.3674 76.1957 24.4656L72.1409 26.3293C71.6265 25.21 70.9348 24.2617 70.0659 23.4844C69.197 22.707 68.2183 22.1081 67.1297 21.6876C66.041 21.267 64.9188 21.0794 63.7629 21.1247C62.607 21.1699 61.454 21.4441 60.3039 21.9471ZM52.5217 15.7013C52.7838 16.2715 53.132 16.7509 53.5665 17.1396C54.0009 17.5282 54.4801 17.8196 55.0042 18.0136C55.5282 18.2076 56.097 18.3042 56.7107 18.3036C57.3243 18.3029 57.9008 18.1658 58.4402 17.8923C59.0104 17.6303 59.4898 17.282 59.8785 16.8475C60.2671 16.4131 60.5585 15.9339 60.7525 15.4098C60.9465 14.8858 61.0431 14.317 61.0425 13.7033C61.0418 13.0897 60.9048 12.5132 60.6313 11.9738C60.3692 11.4036 60.0209 10.9242 59.5865 10.5355C59.152 10.1469 58.6728 9.85553 58.1487 9.66153C57.6247 9.46753 57.0559 9.37086 56.4422 9.37152C55.8286 9.37218 55.2521 9.50926 54.7127 9.78275C54.1425 10.0448 53.6631 10.3931 53.2744 10.8275C52.8858 11.262 52.5944 11.7412 52.4004 12.2653C52.2064 12.7893 52.1098 13.3581 52.1104 13.9718C52.1111 14.5854 52.2482 15.1619 52.5217 15.7013ZM11.9737 34.3384C12.2358 34.9087 12.5841 35.3881 13.0185 35.7767C13.453 36.1654 13.9322 36.4567 14.4563 36.6507C14.9803 36.8447 15.5491 36.9414 16.1627 36.9408C16.7764 36.9401 17.3529 36.803 17.8923 36.5295C18.4625 36.2674 18.9419 35.9192 19.3306 35.4847C19.7192 35.0503 20.0105 34.571 20.2045 34.047C20.3985 33.523 20.4952 32.9541 20.4946 32.3405C20.4939 31.7269 20.3568 31.1504 20.0833 30.611C19.8212 30.0408 19.473 29.5614 19.0385 29.1727C18.6041 28.784 18.1248 28.4927 17.6008 28.2987C17.0768 28.1047 16.5079 28.008 15.8943 28.0087C15.2807 28.0094 14.7042 28.1464 14.1648 28.4199C13.5946 28.682 13.1152 29.0303 12.7265 29.4647C12.3379 29.8992 12.0465 30.3784 11.8525 30.9025C11.6585 31.4265 11.5618 31.9953 11.5625 32.6089C11.5632 33.2226 11.7002 33.7991 11.9737 34.3384ZM35.6478 43.1027C36.1623 44.222 36.8539 45.1703 37.7228 45.9477C38.5917 46.725 39.5705 47.3239 40.6591 47.7445C41.7477 48.165 42.8699 48.3526 44.0258 48.3074C45.1817 48.2621 46.3347 47.9879 47.4848 47.4849C48.6041 46.9704 49.5524 46.2788 50.3297 45.4099C51.1071 44.541 51.706 43.5622 52.1265 42.4736C52.547 41.385 52.7347 40.2628 52.6894 39.1069C52.6442 37.951 52.37 36.798 51.867 35.6479C51.3525 34.5286 50.6608 33.5803 49.7919 32.803C48.923 32.0256 47.9443 31.4267 46.8557 31.0062C45.7671 30.5856 44.6448 30.398 43.4889 30.4433C42.3331 30.4885 41.1801 30.7627 40.0299 31.2657C38.9106 31.7802 37.9623 32.4719 37.185 33.3408C36.4077 34.2096 35.8088 35.1884 35.3882 36.277C34.9677 37.3656 34.7801 38.4878 34.8253 39.6437C34.8706 40.7996 35.1447 41.9526 35.6478 43.1027Z" fill="white"/>
</g>
<defs>
<clipPath id="clip0_13_595">
<rect width="71.4016" height="71.4016" fill="white" transform="translate(0.136719 29.9563) rotate(-24.6851)"/>
</clipPath>
</defs>
</svg>
