<svg width="220" height="114" viewBox="0 0 220 114" fill="none" xmlns="http://www.w3.org/2000/svg"><g xmlns="http://www.w3.org/2000/svg" id="Group" opacity="0.1">
<path id="Vector_4" d="M0.33683 39.1559C-0.328765 35.8642 -0.00328531 32.449 1.27211 29.3423C2.5475 26.2356 4.71552 23.5769 7.502 21.7023C10.2885 19.8278 13.5682 18.8217 16.9265 18.8112C20.2849 18.8007 23.5708 19.7863 26.369 21.6434C29.1671 23.5005 31.3517 26.1457 32.6464 29.2444C33.9412 32.3431 34.288 35.7561 33.643 39.0519C32.9979 42.3477 31.39 45.3782 29.0227 47.7601C26.6553 50.1421 23.6347 51.7685 20.3429 52.4338C15.9292 53.3257 11.3419 52.4279 7.59014 49.9379C3.83834 47.4478 1.22928 43.5695 0.33683 39.1559ZM30.602 64.9278C29.478 64.6989 28.3193 64.6989 27.1952 64.9278L18.9072 66.6118C13.8786 67.6362 10.658 72.9365 11.7755 78.4463C11.9556 79.3344 11.7755 80.2577 11.2749 81.013C10.7743 81.7683 9.99407 82.2938 9.10597 82.4739C8.21788 82.654 7.29462 82.4739 6.5393 81.9733C5.78397 81.4726 5.25847 80.6924 5.07838 79.8043C3.22366 70.6239 8.81108 61.7306 17.4949 59.969L25.8139 58.285C28.87 57.6802 32.0375 58.013 34.9012 59.2395C33.2425 60.956 31.7965 62.8658 30.5943 64.9278H30.602ZM6.99517 37.8133C7.39423 39.7887 8.37009 41.6013 9.79933 43.0221C11.2286 44.4428 13.047 45.4078 15.0247 45.7951C17.0024 46.1823 19.0505 45.9744 20.9101 45.1976C22.7696 44.4209 24.357 43.1101 25.4716 41.4312C26.5862 39.7522 27.1779 37.7805 27.1719 35.7652C27.1659 33.75 26.5624 31.7818 25.4378 30.1095C24.3132 28.4372 22.718 27.136 20.8538 26.3704C18.9897 25.6047 16.9403 25.4091 14.965 25.8081C13.6534 26.0731 12.4069 26.5938 11.2965 27.3405C10.1862 28.0872 9.2338 29.0454 8.49373 30.1601C6.9991 32.4115 6.46005 35.1645 6.99517 37.8133ZM106.948 56.3449C110.417 59.7697 112.777 64.1577 113.723 68.9399L115.608 78.2523C116.141 80.9009 115.601 83.6528 114.107 85.9037C112.613 88.1546 110.286 89.7205 107.639 90.2575L47.7368 102.309C46.4257 102.574 45.0752 102.578 43.7626 102.321C42.45 102.064 41.2009 101.55 40.0867 100.81C38.9726 100.07 38.0151 99.1176 37.2692 98.0073C36.5233 96.897 36.0034 95.6507 35.7393 94.3394L33.8536 85.027C32.878 80.2671 33.3483 75.3241 35.2039 70.8334C38.2226 63.5776 44.881 58.7274 52.4318 57.1986C59.416 55.8017 61.6122 57.9746 69.5976 56.3294C77.5829 54.6842 78.8323 51.8672 85.7778 50.4704C93.3286 48.9416 101.353 50.8274 106.948 56.3449ZM40.2791 31.0852C39.3562 26.4784 39.8196 21.7015 41.6108 17.358C43.4021 13.0146 46.4407 9.29963 50.3427 6.68267C54.2446 4.06571 58.8348 2.66421 63.5331 2.6553C68.2314 2.64639 72.8269 4.03046 76.7387 6.6326C80.6506 9.23474 83.7033 12.9381 85.511 17.2747C87.3187 21.6114 87.8002 26.3865 86.8948 30.9967C85.9893 35.6069 83.7375 39.8453 80.424 43.1761C77.1104 46.5068 72.8838 48.7806 68.2783 49.7099C65.2166 50.3298 62.0627 50.3395 58.9972 49.7385C55.9318 49.1375 53.015 47.9375 50.414 46.2074C47.8131 44.4773 45.5791 42.251 43.8399 39.656C42.1008 37.0611 40.8908 34.1485 40.2791 31.0852ZM108.927 79.5638L107.049 70.2514C106.36 66.8095 104.66 63.651 102.168 61.1796C98.4348 57.4935 92.8009 55.9725 87.1203 57.121C81.4398 58.2695 79.911 61.1719 70.9634 62.98C62.0157 64.7882 59.4781 62.7006 53.7821 63.8569C48.086 65.0132 43.4996 68.5907 41.4975 73.4331C40.1537 76.6754 39.8105 80.2456 40.5119 83.6845L42.3899 92.9969C42.5714 93.8785 43.0944 94.6525 43.8447 95.1498C44.5949 95.6471 45.5116 95.8272 46.3942 95.6509L106.296 83.5526C107.178 83.3711 107.952 82.8481 108.449 82.0978C108.946 81.3476 109.126 80.4309 108.95 79.5483L108.927 79.5638ZM46.9297 29.7426C47.5935 33.0351 49.2189 36.0567 51.6002 38.4253C53.9816 40.7939 57.0119 42.403 60.3078 43.0491C63.6038 43.6953 67.0174 43.3494 70.1168 42.0552C73.2161 40.7611 75.8621 38.5768 77.7199 35.7787C79.5777 32.9806 80.5639 29.6943 80.5538 26.3356C80.5437 22.9769 79.5377 19.6967 77.6631 16.9098C75.7884 14.1229 73.1294 11.9546 70.0223 10.6791C66.9152 9.40367 63.4996 9.07835 60.2076 9.74432C55.7977 10.6406 51.9232 13.2494 49.4341 16.9983C46.945 20.7473 46.0443 25.3305 46.9297 29.7426ZM93.4915 20.3294C92.8275 17.0392 93.154 13.626 94.4297 10.5214C95.7054 7.41674 97.873 4.76008 100.658 2.88732C103.444 1.01456 106.722 0.00979197 110.079 7.12062e-05C113.435 -0.00964955 116.719 0.97611 119.516 2.83271C122.312 4.6893 124.495 7.33336 125.788 10.4306C127.082 13.5277 127.428 16.939 126.783 20.233C126.138 23.5269 124.531 26.5557 122.165 28.9363C119.799 31.3169 116.78 32.9424 113.49 33.6073C109.081 34.492 104.502 33.5905 100.758 31.1008C97.0141 28.6111 94.4117 24.7369 93.5226 20.3294H93.4915ZM100.142 18.9868C100.539 20.9612 101.513 22.7736 102.94 24.195C104.366 25.6164 106.182 26.5831 108.158 26.9731C110.134 27.363 112.181 27.1587 114.041 26.3859C115.901 25.6131 117.49 24.3065 118.607 22.6311C119.725 20.9558 120.321 18.9868 120.32 16.9728C120.32 14.9589 119.722 12.9903 118.603 11.3158C117.484 9.64121 115.894 8.33581 114.034 7.56441C112.174 6.79301 110.126 6.59022 108.151 6.98165C106.838 7.24574 105.591 7.76581 104.48 8.51214C103.369 9.25848 102.415 10.2165 101.675 11.3313C100.934 12.4462 100.42 13.6961 100.162 15.0097C99.9046 16.3233 99.9083 17.6747 100.173 18.9868H100.142ZM138.168 52.8683C138.311 53.3234 138.357 53.8036 138.302 54.2775C138.248 54.7515 138.094 55.2087 137.851 55.6194C137.608 56.03 137.282 56.385 136.893 56.6611C136.504 56.9372 136.061 57.1283 135.593 57.222C135.125 57.3157 134.643 57.3098 134.177 57.2048C133.712 57.0998 133.274 56.8979 132.892 56.6125C132.509 56.327 132.191 55.9642 131.959 55.5477C131.726 55.1313 131.583 54.6705 131.54 54.1953C130.431 48.6855 125.402 45.0459 120.373 46.0625L112.031 47.762C110.915 47.9914 109.858 48.4485 108.927 49.1046C107.014 47.655 104.928 46.4481 102.719 45.5116C104.875 43.2624 107.666 41.7247 110.719 41.1037L119.015 39.4508C127.746 37.6659 136.344 43.6957 138.199 52.8683H138.168Z" fill="#0B4859"/>
</g></svg>