<svg width="72" height="72" viewBox="0 0 72 72" fill="none" xmlns="http://www.w3.org/2000/svg">
<g id="ph:handshake-light">
<path id="Vector" d="M70.6361 34.9269C70.4746 35.4175 70.2175 35.8712 69.8795 36.2617C69.5416 36.6523 69.1296 36.972 68.6673 37.2022L61.9173 40.5772L46.3614 56.1332C46.0447 56.4487 45.6159 56.6257 45.1689 56.6254C45.0304 56.6252 44.8926 56.6082 44.7582 56.5747L26.7582 52.0747C26.556 52.0222 26.3652 51.9326 26.1957 51.8104L10.547 40.6391L3.67604 37.2022C2.74227 36.7352 2.03223 35.9164 1.70206 34.9259C1.3719 33.9354 1.44864 32.8543 1.91542 31.9204L8.90448 17.9451C9.37155 17.0113 10.1904 16.3012 11.1809 15.9711C12.1714 15.6409 13.2524 15.7177 14.1864 16.1844L20.5876 19.3851L35.7048 15.0651C36.0081 14.9783 36.3296 14.9783 36.6329 15.0651L51.7501 19.3851L58.1514 16.1844C59.0853 15.7177 60.1664 15.6409 61.1569 15.9711C62.1474 16.3012 62.9662 17.0113 63.4332 17.9451L70.4223 31.9204C70.6547 32.3826 70.7932 32.8862 70.8299 33.4023C70.8666 33.9183 70.8007 34.4365 70.6361 34.9269ZM5.18636 34.1844L10.6651 36.9379L18.1689 21.9416L12.676 19.2023C12.5425 19.1359 12.3881 19.1253 12.2468 19.1728C12.1054 19.2203 11.9887 19.3219 11.9223 19.4554L4.93323 33.4307C4.86783 33.5639 4.85772 33.7176 4.90511 33.8582C4.92709 33.929 4.96341 33.9944 5.01179 34.0506C5.06018 34.1067 5.1196 34.1523 5.18636 34.1844ZM53.8876 43.8257L45.2448 36.9041C39.9011 41.511 32.9879 42.1916 27.301 38.5579C26.8035 38.2415 26.3834 37.8174 26.0717 37.3169C25.76 36.8164 25.5646 36.2523 25.5001 35.6662C25.4356 35.0801 25.5035 34.487 25.6989 33.9307C25.8942 33.3743 26.2121 32.869 26.6289 32.4519L39.4876 19.9757C39.6747 19.7953 39.9009 19.6605 40.1485 19.5819L36.1689 18.4429L21.5973 22.5941L13.5732 38.6535L27.8889 48.8769L44.6514 53.0676L53.8876 43.8257ZM58.8601 38.8532L50.8754 22.8754H41.3523L29.0026 34.8566C28.9478 34.9141 28.9065 34.983 28.8817 35.0584C28.8569 35.1338 28.8492 35.2138 28.8592 35.2926C28.8679 35.3785 28.8963 35.4612 28.9421 35.5343C28.988 35.6075 29.0501 35.6691 29.1235 35.7144C32.8614 38.1022 38.7254 38.7716 43.9707 33.4869C44.2643 33.1923 44.6563 33.0164 45.0715 32.993C45.4868 32.9697 45.896 33.1005 46.2207 33.3604L56.2951 41.4379L58.8601 38.8532ZM67.3989 33.4307L60.4154 19.4554C60.349 19.3219 60.2323 19.2203 60.0909 19.1728C59.9496 19.1253 59.7952 19.1359 59.6617 19.2023L54.1829 21.9416L61.6726 36.9379L67.1514 34.1985C67.2181 34.1663 67.2775 34.1208 67.3259 34.0646C67.3743 34.0085 67.4106 33.943 67.4326 33.8722C67.458 33.8006 67.4686 33.7245 67.4638 33.6486C67.459 33.5727 67.4388 33.4986 67.4045 33.4307H67.3989Z" fill="#00F8BC"/>
</g>
</svg>
