<svg width="220" height="93" viewBox="0 0 220 93" fill="none" xmlns="http://www.w3.org/2000/svg"><g xmlns="http://www.w3.org/2000/svg" id="Group" opacity="0.1">
<path id="Vector_40" d="M215.977 9.86804L216.25 12.8298C216.282 13.2248 216.157 13.6165 215.902 13.9199C215.647 14.2234 215.283 14.4139 214.888 14.4503L204.512 15.4239L207.725 50.9787L218.108 50.0391C218.304 50.0214 218.502 50.0426 218.69 50.1016C218.877 50.1605 219.052 50.256 219.202 50.3826C219.353 50.5092 219.477 50.6643 219.567 50.8391C219.658 51.0139 219.713 51.2048 219.729 51.4009L219.994 54.3694C220.011 54.5649 219.989 54.7617 219.93 54.9486C219.871 55.1355 219.775 55.3089 219.648 55.4588C219.522 55.6087 219.367 55.7322 219.193 55.8221C219.018 55.9121 218.828 55.9668 218.633 55.9831L208.25 56.9227C206.687 57.0612 205.134 56.5775 203.926 55.5766C202.719 54.5757 201.955 53.1387 201.802 51.5779L192.794 52.3949C192.786 54.1541 192.258 55.8717 191.276 57.3312L189.71 59.6598C188.548 61.385 186.822 62.6517 184.827 63.2419C182.833 63.8322 180.695 63.7091 178.782 62.8939L175.173 68.2455C173.702 70.423 171.427 71.9282 168.847 72.431C166.268 72.9339 163.594 72.3934 161.413 70.9281L159.976 69.9C157.525 72.2887 154.328 73.7632 150.919 74.0768C147.511 74.3903 144.098 73.5239 141.252 71.6226L124.837 58.5295L118.709 59.081C118.841 60.6449 118.349 62.1974 117.34 63.3993C116.33 64.6012 114.886 65.3546 113.323 65.4948L102.94 66.4344C102.545 66.4665 102.153 66.3416 101.85 66.0866C101.546 65.8316 101.356 65.4673 101.32 65.0726L101.054 62.1109C101.036 61.9149 101.057 61.7174 101.116 61.5297C101.175 61.342 101.271 61.1678 101.397 61.0171C101.524 60.8665 101.679 60.7424 101.854 60.652C102.029 60.5616 102.22 60.5067 102.416 60.4904L112.799 59.5576L109.585 23.9756L99.202 24.9084C99.0066 24.9252 98.8098 24.9032 98.6229 24.8439C98.4359 24.7845 98.2626 24.6888 98.1127 24.5623C97.9628 24.4358 97.8393 24.281 97.7493 24.1067C97.6594 23.9324 97.6047 23.7421 97.5884 23.5466L97.316 20.5781C97.2992 20.3826 97.3211 20.1858 97.3805 19.9989C97.4399 19.812 97.5356 19.6386 97.6621 19.4887C97.7886 19.3388 97.9434 19.2153 98.1177 19.1254C98.292 19.0354 98.4823 18.9807 98.6778 18.9644L119.703 17.0648L128.139 6.95394C129.653 5.1343 131.828 3.99056 134.185 3.77429L147.04 2.63725C149.014 2.47837 150.984 2.97885 152.643 4.06026C154.038 2.75228 155.821 1.93477 157.722 1.7317L176.453 0.0363399C177.621 -0.0695141 178.799 0.0564396 179.918 0.406969C181.038 0.757498 182.077 1.3257 182.976 2.07894L193.304 10.474L214.343 8.54035C214.736 8.50218 215.127 8.62014 215.433 8.86867C215.739 9.1172 215.934 9.47627 215.977 9.86804ZM100.101 51.6936C100.053 51.1083 100.18 50.522 100.466 50.0087C100.751 49.4954 101.182 49.0779 101.704 48.8089C102.226 48.5399 102.816 48.4315 103.399 48.4971C103.983 48.5628 104.534 48.7997 104.983 49.1779C105.432 49.5562 105.759 50.0589 105.923 50.6228C106.087 51.1867 106.081 51.7865 105.905 52.3467C105.729 52.9069 105.39 53.4024 104.933 53.7708C104.476 54.1393 103.92 54.3641 103.335 54.4171C102.944 54.4507 102.55 54.4069 102.175 54.2883C101.801 54.1696 101.454 53.9783 101.154 53.7254C100.853 53.4725 100.606 53.1629 100.425 52.8143C100.244 52.4656 100.134 52.0849 100.101 51.6936ZM185.563 49.8349L160.534 33.0379L156.653 37.3001C150.158 44.4492 141.531 40.7657 138.617 38.1376C137.377 37.0093 136.371 35.6476 135.657 34.1302C134.943 32.6129 134.535 30.9696 134.456 29.2945C134.378 27.6194 134.631 25.9453 135.2 24.3679C135.769 22.7904 136.643 21.3407 137.773 20.1015L147.809 9.06462C147.625 8.66972 147.761 8.94207 147.557 8.54716L134.668 9.71144C134.275 9.74307 133.892 9.85267 133.541 10.0339C133.19 10.215 132.879 10.4642 132.626 10.7668L122.651 22.7568L115.495 23.4377L118.157 53.1098L126.702 52.3405L144.813 66.802C146.783 68.0504 149.164 68.4792 151.446 67.9971C153.728 67.515 155.731 66.1601 157.028 64.2216L158.744 61.6683L164.872 65.9986C165.738 66.5559 166.789 66.7504 167.798 66.5403C168.806 66.3301 169.692 65.7322 170.264 64.8752L177.107 54.7235L180.647 57.0997C180.971 57.3185 181.335 57.4714 181.718 57.5494C182.102 57.6275 182.496 57.6292 182.88 57.5546C183.264 57.48 183.629 57.3305 183.955 57.1146C184.281 56.8986 184.562 56.6206 184.78 56.2963L186.346 53.9677C186.785 53.3141 186.948 52.5141 186.802 51.7408C186.655 50.9674 186.21 50.2828 185.563 49.8349ZM198.595 15.9209L191.419 16.6018L179.163 6.65436C178.861 6.40133 178.511 6.21085 178.135 6.09397C177.759 5.97709 177.363 5.93613 176.971 5.97349L158.24 7.66204C157.497 7.71549 156.801 8.04309 156.286 8.58121L142.158 24.0981C141.555 24.7598 141.088 25.534 140.785 26.3762C140.481 27.2184 140.347 28.1122 140.389 29.0065C140.432 29.9007 140.65 30.7778 141.032 31.5876C141.413 32.3973 141.951 33.1239 142.614 33.7256C143.974 34.8885 145.726 35.4894 147.513 35.4059C149.301 35.3224 150.989 34.5608 152.235 33.2762L165.008 19.2504C165.547 18.6929 166.282 18.3674 167.058 18.3432C167.833 18.3189 168.587 18.5977 169.16 19.1203C169.734 19.643 170.081 20.3685 170.128 21.1427C170.175 21.917 169.918 22.6792 169.413 23.2675L164.579 28.5782L188.838 44.919C189.508 45.3938 190.112 45.9546 190.636 46.5871L201.223 45.6135L198.595 15.9209ZM218.803 40.9972C218.85 41.5826 218.723 42.1688 218.438 42.6822C218.153 43.1955 217.722 43.6129 217.2 43.8819C216.678 44.1509 216.088 44.2594 215.505 44.1937C214.921 44.1281 214.37 43.8912 213.921 43.5129C213.471 43.1347 213.144 42.6319 212.98 42.068C212.816 41.5042 212.823 40.9043 212.999 40.3442C213.175 39.784 213.513 39.2885 213.971 38.92C214.428 38.5516 214.984 38.3267 215.569 38.2738C216.354 38.2117 217.132 38.4635 217.732 38.974C218.332 39.4846 218.705 40.2121 218.769 40.9972H218.803Z" fill="#0B4859"/>
</g></svg>