<svg width="16" height="17" viewBox="0 0 16 17" fill="none" xmlns="http://www.w3.org/2000/svg">
<path id="Vector" d="M5.99295 7.02414C5.99295 6.47163 5.54235 6.01946 4.98953 6.01946H3.9858C2.87639 6.01946 1.97895 6.9169 1.97895 7.99808L2.00624 10.0219C2.00624 11.1313 2.90398 12.0287 4.01339 12.0287H5.01681C5.56963 12.0287 6.02023 11.5778 6.02023 11.0253L5.99295 7.02414ZM4.98953 11.0253H3.98611C3.43329 11.0253 2.98269 10.5744 2.98269 10.0219V8.02756C2.98269 7.47505 3.4336 7.02414 3.98611 7.02414L4.99016 7.02413L4.98953 11.0253ZM12.0135 12.0287C13.1229 12.0287 14.0206 11.1313 14.0206 10.0219L14.0207 8.02662C14.0207 6.91721 13.1233 6.048 12.0139 6.048H11.0387C10.4859 6.048 10.0353 6.50016 10.0353 7.05267L10.0349 11.0538C10.0349 11.6063 10.4858 12.0572 11.0383 12.0572H12.0135V12.0287ZM11.0101 7.02414L11.9853 7.02414C12.5381 7.02414 12.9887 7.47505 12.9887 8.02756V10.0219C12.9887 10.5744 12.5378 11.0253 11.9853 11.0253H10.9818L11.0101 7.02414ZM8.78685 0.035656C3.97357 -0.412434 0.126076 3.42534 0.000648036 8.02853L2.08411e-06 8.52773C-0.000791245 8.80521 0.225007 9.03098 0.502358 9.03098C0.776888 9.03098 1.00281 8.8064 1.00407 8.53178L1.0067 8.02756C1.11445 4.03269 4.46901 0.647084 8.68337 1.03371C12.3302 1.36861 15.052 4.55509 15.052 8.21758V13.52C15.052 14.3513 14.3781 15.0252 13.5468 15.0252H10.9439C11.0719 14.684 11.0884 14.287 10.8723 13.8747C10.5872 13.3306 9.99309 13.0183 9.37912 13.0183L7.58275 13.0447C6.85495 13.0447 6.18768 13.5367 6.05033 14.2516C5.86439 15.2146 6.59814 16.0549 7.49808 16.0549L13.4904 16.0549C14.876 16.0549 15.9993 14.9317 15.9993 13.5746V8.24392C16.0554 4.06405 12.9479 0.423196 8.78685 0.035656ZM9.50492 15.0515H7.49808C7.21976 15.0515 6.99637 14.8281 6.99637 14.5498C6.99637 14.2715 7.21982 14.0481 7.49808 14.0481H9.50524C9.78356 14.0481 10.0069 14.2715 10.0069 14.5498C10.0069 14.8281 9.81222 15.0515 9.50492 15.0515Z" fill="white"/>
</svg>
