<svg width="31" height="31" viewBox="0 0 31 31" fill="none" xmlns="http://www.w3.org/2000/svg">
<path id="Vector" d="M8.66667 15.3333L13.6667 20.3333L22 10.3333M2 23.3333V7.33333C2 5.46667 2 4.53333 2.36333 3.82C2.68333 3.19167 3.19167 2.68333 3.82 2.36333C4.53333 2 5.46667 2 7.33333 2H23.3333C25.2 2 26.1333 2 26.845 2.36333C27.4733 2.68333 27.9833 3.19167 28.3033 3.82C28.6667 4.53167 28.6667 5.465 28.6667 7.32833V23.34C28.6667 25.2033 28.6667 26.135 28.3033 26.8467C27.9831 27.474 27.4727 27.9839 26.845 28.3033C26.1333 28.6667 25.2017 28.6667 23.3383 28.6667H7.32833C5.465 28.6667 4.53167 28.6667 3.82 28.3033C3.19282 27.9838 2.68291 27.4738 2.36333 26.8467C2 26.1333 2 25.2 2 23.3333Z" stroke="white" stroke-width="3.33333" stroke-linecap="round" stroke-linejoin="round"/>
</svg>
