<svg width="23" height="22" viewBox="0 0 23 22" fill="none" xmlns="http://www.w3.org/2000/svg">
<g id="Group 63">
<path id="Vector" d="M22.5119 6.41101C22.4608 5.25237 22.2735 4.45582 22.0051 3.7656C21.7282 3.03295 21.3022 2.377 20.7441 1.83172C20.1988 1.27794 19.5386 0.847635 18.8144 0.575074C18.1202 0.306673 17.3278 0.119308 16.1691 0.0682234C15.0019 0.0128127 14.6313 0 11.6707 0C8.71016 0 8.33959 0.0128127 7.17663 0.0638971C6.018 0.114981 5.22145 0.302513 4.53139 0.570747C3.79857 0.847635 3.14263 1.27362 2.59734 1.83172C2.04357 2.377 1.61343 3.03727 1.3407 3.76144C1.0723 4.45582 0.884933 5.24805 0.833848 6.40668C0.778438 7.57397 0.765625 7.94454 0.765625 10.9051C0.765625 13.8657 0.778438 14.2362 0.829522 15.3992C0.880606 16.5578 1.06814 17.3544 1.33654 18.0446C1.61343 18.7773 2.04357 19.4332 2.59734 19.9785C3.14263 20.5323 3.8029 20.9626 4.52707 21.2351C5.22145 21.5035 6.01367 21.6909 7.17247 21.742C8.33527 21.7932 8.706 21.8059 11.6666 21.8059C14.6271 21.8059 14.9977 21.7932 16.1607 21.742C17.3193 21.6909 18.1158 21.5035 18.8059 21.2351C20.2714 20.6685 21.43 19.5099 21.9966 18.0446C22.2648 17.3502 22.4524 16.5578 22.5034 15.3992C22.5545 14.2362 22.5673 13.8657 22.5673 10.9051C22.5673 7.94454 22.563 7.57397 22.5119 6.41101ZM20.5483 15.314C20.5013 16.3789 20.3225 16.954 20.1734 17.3374C19.807 18.2874 19.053 19.0413 18.103 19.4077C17.7196 19.5568 17.1404 19.7357 16.0796 19.7825C14.9295 19.8337 14.5845 19.8464 11.6751 19.8464C8.76557 19.8464 8.4163 19.8337 7.27031 19.7825C6.20536 19.7357 5.63029 19.5568 5.24691 19.4077C4.77417 19.233 4.34386 18.9561 3.99459 18.594C3.63251 18.2405 3.35562 17.8145 3.1809 17.3417C3.03181 16.9583 2.85293 16.3789 2.80617 15.3183C2.75492 14.1682 2.74227 13.8231 2.74227 10.9136C2.74227 8.00411 2.75492 7.65484 2.80617 6.50901C2.85293 5.44406 3.03181 4.86899 3.1809 4.48561C3.35562 4.0127 3.63251 3.58256 3.99892 3.23313C4.35235 2.87104 4.77833 2.59415 5.25123 2.4196C5.63462 2.27051 6.21402 2.09163 7.27464 2.04471C8.42479 1.99362 8.7699 1.98081 11.6792 1.98081C14.593 1.98081 14.938 1.99362 16.084 2.04471C17.1489 2.09163 17.724 2.27051 18.1074 2.4196C18.5801 2.59415 19.0104 2.87104 19.3597 3.23313C19.7218 3.58672 19.9986 4.0127 20.1734 4.48561C20.3225 4.86899 20.5013 5.44822 20.5483 6.50901C20.5993 7.65916 20.6122 8.00411 20.6122 10.9136C20.6122 13.8231 20.5993 14.1639 20.5483 15.314Z" fill="white"/>
<path id="Vector_2" d="M11.67 5.30322C8.57748 5.30322 6.06836 7.81218 6.06836 10.9049C6.06836 13.9976 8.57748 16.5065 11.67 16.5065C14.7627 16.5065 17.2716 13.9976 17.2716 10.9049C17.2716 7.81218 14.7627 5.30322 11.67 5.30322ZM11.67 14.5385C9.66373 14.5385 8.03636 12.9113 8.03636 10.9049C8.03636 8.89843 9.66373 7.27122 11.67 7.27122C13.6764 7.27122 15.3037 8.89843 15.3037 10.9049C15.3037 12.9113 13.6764 14.5385 11.67 14.5385Z" fill="white"/>
<path id="Vector_3" d="M18.8012 5.08214C18.8012 5.80431 18.2156 6.38987 17.4933 6.38987C16.7711 6.38987 16.1855 5.80431 16.1855 5.08214C16.1855 4.3598 16.7711 3.77441 17.4933 3.77441C18.2156 3.77441 18.8012 4.3598 18.8012 5.08214Z" fill="white"/>
</g>
</svg>
