<svg width="21" height="20" viewBox="0 0 21 20" fill="none" xmlns="http://www.w3.org/2000/svg">
<g id="Group 62">
<path id="Vector" d="M2.80141 0.132812C1.30237 0.132812 0.322266 1.11716 0.322266 2.41095C0.322266 3.67616 1.27317 4.68858 2.74389 4.68858H2.77234C4.3007 4.68858 5.25186 3.67616 5.25186 2.41095C5.22329 1.11716 4.3007 0.132812 2.80141 0.132812Z" fill="white"/>
<path id="Vector_2" d="M0.582031 6.48877H4.96437V19.6732H0.582031V6.48877Z" fill="white"/>
<path id="Vector_3" d="M15.7205 6.17896C13.3564 6.17896 11.7711 8.40044 11.7711 8.40044V6.4884H7.38867V19.6728H11.7709V12.3101C11.7709 11.916 11.7995 11.5224 11.9152 11.2406C12.232 10.4535 12.953 9.63808 14.1637 9.63808C15.7494 9.63808 16.3837 10.8471 16.3837 12.6196V19.6728H20.7656V12.1131C20.7656 8.06343 18.6035 6.17896 15.7205 6.17896Z" fill="white"/>
</g>
</svg>
