<svg width="100" height="20" viewBox="0 0 100 20" fill="none" xmlns="http://www.w3.org/2000/svg">
<g id="Mobiliar Logo">
<path id="Vector" d="M40.9997 9.37994C39.9997 9.37994 39.4097 10.3349 39.4097 12.0849C39.4097 13.8349 39.9747 14.7649 40.9997 14.7649C42.0247 14.7649 42.5897 13.8399 42.5897 12.0849C42.5897 10.3299 42.0397 9.37994 40.9997 9.37994ZM40.9997 17.3299C37.6247 17.3299 36.4297 14.5049 36.4297 12.0849C36.4297 8.19994 38.7897 6.81494 40.9997 6.81494C43.2097 6.81494 45.5697 8.19994 45.5697 12.0849C45.5697 15.9699 43.1997 17.3299 40.9997 17.3299Z" fill="#F3F3F3"/>
<path id="Vector_2" d="M50.0009 14.5849C50.3253 14.7612 50.6922 14.8443 51.0609 14.8249C51.8709 14.8249 52.9509 14.5249 52.9509 11.9449C52.9509 10.2149 52.4209 9.37988 51.3359 9.37988C51.082 9.38139 50.8313 9.43755 50.6009 9.54453C50.3706 9.65151 50.166 9.80681 50.0009 9.99988V14.5849ZM50.9009 17.3299C49.5612 17.3888 48.2395 17.0039 47.1409 16.2349L47.0859 16.1949V3.14988L50.0009 2.75488V7.79488C50.3095 7.47323 50.6808 7.21847 51.092 7.04644C51.5031 6.87441 51.9453 6.78878 52.3909 6.79488C54.6409 6.79488 55.9309 8.53488 55.9309 11.5699C55.9309 15.3749 54.2359 17.3099 50.9009 17.3099" fill="#F3F3F3"/>
<path id="Vector_3" d="M59.0005 6.13497C58.8023 6.15779 58.6015 6.13639 58.4126 6.07233C58.2236 6.00826 58.0513 5.90312 57.9078 5.76446C57.7644 5.62581 57.6535 5.45708 57.583 5.27042C57.5126 5.08377 57.4844 4.88382 57.5005 4.68497V4.59497C57.5005 4.19715 57.6585 3.81562 57.9398 3.53431C58.2211 3.25301 58.6027 3.09497 59.0005 3.09497C59.3983 3.09497 59.7798 3.25301 60.0612 3.53431C60.3425 3.81562 60.5005 4.19715 60.5005 4.59497V4.68497C60.5166 4.88382 60.4884 5.08377 60.418 5.27042C60.3475 5.45708 60.2366 5.62581 60.0932 5.76446C59.9497 5.90312 59.7773 6.00826 59.5884 6.07233C59.3995 6.13639 59.1987 6.15779 59.0005 6.13497ZM60.4605 17.09H57.5505V7.04997H60.4705L60.4605 17.09Z" fill="#F3F3F3"/>
<path id="Vector_4" d="M62.5898 17.09H65.5248V2.75L62.5898 3.16V17.09Z" fill="#F3F3F3"/>
<path id="Vector_5" d="M69.106 6.13509C68.9078 6.1579 68.707 6.13651 68.518 6.07244C68.3291 6.00838 68.1567 5.90324 68.0133 5.76458C67.8698 5.62592 67.7589 5.45719 67.6885 5.27054C67.6181 5.08388 67.5899 4.88394 67.606 4.68508V4.59508C67.6529 4.23377 67.8297 3.90189 68.1035 3.66142C68.3772 3.42095 68.7291 3.28833 69.0935 3.28833C69.4578 3.28833 69.8097 3.42095 70.0834 3.66142C70.3572 3.90189 70.534 4.23377 70.581 4.59508V4.68508C70.597 4.88394 70.5689 5.08388 70.4984 5.27054C70.428 5.45719 70.3171 5.62592 70.1736 5.76458C70.0302 5.90324 69.8578 6.00838 69.6689 6.07244C69.4799 6.13651 69.2791 6.1579 69.081 6.13509M70.541 17.0901H67.651V7.05009H70.566L70.541 17.0901Z" fill="#F3F3F3"/>
<path id="Vector_6" d="M31.2508 3.15503L27.8458 12.295L24.4658 3.15503H21.3358L20.4258 17.085H23.3658L23.8108 9.53003L26.7258 17.085H28.9508L31.8408 9.53003L32.2908 17.085H35.2458L34.3408 3.15503H31.2508Z" fill="#F3F3F3"/>
<path id="Vector_7" d="M95.9059 14.2899C95.2888 14.6749 94.5733 14.8729 93.8459 14.8599C92.4959 14.8599 91.6559 14.3599 91.5359 12.8999H97.5009V11.8399C97.5559 8.49993 95.8209 6.80493 93.2809 6.80493C90.2809 6.80493 88.5859 9.27493 88.5859 11.9199C88.5859 15.0599 90.3109 17.3249 93.5859 17.3249C94.9503 17.3888 96.2849 16.9128 97.3009 15.9999L96.0009 14.1999L95.9059 14.2899ZM93.3509 9.28993C94.3159 9.28993 94.9159 9.78993 95.0109 11.0149H91.5109C91.6759 9.72993 92.3809 9.26993 93.3509 9.26993V9.28993Z" fill="#F3F3F3"/>
<path id="Vector_8" d="M85.6348 17.09H82.7148V7.055H85.0848L85.4949 8.055C85.8699 7.4 86.5348 6.875 88.0598 6.875H88.5598L88.1948 9.375C88.1948 9.375 87.8398 9.34 87.5948 9.34C87.1898 9.34481 86.7941 9.46185 86.4516 9.67811C86.1091 9.89437 85.8333 10.2014 85.6548 10.565L85.6348 17.09Z" fill="#F3F3F3"/>
<path id="Vector_9" d="M78.8457 6.07489H76.8457L73.4707 3.91989V3.26489H76.5707L78.8457 6.07489Z" fill="#F3F3F3"/>
<path id="Vector_10" d="M79.4998 14.2899C78.8826 14.6749 78.1671 14.8729 77.4398 14.8599C76.0848 14.8599 75.2498 14.3599 75.1298 12.8999H81.0498C81.0498 12.8999 81.0498 12.1049 81.0498 11.8399C81.1098 8.49993 79.3748 6.80493 76.8348 6.80493C73.8348 6.80493 72.1348 9.27493 72.1348 11.9199C72.1348 15.0599 73.8648 17.3249 77.1098 17.3249C77.7921 17.3624 78.4751 17.2647 79.1195 17.0373C79.7639 16.8099 80.3571 16.4573 80.8648 15.9999L79.5698 14.1999L79.4998 14.2899ZM76.9398 9.28993C77.9098 9.28993 78.5098 9.78993 78.6048 11.0149H75.1048C75.2448 9.72993 75.9498 9.26993 76.9148 9.26993L76.9398 9.28993Z" fill="#F3F3F3"/>
<path id="Vector_11" d="M4.41 15.4449L5.91 2.76492H5.865C5.57955 2.71101 5.29035 2.67924 5 2.66992C4.28188 2.67148 3.5743 2.84281 2.935 3.16992C2.71299 3.4953 2.57866 3.87245 2.545 4.26492V4.32492L4.045 4.15992L2.5 15.7299C2.59294 16.3128 2.84957 16.8573 3.24 17.2999C4.09249 17.25 4.93389 17.0817 5.74 16.7999C5.93944 16.4331 6.05553 16.0268 6.08 15.6099V15.5499L4.5 15.7349C4.45878 15.6421 4.42857 15.5448 4.41 15.4449Z" fill="#F3F3F3"/>
<path id="Vector_12" d="M14.8345 15.735C14.7981 15.6137 14.7697 15.4901 14.7495 15.365L15.7495 7.72498H15.7245C14.8069 7.09579 13.7171 6.76572 12.6045 6.77998C11.8348 6.78322 11.0775 6.97383 10.398 7.33536C9.71852 7.69689 9.13728 8.21846 8.70454 8.85498C7.77816 10.2506 7.29857 11.8952 7.32954 13.57C7.32954 16.845 9.03454 17.335 10.0545 17.335C10.6328 17.3265 11.2008 17.1818 11.7125 16.9125C12.2243 16.6431 12.6652 16.2568 12.9995 15.785H13.0295C13.131 16.3099 13.3131 16.8159 13.5695 17.285V17.315H13.5995C14.452 17.2648 15.2933 17.0965 16.0995 16.815C16.2902 16.4539 16.4043 16.0572 16.4345 15.65V15.59L14.8345 15.735ZM10.9045 15.8C9.79954 15.8 9.21954 14.945 9.21954 13.3C9.20607 11.9813 9.50778 10.6785 10.0995 9.49998C10.3506 9.05243 10.7123 8.67676 11.15 8.40889C11.5877 8.14102 12.0868 7.9899 12.5995 7.96998C13.0462 7.96567 13.4877 8.06493 13.8895 8.25998L13.0345 14.315C12.8425 14.7287 12.5441 15.0841 12.17 15.345C11.7958 15.6058 11.3592 15.7628 10.9045 15.8Z" fill="#F3F3F3"/>
</g>
</svg>
