<svg width="220" height="103" viewBox="0 0 220 103" fill="none" xmlns="http://www.w3.org/2000/svg"><g xmlns="http://www.w3.org/2000/svg" id="Group" opacity="0.1">
<path id="Vector_32" d="M217.72 41.8815L219.988 66.9872C220.025 67.4011 219.979 67.8182 219.854 68.2145C219.729 68.6108 219.526 68.9785 219.259 69.2963C218.991 69.6142 218.663 69.8761 218.294 70.0669C217.925 70.2576 217.522 70.3736 217.107 70.408L207.551 71.2723C205.996 73.732 204.116 75.9705 201.962 77.9268L203.402 93.7708C203.439 94.1848 203.393 94.6019 203.268 94.9982C203.143 95.3945 202.941 95.7621 202.673 96.08C202.405 96.3979 202.077 96.6598 201.708 96.8505C201.339 97.0413 200.936 97.1573 200.522 97.1917L178.556 99.1722C178.142 99.2097 177.724 99.1648 177.328 99.04C176.931 98.9152 176.563 98.713 176.245 98.4452C175.927 98.1773 175.665 97.8491 175.474 97.4794C175.284 97.1097 175.169 96.706 175.135 96.2915L174.285 86.8787L161.732 88.0094L162.582 97.4222C162.654 98.2586 162.391 99.0894 161.851 99.7322C161.311 100.375 160.538 100.777 159.701 100.85L137.736 102.831C136.901 102.901 136.072 102.637 135.43 102.097C134.789 101.557 134.388 100.785 134.315 99.95L132.875 84.106C128.726 81.5539 125.228 78.0714 122.658 73.9339C120.088 69.7965 118.517 65.1177 118.068 60.2678L116.498 60.4119C114.933 60.5516 113.357 60.3558 111.874 59.8375C110.392 59.3192 109.037 58.4903 107.901 57.4063C106.764 56.3223 105.872 55.0081 105.284 53.5517C104.696 52.0953 104.426 50.5301 104.492 48.9609C104.701 43.3651 109.317 38.8783 114.906 38.4102C115.218 38.3842 115.528 38.4823 115.768 38.6832C116.008 38.8841 116.159 39.1716 116.188 39.4833L116.548 43.4011C116.574 43.7138 116.476 44.0242 116.275 44.2654C116.075 44.5066 115.787 44.6592 115.475 44.6902H115.28C114.166 44.7685 113.114 45.2291 112.3 45.9942C111.486 46.7592 110.962 47.7818 110.815 48.8889C110.738 49.5847 110.816 50.289 111.044 50.9509C111.272 51.6128 111.644 52.216 112.133 52.7168C112.622 53.2177 113.216 53.6037 113.873 53.8472C114.529 54.0906 115.231 54.1854 115.929 54.1246L118.089 53.923C118.675 48.7624 120.528 43.8266 123.481 39.5546C126.435 35.2827 130.399 31.807 135.021 29.4367C134.362 27.6996 133.933 25.8837 133.746 24.0353C133.221 18.2097 135.031 12.414 138.779 7.92319C142.527 3.43241 147.905 0.614429 153.731 0.0891656C159.557 -0.436098 165.352 1.37438 169.843 5.12232C174.334 8.87026 177.152 14.2487 177.677 20.0743C177.717 20.7459 177.717 21.4192 177.677 22.0908C182.011 18.363 187.392 16.0664 193.082 15.5155L196.222 15.2347L197.367 27.9027C201.965 30.7409 205.76 34.7075 208.393 39.4257L214.155 38.8999C214.588 38.8426 215.028 38.8759 215.448 38.9977C215.867 39.1195 216.257 39.3271 216.592 39.6074C216.927 39.8877 217.201 40.2346 217.395 40.6261C217.589 41.0175 217.699 41.445 217.72 41.8815ZM211.728 45.5905L204.979 46.1954C200.817 38.6335 199.816 36.8978 191.49 31.6981L190.655 22.4221C185.023 23.7761 182.056 26.6136 178.981 29.5663L147.293 32.4471C143.996 32.7439 140.79 33.6873 137.857 35.2233C134.925 36.7593 132.324 38.8579 130.202 41.3992C128.081 43.9405 126.481 46.8747 125.494 50.0343C124.507 53.194 124.151 56.5172 124.448 59.8141C124.765 63.2998 125.377 72.0573 138.975 80.505L140.415 96.3491L156.108 94.9087L154.977 82.3631L180.083 80.0945L181.156 92.6474L196.849 91.207L195.408 75.3629C200.939 70.2784 200.91 69.9471 203.849 65.2803L213.398 64.4161L211.728 45.5905ZM140.141 23.5816C140.256 24.8392 140.534 26.0764 140.969 27.2617C142.851 26.7124 144.78 26.3411 146.731 26.1527L171.52 23.9129C171.624 22.8592 171.624 21.7978 171.52 20.7441C171.143 16.583 169.13 12.7419 165.921 10.0657C162.713 7.38943 158.573 6.09733 154.412 6.47361C150.251 6.84989 146.41 8.86372 143.733 12.0721C141.057 15.2805 139.765 19.4206 140.141 23.5816ZM193.183 50.4301C193.233 51.0492 193.099 51.6694 192.797 52.2123C192.495 52.7553 192.04 53.1969 191.487 53.4814C190.935 53.7659 190.311 53.8807 189.694 53.8112C189.077 53.7417 188.494 53.4912 188.019 53.0911C187.544 52.691 187.197 52.1592 187.024 51.5627C186.85 50.9663 186.857 50.3318 187.044 49.7393C187.23 49.1468 187.588 48.6226 188.071 48.2329C188.555 47.8432 189.143 47.6054 189.762 47.5494C190.176 47.5138 190.593 47.5601 190.988 47.6856C191.384 47.8112 191.752 48.0135 192.069 48.281C192.387 48.5485 192.649 48.876 192.84 49.2448C193.031 49.6135 193.148 50.0163 193.183 50.4301Z" fill="#0B4859"/>
</g></svg>