<svg width="72" height="72" viewBox="0 0 72 72" fill="none" xmlns="http://www.w3.org/2000/svg">
<g id="solar:money-bag-linear">
<g id="Group">
<path id="Vector" d="M48 18C48 12.342 48 9.516 46.242 7.758C44.484 6 41.658 6 36 6C30.342 6 27.516 6 25.758 7.758C24 9.516 24 12.342 24 18M6 42C6 30.687 6 25.029 9.516 21.516C13.029 18 18.687 18 30 18H42C53.313 18 58.971 18 62.484 21.516C66 25.029 66 30.687 66 42C66 53.313 66 58.971 62.484 62.484C58.971 66 53.313 66 42 66H30C18.687 66 13.029 66 9.516 62.484C6 58.971 6 53.313 6 42Z" stroke="#00F8BC" stroke-width="3"/>
<path id="Vector_2" d="M36 51.999C39.315 51.999 42 49.761 42 47.001C42 44.241 39.315 42 36 42C32.685 42 30 39.762 30 36.999C30 34.239 32.685 32.001 36 32.001M36 51.999C32.685 51.999 30 49.761 30 47.001M36 51.999V54M36 32.001V30M36 32.001C39.315 32.001 42 34.239 42 36.999" stroke="#00F8BC" stroke-width="3" stroke-linecap="round"/>
</g>
</g>
</svg>
