<svg width="20" height="20" viewBox="0 0 20 20" fill="none" xmlns="http://www.w3.org/2000/svg">
<g id="mdi:partnership-outline">
<path id="Vector" d="M18.0921 7.25823C19.1337 6.21657 18.6587 4.9999 18.0921 4.40823L15.5921 1.90823C14.5421 0.866567 13.3337 1.34157 12.7421 1.90823L11.3254 3.33323H9.16706C7.58372 3.33323 6.66706 4.16657 6.20039 5.1249L2.50039 8.8249V12.1582L1.90872 12.7416C0.867055 13.7916 1.34206 14.9999 1.90872 15.5916L4.40872 18.0916C4.85872 18.5416 5.34206 18.7082 5.80039 18.7082C6.39206 18.7082 6.93372 18.4166 7.25872 18.0916L9.50872 15.8332H12.5004C13.9171 15.8332 14.6337 14.9499 14.8921 14.0832C15.8337 13.8332 16.3504 13.1166 16.5587 12.4166C17.8504 12.0832 18.3337 10.8582 18.3337 9.9999V7.4999H17.8421L18.0921 7.25823ZM16.6671 9.9999C16.6671 10.3749 16.5087 10.8332 15.8337 10.8332H15.0004V11.6666C15.0004 12.0416 14.8421 12.4999 14.1671 12.4999H13.3337V13.3332C13.3337 13.7082 13.1754 14.1666 12.5004 14.1666H8.82539L6.09206 16.8999C5.83372 17.1416 5.68372 16.9999 5.59206 16.9082L3.10039 14.4249C2.85872 14.1666 3.00039 14.0166 3.09206 13.9249L4.16706 12.8416V9.50823L5.83372 7.84157V9.16657C5.83372 10.1749 6.50039 11.6666 8.33372 11.6666C10.1671 11.6666 10.8337 10.1749 10.8337 9.16657H16.6671V9.9999ZM16.9087 6.0749L15.4921 7.4999H9.16706V9.16657C9.16706 9.54157 9.00872 9.9999 8.33372 9.9999C7.65872 9.9999 7.50039 9.54157 7.50039 9.16657V6.66657C7.50039 6.28323 7.64206 4.9999 9.16706 4.9999H12.0087L13.9087 3.0999C14.1671 2.85823 14.3171 2.9999 14.4087 3.09157L16.9004 5.5749C17.1421 5.83323 17.0004 5.98323 16.9087 6.0749Z" fill="#777777"/>
</g>
</svg>
