<svg width="20" height="20" viewBox="0 0 20 20" fill="none" xmlns="http://www.w3.org/2000/svg">
<g id="mdi:place-outline">
<path id="Vector" d="M9.99935 5.41675C10.5519 5.41675 11.0818 5.63624 11.4725 6.02694C11.8632 6.41764 12.0827 6.94755 12.0827 7.50008C12.0827 7.77367 12.0288 8.04458 11.9241 8.29734C11.8194 8.5501 11.6659 8.77976 11.4725 8.97322C11.279 9.16668 11.0494 9.32013 10.7966 9.42483C10.5438 9.52953 10.2729 9.58341 9.99935 9.58341C9.44681 9.58341 8.91691 9.36392 8.52621 8.97322C8.13551 8.58252 7.91602 8.05262 7.91602 7.50008C7.91602 6.94755 8.13551 6.41764 8.52621 6.02694C8.91691 5.63624 9.44681 5.41675 9.99935 5.41675ZM9.99935 1.66675C11.5464 1.66675 13.0302 2.28133 14.1241 3.37529C15.2181 4.46925 15.8327 5.95299 15.8327 7.50008C15.8327 11.8751 9.99935 18.3334 9.99935 18.3334C9.99935 18.3334 4.16602 11.8751 4.16602 7.50008C4.16602 5.95299 4.7806 4.46925 5.87456 3.37529C6.96852 2.28133 8.45225 1.66675 9.99935 1.66675ZM9.99935 3.33341C8.89428 3.33341 7.83447 3.7724 7.05307 4.5538C6.27167 5.3352 5.83268 6.39501 5.83268 7.50008C5.83268 8.33341 5.83268 10.0001 9.99935 15.5917C14.166 10.0001 14.166 8.33341 14.166 7.50008C14.166 6.39501 13.727 5.3352 12.9456 4.5538C12.1642 3.7724 11.1044 3.33341 9.99935 3.33341Z" fill="#777777"/>
</g>
</svg>
