<svg width="9" height="15" viewBox="0 0 9 15" fill="none" xmlns="http://www.w3.org/2000/svg">
<path id="Vector" d="M0.34783 13.7819C0.457188 13.8922 0.587295 13.9797 0.730646 14.0394C0.873997 14.0991 1.02775 14.1299 1.18305 14.1299C1.33834 14.1299 1.4921 14.0991 1.63545 14.0394C1.7788 13.9797 1.90891 13.8922 2.01827 13.7819L7.90008 7.9001C8.01034 7.79074 8.09785 7.66064 8.15758 7.51729C8.2173 7.37393 8.24805 7.22018 8.24805 7.06488C8.24805 6.90959 8.2173 6.75583 8.15758 6.61248C8.09785 6.46913 8.01034 6.33902 7.90008 6.22967L2.01827 0.34785C1.90891 0.237591 1.7788 0.150076 1.63545 0.0903534C1.4921 0.030631 1.33834 -0.000117178 1.18305 -0.000117178C1.02775 -0.000117178 0.873997 0.030631 0.730646 0.0903534C0.587295 0.150076 0.457188 0.237591 0.34783 0.34785C0.237571 0.457208 0.150057 0.587316 0.0903342 0.730667C0.0306118 0.874017 -0.000136367 1.02777 -0.000136367 1.18307C-0.000136367 1.33836 0.0306118 1.49212 0.0903342 1.63547C0.150057 1.77882 0.237571 1.90893 0.34783 2.01828L5.40619 7.06488L0.34783 12.1115C0.237571 12.2208 0.150057 12.3509 0.0903342 12.4943C0.0306118 12.6376 -0.000136367 12.7914 -0.000136367 12.9467C-0.000136367 13.102 0.0306118 13.2558 0.0903342 13.3991C0.150057 13.5425 0.237571 13.6726 0.34783 13.7819Z" fill="#0B2840"/>
</svg>
