<svg width="54" height="54" viewBox="0 0 54 54" fill="none" xmlns="http://www.w3.org/2000/svg">
<g id="ion:rocket-outline">
<path id="Vector" d="M48.7052 5.67527C48.6872 5.58871 48.6449 5.50908 48.5833 5.44574C48.5216 5.3824 48.4432 5.33799 48.3571 5.31773C42.6217 3.91499 29.3727 8.91316 22.1872 16.0935C20.9065 17.3636 19.7388 18.7427 18.6972 20.2152C16.4823 20.0148 14.2675 20.1835 12.3817 21.0062C7.0566 23.3476 5.50727 29.4627 5.07485 32.0878C5.05142 32.2316 5.06142 32.379 5.10409 32.5183C5.14676 32.6577 5.22094 32.7853 5.32089 32.8914C5.42083 32.9974 5.54386 33.0791 5.68044 33.1299C5.81701 33.1808 5.96346 33.1995 6.10844 33.1847L14.6588 32.246C14.6647 32.8909 14.7034 33.5351 14.7748 34.1761C14.8194 34.6191 15.0171 35.0327 15.3338 35.3457L18.6445 38.6564C18.9577 38.9733 19.3718 39.171 19.8152 39.2154C20.4523 39.2864 21.0926 39.3252 21.7336 39.3314L20.796 47.8744C20.7814 48.0192 20.8002 48.1654 20.8511 48.3017C20.902 48.4381 20.9836 48.5609 21.0895 48.6607C21.1954 48.7605 21.3228 48.8346 21.462 48.8773C21.6011 48.92 21.7482 48.9301 21.8918 48.9069C24.518 48.485 30.6457 46.9357 32.9734 41.6116C33.7961 39.7237 33.9648 37.5205 33.775 35.3162C35.2518 34.2756 36.6349 33.1078 37.9083 31.8262C45.1203 24.6544 50.0868 11.6965 48.7052 5.67527ZM31.4979 22.5355C30.868 21.9057 30.439 21.1033 30.2651 20.2296C30.0913 19.356 30.1804 18.4505 30.5212 17.6275C30.8621 16.8045 31.4393 16.1011 32.1799 15.6062C32.9205 15.1113 33.7913 14.8472 34.682 14.8472C35.5728 14.8472 36.4435 15.1113 37.1842 15.6062C37.9248 16.1011 38.502 16.8045 38.8428 17.6275C39.1837 18.4505 39.2728 19.356 39.0989 20.2296C38.9251 21.1033 38.4961 21.9057 37.8661 22.5355C37.4483 22.9542 36.952 23.2864 36.4056 23.5131C35.8593 23.7397 35.2736 23.8564 34.682 23.8564C34.0905 23.8564 33.5048 23.7397 32.9584 23.5131C32.4121 23.2864 31.9158 22.9542 31.4979 22.5355Z" stroke="#00F8F7" stroke-width="3.375" stroke-linecap="round" stroke-linejoin="round"/>
<path id="Vector_2" d="M11.5636 37.125C10.5122 37.2541 9.53405 37.7307 8.78449 38.4792C6.92613 40.3439 6.75 47.25 6.75 47.25C6.75 47.25 13.6603 47.0739 15.5197 45.2134C16.2713 44.465 16.7487 43.4852 16.875 42.4322" stroke="#00F8F7" stroke-width="3.375" stroke-linecap="round" stroke-linejoin="round"/>
</g>
</svg>
