<svg width="220" height="107" viewBox="0 0 220 107" fill="none" xmlns="http://www.w3.org/2000/svg"><g xmlns="http://www.w3.org/2000/svg" id="Group" opacity="0.1">
<path id="Vector_38" d="M209.013 20.4936C209.013 41.0454 197.983 53.5236 183.496 62.8349V83.0372C183.404 84.7884 182.872 86.4882 181.95 87.9795C181.027 89.4708 179.744 90.7055 178.218 91.5695L158.561 101.434C157.895 101.739 157.175 101.91 156.443 101.936C155.179 101.929 153.968 101.423 153.074 100.529C152.18 99.6352 151.675 98.4249 151.667 97.1607V78.6837L147.408 80.7877C143.659 82.6441 140.492 79.9359 140.128 79.5646L129.426 68.8701C129.055 68.5061 126.34 65.3465 128.203 61.5899L130.307 57.3238H111.859C111.232 57.3228 110.611 57.1984 110.032 56.9575C109.453 56.7166 108.927 56.364 108.484 55.9198C108.042 55.4757 107.691 54.9487 107.452 54.3689C107.212 53.7891 107.09 53.1679 107.091 52.5407C107.118 51.8038 107.288 51.0791 107.593 50.4077L117.429 30.7513C118.298 29.2292 119.536 27.9493 121.027 27.0286C122.519 26.1078 124.218 25.5756 125.968 25.4805H146.156C155.453 10.9712 167.887 0 188.541 0C193.601 0 198.682 8.6786e-08 205.176 1.39779C205.765 1.55592 206.302 1.86568 206.734 2.29617C207.166 2.72666 207.477 3.26282 207.637 3.85119C209.013 10.3378 209.013 15.4048 209.013 20.4936ZM133.452 50.9464C136.604 44.5763 140.143 37.4272 142.916 31.836H125.961C125.377 31.8693 124.811 32.0471 124.313 32.3533C123.815 32.6595 123.4 33.0847 123.107 33.5905L114.436 50.9464H133.452ZM202.613 20.4863C202.756 16.0461 202.478 11.6024 201.784 7.21461C197.398 6.52029 192.958 6.23271 188.519 6.35556C172.889 6.35556 161.452 13.3226 151.456 28.924C147.532 36.8084 138.046 55.9915 133.889 64.3928L144.605 75.0582C152.97 70.9158 172.153 61.4298 180.023 57.4912C195.661 47.4519 202.628 36.0294 202.628 20.4863H202.613ZM177.133 66.0672L158.044 75.5314V94.5398L175.364 85.8765C175.871 85.5869 176.298 85.1758 176.607 84.6802C176.916 84.1846 177.096 83.62 177.133 83.0372V66.0672ZM191.482 28.6328C191.482 30.8372 190.828 32.9922 189.604 34.8251C188.379 36.658 186.638 38.0866 184.602 38.9302C182.565 39.7738 180.324 39.9946 178.162 39.5645C176 39.1344 174.014 38.0729 172.455 36.5141C170.896 34.9553 169.835 32.9693 169.405 30.8072C168.974 28.6451 169.195 26.4041 170.039 24.3674C170.882 22.3308 172.311 20.59 174.144 19.3653C175.977 18.1406 178.132 17.4869 180.336 17.4869C183.292 17.4888 186.126 18.6637 188.215 20.7536C190.305 22.8434 191.48 25.6773 191.482 28.6328ZM185.112 28.6328C185.112 27.6882 184.832 26.7649 184.307 25.9795C183.782 25.1941 183.037 24.582 182.164 24.2205C181.291 23.8591 180.331 23.7645 179.405 23.9488C178.478 24.133 177.627 24.5879 176.959 25.2558C176.291 25.9237 175.837 26.7747 175.652 27.7011C175.468 28.6275 175.563 29.5877 175.924 30.4604C176.285 31.333 176.898 32.0789 177.683 32.6037C178.468 33.1284 179.392 33.4085 180.336 33.4085C181.603 33.4085 182.818 32.9054 183.713 32.0097C184.609 31.1141 185.112 29.8994 185.112 28.6328Z" fill="#0B4859"/>
</g></svg>