<svg width="72" height="72" viewBox="0 0 72 72" fill="none" xmlns="http://www.w3.org/2000/svg">
<g id="carbon:security">
<path id="Vector" d="M31.5 37.3276L25.6725 31.5001L22.5 34.6726L31.5 43.6726L49.5 25.6726L46.3275 22.5001L31.5 37.3276Z" fill="#00F8BC"/>
<path id="Vector_2" d="M36 67.5001L22.104 60.0908C18.1425 57.9833 14.8297 54.8367 12.5211 50.9889C10.2125 47.1411 8.99525 42.7373 9.00001 38.2501V9.00006C9.00121 7.80695 9.47569 6.66305 10.3193 5.8194C11.163 4.97574 12.3069 4.50125 13.5 4.50006H58.5C59.6931 4.50125 60.837 4.97574 61.6807 5.8194C62.5243 6.66305 62.9988 7.80695 63 9.00006V38.2501C63.0048 42.7373 61.7875 47.1411 59.4789 50.9889C57.1703 54.8367 53.8575 57.9833 49.896 60.0908L36 67.5001ZM13.5 9.00006V38.2501C13.4963 41.9216 14.4925 45.5249 16.3817 48.6731C18.271 51.8213 20.9819 54.3955 24.2235 56.1196L36 62.3993L47.7765 56.1218C51.0185 54.3976 53.7296 51.823 55.6189 48.6744C57.5081 45.5257 58.5042 41.922 58.5 38.2501V9.00006H13.5Z" fill="#00F8BC"/>
</g>
</svg>
