<svg width="112" height="107" viewBox="0 0 112 107" fill="none" xmlns="http://www.w3.org/2000/svg">
<path id="Star 15" d="M54.0979 4.8541C54.6966 3.01148 57.3034 3.01148 57.9021 4.8541L69.0218 39.077C69.2896 39.9011 70.0575 40.459 70.9239 40.459H106.908C108.845 40.459 109.651 42.9382 108.084 44.077L78.9719 65.2279C78.2709 65.7372 77.9776 66.64 78.2453 67.464L89.365 101.687C89.9637 103.53 87.8548 105.062 86.2873 103.923L57.1756 82.7721C56.4746 82.2628 55.5254 82.2628 54.8244 82.7721L25.7127 103.923C24.1453 105.062 22.0363 103.53 22.635 101.687L33.7547 67.464C34.0224 66.64 33.7291 65.7372 33.0282 65.2279L3.91641 44.077C2.34898 42.9382 3.15453 40.459 5.09197 40.459H41.0761C41.9425 40.459 42.7104 39.9011 42.9782 39.077L54.0979 4.8541Z" fill="#00F8F7" stroke="#061F34" stroke-width="5"/>
</svg>
