<svg width="220" height="100" viewBox="0 0 220 100" fill="none" xmlns="http://www.w3.org/2000/svg"><g xmlns="http://www.w3.org/2000/svg" id="Group" opacity="0.1">
<path id="Vector_10" d="M209.8 73.9065L210.083 77.0599C210.102 77.2686 210.079 77.4789 210.016 77.6788C209.954 77.8786 209.852 78.0641 209.717 78.2245C209.582 78.3849 209.417 78.517 209.231 78.6132C209.045 78.7095 208.842 78.7679 208.633 78.7853L112.291 87.4843C111.874 87.5211 111.454 87.4752 111.055 87.3492C110.656 87.2232 110.286 87.0197 109.966 86.7502C109.646 86.4807 109.383 86.1507 109.191 85.7791C108.999 85.4075 108.882 85.0015 108.847 84.5847L102.432 13.5421C102.414 13.3341 102.437 13.1245 102.5 12.9255C102.564 12.7265 102.665 12.5419 102.8 12.3823C102.935 12.2227 103.1 12.0912 103.285 11.9954C103.471 11.8996 103.673 11.8414 103.881 11.8241L107.042 11.5413C107.251 11.5224 107.461 11.545 107.661 11.6078C107.861 11.6706 108.046 11.7723 108.207 11.907C108.367 12.0418 108.499 12.207 108.595 12.3931C108.692 12.5791 108.75 12.7824 108.767 12.9912L114.929 80.8803L208.111 72.4639C208.525 72.4376 208.933 72.5735 209.248 72.8428C209.563 73.1121 209.761 73.4937 209.8 73.9065ZM140.389 31.5492C140.929 30.9086 141.702 30.5078 142.537 30.4345C143.372 30.3612 144.203 30.6212 144.847 31.1578L163.057 46.3812L177.824 28.6785L168.204 20.6319C167.477 20.0205 166.947 19.208 166.68 18.2963C166.413 17.3847 166.421 16.4145 166.704 15.5076C166.987 14.6007 167.531 13.7975 168.269 13.1989C169.006 12.6003 169.904 12.233 170.85 12.143L194.439 10.019C195.286 9.94239 196.128 10.2046 196.782 10.7482C197.435 11.2917 197.847 12.0723 197.926 12.9187L200.05 36.5005C200.11 37.1338 200.043 37.7727 199.854 38.3801C199.665 38.9875 199.357 39.5513 198.948 40.0388C198.54 40.5264 198.038 40.9279 197.473 41.2202C196.908 41.5125 196.291 41.6898 195.657 41.7417C195.032 41.7993 194.402 41.7308 193.804 41.5403C193.207 41.3497 192.653 41.0411 192.177 40.6325L182.695 32.7236L165.899 52.8547C165.36 53.4997 164.587 53.9046 163.75 53.9807C162.913 54.0568 162.08 53.7979 161.433 53.2607L143.201 38.0518L130.153 53.5579C129.883 53.8804 129.497 54.0828 129.078 54.1209C128.66 54.1589 128.243 54.0295 127.92 53.7609L125.491 51.7311C125.169 51.4616 124.967 51.0752 124.928 50.6567C124.89 50.2381 125.02 49.8216 125.288 49.4983L140.389 31.5492ZM193.402 33.3978L191.887 16.6086L175.098 18.1236L193.402 33.3978Z" fill="#0B4859"/>
</g></svg>