<svg width="100" height="20" viewBox="0 0 100 20" fill="none" xmlns="http://www.w3.org/2000/svg">
<g id="Swiss Made Software Logo">
<path id="Vector" d="M38.5706 7.21C38.8456 6.765 39.1506 6.71 39.4956 7.14C39.6838 7.40306 39.952 7.59825 40.2601 7.69646C40.5683 7.79468 40.8999 7.79066 41.2056 7.685C41.364 7.65015 41.5065 7.56424 41.6113 7.44047C41.7161 7.31671 41.7774 7.16196 41.7856 7C41.7922 6.83135 41.7422 6.66533 41.6434 6.52848C41.5446 6.39162 41.4028 6.29182 41.2406 6.245C40.8606 6.11 40.4856 6.04 40.0756 5.935C39.9042 5.89337 39.7369 5.83648 39.5756 5.765C39.373 5.68011 39.1966 5.54268 39.0648 5.3669C38.9329 5.19111 38.8504 4.98333 38.8256 4.765C38.7708 4.50592 38.801 4.23606 38.9118 3.99553C39.0226 3.75501 39.2081 3.55667 39.4406 3.43C39.8562 3.19336 40.3295 3.07735 40.8074 3.09502C41.2852 3.11268 41.7487 3.26332 42.1456 3.53C42.1944 3.55811 42.2369 3.59599 42.2705 3.64125C42.304 3.68652 42.3278 3.73821 42.3405 3.7931C42.3532 3.84799 42.3544 3.90491 42.3441 3.96029C42.3338 4.01567 42.3122 4.06834 42.2806 4.115C42.2542 4.16483 42.2173 4.20841 42.1726 4.24281C42.1279 4.27721 42.0763 4.30163 42.0213 4.31442C41.9664 4.32721 41.9093 4.32808 41.854 4.31697C41.7987 4.30586 41.7464 4.28302 41.7006 4.25C41.3337 4.01488 40.9001 3.90603 40.4656 3.94C40.2752 3.96614 40.0907 4.02536 39.9206 4.115C39.8193 4.15358 39.732 4.22206 39.6705 4.31136C39.6089 4.40065 39.576 4.50655 39.576 4.615C39.576 4.72346 39.6089 4.82935 39.6705 4.91864C39.732 5.00794 39.8193 5.07642 39.9206 5.115C40.2676 5.23909 40.6215 5.3426 40.9806 5.425C41.2263 5.48688 41.467 5.56711 41.7006 5.665C42.7606 6.075 42.8256 7.665 41.9706 8.335C41.4663 8.67866 40.8503 8.81817 40.2471 8.72537C39.6439 8.63257 39.0984 8.31437 38.7206 7.835C38.646 7.71354 38.5776 7.58838 38.5156 7.46C38.5706 7.275 38.5706 7.24 38.5706 7.21Z" fill="#F3F3F3"/>
<path id="Vector_2" d="M68.0341 3.20499C68.8891 2.70499 69.6441 2.79499 70.5341 3.50999C70.8553 3.16167 71.2928 2.94292 71.7641 2.89499C72.8941 2.79499 73.8891 3.39499 73.8891 4.70999V8.06499C73.8928 8.15443 73.8678 8.24271 73.8177 8.31693C73.7677 8.39116 73.6952 8.44745 73.6109 8.47759C73.5266 8.50774 73.4349 8.51016 73.3491 8.48451C73.2633 8.45885 73.188 8.40647 73.1341 8.33499C73.0744 8.23231 73.0498 8.11292 73.0641 7.99499V4.70999C73.088 4.48929 73.0276 4.26772 72.895 4.08969C72.7624 3.91166 72.5674 3.79032 72.3491 3.74999C72.0945 3.67344 71.8201 3.69835 71.5834 3.8195C71.3467 3.94066 71.166 4.14866 71.0791 4.39999C71.0502 4.51258 71.0384 4.62888 71.0441 4.74499V7.99999C71.0441 8.27499 70.9441 8.44499 70.7041 8.49999C70.6431 8.51585 70.5792 8.51707 70.5177 8.50354C70.4561 8.49002 70.3986 8.46214 70.3498 8.42216C70.3011 8.38219 70.2625 8.33127 70.2372 8.27354C70.2118 8.21582 70.2005 8.15292 70.2041 8.08999V6.28499C70.2041 5.73499 70.2041 5.22499 70.1691 4.67499C70.164 4.54186 70.1324 4.41109 70.0761 4.29036C70.0198 4.16963 69.9399 4.06137 69.8411 3.97194C69.7424 3.88251 69.6268 3.81371 69.5011 3.76958C69.3754 3.72546 69.2421 3.7069 69.1091 3.71499C68.978 3.70171 68.8455 3.71709 68.7208 3.76007C68.5962 3.80305 68.4824 3.8726 68.3873 3.9639C68.2922 4.0552 68.218 4.16608 68.17 4.28886C68.122 4.41164 68.1012 4.54339 68.1091 4.67499V7.99999C68.116 8.05991 68.1108 8.12061 68.0938 8.17848C68.0768 8.23635 68.0483 8.29021 68.0101 8.33685C67.9718 8.38349 67.9246 8.42197 67.8712 8.45C67.8177 8.47802 67.7592 8.49502 67.6991 8.49999C67.6355 8.50131 67.5724 8.48881 67.514 8.46337C67.4557 8.43792 67.4036 8.40013 67.3613 8.3526C67.319 8.30508 67.2875 8.24894 67.269 8.18806C67.2505 8.12718 67.2454 8.06302 67.2541 7.99999V3.33999C67.2444 3.2509 67.266 3.16121 67.3153 3.08637C67.3646 3.01153 67.4384 2.95622 67.5241 2.92999C67.6282 2.8989 67.7404 2.91041 67.836 2.96197C67.9316 3.01353 68.0029 3.10093 68.0341 3.20499Z" fill="#F3F3F3"/>
<path id="Vector_3" d="M57.7341 17.58C58.0741 16.415 58.4191 15.32 58.7341 14.19C58.8391 13.88 58.9091 13.815 59.2341 13.815C59.5591 13.815 59.6441 13.88 59.7341 14.19C60.0391 15.25 60.3841 16.31 60.6891 17.37C60.6891 17.405 60.7241 17.44 60.7591 17.58C60.9291 16.925 61.0991 16.38 61.2591 15.83C61.4191 15.28 61.5991 14.67 61.7591 14.085C61.8241 13.88 61.9641 13.78 62.1341 13.815C62.2822 13.8514 62.4141 13.9358 62.5091 14.055C62.562 14.1866 62.562 14.3335 62.5091 14.465C62.4391 14.805 62.3391 15.115 62.2341 15.465C61.8941 16.63 61.5841 17.825 61.2341 18.99C61.1291 19.335 61.0291 19.435 60.7341 19.435C60.4391 19.435 60.2891 19.3 60.2341 18.935C59.9291 17.775 59.5841 16.645 59.2791 15.48C59.2538 15.385 59.2186 15.2928 59.1741 15.205C59.135 15.3064 59.1016 15.4099 59.0741 15.515C58.7641 16.68 58.4541 17.805 58.1491 18.97C58.1365 19.0904 58.0769 19.201 57.9833 19.2777C57.8897 19.3545 57.7696 19.3912 57.6491 19.38C57.3741 19.38 57.2391 19.28 57.1491 18.97C56.7391 17.47 56.2941 15.97 55.8841 14.47C55.7841 14.09 55.8491 13.85 56.1241 13.785C56.3991 13.72 56.6241 13.85 56.7041 14.23C57.0141 15.255 57.2891 16.315 57.5941 17.345C57.6563 17.413 57.704 17.493 57.7341 17.58Z" fill="#F3F3F3"/>
<path id="Vector_4" d="M48.4255 6.73C48.5605 6.23 48.7005 5.73 48.8355 5.29C49.0055 4.64 49.2105 3.99 49.3855 3.29C49.4855 2.985 49.6556 2.88 49.9306 2.95C50.2056 3.02 50.2756 3.225 50.2056 3.53C49.7956 5.07 49.3505 6.61 48.9055 8.15C48.8753 8.25386 48.8121 8.34509 48.7255 8.41C48.639 8.47491 48.5337 8.51 48.4255 8.51C48.3174 8.51 48.2121 8.47491 48.1256 8.41C48.039 8.34509 47.9758 8.25386 47.9455 8.15C47.6406 7 47.2956 5.875 47.0006 4.71C46.9756 4.60882 46.9277 4.51473 46.8606 4.435C46.6206 5.395 46.3606 6.35 46.1106 7.31C46.0406 7.62 45.9355 7.925 45.8705 8.235C45.8422 8.34501 45.7772 8.44209 45.6864 8.51025C45.5955 8.57841 45.4841 8.6136 45.3705 8.61C45.2597 8.62673 45.1466 8.601 45.0539 8.53797C44.9612 8.47493 44.8957 8.37923 44.8705 8.27L43.5655 3.545C43.5472 3.49422 43.5399 3.44011 43.5441 3.38628C43.5483 3.33245 43.564 3.28014 43.59 3.23283C43.616 3.18552 43.6518 3.1443 43.695 3.11191C43.7382 3.07952 43.7878 3.05671 43.8406 3.045C43.8961 3.02245 43.956 3.01268 44.0159 3.01642C44.0757 3.02015 44.134 3.0373 44.1863 3.06659C44.2386 3.09587 44.2837 3.13655 44.3182 3.18561C44.3527 3.23466 44.3757 3.29085 44.3855 3.35C44.6955 4.4 45.0006 5.43 45.2756 6.5C45.3106 6.57 45.3106 6.635 45.3806 6.805C45.5156 6.305 45.6556 5.85 45.7906 5.405C45.9956 4.755 46.1655 4.105 46.3705 3.455C46.4755 3.11 46.5755 3.045 46.9205 3.045C47.2655 3.045 47.3305 3.075 47.4205 3.42C47.7255 4.42 48.0356 5.505 48.3406 6.535C48.3757 6.5968 48.4042 6.66217 48.4255 6.73Z" fill="#F3F3F3"/>
<path id="Vector_5" d="M83.4004 8.235C83.1602 8.38678 82.8886 8.48168 82.6061 8.51247C82.3237 8.54326 82.038 8.50911 81.7708 8.41264C81.5035 8.31617 81.2619 8.15993 81.0642 7.95583C80.8666 7.75174 80.7182 7.50519 80.6304 7.235C80.5753 7.05779 80.5401 6.875 80.5254 6.69V4.64C80.5376 4.18617 80.7213 3.75383 81.0395 3.43004C81.3578 3.10625 81.7868 2.91507 82.2404 2.895C82.4502 2.85893 82.6652 2.86791 82.8713 2.92136C83.0773 2.97481 83.2696 3.0715 83.4354 3.205V1C83.4354 0.655 83.5754 0.5 83.8454 0.5C84.1154 0.5 84.2604 0.67 84.2604 1V5.445C84.2604 6.305 84.2904 7.16 84.2904 8.015C84.2904 8.355 84.0854 8.56 83.7904 8.515C83.6657 8.41452 83.5355 8.32104 83.4004 8.235ZM83.4354 5.7C83.4354 5.325 83.4704 4.985 83.4354 4.64C83.4201 4.44258 83.349 4.25358 83.2304 4.095C83.0822 3.934 82.8887 3.82157 82.6755 3.7725C82.4622 3.72342 82.2391 3.73998 82.0354 3.82C81.8423 3.88421 81.6748 4.00876 81.5578 4.17529C81.4408 4.34182 81.3804 4.54153 81.3854 4.745V6.525C81.3806 6.66235 81.3907 6.79981 81.4154 6.935C81.4815 7.18071 81.6388 7.39196 81.8553 7.52573C82.0717 7.6595 82.331 7.70573 82.5804 7.655C82.7034 7.64889 82.8239 7.61773 82.9344 7.56344C83.045 7.50914 83.1433 7.43285 83.2234 7.33923C83.3034 7.24561 83.3635 7.13664 83.4 7.01899C83.4364 6.90133 83.4485 6.77748 83.4354 6.655V5.7Z" fill="#F3F3F3"/>
<path id="Vector_6" d="M66.7349 19.0001C66.4209 19.2527 66.0409 19.4097 65.6402 19.4522C65.2394 19.4948 64.8349 19.4211 64.4749 19.2401C64.1839 19.1205 63.9397 18.9094 63.7792 18.6389C63.6186 18.3683 63.5504 18.0528 63.5849 17.7401C63.5721 17.4422 63.6598 17.1486 63.8339 16.9065C64.008 16.6643 64.2584 16.4878 64.5449 16.4051C64.9899 16.2351 65.4699 16.1651 65.9499 16.0301C66.1549 15.9601 66.4499 16.0301 66.4949 15.7201C66.5361 15.5383 66.5146 15.3479 66.4338 15.18C66.353 15.012 66.2177 14.8763 66.0499 14.7951C65.804 14.6807 65.5258 14.6561 65.2637 14.7255C65.0015 14.7949 64.772 14.954 64.6149 15.1751C64.5447 15.2972 64.4355 15.3923 64.3049 15.4451C64.228 15.463 64.148 15.4632 64.071 15.4459C63.9939 15.4286 63.9218 15.3941 63.8599 15.3451C63.6899 15.2401 63.7249 15.0351 63.7899 14.8451C63.8919 14.6091 64.0469 14.3997 64.2429 14.2332C64.4389 14.0668 64.6705 13.9476 64.9199 13.8851C65.2842 13.7563 65.6793 13.7429 66.0515 13.8467C66.4237 13.9505 66.7548 14.1664 66.9999 14.4651C67.2769 14.8124 67.411 15.2523 67.3749 15.6951V18.0551C67.359 18.1768 67.3884 18.3001 67.4576 18.4016C67.5267 18.503 67.6308 18.5754 67.7499 18.6051C67.8453 18.6315 67.9285 18.6905 67.9851 18.7717C68.0417 18.853 68.0682 18.9514 68.0599 19.0501C68.0538 19.102 68.0373 19.1521 68.0114 19.1975C67.9856 19.2428 67.9509 19.2826 67.9094 19.3143C67.8679 19.346 67.8204 19.369 67.7698 19.3821C67.7193 19.3951 67.6666 19.3978 67.6149 19.3901C67.4481 19.3972 67.2819 19.3657 67.1293 19.298C66.9767 19.2304 66.8417 19.1284 66.7349 19.0001ZM66.4599 16.7101C66.2899 16.7401 66.1199 16.7751 65.9599 16.8101C65.5849 16.9151 65.2099 16.9801 64.8349 17.1201C64.7009 17.1632 64.5862 17.2518 64.5104 17.3704C64.4347 17.489 64.4027 17.6304 64.4199 17.7701C64.4099 17.9171 64.4478 18.0633 64.5281 18.1869C64.6083 18.3104 64.7265 18.4045 64.8649 18.4551C65.1228 18.5225 65.3884 18.5561 65.6549 18.5551C65.8602 18.5505 66.0573 18.4739 66.2118 18.3386C66.3663 18.2033 66.4683 18.018 66.4999 17.8151C66.4999 17.4401 66.4599 17.0651 66.4599 16.6901V16.7101Z" fill="#F3F3F3"/>
<path id="Vector_7" d="M78.2355 8.13012C77.8997 8.3729 77.5002 8.5122 77.0862 8.53085C76.6723 8.54951 76.2619 8.44671 75.9055 8.23512C75.644 8.09516 75.4299 7.88081 75.2901 7.61916C75.1504 7.35751 75.0914 7.0603 75.1205 6.76512C75.1147 6.47723 75.2015 6.19508 75.368 5.96017C75.5345 5.72525 75.772 5.54997 76.0455 5.46012C76.5455 5.29012 77.0455 5.19012 77.5155 5.05012C77.7205 4.98512 77.9605 5.05012 78.0155 4.74512C78.0484 4.5808 78.0295 4.41033 77.9615 4.2572C77.8934 4.10407 77.7795 3.97582 77.6355 3.89012C77.3885 3.74816 77.0971 3.70432 76.8192 3.76731C76.5413 3.8303 76.2973 3.9955 76.1355 4.23012C76.058 4.36696 75.9389 4.47554 75.7955 4.54012C75.7156 4.55266 75.6338 4.54655 75.5566 4.52226C75.4795 4.49797 75.4089 4.45617 75.3505 4.40012C75.2854 4.26091 75.273 4.1028 75.3155 3.95512C75.4329 3.68066 75.6221 3.44292 75.8632 3.26693C76.1043 3.09095 76.3884 2.98323 76.6855 2.95512C77.1286 2.86342 77.59 2.94292 77.9768 3.17761C78.3636 3.41231 78.6472 3.78479 78.7705 4.22012C78.8283 4.43168 78.852 4.65111 78.8405 4.87012V7.26512C78.8321 7.31687 78.8343 7.3698 78.847 7.42067C78.8598 7.47154 78.8827 7.51927 78.9146 7.56094C78.9464 7.60261 78.9864 7.63733 79.0322 7.66298C79.0779 7.68864 79.1284 7.70468 79.1805 7.71012C79.236 7.71828 79.2889 7.73844 79.3358 7.76919C79.3826 7.79993 79.4221 7.84053 79.4516 7.88814C79.4812 7.93574 79.4999 7.98922 79.5067 8.04483C79.5134 8.10044 79.5079 8.15685 79.4905 8.21012C79.486 8.26722 79.4682 8.32245 79.4384 8.37136C79.4086 8.42028 79.3677 8.46149 79.319 8.49167C79.2703 8.52185 79.2152 8.54015 79.1582 8.54509C79.1011 8.55003 79.0437 8.54148 78.9905 8.52012C78.7805 8.40512 78.5405 8.27012 78.2355 8.13012ZM78.0955 5.77012C77.981 5.78687 77.8674 5.81024 77.7555 5.84012C77.3105 5.94012 76.9005 6.01012 76.4905 6.14512C76.3816 6.1883 76.2842 6.25642 76.2063 6.34401C76.1285 6.43161 76.0722 6.53624 76.042 6.64952C76.0119 6.76279 76.0087 6.88156 76.0328 6.99628C76.0568 7.111 76.1074 7.21849 76.1805 7.31012C76.3205 7.46302 76.5009 7.57325 76.7008 7.6281C76.9008 7.68295 77.1121 7.68018 77.3105 7.62012C77.5017 7.59443 77.6792 7.50662 77.8156 7.37021C77.952 7.23379 78.0399 7.05632 78.0655 6.86512C78.0655 6.52512 78.0655 6.18012 78.0955 5.77012Z" fill="#F3F3F3"/>
<path id="Vector_8" d="M86.6847 6.08007C86.6697 6.34152 86.6697 6.60362 86.6847 6.86507C86.7547 7.31007 87.0997 7.55007 87.6097 7.62007C87.8174 7.64784 88.0285 7.6097 88.2133 7.51101C88.3981 7.41233 88.5473 7.25809 88.6397 7.07007C88.7397 6.90007 88.8447 6.73007 89.0847 6.76507C89.1622 6.76848 89.2373 6.79254 89.3023 6.83474C89.3674 6.87694 89.4199 6.93576 89.4546 7.00511C89.4893 7.07446 89.5048 7.15181 89.4995 7.22916C89.4943 7.30651 89.4684 7.38106 89.4247 7.44507C89.3184 7.67824 89.162 7.88514 88.9667 8.05106C88.7714 8.21698 88.542 8.33784 88.2947 8.40507C88.0451 8.48395 87.7818 8.50957 87.5217 8.48027C87.2617 8.45097 87.0106 8.3674 86.7849 8.23497C86.5591 8.10254 86.3637 7.92419 86.2112 7.71147C86.0587 7.49875 85.9526 7.25639 85.8997 7.00007C85.8707 6.86375 85.8589 6.72432 85.8647 6.58507V4.64007C85.8993 4.1555 86.1196 3.70298 86.4797 3.3769C86.8398 3.05081 87.3119 2.87635 87.7975 2.88989C88.2831 2.90344 88.7447 3.10394 89.0861 3.44959C89.4275 3.79523 89.6222 4.25932 89.6297 4.74507V5.56507C89.6362 5.61749 89.6313 5.67071 89.6153 5.72105C89.5993 5.77139 89.5725 5.81765 89.5368 5.85664C89.5012 5.89562 89.4575 5.9264 89.4088 5.94685C89.3601 5.96729 89.3075 5.97692 89.2547 5.97507C88.9924 6.00418 88.7285 6.01587 88.4647 6.01007C87.8732 6.06775 87.2789 6.09112 86.6847 6.08007ZM88.6847 5.25507C88.7197 4.67507 88.7197 4.16007 88.1847 3.85507C88.0015 3.764 87.7978 3.7221 87.5936 3.7335C87.3894 3.74489 87.1916 3.80919 87.0197 3.92007C86.5197 4.26507 86.6097 4.78007 86.6447 5.25507H88.6847Z" fill="#F3F3F3"/>
<path id="Vector_9" d="M73.9542 17.0001C73.9366 17.2515 73.9366 17.5038 73.9542 17.7551C73.9857 17.9528 74.0793 18.1353 74.2212 18.2764C74.3632 18.4174 74.5463 18.5098 74.7442 18.5401C74.9349 18.5897 75.1358 18.5841 75.3235 18.5239C75.5111 18.4637 75.6778 18.3514 75.8042 18.2001C75.8622 18.1282 75.9078 18.0471 75.9392 17.9601C75.9595 17.9087 75.9904 17.862 76.0299 17.8233C76.0695 17.7846 76.1167 17.7545 76.1685 17.7352C76.2204 17.7159 76.2757 17.7077 76.331 17.7111C76.3862 17.7145 76.4401 17.7295 76.4892 17.7551C76.5454 17.7739 76.5967 17.8053 76.639 17.8469C76.6813 17.8884 76.7135 17.9391 76.7333 17.9951C76.7531 18.051 76.7598 18.1107 76.753 18.1696C76.7462 18.2285 76.7261 18.2851 76.6942 18.3351C76.5945 18.5709 76.4451 18.7823 76.2561 18.9549C76.0671 19.1276 75.843 19.2572 75.5992 19.3351C75.3479 19.4268 75.0798 19.4634 74.8131 19.4424C74.5465 19.4214 74.2874 19.3433 74.0536 19.2133C73.8198 19.0834 73.6167 18.9047 73.458 18.6893C73.2994 18.4739 73.1889 18.2269 73.1342 17.9651C73.1049 17.7833 73.0932 17.5991 73.0992 17.4151V15.5951C73.0976 15.1253 73.2787 14.6732 73.6044 14.3345C73.93 13.9958 74.3746 13.797 74.8442 13.7801C75.113 13.7555 75.3839 13.7904 75.6377 13.8822C75.8915 13.974 76.122 14.1205 76.3129 14.3114C76.5037 14.5022 76.6503 14.7328 76.7421 14.9866C76.8339 15.2404 76.8688 15.5113 76.8442 15.7801V16.5001C76.8442 16.8751 76.6742 17.0451 76.2992 17.0451H74.1742C74.1052 17.0136 74.03 16.9982 73.9542 17.0001ZM75.9992 16.1751C76.0342 15.6251 76.0692 15.1151 75.5542 14.7701C75.3824 14.6532 75.1794 14.5906 74.9717 14.5906C74.7639 14.5906 74.5609 14.6532 74.3892 14.7701C73.8892 15.1151 73.9442 15.6251 73.9792 16.1401C74.6392 16.1751 75.2892 16.1751 75.9992 16.1751Z" fill="#F3F3F3"/>
<path id="Vector_10" d="M47.5357 18.1251C47.4082 18.5661 47.1242 18.9453 46.737 19.1918C46.3498 19.4383 45.886 19.535 45.4325 19.4638C44.9791 19.3926 44.5672 19.1584 44.2741 18.8052C43.9811 18.4519 43.8269 18.0039 43.8407 17.5451V15.6251C43.8497 15.1558 44.0401 14.7083 44.372 14.3764C44.7039 14.0445 45.1514 13.8541 45.6207 13.8451C46.07 13.8095 46.5167 13.94 46.8761 14.2119C47.2355 14.4838 47.4827 14.8781 47.5707 15.3201C47.6057 15.8896 47.6057 16.4607 47.5707 17.0301C47.6276 17.3941 47.6157 17.7655 47.5357 18.1251ZM46.7507 16.6251V15.7301C46.7581 15.599 46.7389 15.4678 46.6941 15.3443C46.6494 15.2209 46.58 15.1078 46.4902 15.012C46.4005 14.9162 46.2922 14.8395 46.1719 14.7868C46.0517 14.734 45.922 14.7063 45.7907 14.7051C45.6516 14.6918 45.5113 14.7079 45.3788 14.7521C45.2463 14.7964 45.1245 14.868 45.0213 14.9622C44.9182 15.0564 44.8359 15.1712 44.7798 15.2991C44.7237 15.4271 44.6951 15.5654 44.6957 15.7051V17.7051C44.706 17.9633 44.8159 18.2075 45.0024 18.3865C45.1888 18.5655 45.4373 18.6653 45.6957 18.6651C45.8249 18.6761 45.955 18.6604 46.078 18.6192C46.201 18.578 46.3142 18.512 46.4107 18.4253C46.5072 18.3387 46.5849 18.2332 46.6391 18.1153C46.6933 17.9975 46.7227 17.8698 46.7257 17.7401C46.7807 17.3401 46.7507 16.9601 46.7507 16.6201V16.6251Z" fill="#F3F3F3"/>
<path id="Vector_11" d="M40.7952 13.8449C41.2621 13.8388 41.7183 13.9844 42.0952 14.2599C42.3702 14.4299 42.4352 14.6349 42.3002 14.8749C42.2707 14.9269 42.2299 14.9716 42.1808 15.0057C42.1318 15.0398 42.0757 15.0625 42.0167 15.0721C41.9577 15.0817 41.8973 15.0779 41.8399 15.0611C41.7826 15.0443 41.7297 15.0148 41.6852 14.9749C41.3012 14.7527 40.8565 14.6582 40.4152 14.7049C40.3318 14.7107 40.2502 14.7328 40.1752 14.7699C39.9052 14.8749 39.7002 15.0099 39.6752 15.3199C39.6676 15.4539 39.7084 15.5861 39.79 15.6925C39.8717 15.799 39.9889 15.8726 40.1202 15.8999C40.4252 16.0049 40.7702 16.0699 41.1202 16.1749L41.5302 16.2749C41.8511 16.3566 42.1359 16.5421 42.3403 16.8026C42.5447 17.063 42.6572 17.3838 42.6602 17.7149C42.6827 18.0393 42.6026 18.3626 42.4312 18.639C42.2598 18.9154 42.0059 19.1309 41.7052 19.2549C41.2515 19.4582 40.7468 19.5193 40.2577 19.43C39.7685 19.3408 39.3179 19.1054 38.9652 18.7549C38.856 18.6438 38.7633 18.5175 38.6902 18.3799C38.6281 18.2888 38.6043 18.1769 38.6239 18.0684C38.6436 17.9599 38.7051 17.8634 38.7952 17.7999C38.897 17.7421 39.0141 17.7173 39.1306 17.729C39.247 17.7406 39.357 17.7881 39.4452 17.8649C39.6463 18.0766 39.8636 18.2722 40.0952 18.4499C40.289 18.5748 40.5147 18.6412 40.7452 18.6412C40.9758 18.6412 41.2014 18.5748 41.3952 18.4499C41.5135 18.3936 41.6142 18.3062 41.6864 18.1969C41.7587 18.0877 41.7998 17.9608 41.8052 17.8299C41.8168 17.6879 41.7834 17.5459 41.7098 17.4239C41.6362 17.3018 41.5262 17.206 41.3952 17.1499C41.0675 17.0292 40.7338 16.9257 40.3952 16.8399C40.1136 16.7694 39.8378 16.6775 39.5702 16.5649C39.3709 16.4608 39.2004 16.309 39.0738 16.1231C38.9473 15.9372 38.8686 15.7228 38.8449 15.4992C38.8212 15.2756 38.853 15.0495 38.9377 14.8411C39.0224 14.6328 39.1572 14.4486 39.3302 14.3049C39.7652 14.0161 40.2732 13.8566 40.7952 13.8449Z" fill="#F3F3F3"/>
<path id="Vector_12" d="M60.9151 2.93005C61.4138 2.9235 61.9031 3.06628 62.3201 3.34005C62.5601 3.51005 62.6301 3.71505 62.5251 3.92005C62.4954 3.97133 62.4556 4.01594 62.4079 4.05109C62.3603 4.08624 62.3059 4.11117 62.2481 4.12431C62.1904 4.13745 62.1306 4.13853 62.0724 4.12747C62.0142 4.11641 61.9589 4.09346 61.9101 4.06005C61.5537 3.83294 61.1298 3.7358 60.7101 3.78505C60.5391 3.81226 60.3715 3.85751 60.2101 3.92005C60.1062 3.95034 60.015 4.0135 59.9501 4.10005C59.8851 4.1866 59.8501 4.29187 59.8501 4.40005C59.8501 4.50824 59.8851 4.6135 59.9501 4.70005C60.015 4.7866 60.1062 4.84976 60.2101 4.88005C60.5529 5.02496 60.9076 5.14038 61.2701 5.22505C61.515 5.28748 61.7555 5.36598 61.9901 5.46005C63.0851 5.87505 63.1151 7.41505 62.3651 8.06505C61.8544 8.44986 61.2131 8.61883 60.5791 8.53561C59.9451 8.45239 59.3691 8.12362 58.9751 7.62005C58.9401 7.58505 58.9101 7.51505 58.8751 7.48005C58.8193 7.38748 58.7987 7.27793 58.8171 7.17144C58.8355 7.06494 58.8915 6.96861 58.9751 6.90005C59.0687 6.83526 59.1826 6.80664 59.2957 6.81952C59.4088 6.83239 59.5134 6.88588 59.5901 6.97005C59.7872 7.19742 60.0183 7.39305 60.2751 7.55005C60.4757 7.67476 60.7091 7.73663 60.9452 7.72772C61.1813 7.71881 61.4093 7.63953 61.6001 7.50005C61.7121 7.44108 61.8059 7.35263 61.8713 7.24424C61.9367 7.13586 61.9713 7.01166 61.9713 6.88505C61.9713 6.75845 61.9367 6.63425 61.8713 6.52586C61.8059 6.41748 61.7121 6.32902 61.6001 6.27005C61.2336 6.08849 60.8429 5.96051 60.4401 5.89005C60.1837 5.82776 59.9315 5.74927 59.6851 5.65505C59.4842 5.54334 59.3141 5.38375 59.1898 5.19046C59.0655 4.99717 58.9909 4.77616 58.9726 4.54709C58.9543 4.31802 58.9929 4.08797 59.0849 3.8774C59.1769 3.66682 59.3195 3.48224 59.5001 3.34005C59.9198 3.06436 60.4129 2.92149 60.9151 2.93005Z" fill="#F3F3F3"/>
<path id="Vector_13" d="M55.75 8.54489C55.3607 8.56377 54.9737 8.47652 54.6302 8.29245C54.2868 8.10839 53.9998 7.83444 53.8 7.49989C53.625 7.22489 53.66 6.99989 53.865 6.84989C53.9748 6.77909 54.108 6.75409 54.236 6.78026C54.364 6.80643 54.4767 6.88167 54.55 6.98989C54.7306 7.25514 54.9898 7.45713 55.2911 7.56744C55.5924 7.67775 55.9208 7.69085 56.23 7.60489C56.3984 7.56966 56.5528 7.4861 56.6745 7.36444C56.7962 7.24278 56.8797 7.0883 56.915 6.91989C56.9258 6.74046 56.8731 6.56295 56.7661 6.41849C56.6592 6.27403 56.5047 6.17186 56.33 6.12989C55.92 5.99489 55.51 5.92489 55.1 5.78989C54.847 5.76461 54.6072 5.66456 54.4113 5.50249C54.2154 5.34042 54.0722 5.12367 54 4.87989C53.795 4.05989 54 3.44489 54.785 3.09989C55.1753 2.93016 55.6017 2.86003 56.0258 2.89582C56.45 2.9316 56.8586 3.07216 57.215 3.30489C57.49 3.47489 57.56 3.68489 57.42 3.91989C57.28 4.15489 57.08 4.19489 56.805 4.02489C56.5984 3.89371 56.3678 3.80494 56.1266 3.76373C55.8854 3.72253 55.6384 3.72972 55.4 3.78489C55.3176 3.81431 55.2374 3.8494 55.16 3.88989C55.0565 3.92468 54.9672 3.99239 54.9058 4.08267C54.8444 4.17296 54.8143 4.28086 54.82 4.38989C54.8143 4.49892 54.8444 4.60682 54.9058 4.69711C54.9672 4.78739 55.0565 4.8551 55.16 4.88989C55.47 5.02489 55.815 5.09489 56.12 5.19989C56.425 5.30489 56.565 5.33489 56.805 5.40489C57.0872 5.48889 57.3357 5.65973 57.5153 5.89312C57.6948 6.12651 57.7962 6.41057 57.805 6.70489C57.8488 7.00222 57.7998 7.30584 57.6647 7.5743C57.5296 7.84276 57.3149 8.06298 57.05 8.20489C56.6598 8.44426 56.2074 8.56258 55.75 8.54489Z" fill="#F3F3F3"/>
<path id="Vector_14" d="M50.2045 13.88H50.7495C50.856 13.8863 50.9563 13.9319 51.031 14.0079C51.1057 14.084 51.1495 14.1851 51.1538 14.2917C51.1582 14.3982 51.1228 14.5025 51.0546 14.5845C50.9863 14.6664 50.8901 14.72 50.7845 14.735H50.2045V18.945C50.2045 19.325 50.0345 19.495 49.7045 19.445C49.4995 19.445 49.3995 19.34 49.3645 19.135C49.3356 19.0122 49.3238 18.886 49.3295 18.76V14.805C49.118 14.7286 48.9125 14.6367 48.7145 14.53C48.6445 14.5 48.6445 14.325 48.6445 14.225C48.6445 13.95 48.7795 13.88 49.2945 13.845V13C49.2703 12.7402 49.3222 12.479 49.4438 12.2482C49.5654 12.0174 49.7516 11.8269 49.9795 11.7C50.2235 11.5708 50.49 11.4893 50.7645 11.46C50.8192 11.453 50.8747 11.4575 50.9275 11.4732C50.9804 11.489 51.0293 11.5156 51.0712 11.5514C51.1131 11.5872 51.1471 11.6314 51.1709 11.6811C51.1947 11.7308 51.2079 11.7849 51.2095 11.84C51.2188 11.8935 51.2174 11.9484 51.2052 12.0014C51.1931 12.0544 51.1706 12.1044 51.1389 12.1486C51.1073 12.1928 51.0672 12.2303 51.0209 12.2589C50.9747 12.2874 50.9232 12.3065 50.8695 12.315C50.3245 12.42 50.1845 12.59 50.1845 13.175C50.1757 13.4102 50.1824 13.6457 50.2045 13.88Z" fill="#F3F3F3"/>
<path id="Vector_15" d="M52.9995 14.7051H52.5545C52.3145 14.6701 52.1095 14.5001 52.1445 14.2601C52.1436 14.2028 52.1548 14.1459 52.1772 14.0931C52.1996 14.0403 52.2329 13.9929 52.2749 13.9538C52.3168 13.9146 52.3665 13.8848 52.4207 13.8661C52.4749 13.8473 52.5324 13.8402 52.5895 13.8451H52.7295C52.9345 13.8801 52.9995 13.7801 52.9695 13.6101V11.8601C52.9639 11.8032 52.9703 11.7458 52.9885 11.6916C53.0066 11.6374 53.036 11.5876 53.0747 11.5456C53.1134 11.5036 53.1606 11.4702 53.2131 11.4477C53.2657 11.4252 53.3224 11.4141 53.3795 11.4151C53.4968 11.4176 53.6085 11.4654 53.6914 11.5483C53.7743 11.6312 53.822 11.7429 53.8245 11.8601V13.8151H54.3695C54.7145 13.8151 54.8695 13.9851 54.8695 14.2601C54.8695 14.5351 54.6995 14.6701 54.3695 14.7051H53.7995V17.7501C53.7837 17.8513 53.7899 17.9547 53.8177 18.0533C53.8456 18.1518 53.8945 18.2432 53.961 18.3211C54.0275 18.399 54.11 18.4616 54.203 18.5045C54.296 18.5475 54.3971 18.5699 54.4995 18.5701C54.5536 18.5708 54.6069 18.5837 54.6553 18.6079C54.7037 18.632 54.7461 18.6667 54.7792 18.7095C54.8124 18.7523 54.8355 18.8019 54.8468 18.8548C54.8581 18.9077 54.8573 18.9625 54.8445 19.0151C54.8445 19.2551 54.7045 19.3901 54.4345 19.3901C54.0477 19.3905 53.6757 19.2414 53.3962 18.974C53.1167 18.7066 52.9513 18.3416 52.9345 17.9551V15.0001C52.9736 14.9064 52.9957 14.8065 52.9995 14.7051Z" fill="#F3F3F3"/>
<path id="Vector_16" d="M70.0002 14C70.2571 13.8533 70.5491 13.779 70.845 13.7852C71.1409 13.7913 71.4295 13.8777 71.6802 14.035C71.8495 14.1394 71.981 14.2954 72.0552 14.48C72.0791 14.5545 72.0853 14.6336 72.0731 14.7109C72.0609 14.7881 72.0308 14.8615 71.9852 14.925C71.9592 14.9654 71.9247 14.9996 71.8841 15.0253C71.8435 15.0509 71.7979 15.0674 71.7502 15.0736C71.7026 15.0798 71.6543 15.0755 71.6085 15.0611C71.5627 15.0466 71.5206 15.0224 71.4852 14.99C71.399 14.9451 71.3198 14.8878 71.2502 14.82C71.1304 14.7133 70.9805 14.6464 70.8211 14.6284C70.6616 14.6105 70.5006 14.6425 70.3602 14.72C70.2432 14.7803 70.1475 14.8748 70.0859 14.991C70.0242 15.1072 69.9995 15.2394 70.0152 15.37V18.87C70.0152 19.245 69.8802 19.37 69.5702 19.37C69.2602 19.37 69.1602 19.2 69.1602 18.87V14.37C69.1602 14.165 69.1602 13.925 69.4002 13.825C69.5042 13.7756 69.6228 13.7661 69.7335 13.7983C69.8441 13.8306 69.939 13.9024 70.0002 14Z" fill="#F3F3F3"/>
<path id="Vector_17" d="M52.3959 5.80494V8.09994C52.4046 8.17317 52.3942 8.24741 52.3655 8.31538C52.3369 8.38335 52.2911 8.4427 52.2326 8.48759C52.1741 8.53248 52.1049 8.56138 52.0318 8.57143C51.9587 8.58149 51.8843 8.57236 51.8159 8.54494C51.7382 8.52609 51.6691 8.48196 51.6193 8.4195C51.5695 8.35704 51.5419 8.2798 51.5409 8.19994V8.12994C51.5409 6.58994 51.5059 5.01994 51.5059 3.47494C51.5059 3.09994 51.7109 2.89494 52.0559 2.97494C52.4009 3.05494 52.3609 3.24994 52.3609 3.47494C52.3959 4.25994 52.3959 5.04994 52.3959 5.83494V5.80494Z" fill="#F3F3F3"/>
<path id="Vector_18" d="M51.539 1.18492C51.504 0.684924 51.709 0.499924 52.039 0.569924C52.106 0.591003 52.1677 0.625938 52.2203 0.672457C52.2728 0.718975 52.315 0.776035 52.344 0.839924C52.3946 1.00157 52.4065 1.17281 52.379 1.33992C52.3701 1.43993 52.322 1.53235 52.2452 1.59699C52.1684 1.66163 52.0691 1.69325 51.969 1.68492C51.917 1.68761 51.8649 1.67984 51.8159 1.66208C51.767 1.64431 51.722 1.6169 51.6838 1.58148C51.6456 1.54606 51.6149 1.50333 51.5934 1.45583C51.572 1.40833 51.5603 1.35702 51.559 1.30492C51.5422 1.26731 51.5353 1.22598 51.539 1.18492Z" fill="#F3F3F3"/>
<path id="Vector_19" d="M32.3741 3.065H24.1591C23.7841 3.065 23.6141 2.965 23.5091 2.62C23.4041 2.275 23.2691 2.04 23.1691 1.73C23.0667 1.4183 22.8762 1.14293 22.6207 0.937092C22.3651 0.731259 22.0555 0.603767 21.7291 0.57C21.678 0.561251 21.6308 0.536786 21.5941 0.5H13.7891C12.8291 0.705 12.3841 1.39 12.0091 2.28C11.5091 3.58 10.9141 4.845 10.3691 6.115V17.955C10.4521 18.2177 10.5662 18.4695 10.7091 18.705C10.8724 18.9523 11.0955 19.1544 11.3578 19.2925C11.62 19.4306 11.9128 19.5003 12.2091 19.495H32.4991C32.7342 19.4998 32.9678 19.457 33.1859 19.3692C33.404 19.2814 33.6022 19.1505 33.7684 18.9843C33.9347 18.818 34.0656 18.6199 34.1534 18.4018C34.2411 18.1837 34.2839 17.9501 34.2791 17.715V4.845C34.282 4.59969 34.2337 4.35648 34.1373 4.13089C34.0409 3.9053 33.8985 3.70228 33.7193 3.53479C33.54 3.3673 33.3278 3.23902 33.0962 3.15813C32.8646 3.07724 32.6187 3.04552 32.3741 3.065ZM26.2541 11.85L26.1041 11.915H26.0591H25.9191C25.8909 11.9174 25.8624 11.9174 25.8341 11.915H25.8041C25.1541 11.95 24.5041 11.915 23.8041 11.915H23.3041C23.3041 12.735 23.3041 13.525 23.3391 14.31C23.3628 14.4334 23.3588 14.5605 23.3275 14.6821C23.2961 14.8038 23.2382 14.917 23.1579 15.0135C23.0775 15.1101 22.9768 15.1877 22.8629 15.2407C22.749 15.2937 22.6248 15.3208 22.4991 15.32H22.4491C22.326 15.3265 22.2028 15.307 22.0876 15.2628C21.9725 15.2186 21.8679 15.1507 21.7807 15.0635C21.6935 14.9762 21.6255 14.8717 21.5813 14.7565C21.5372 14.6413 21.5177 14.5182 21.5241 14.395V12H19.0941C18.9852 12.0082 18.8758 11.994 18.7726 11.958C18.6695 11.9221 18.5748 11.8653 18.4946 11.7912C18.4144 11.717 18.3503 11.6272 18.3064 11.5272C18.2624 11.4272 18.2395 11.3192 18.2391 11.21C18.2161 11.0992 18.2156 10.9848 18.2378 10.8738C18.2601 10.7628 18.3045 10.6574 18.3685 10.564C18.4325 10.4706 18.5147 10.3911 18.6102 10.3302C18.7056 10.2694 18.8124 10.2285 18.9241 10.21C19.0248 10.1907 19.1267 10.179 19.2291 10.175C19.525 10.1482 19.8221 10.1365 20.1191 10.14H21.5241V7.72C21.5261 7.59786 21.5537 7.47749 21.605 7.36664C21.6563 7.25579 21.7303 7.15692 21.8221 7.07638C21.914 6.99584 22.0216 6.93542 22.1383 6.89902C22.2549 6.86261 22.3778 6.85102 22.4991 6.865C22.618 6.86306 22.736 6.88622 22.8453 6.93297C22.9546 6.97973 23.0528 7.04902 23.1335 7.13632C23.2142 7.22363 23.2755 7.32697 23.3136 7.43961C23.3516 7.55225 23.3654 7.67165 23.3541 7.79V10.15H25.6091C26.1941 10.15 26.4991 10.355 26.6391 10.765C26.7182 10.9617 26.7227 11.1805 26.6518 11.3803C26.5809 11.5801 26.4395 11.7471 26.2541 11.85Z" fill="#F3F3F3"/>
</g>
</svg>
