<svg width="100" height="20" viewBox="0 0 100 20" fill="none" xmlns="http://www.w3.org/2000/svg">
<g id="TREUHAND_SUISSE Logo 1">
<path id="Vector" d="M47.9151 13.845L42.6901 8.39H42.6501C42.6501 8.47 42.6501 8.55 42.6501 8.635C42.6501 10.135 42.6501 11.675 42.6501 13.195C42.6501 13.625 42.6501 13.585 42.2551 13.585H42.0001C41.9822 13.5867 41.9642 13.5842 41.9473 13.578C41.9304 13.5717 41.9152 13.5617 41.9027 13.5487C41.8902 13.5358 41.8808 13.5202 41.8752 13.5031C41.8695 13.486 41.8678 13.4678 41.8701 13.45C41.8701 13.39 41.8701 13.33 41.8701 13.275V6.5H41.9201C42.8101 7.395 43.6701 8.32 44.5451 9.23C45.4201 10.14 46.2951 11.06 47.2151 11.965C47.2151 11.89 47.2151 11.815 47.2151 11.74C47.2151 10.185 47.2151 8.625 47.2151 7.07C47.2151 6.97 47.2151 6.87 47.2151 6.76C47.4322 6.71458 47.6553 6.70613 47.8751 6.735C47.9151 6.735 47.9651 6.8 47.9851 6.85C47.9977 6.89895 48.0028 6.94953 48.0001 7V13.595C48.0001 13.67 48.0001 13.745 48.0001 13.82L47.9151 13.845Z" fill="#F3F3F3"/>
<path id="Vector_2" d="M60.1953 10.0001V0.695114C60.1953 0.285114 60.1953 0.305114 60.5903 0.310114C60.9203 0.310114 60.9253 0.310114 60.9253 0.630114V19.3751C60.9253 19.6901 60.9253 19.6901 60.6153 19.6901H60.4203C60.2153 19.6901 60.2003 19.6901 60.1953 19.4651V10.0001Z" fill="#F3F3F3"/>
<path id="Vector_3" d="M50.3105 13.56C50.3105 13.47 50.3105 13.39 50.3105 13.315V7.00001C50.308 6.96339 50.308 6.92663 50.3105 6.89001C50.3105 6.75501 50.3405 6.72001 50.4805 6.72001C51.2775 6.6775 52.0767 6.71771 52.8655 6.84001C53.5318 6.9866 54.1357 7.33764 54.5929 7.84411C55.0501 8.35058 55.3376 8.98718 55.4155 9.66501C55.5045 10.2693 55.4338 10.8865 55.2105 11.455C54.9975 12.0034 54.6393 12.4836 54.1742 12.8438C53.7091 13.2041 53.1547 13.4309 52.5705 13.5C51.8806 13.5851 51.1847 13.6101 50.4905 13.575C50.4302 13.5736 50.3701 13.5686 50.3105 13.56ZM51.0855 10.13C51.0855 10.965 51.0855 11.795 51.0855 12.63C51.0855 12.84 51.0855 12.86 51.3055 12.855C51.6505 12.855 52.0005 12.855 52.3455 12.81C52.9014 12.7657 53.4222 12.5204 53.8105 12.12C54.1808 11.7668 54.4426 11.3152 54.5648 10.8182C54.6871 10.3212 54.6647 9.7997 54.5005 9.31501C54.3876 8.88796 54.1618 8.49919 53.8469 8.1895C53.5319 7.87982 53.1394 7.66065 52.7105 7.55501C52.4706 7.49812 52.2264 7.46133 51.9805 7.44501C51.7455 7.44501 51.4805 7.44501 51.2655 7.44501C51.1005 7.44501 51.0855 7.44501 51.0805 7.64001C51.0805 7.69501 51.0805 7.75501 51.0805 7.81501L51.0855 10.13Z" fill="#F3F3F3"/>
<path id="Vector_4" d="M27.1309 10.1399V6.99993C27.1309 6.70993 27.1309 6.70493 27.4209 6.70493H27.7659C27.7861 6.70183 27.8067 6.70336 27.8262 6.70939C27.8458 6.71543 27.8637 6.72582 27.8786 6.73978C27.8935 6.75374 27.9051 6.77091 27.9124 6.79C27.9197 6.80908 27.9226 6.82957 27.9209 6.84993V7.04493C27.9209 7.73993 27.9209 8.43493 27.9209 9.12993V9.32993C27.9194 9.34957 27.9222 9.36929 27.9289 9.38779C27.9356 9.4063 27.9462 9.42318 27.9598 9.43734C27.9735 9.4515 27.99 9.46261 28.0083 9.46995C28.0266 9.47729 28.0462 9.48069 28.0659 9.47993H31.1809C31.3859 9.47993 31.4009 9.47993 31.4009 9.24993V6.99993C31.4009 6.71493 31.4009 6.70993 31.6909 6.70993H31.9509C32.1759 6.70993 32.1909 6.70993 32.1959 6.93993V13.2699C32.1959 13.5999 32.1959 13.5999 31.8559 13.5999H31.5509C31.531 13.6015 31.511 13.5987 31.4923 13.5917C31.4736 13.5846 31.4568 13.5735 31.4429 13.5592C31.429 13.5449 31.4185 13.5276 31.4121 13.5087C31.4057 13.4898 31.4036 13.4698 31.4059 13.4499C31.4059 13.3849 31.4059 13.3199 31.4059 13.2549V10.3849C31.4059 10.2449 31.3809 10.2299 31.2359 10.2199C31.1859 10.2199 31.1359 10.2199 31.0859 10.2199H28.0859C27.9759 10.2199 27.9309 10.2749 27.9309 10.3799V10.5749C27.9309 11.4549 27.9309 12.3299 27.9309 13.2049C27.9309 13.2649 27.9309 13.3199 27.9309 13.3799C27.9309 13.5699 27.9009 13.5949 27.7159 13.5999C27.5309 13.6049 27.4409 13.5999 27.3059 13.5999C27.1709 13.5999 27.1409 13.5499 27.1409 13.4399V10.1399H27.1309Z" fill="#F3F3F3"/>
<path id="Vector_5" d="M10.1456 10.5351C10.5156 11.0651 10.8706 11.5651 11.2256 12.0651C11.5806 12.5651 11.9356 13.0651 12.2956 13.5901H11.8656C11.2306 13.5901 11.4106 13.6751 11.0506 13.1601C10.4906 12.3601 9.94063 11.5501 9.38563 10.7451C9.37459 10.7356 9.36601 10.7236 9.36063 10.7101C9.30563 10.6451 9.27063 10.5451 9.16063 10.5801C9.05063 10.6151 9.09063 10.7151 9.09063 10.7901C9.09063 11.6151 9.09063 12.4401 9.09063 13.2651C9.09063 13.5901 9.09063 13.5901 8.77063 13.5901C8.67563 13.5901 8.58063 13.5901 8.48563 13.5901C8.39063 13.5901 8.30563 13.5601 8.30063 13.3951C8.29823 13.3518 8.29823 13.3084 8.30063 13.2651V7.0401C8.30063 6.6951 8.30063 6.6951 8.65563 6.6951C9.17035 6.6692 9.68636 6.69601 10.1956 6.7751C10.4576 6.82466 10.7127 6.90523 10.9556 7.0151C11.2084 7.13192 11.4237 7.31681 11.5773 7.54906C11.731 7.78131 11.817 8.05175 11.8256 8.3301C11.8556 8.56581 11.8556 8.80438 11.8256 9.0401C11.7655 9.40392 11.5936 9.74 11.3338 10.0016C11.0739 10.2633 10.739 10.4375 10.3756 10.5001L10.1456 10.5351ZM11.0456 8.6601V8.5001C11.0478 8.28741 10.9785 8.08017 10.8488 7.91155C10.7192 7.74294 10.5367 7.6227 10.3306 7.5701C9.98099 7.47299 9.61807 7.43247 9.25563 7.4501C9.23563 7.44681 9.21513 7.44824 9.19578 7.45429C9.17644 7.46033 9.15877 7.47082 9.14419 7.48491C9.12962 7.49899 9.11854 7.5163 9.11185 7.53543C9.10515 7.55456 9.10302 7.57499 9.10563 7.5951C9.10563 7.6251 9.10563 7.6551 9.10563 7.6851V9.6851C9.10563 9.8901 9.10563 9.91509 9.33063 9.90509C9.60532 9.89188 9.87907 9.8635 10.1506 9.82009C10.3064 9.78543 10.4552 9.72457 10.5906 9.6401C10.718 9.56838 10.826 9.4667 10.9053 9.34386C10.9846 9.22103 11.0328 9.08073 11.0456 8.9351C11.0406 8.8351 11.0406 8.7501 11.0456 8.6601Z" fill="#F3F3F3"/>
<path id="Vector_6" d="M37.0744 6.42993L40.1344 13.5549C40.0753 13.5735 40.0152 13.5885 39.9544 13.5999C39.7944 13.5999 39.6344 13.5999 39.4544 13.5999C39.3927 13.6069 39.3306 13.5916 39.2792 13.5567C39.2279 13.5219 39.1907 13.4698 39.1744 13.4099C38.9944 12.9649 38.8144 12.5249 38.6244 12.0849C38.3944 11.5499 38.5294 11.6499 37.9594 11.6449C37.2394 11.6449 36.5244 11.6449 35.8044 11.6449C35.7195 11.6337 35.6335 11.6539 35.5625 11.7018C35.4916 11.7498 35.4406 11.822 35.4194 11.9049C35.2244 12.4049 34.9994 12.9049 34.7994 13.4049C34.7826 13.4757 34.7399 13.5375 34.6797 13.5783C34.6196 13.619 34.5463 13.6357 34.4744 13.6249C34.2844 13.6249 34.0894 13.6249 33.8594 13.6249C33.8994 13.5099 33.9144 13.4299 33.9494 13.3549L35.8844 8.95993L36.8844 6.65493C36.9144 6.59493 36.9494 6.52993 36.9794 6.46493L37.0744 6.42993ZM37.0494 8.24493C36.6282 9.09637 36.256 9.97112 35.9344 10.8649C36.6666 10.9224 37.4022 10.9224 38.1344 10.8649L37.0494 8.24493Z" fill="#F3F3F3"/>
<path id="Vector_7" d="M24.845 9.20989C24.845 9.91989 24.845 10.6299 24.845 11.3399C24.8401 11.5485 24.815 11.7561 24.77 11.9599C24.6828 12.308 24.5127 12.6299 24.2741 12.8981C24.0355 13.1663 23.7357 13.3727 23.4 13.4999C22.8695 13.7281 22.2781 13.7729 21.7193 13.627C21.1605 13.4812 20.6664 13.1532 20.315 12.6949C20.0513 12.3167 19.9115 11.866 19.915 11.4049C19.915 10.9049 19.915 10.4349 19.915 9.94989V6.83989C19.9127 6.82139 19.9146 6.8026 19.9205 6.78491C19.9264 6.76722 19.9361 6.75107 19.9491 6.73764C19.962 6.72422 19.9778 6.71386 19.9953 6.70733C20.0127 6.7008 20.0314 6.69826 20.05 6.69989H20.55C20.5686 6.69984 20.587 6.70364 20.6041 6.71104C20.6212 6.71844 20.6365 6.72929 20.6492 6.7429C20.6619 6.75652 20.6716 6.7726 20.6778 6.79015C20.6839 6.80771 20.6864 6.82634 20.685 6.84489V7.05989C20.685 8.38489 20.685 9.70989 20.685 11.0599C20.685 11.2553 20.6951 11.4505 20.715 11.6449C20.7481 11.966 20.886 12.2673 21.1074 12.5023C21.3288 12.7372 21.6214 12.8928 21.94 12.9449C22.2349 13.0179 22.5437 13.0125 22.8358 12.9292C23.1279 12.8459 23.3931 12.6875 23.605 12.4699C23.8699 12.1878 24.0198 11.8168 24.025 11.4299C24.025 11.2549 24.025 11.0799 24.025 10.9299V7.03489C24.025 6.69489 24.025 6.69489 24.36 6.69489C24.86 6.69489 24.82 6.65989 24.82 7.14489C24.82 7.83489 24.82 8.51989 24.82 9.20989H24.845Z" fill="#F3F3F3"/>
<path id="Vector_8" d="M76.5598 9.20503C76.5598 9.89503 76.5598 10.58 76.5598 11.27C76.5572 11.4071 76.5472 11.544 76.5298 11.68C76.4933 12.0467 76.3621 12.3976 76.1491 12.6983C75.9361 12.9989 75.6486 13.239 75.3148 13.395C74.8216 13.6615 74.255 13.7598 73.7009 13.675C73.1469 13.5901 72.6356 13.3268 72.2448 12.925C71.9338 12.6158 71.7364 12.2105 71.6848 11.775C71.653 11.5682 71.6363 11.3593 71.6348 11.15C71.6348 9.76003 71.6348 8.37003 71.6348 6.98003V6.89003C71.6348 6.72503 71.6348 6.70003 71.8248 6.69503C72.0148 6.69003 72.1298 6.69503 72.2798 6.69503C72.2999 6.69242 72.3203 6.69455 72.3394 6.70125C72.3586 6.70794 72.3759 6.71902 72.39 6.73359C72.404 6.74817 72.4145 6.76583 72.4206 6.78518C72.4266 6.80453 72.4281 6.82502 72.4248 6.84503V7.04003C72.4248 8.37336 72.4248 9.70669 72.4248 11.04C72.4248 11.255 72.4248 11.475 72.4648 11.69C72.487 11.8816 72.5504 12.066 72.6505 12.2309C72.7506 12.3957 72.8851 12.5369 73.0448 12.645C73.3899 12.8919 73.8109 13.0096 74.234 12.9776C74.6572 12.9456 75.0556 12.7659 75.3598 12.47C75.6164 12.1804 75.7587 11.807 75.7598 11.42C75.7598 11.275 75.7598 11.13 75.7598 10.985V7.00003C75.7598 6.68503 75.7598 6.68503 76.0698 6.68503H76.3948C76.4168 6.6825 76.4392 6.68507 76.4601 6.69254C76.481 6.70002 76.4999 6.7122 76.5154 6.72814C76.5308 6.74408 76.5424 6.76337 76.5493 6.7845C76.5561 6.80563 76.558 6.82805 76.5548 6.85003C76.5548 6.91003 76.5548 6.96503 76.5548 7.02503V9.19503L76.5598 9.20503Z" fill="#F3F3F3"/>
<path id="Vector_9" d="M14.1602 10.1251V7.06007C14.1602 6.99507 14.1602 6.93007 14.1602 6.86507C14.1602 6.80007 14.1902 6.71007 14.3352 6.69507H17.5752C17.7152 6.69507 17.7352 6.73007 17.7452 6.87007C17.7552 7.01007 17.7452 7.13007 17.7452 7.26007C17.7452 7.39007 17.7152 7.43007 17.5602 7.43507C17.4052 7.44007 17.3002 7.43507 17.1702 7.43507H15.0802C15.0636 7.43436 15.047 7.43711 15.0315 7.44314C15.016 7.44917 15.0019 7.45836 14.9902 7.47011C14.9784 7.48186 14.9693 7.49592 14.9632 7.51141C14.9572 7.52689 14.9544 7.54346 14.9552 7.56007V7.64507C14.9552 8.17507 14.9552 8.70507 14.9552 9.23507C14.9552 9.43507 14.9552 9.45507 15.1802 9.45507H17.3352C17.6602 9.45507 17.6602 9.45507 17.6602 9.77507C17.6602 9.86507 17.6602 9.95007 17.6602 10.0351C17.6626 10.0534 17.6608 10.072 17.6549 10.0895C17.649 10.107 17.6392 10.1229 17.6261 10.136C17.613 10.1491 17.5971 10.1589 17.5796 10.1648C17.5621 10.1708 17.5435 10.1725 17.5252 10.1701H15.1052C15.0852 10.1668 15.0647 10.1682 15.0453 10.1743C15.026 10.1803 15.0083 10.1908 14.9937 10.2049C14.9791 10.219 14.9681 10.2363 14.9614 10.2554C14.9547 10.2745 14.9525 10.295 14.9552 10.3151V12.6601C14.9552 12.8201 14.9802 12.8351 15.1302 12.8451H17.5902C17.6852 12.8451 17.7402 12.8851 17.7402 12.9851C17.7402 13.0851 17.7402 13.2901 17.7402 13.4401C17.7402 13.5901 17.6802 13.5801 17.5852 13.5851H14.5002C14.4502 13.5851 14.4002 13.5851 14.3452 13.5851C14.2102 13.5851 14.1902 13.5501 14.1802 13.4101C14.1702 13.2701 14.1802 13.2801 14.1802 13.2151L14.1602 10.1251Z" fill="#F3F3F3"/>
<path id="Vector_10" d="M93.9292 6.72493C94.0099 6.70845 94.0919 6.69842 94.1742 6.69493H97.3742C97.3904 6.69425 97.4065 6.69686 97.4217 6.70259C97.4368 6.70831 97.4506 6.71705 97.4623 6.72826C97.474 6.73947 97.4833 6.75293 97.4896 6.76782C97.4959 6.78272 97.4992 6.79874 97.4992 6.81493V7.31493C97.5007 7.33304 97.4983 7.35127 97.492 7.36833C97.4858 7.3854 97.4759 7.4009 97.463 7.41375C97.4502 7.4266 97.4347 7.4365 97.4176 7.44275C97.4005 7.449 97.3823 7.45145 97.3642 7.44993H94.8642C94.848 7.44925 94.8319 7.45186 94.8167 7.45759C94.8016 7.46331 94.7878 7.47205 94.7761 7.48326C94.7644 7.49447 94.7551 7.50793 94.7488 7.52282C94.7424 7.53772 94.7392 7.55374 94.7392 7.56993C94.7367 7.61323 94.7367 7.65663 94.7392 7.69993C94.7392 8.19993 94.7392 8.69993 94.7392 9.19993C94.7392 9.43493 94.7392 9.44993 94.9842 9.44993H97.2242C97.4192 9.44993 97.4392 9.44993 97.4442 9.65993C97.4492 9.86993 97.4442 9.88993 97.4442 10.0049C97.4442 10.1199 97.3992 10.1699 97.2892 10.1699H94.8742C94.8559 10.1675 94.8372 10.1692 94.8197 10.1751C94.8022 10.1811 94.7863 10.1909 94.7733 10.204C94.7602 10.2171 94.7503 10.233 94.7444 10.2505C94.7385 10.268 94.7367 10.2866 94.7392 10.3049V12.5649C94.7392 12.6149 94.7392 12.6649 94.7392 12.7199C94.7392 12.7361 94.7424 12.7521 94.7488 12.767C94.7551 12.7819 94.7644 12.7954 94.7761 12.8066C94.7878 12.8178 94.8016 12.8265 94.8167 12.8323C94.8319 12.838 94.848 12.8406 94.8642 12.8399H97.3642C97.3854 12.834 97.408 12.8342 97.4291 12.8407C97.4502 12.8472 97.469 12.8596 97.4832 12.8765C97.4974 12.8934 97.5065 12.914 97.5093 12.9359C97.5122 12.9577 97.5087 12.98 97.4992 12.9999C97.4992 13.1649 97.4992 13.3349 97.4992 13.4999C97.5 13.5163 97.4972 13.5327 97.4912 13.5479C97.4851 13.5632 97.4758 13.577 97.464 13.5883C97.4521 13.5997 97.438 13.6084 97.4225 13.6139C97.407 13.6193 97.3905 13.6214 97.3742 13.6199H94.2192C94.1759 13.6224 94.1325 13.6224 94.0892 13.6199C93.9492 13.6199 93.9342 13.5849 93.9242 13.4449C93.9242 13.3899 93.9242 13.3299 93.9242 13.2699V7.03993C93.9142 6.93993 93.9242 6.83993 93.9292 6.72493Z" fill="#F3F3F3"/>
<path id="Vector_11" d="M85.6448 7.69008L85.0398 8.05508L84.8698 7.83008C84.6964 7.61049 84.4571 7.45222 84.1872 7.37844C83.9173 7.30466 83.6308 7.31925 83.3698 7.42008C83.1701 7.49835 82.9995 7.63646 82.8813 7.81549C82.7632 7.99451 82.7033 8.20568 82.7098 8.42008C82.7066 8.53744 82.7334 8.65368 82.7876 8.75779C82.8419 8.86191 82.9218 8.95047 83.0198 9.01508C83.2461 9.1677 83.4815 9.30629 83.7248 9.43008C83.9698 9.56008 84.2248 9.66008 84.4798 9.77508C84.8413 9.92577 85.1693 10.1467 85.4448 10.4251C85.7017 10.6972 85.854 11.0514 85.8748 11.4251C85.9102 11.9635 85.7441 12.4958 85.409 12.9187C85.0738 13.3415 84.5935 13.6247 84.0612 13.7132C83.529 13.8017 82.9828 13.6892 82.5289 13.3976C82.0749 13.1059 81.7456 12.656 81.6048 12.1351C81.6005 12.0685 81.6005 12.0017 81.6048 11.9351L82.3298 11.7301C82.3648 11.8351 82.3848 11.9151 82.4148 12.0001C82.4688 12.1852 82.5608 12.357 82.6849 12.5045C82.8091 12.652 82.9627 12.772 83.1359 12.8567C83.3091 12.9414 83.4981 12.989 83.6908 12.9965C83.8834 13.004 84.0755 12.9711 84.2548 12.9001C84.5475 12.7873 84.7915 12.5755 84.9441 12.3014C85.0966 12.0273 85.1482 11.7083 85.0898 11.4001C85.0358 11.1571 84.8977 10.941 84.6998 10.7901C84.4003 10.5897 84.0801 10.4221 83.7448 10.2901C83.4298 10.1401 83.1098 10.0001 82.8098 9.82508C82.4307 9.64248 82.1394 9.31705 81.9998 8.92008C81.8676 8.54742 81.8702 8.1402 82.0073 7.76929C82.1443 7.39837 82.407 7.08726 82.7498 6.89008C83.1266 6.66587 83.5643 6.56553 84.0011 6.60321C84.4379 6.64088 84.8519 6.81467 85.1848 7.10008C85.3807 7.25955 85.5379 7.46125 85.6448 7.69008Z" fill="#F3F3F3"/>
<path id="Vector_12" d="M66.0744 11.7199C66.1144 11.8499 66.1345 11.9399 66.1645 12.0249C66.2574 12.3066 66.4392 12.5506 66.6827 12.7201C66.9261 12.8896 67.218 12.9755 67.5145 12.9649C67.8159 12.9673 68.1093 12.8671 68.3464 12.6809C68.5835 12.4947 68.7503 12.2334 68.8195 11.9399C68.8885 11.7156 68.8829 11.475 68.8035 11.2541C68.7242 11.0333 68.5754 10.8441 68.3794 10.7149C68.1025 10.5456 67.8153 10.3936 67.5194 10.2599C67.2544 10.1249 66.9744 10.0149 66.7094 9.88493C66.5764 9.81094 66.4478 9.72913 66.3244 9.63993C66.108 9.47714 65.9347 9.2637 65.82 9.01835C65.7052 8.773 65.6524 8.50323 65.6663 8.23272C65.6801 7.96221 65.7601 7.69923 65.8993 7.46685C66.0384 7.23447 66.2325 7.03981 66.4644 6.89993C66.8475 6.66155 67.2967 6.55189 67.7465 6.58697C68.1962 6.62206 68.623 6.80004 68.9644 7.09493C69.1511 7.24981 69.2955 7.44931 69.3845 7.67493L68.7944 8.05993L68.6395 7.84493C68.4688 7.62167 68.2302 7.45995 67.9597 7.38419C67.6891 7.30842 67.4012 7.32272 67.1395 7.42493C66.9531 7.49682 66.7925 7.62288 66.6785 7.78685C66.5644 7.95082 66.502 8.1452 66.4995 8.34493C66.485 8.47232 66.5058 8.60125 66.5595 8.71763C66.6133 8.83402 66.698 8.9334 66.8045 9.00493C67.025 9.15692 67.2555 9.2939 67.4945 9.41493C67.8695 9.60493 68.2545 9.77493 68.6345 9.95493C68.6922 9.98343 68.7474 10.0169 68.7995 10.0549C69.0064 10.1764 69.187 10.3379 69.3308 10.53C69.4745 10.7221 69.5785 10.941 69.6367 11.1737C69.6949 11.4065 69.7061 11.6486 69.6697 11.8857C69.6332 12.1229 69.5499 12.3504 69.4245 12.5549C69.2476 12.9121 68.9726 13.2114 68.6316 13.4178C68.2907 13.6241 67.8979 13.729 67.4995 13.7199C67.019 13.7372 66.5466 13.5929 66.1577 13.3101C65.7689 13.0273 65.4861 12.6224 65.3545 12.1599C65.3366 12.0841 65.3232 12.0073 65.3145 11.9299L66.0744 11.7199Z" fill="#F3F3F3"/>
<path id="Vector_13" d="M91.6746 7.66489L91.0446 8.05489C90.9896 7.97989 90.9496 7.92989 90.9146 7.87489C90.7496 7.64419 90.5139 7.47352 90.2433 7.38871C89.9726 7.30391 89.6817 7.30959 89.4146 7.40489C89.2104 7.48054 89.0343 7.61695 88.91 7.79576C88.7858 7.97456 88.7193 8.18715 88.7196 8.40489C88.7178 8.49782 88.735 8.59013 88.7703 8.67613C88.8055 8.76213 88.858 8.83998 88.9246 8.90489C89.0758 9.04779 89.2437 9.17201 89.4246 9.27489C89.7146 9.43489 90.0296 9.54989 90.3296 9.69989C90.6231 9.84573 90.9055 10.0128 91.1746 10.1999C91.4474 10.3851 91.6579 10.6484 91.7783 10.9554C91.8988 11.2624 91.9236 11.5986 91.8496 11.9199C91.7637 12.3941 91.523 12.8265 91.1653 13.1494C90.8076 13.4724 90.353 13.6677 89.8725 13.7048C89.392 13.742 88.9127 13.6189 88.5096 13.3547C88.1065 13.0906 87.8023 12.7003 87.6446 12.2449C87.629 12.204 87.6156 12.1623 87.6046 12.1199C87.5746 11.9749 87.6046 11.9349 87.7246 11.8899C87.8446 11.8449 88.0996 11.7899 88.3046 11.7349L88.3896 11.9999C88.458 12.2327 88.5864 12.4435 88.7619 12.6111C88.9374 12.7787 89.1538 12.8973 89.3896 12.9549C89.6369 13.0228 89.8987 13.0163 90.1424 12.9363C90.386 12.8563 90.6007 12.7062 90.7596 12.5049C90.8839 12.3767 90.9774 12.2218 91.0329 12.052C91.0884 11.8823 91.1045 11.7021 91.0799 11.5252C91.0553 11.3483 90.9907 11.1793 90.891 11.0311C90.7913 10.8829 90.6592 10.7593 90.5046 10.6699C90.1696 10.4699 89.7996 10.3299 89.4546 10.1699C89.1668 10.0331 88.8864 9.88119 88.6146 9.71489C88.3845 9.55509 88.1988 9.33952 88.0749 9.08838C87.9509 8.83724 87.8926 8.55874 87.9056 8.27896C87.9186 7.99918 88.0024 7.72727 88.1491 7.4887C88.2959 7.25013 88.5007 7.0527 88.7446 6.91489C89.1796 6.65677 89.6935 6.56519 90.1909 6.65713C90.6883 6.74908 91.1355 7.01831 91.4496 7.41489C91.5496 7.45489 91.5996 7.54989 91.6746 7.66489Z" fill="#F3F3F3"/>
<path id="Vector_14" d="M4.155 10.5V7.62495C4.155 7.45995 4.13 7.43995 3.96 7.43995H2.85C2.8067 7.44246 2.7633 7.44246 2.72 7.43995C2.525 7.43995 2.505 7.43995 2.5 7.23495V6.86495C2.5 6.75995 2.55 6.69995 2.655 6.69995H6.31C6.635 6.69995 6.635 6.69995 6.635 7.02995C6.635 7.49495 6.635 7.43995 6.23 7.43995H5.185C4.96 7.43995 4.95 7.43995 4.95 7.66995V13.405C4.95 13.57 4.92 13.595 4.76 13.6C4.6 13.605 4.48 13.6 4.345 13.6C4.21 13.6 4.16 13.57 4.155 13.405C4.15 13.24 4.155 13.115 4.155 12.97V10.5Z" fill="#F3F3F3"/>
<path id="Vector_15" d="M78.8145 10.1351V7.00008C78.8145 6.71008 78.8145 6.70508 79.1045 6.70508H79.4545C79.5595 6.70508 79.6095 6.76008 79.6095 6.87008V13.2651C79.6095 13.6001 79.6094 13.6001 79.2794 13.6001C79.1844 13.6001 79.0895 13.6001 78.9945 13.6001C78.8995 13.6001 78.8245 13.5701 78.8195 13.4151C78.8195 13.3551 78.8195 13.3001 78.8195 13.2401L78.8145 10.1351Z" fill="#F3F3F3"/>
</g>
</svg>
