<svg width="28" height="28" viewBox="0 0 28 28" fill="none" xmlns="http://www.w3.org/2000/svg">
<g id="solar:money-bag-linear">
<g id="Group">
<path id="Vector" d="M18.5 7.25C18.5 5.12825 18.5 4.0685 17.8407 3.40925C17.1815 2.75 16.1218 2.75 14 2.75C11.8782 2.75 10.8185 2.75 10.1593 3.40925C9.5 4.0685 9.5 5.12825 9.5 7.25M2.75 16.25C2.75 12.0076 2.75 9.88587 4.0685 8.5685C5.38587 7.25 7.50763 7.25 11.75 7.25H16.25C20.4924 7.25 22.6141 7.25 23.9315 8.5685C25.25 9.88587 25.25 12.0076 25.25 16.25C25.25 20.4924 25.25 22.6141 23.9315 23.9315C22.6141 25.25 20.4924 25.25 16.25 25.25H11.75C7.50763 25.25 5.38587 25.25 4.0685 23.9315C2.75 22.6141 2.75 20.4924 2.75 16.25Z" stroke="white" stroke-width="1.5"/>
<path id="Vector_2" d="M14 19.9996C15.2431 19.9996 16.25 19.1604 16.25 18.1254C16.25 17.0904 15.2431 16.25 14 16.25C12.7569 16.25 11.75 15.4108 11.75 14.3746C11.75 13.3396 12.7569 12.5004 14 12.5004M14 19.9996C12.7569 19.9996 11.75 19.1604 11.75 18.1254M14 19.9996V20.75M14 12.5004V11.75M14 12.5004C15.2431 12.5004 16.25 13.3396 16.25 14.3746" stroke="white" stroke-width="1.5" stroke-linecap="round"/>
</g>
</g>
</svg>
