<svg width="28" height="28" viewBox="0 0 28 28" fill="none" xmlns="http://www.w3.org/2000/svg">
<g id="formkit:time">
<path id="Vector" d="M14 25.8125C7.48625 25.8125 2.1875 20.5138 2.1875 14C2.1875 7.48625 7.48625 2.1875 14 2.1875C20.5138 2.1875 25.8125 7.48625 25.8125 14C25.8125 20.5138 20.5138 25.8125 14 25.8125ZM14 3.875C8.41438 3.875 3.875 8.41438 3.875 14C3.875 19.5856 8.41438 24.125 14 24.125C19.5856 24.125 24.125 19.5856 24.125 14C24.125 8.41438 19.5856 3.875 14 3.875Z" fill="white"/>
<path id="Vector_2" d="M17.3751 18.2188C17.2232 18.2188 17.0713 18.185 16.9363 18.1006L12.7176 15.5694C12.5926 15.4943 12.4895 15.3878 12.4184 15.2605C12.3474 15.1332 12.3109 14.9895 12.3126 14.8438V8.09375C12.3126 7.62125 12.6838 7.25 13.1563 7.25C13.6288 7.25 14.0001 7.62125 14.0001 8.09375V14.3713L17.8138 16.6494C17.9709 16.7457 18.0923 16.8905 18.1596 17.062C18.227 17.2335 18.2366 17.4223 18.187 17.5997C18.1374 17.7772 18.0313 17.9336 17.8847 18.0453C17.7382 18.157 17.5593 18.2179 17.3751 18.2188Z" fill="white"/>
</g>
</svg>
