<svg width="408" height="408" viewBox="0 0 408 408" fill="none" xmlns="http://www.w3.org/2000/svg">
<path d="M233.013 95.2252C232.721 94.9161 232.334 94.7143 231.914 94.6525C231.494 94.5907 231.065 94.6724 230.697 94.8845C230.181 95.1558 230.157 95.7698 230.832 95.7005C231.415 95.6236 232.007 95.7405 232.517 96.033C233.123 96.3451 233.28 95.5108 233.013 95.2252ZM233.341 89.6702C231.893 88.6992 228.241 91.4165 229.369 92.2896C230.13 92.8792 230.512 91.4736 232.578 91.1696C234.045 90.984 233.659 89.8824 233.341 89.6702ZM243.319 91.4532C242.936 90.8448 242.425 90.327 241.822 89.936C241.219 89.5449 240.538 89.29 239.826 89.1888C238.274 89.0174 238.08 90.727 239.431 91.0472C240.428 91.3183 241.364 91.7773 242.189 92.3998C243.307 93.1994 243.625 91.9346 243.319 91.4532ZM244.135 98.6116C243.643 97.4814 242.978 97.3876 242.621 97.8996C242.053 99.2978 241.113 100.514 239.903 101.416C238.693 102.318 237.259 102.871 235.756 103.016C235.057 103.102 234.959 103.656 235.228 104.24C238.194 109.952 248.268 108.3 244.135 98.6687V98.6116ZM242.911 100.137C245.961 105.058 240.451 108.297 236.564 104.099C237.841 103.925 239.066 103.482 240.158 102.799C241.25 102.116 242.185 101.209 242.901 100.137H242.911ZM236.575 100.47C236.76 100.827 236.575 101.541 235.147 101.06C233.043 100.36 232.366 100.494 234.557 96.3859C235.528 94.5785 235.909 95.6352 235.885 95.8086C235.586 97.0894 235.131 98.3287 234.53 99.4989C235.11 99.7437 236.277 99.8682 236.57 100.446L236.575 100.47ZM239.269 94.9722C238.839 95.5128 239.096 96.1962 239.749 95.882C240.522 95.5395 241.364 95.3796 242.209 95.4149C243.292 95.4251 242.894 94.7764 242.252 94.4173C241.756 94.1914 241.203 94.1234 240.668 94.2227C240.133 94.322 239.641 94.5836 239.259 94.9722H239.269Z" fill="#191919"/>
<path d="M317.629 68.136C315.501 68.136 309.202 68.6154 308.218 70.6941C306.994 73.2523 311.207 79.9088 312.596 78.3339C313.371 77.4486 310.825 75.2454 310.136 72.6627C309.546 70.3249 314.54 70.6941 316.484 70.2025C318.945 69.6476 318.673 68.1115 317.592 68.087L317.629 68.136ZM320.224 75.8615C320.532 77.4057 318.592 77.9769 318.28 76.1063C318.182 75.5651 317.951 75.0569 317.608 74.6273C317.264 74.1978 316.819 73.8605 316.313 73.646C314.467 72.9341 315.34 71.6774 316.756 72.0467C317.621 72.3175 318.397 72.8145 319.006 73.4863C319.614 74.1581 320.032 74.9802 320.216 75.8676L320.224 75.8615ZM312.29 63.2135C312.572 62.7708 312.733 62.3281 312.29 61.9895C310.874 60.3575 308.353 64.6945 310.046 67.2669C310.151 67.3965 310.293 67.4898 310.454 67.5335C310.614 67.5772 310.784 67.569 310.94 67.5102C311.096 67.4514 311.229 67.3449 311.32 67.206C311.412 67.067 311.457 66.9027 311.45 66.7365C311.294 66.13 311.288 65.4945 311.433 64.8852C311.578 64.2759 311.869 63.7112 312.282 63.24L312.29 63.2135ZM313.655 66.3734C311.49 63.7214 316.558 59.4231 317.345 61.7977C317.58 62.475 317.098 62.8177 316.607 63.0217C314.467 64.1784 315.267 64.8801 314.861 66.1592C314.796 66.2569 314.711 66.3396 314.612 66.4016C314.513 66.4636 314.401 66.5035 314.285 66.5186C314.169 66.5337 314.051 66.5236 313.939 66.4891C313.827 66.4545 313.724 66.3963 313.637 66.3183L313.655 66.3734ZM322.413 61.5284C320.52 60.3044 316.939 63.7173 317.58 66.0797C317.642 66.249 317.756 66.3945 317.906 66.4955C318.056 66.5965 318.233 66.648 318.414 66.6426C318.594 66.6371 318.768 66.5752 318.911 66.4654C319.055 66.3556 319.16 66.2035 319.212 66.0307C320.436 62.9911 320.687 64.3987 322.46 63.0645C322.572 62.976 322.663 62.863 322.725 62.7342C322.788 62.6054 322.82 62.4641 322.82 62.321C322.82 62.1778 322.788 62.0365 322.725 61.9077C322.663 61.7789 322.572 61.666 322.46 61.5774L322.413 61.5284ZM328.429 66.9038C329.294 71.3306 326.768 76.8794 324.985 80.9268C324.577 81.8856 323.212 81.1736 323.398 80.2495C324.234 75.9941 328.602 69.3885 325.642 65.1311C324.418 63.3114 323.453 66.2388 323.331 67.2975C323.208 68.3563 321.731 68.2563 321.805 67.2975C322.27 60.9327 327.317 61.2408 328.42 66.8997L328.429 66.9038Z" fill="#191919"/>
<path d="M221.644 146.195C221.383 145.297 219.859 145.654 220.045 146.576C221.004 151.423 222.124 156.234 223.293 161.042C215.541 169.186 203.868 186.038 199.451 196.385C199.057 197.282 200.549 197.96 200.989 197.111C207.231 185.079 214.942 173.869 223.945 163.737C226.946 176.038 229.541 186.47 230.329 199.41C230.427 200.863 232.591 200.634 232.573 199.165C232.273 184.035 225.959 161.042 221.644 146.195ZM324.644 84.7907C320.181 83.4829 315.576 82.7185 310.929 82.5141C310.029 87.7548 301.235 114.228 297.555 115.727C294.554 116.951 276.08 118.787 255.327 123.683C252.243 128.365 247.545 131.749 242.128 133.192C237.379 134.126 231.967 132.294 229.9 127.804C214.056 134.275 195.677 155.407 184.926 190.665C184.643 191.587 183.154 190.922 183.388 190.024C189.6 166.862 206.259 136.711 228.374 126.217C230.074 125.401 230.835 125.454 231.094 126.144C232.143 128.172 233.882 129.759 235.998 130.619C238.114 131.479 240.467 131.556 242.634 130.836C247.983 129.348 250.235 126.47 252.928 123.592C253.47 122.826 254.21 122.222 255.068 121.843C260.729 120.415 284.519 115.091 296.888 114.193C301.992 104.511 305.841 94.2181 308.342 83.5626C308.942 81.3472 309.042 80.7066 311.835 80.6699C316.237 80.824 320.606 81.4971 324.85 82.6752C327.125 83.3892 326.621 84.6438 326.239 86.945C324.406 98.2435 321.72 109.387 318.206 120.281C315.486 128.339 314.207 130.799 308.575 134.071C299.558 139.176 290.039 143.34 280.17 146.497C282.63 160.715 286.814 192.933 284.648 205.728C284.607 206.007 284.456 206.258 284.23 206.426C284.004 206.594 283.721 206.665 283.442 206.624C283.164 206.583 282.913 206.434 282.744 206.208C282.576 205.982 282.504 205.699 282.544 205.42C285.117 188.198 279.321 165.046 278.324 147.037C276.529 147.541 274.733 147.996 272.926 148.39C272.004 148.594 271.522 147.086 272.422 146.803C284.639 143.272 296.416 138.37 307.53 132.19C312.451 129.373 313.557 127.072 316.078 119.691C319.883 108.31 322.748 96.636 324.644 84.7866V84.7907Z" fill="#191919"/>
<path d="M137.072 317.036C131.215 312.693 110.981 302.681 104.571 299.815C104.433 299.729 104.28 299.672 104.12 299.646C103.96 299.621 103.797 299.627 103.639 299.665C103.482 299.703 103.333 299.772 103.202 299.868C103.072 299.963 102.961 300.084 102.878 300.223C102.227 301.273 103.516 302.165 105.038 313.972C96.1828 307.906 86.9509 302.409 77.3981 297.514C76.425 297.022 75.5396 298.387 76.4984 298.966C86.3414 304.945 96.6373 311.269 106.182 317.734C106.362 317.835 106.564 317.89 106.77 317.892C106.976 317.894 107.179 317.845 107.36 317.748C107.542 317.651 107.696 317.509 107.809 317.337C107.921 317.164 107.989 316.966 108.004 316.761C107.56 312.245 106.87 307.757 105.938 303.315C116.546 308.042 126.001 314.08 136.075 318.717C136.29 318.829 136.54 318.854 136.773 318.789C137.007 318.724 137.207 318.573 137.333 318.366C137.46 318.159 137.503 317.912 137.455 317.674C137.406 317.437 137.269 317.226 137.072 317.085V317.036ZM359.912 202.776C358.867 202.248 358.006 203.429 358.28 204.375C359.629 208.522 360.729 212.746 361.576 217.023C348.969 209.557 336.484 201.819 323.677 194.734C322.792 194.241 321.929 195.693 322.765 196.246C335.768 204.857 349.693 212.915 363.09 220.85C363.906 221.33 364.887 220.408 364.763 219.626C363.992 215.224 362.966 210.87 361.688 206.587C366.523 208.898 392.676 221.913 396.611 223.268C397.427 223.549 398.284 222.405 397.447 221.852C397.456 221.283 361.876 203.753 359.912 202.776ZM179.006 104.271C173.372 100.244 159.816 92.4855 153.284 89.0664C153.072 88.9557 152.833 88.9094 152.595 88.9331C152.358 88.9567 152.132 89.0494 151.947 89.1997C151.761 89.35 151.623 89.5513 151.551 89.7788C151.478 90.0063 151.474 90.2501 151.538 90.4802C152.068 93.0771 152.511 96.029 152.917 98.6402C145.193 93.5455 137.215 88.8474 129.014 84.5642C128.767 84.4507 128.486 84.4358 128.228 84.5226C127.97 84.6093 127.755 84.7911 127.626 85.0309C127.498 85.2707 127.465 85.5506 127.536 85.8133C127.607 86.0761 127.775 86.302 128.006 86.445C136.944 91.3201 145.601 96.6923 153.937 102.537C154.123 102.632 154.331 102.678 154.54 102.671C154.749 102.663 154.952 102.602 155.131 102.494C155.31 102.385 155.458 102.232 155.561 102.05C155.664 101.868 155.719 101.663 155.72 101.453C155.353 98.6483 154.883 95.5128 154.367 92.7446C162.352 96.8898 170.002 101.859 177.876 105.858C178.823 106.325 179.971 104.96 179.006 104.271Z" fill="#191919"/>
<path d="M190.523 290.329C190.399 290.15 190.221 290.016 190.016 289.948C189.81 289.879 189.587 289.879 189.381 289.948C189.175 290.018 188.998 290.152 188.875 290.331C188.752 290.51 188.691 290.724 188.701 290.941C188.874 291.836 191.237 299.845 190.386 300.496C188.124 302.232 163.89 303.291 160.298 303.23C161.098 301.469 175.121 293.389 177.728 291.445C178.478 290.902 177.913 289.537 176.991 289.929C171 292.91 165.293 296.431 159.941 300.447C157.014 302.775 157.726 305.368 159.264 305.443C169.288 305.721 179.312 304.896 189.156 302.983C193.758 302.11 193.13 300.633 192.195 295.884C191.885 293.967 191.323 292.099 190.523 290.329ZM260.136 312.338C259.245 311.182 258.239 310.118 257.135 309.164C256.979 309.021 256.777 308.939 256.566 308.932C256.354 308.925 256.148 308.994 255.983 309.127C255.818 309.259 255.706 309.446 255.667 309.654C255.628 309.862 255.664 310.077 255.77 310.26C257.269 312.912 259.879 314.415 259.46 315.498C259.187 316.163 237.316 341.996 236.553 340.101C237.279 333.593 240.837 326.004 242.853 319.621C242.934 319.419 242.931 319.193 242.846 318.992C242.76 318.792 242.598 318.633 242.396 318.552C242.193 318.471 241.967 318.474 241.767 318.559C241.566 318.645 241.408 318.807 241.327 319.009C238.25 325.7 235.935 332.715 234.425 339.923C234.032 341.829 236 342.53 237.561 341.988C241.155 340.764 257.159 321.716 260.16 318.087C262.288 315.427 262.276 314.811 260.136 312.338Z" fill="#191919"/>
<path d="M184.111 195.84C169.558 192.152 167.344 176.515 164.786 164.275C160.394 143.131 145.533 125.083 126.381 115.315C104.939 104.391 76.4113 102.706 54.1651 112.153C11.2639 130.356 -3.31392 188.819 24.2424 227.681C43.9243 255.555 79.9344 268.101 112.307 257.424C126.406 252.775 142.04 241.544 158.474 254.633C159.698 255.567 160.514 254.041 159.348 253.117C142.515 239.702 128.017 249.759 111.446 255.284C96.1377 260.241 79.6435 260.162 64.3829 255.059C49.1224 249.956 35.8988 240.097 26.6516 226.928C2.03904 192.533 10.3765 140.352 47.4413 118.22C67.6046 106.184 95.6873 105.723 117.34 113.904C137.944 121.678 155.3 138.516 161.255 159.936C164.762 172.607 166.63 197.431 184.013 197.405C184.96 197.405 184.935 196.044 184.111 195.84Z" fill="#00F8F7"/>
<path d="M178.282 198.733C172.646 201.177 167.784 205.115 164.221 210.12C148.676 199.414 120.887 179.248 111.334 163.404C127.386 146.921 107.254 136.576 105.244 146.182C104.34 152.02 105.553 157.989 108.663 163.012C104.764 167.198 99.7319 170.16 94.1793 171.535C91.5946 166.774 85.0136 161.301 80.3889 162.272C73.0082 163.846 80.1849 175.14 92.8329 173.959C97.2495 183.688 93.3001 198.745 80.9254 199.62C80.2257 194.773 75.4031 191.697 71.9494 193.359C68.4957 195.022 70.7254 201.146 78.7773 201.662C78.1796 205.963 76.3896 210.011 73.61 213.347C68.4325 213.078 57.1635 212.486 54.638 218.59C51.9431 225.083 65.2786 226.448 74.4668 215.82C101.674 217.199 128.469 223.045 153.778 233.125C152.952 237.152 152.909 241.301 153.651 245.344C154.143 247.766 155.51 247.336 155.375 245.701C155.047 241.778 155.235 237.829 155.932 233.955C158.853 235.089 161.833 236.282 164.871 237.533C165.745 237.89 166.334 236.45 165.498 236.02C162.557 234.524 159.52 233.101 156.387 231.752C157.961 225.169 160.872 218.98 164.939 213.569C168.15 215.797 171.151 217.841 173.827 219.645C175.051 220.495 176.287 218.421 175.051 217.58C175.006 217.407 171.636 215.203 166.426 211.644C170.084 207.109 174.465 203.209 179.392 200.099C180.508 199.422 179.608 198.237 178.282 198.733ZM81.7027 168.571C74.9319 162.737 86.0091 162.655 91.6987 171.819C88.0706 172.081 84.4837 170.916 81.7027 168.571ZM72.5023 195.485C73.4019 194.147 77.8267 195.281 78.6529 199.62C74.9625 199.308 71.5067 196.964 72.5023 195.485ZM57.8143 218.219C60.9416 215.379 67.4206 215.487 71.5292 215.66C66.1415 222.119 52.5205 223.025 57.8143 218.219ZM107.203 147.214C108.296 140.178 122.741 148.041 110.23 161.411C107.724 157.126 106.662 152.149 107.203 147.214ZM154.276 230.854C129.363 220.967 103.034 215.113 76.2783 213.514C78.8626 210.048 80.4918 205.964 81.0029 201.67C95.0993 200.76 99.4282 184.126 95.0993 173.61C100.665 172.096 105.725 169.12 109.753 164.991C119 179.946 143.923 198.855 162.793 212.066C158.827 217.753 155.94 224.12 154.276 230.85V230.854Z" fill="#00F8F7"/>
<path d="M391.798 332.253C378.032 323.938 376.802 318.612 367.575 307.134C356.967 293.934 341.742 280.933 323.66 281.745C323.563 281.729 323.464 281.733 323.369 281.758C323.274 281.784 323.185 281.828 323.108 281.89C323.032 281.951 322.969 282.028 322.924 282.116C322.879 282.203 322.853 282.299 322.848 282.397C322.843 282.495 322.858 282.593 322.893 282.685C322.928 282.777 322.982 282.86 323.052 282.93C323.121 282.999 323.205 283.053 323.296 283.089C323.388 283.124 323.486 283.139 323.584 283.134C341.557 283.746 354.868 295.117 365.57 308.414C373.322 318.046 379.034 327.59 391.402 333.446C392.485 333.963 392.904 332.906 391.847 332.222L391.798 332.253ZM355.251 317.157C345.494 303.501 338.028 298.705 322.391 293.154C322.232 293.078 322.106 292.946 322.037 292.783C321.968 292.621 321.962 292.439 322.018 292.271C322.074 292.104 322.189 291.963 322.342 291.874C322.495 291.786 322.675 291.757 322.848 291.792C335.308 294.054 351.324 306.157 357.624 317.059C358.668 318.877 357.783 319.246 356.306 319.272C342.05 319.476 327.35 314.438 317.901 303.895C317.289 303.22 318.087 302.332 318.752 302.946C323.577 307.634 329.294 311.307 335.563 313.748C341.832 316.19 348.526 317.35 355.251 317.161V317.157ZM389.005 339.705C390.311 340.401 389.778 341.564 388.475 340.929C372.669 333.381 363.454 336.992 349.788 334.84C334.296 332.347 320.205 324.403 310.053 312.438C309.29 311.539 310.165 310.445 310.977 311.331C322.073 323.441 337.18 331.123 353.503 332.955C366.961 334.356 375.972 332.767 389.005 339.709V339.705Z" fill="#00F8F7"/>
<path d="M160.371 256.224C170.102 252.338 188.441 213.033 187.04 196.248C204.951 198.574 226.296 207.788 235.359 213.335C223.55 222.515 206.02 242.933 205.529 246.548C204.305 255.492 219.984 284.084 226.171 293.74C213.452 289.9 177.874 273.76 160.371 256.279V256.224ZM293.828 343.085C291.332 340.233 289.178 337.1 287.408 333.748C275.76 314.521 265.264 295.712 254.193 276.22C256.259 274.623 285.452 287.501 287.151 288.829C287.359 288.829 291.641 321.457 293.828 343.091V343.085ZM267.665 305C273.299 314.913 279.128 324.695 285.021 334.474C287.641 338.803 290.121 344.315 294.776 346.776C294.966 346.866 295.175 346.905 295.385 346.891C295.594 346.877 295.796 346.809 295.972 346.694C296.147 346.579 296.29 346.421 296.387 346.235C296.484 346.049 296.531 345.841 296.525 345.631C294.813 329.64 292.967 313.709 290.841 297.791C296.867 290.41 304.593 274.886 304.593 264.664C303.83 263.507 302.822 262.13 301.592 260.604C310.013 248.916 318.046 236.971 325.691 224.769C326.982 222.678 330.266 218.963 327.806 216.609C325.727 214.592 322.184 216.45 320.017 217.274C305.078 222.914 290.59 229.687 276.682 237.534C274.921 236.379 273.138 235.31 271.378 234.374C268.463 236.12 245.853 252.087 238.399 254.413C240.378 264.537 252.557 293.605 255.868 302.216C259.718 303.462 263.664 304.395 267.665 305.007V305ZM278.514 238.768C290.55 232.648 311.735 222.14 324.669 218.103C328.518 217.474 324.669 222.064 323.445 224.082C315.99 235.914 308.277 247.393 300.072 258.745C293.717 251.244 286.479 244.538 278.514 238.774V238.768Z" fill="#00F8F7"/>
<path d="M176.459 288.018C179.548 288.018 190.152 288.485 191.221 288.485C191.394 285.749 191.394 283.004 191.221 280.268C185.464 277.537 179.928 274.362 174.664 270.771C175.772 279.05 176.423 286.973 176.423 287.995L176.459 288.018ZM283.924 208.994C264.652 200.203 242.852 198.673 222.541 204.688C227.589 206.796 232.41 209.409 236.933 212.487C239.332 210.924 241.707 209.314 244.142 207.813C244.732 207.444 245.47 208.476 244.856 208.833C235.126 214.48 210.08 237.828 207.951 247.522C206.464 254.447 232.555 302.877 240.821 315.178C245.25 314.024 251.535 309.238 255.152 306.79C254.426 304.427 236.356 257.695 235.727 252.958C265.091 237.595 287.419 223.264 283.924 208.994Z" fill="#191919"/>
<path d="M248.867 94.8354C247.132 92.6089 246.18 89.8716 246.16 87.0487C228.208 88.0463 218.704 83.2482 219.577 72.3607C219.834 69.1131 220.99 66.8997 223.538 70.8471C225.458 73.8945 228.375 76.1815 231.792 77.3179C227.043 71.304 229.332 64.7209 232.69 69.8026C234.573 72.6586 245.275 80.0026 252.619 79.0662C259.52 78.1911 257.311 89.0051 256.038 92.4853C258.571 95.5004 256.242 100.9 253.086 103.177C253.306 105.046 252.678 120.274 251.707 122.353C251.425 122.965 250.33 122.965 250.415 122.265C251.99 108.66 250.983 102.092 251.831 101.457C256.752 97.8546 255.952 89.4213 249.912 95.0129C249.555 95.3556 249.112 95.1353 248.828 94.8273L248.867 94.8354ZM243.428 112.771C237.659 114.654 228.877 116.623 228.212 109.291C227.726 102.216 227.93 95.1101 228.824 88.0749C228.895 87.2997 227.6 86.9304 227.433 87.7423C225.772 95.628 225.44 103.736 226.449 111.731C227.265 116.441 231.59 116.725 235.995 116.539C235.519 119.821 234.807 123.065 233.865 126.245C233.596 127.192 234.962 127.783 235.317 126.825C236.549 123.424 237.475 119.92 238.086 116.355C240.223 116.103 242.284 115.408 244.138 114.315C244.24 114.268 244.332 114.202 244.408 114.12C244.484 114.037 244.543 113.941 244.582 113.836C244.621 113.731 244.638 113.619 244.634 113.507C244.63 113.395 244.603 113.285 244.557 113.183C244.51 113.081 244.443 112.99 244.361 112.914C244.279 112.838 244.182 112.778 244.077 112.74C243.972 112.701 243.86 112.683 243.748 112.687C243.636 112.692 243.526 112.718 243.424 112.765L243.428 112.771Z" fill="#191919"/>
<path d="M319.39 280.735C319.133 278.189 311.468 271.759 306.805 267.45C305.931 279.122 301.052 290.134 292.992 298.621C293.31 300.984 293.582 304.107 293.988 308.956C295.697 309.052 302.021 309.325 304.596 309.325C310.844 309.325 320.33 289.945 319.357 280.735H319.39ZM305.575 305.67C302.357 305.114 299.178 304.358 296.054 303.407C295.873 303.34 295.724 303.206 295.636 303.034C295.547 302.862 295.527 302.663 295.578 302.476C295.629 302.29 295.748 302.129 295.912 302.026C296.075 301.922 296.272 301.884 296.462 301.918C299.681 302.458 302.861 303.208 305.983 304.162C306.131 304.255 306.246 304.393 306.31 304.556C306.374 304.719 306.384 304.898 306.338 305.067C306.292 305.236 306.193 305.386 306.056 305.494C305.919 305.603 305.75 305.664 305.575 305.67ZM309.979 298.56C308.935 299.066 302.168 295.521 301.515 295.127C301.336 295.042 301.196 294.89 301.126 294.704C301.057 294.518 301.062 294.312 301.142 294.129C301.221 293.947 301.369 293.803 301.553 293.728C301.737 293.652 301.943 293.651 302.127 293.725C303.351 294.205 310.036 296.702 310.393 297.65C310.455 297.826 310.446 298.019 310.369 298.188C310.291 298.358 310.152 298.491 309.979 298.56ZM306.044 284.843C305.453 284.305 306.399 283.211 307.027 283.619C308.251 284.492 314.643 288.825 314.575 290.188C314.557 290.31 314.506 290.425 314.429 290.52C314.351 290.616 314.248 290.688 314.133 290.731C314.137 290.965 312.539 290.865 306.044 284.843ZM316.007 283.762C313.307 281.612 311.087 278.988 308.566 276.577C308.452 276.43 308.396 276.248 308.408 276.063C308.42 275.878 308.499 275.703 308.63 275.572C308.761 275.441 308.935 275.362 309.12 275.35C309.305 275.338 309.488 275.393 309.635 275.506C310.275 276.037 316.697 281.781 316.881 282.887C316.954 283.417 316.515 284.172 316.007 283.764V283.762Z" fill="#191919"/>
</svg>
