<svg width="28" height="28" viewBox="0 0 28 28" fill="none" xmlns="http://www.w3.org/2000/svg">
<g id="ph:handshake-light" clip-path="url(#clip0_50_1968)">
<path id="Vector" d="M26.9885 13.5976C26.928 13.7816 26.8315 13.9517 26.7048 14.0982C26.5781 14.2446 26.4236 14.3645 26.2502 14.4508L23.719 15.7165L17.8855 21.5499C17.7668 21.6683 17.6059 21.7346 17.4383 21.7345C17.3864 21.7344 17.3347 21.7281 17.2843 21.7155L10.5343 20.028C10.4585 20.0083 10.387 19.9747 10.3234 19.9289L4.45512 15.7397L1.87852 14.4508C1.52835 14.2757 1.26209 13.9686 1.13827 13.5972C1.01446 13.2258 1.04324 12.8204 1.21828 12.4701L3.83918 7.2294C4.01433 6.87923 4.32139 6.61297 4.69282 6.48916C5.06426 6.36534 5.46966 6.39412 5.81988 6.56916L8.22035 7.7694L13.8893 6.1494C14.003 6.11687 14.1236 6.11687 14.2373 6.1494L19.9063 7.7694L22.3068 6.56916C22.657 6.39412 23.0624 6.36534 23.4338 6.48916C23.8053 6.61297 24.1123 6.87923 24.2875 7.2294L26.9084 12.4701C26.9955 12.6435 27.0474 12.8323 27.0612 13.0259C27.075 13.2194 27.0503 13.4137 26.9885 13.5976ZM2.44488 13.3192L4.49941 14.3517L7.31332 8.72811L5.25352 7.70084C5.20344 7.67598 5.14554 7.67201 5.09254 7.6898C5.03954 7.7076 4.99578 7.74571 4.97086 7.79577L2.34996 13.0365C2.32544 13.0865 2.32165 13.1441 2.33941 13.1968C2.34766 13.2234 2.36128 13.2479 2.37942 13.269C2.39757 13.29 2.41985 13.3071 2.44488 13.3192ZM20.7079 16.9346L17.4668 14.339C15.4629 16.0666 12.8705 16.3219 10.7379 14.9592C10.5513 14.8406 10.3938 14.6815 10.2769 14.4938C10.16 14.3061 10.0867 14.0946 10.0625 13.8748C10.0383 13.655 10.0638 13.4326 10.1371 13.224C10.2103 13.0154 10.3295 12.8259 10.4858 12.6695L15.3079 7.99088C15.378 7.92324 15.4628 7.87271 15.5557 7.84323L14.0633 7.41608L8.59899 8.9728L5.58996 14.9951L10.9583 18.8289L17.2443 20.4003L20.7079 16.9346ZM22.5725 15.0699L19.5783 9.07827H16.0071L11.376 13.5712C11.3554 13.5928 11.3399 13.6186 11.3306 13.6469C11.3213 13.6752 11.3185 13.7052 11.3222 13.7347C11.3255 13.7669 11.3361 13.7979 11.3533 13.8254C11.3705 13.8528 11.3938 13.8759 11.4213 13.8929C12.823 14.7883 15.022 15.0394 16.989 13.0576C17.0991 12.9471 17.2461 12.8811 17.4018 12.8724C17.5575 12.8636 17.711 12.9127 17.8328 13.0101L21.6107 16.0392L22.5725 15.0699ZM25.7746 13.0365L23.1558 7.79577C23.1309 7.74571 23.0871 7.7076 23.0341 7.6898C22.9811 7.67201 22.9232 7.67598 22.8731 7.70084L20.8186 8.72811L23.6272 14.3517L25.6818 13.3244C25.7068 13.3124 25.7291 13.2953 25.7472 13.2742C25.7654 13.2532 25.779 13.2286 25.7872 13.2021C25.7968 13.1752 25.8007 13.1467 25.7989 13.1182C25.7971 13.0898 25.7895 13.062 25.7767 13.0365H25.7746Z" fill="white"/>
</g>
<defs>
<clipPath id="clip0_50_1968">
<rect width="27" height="27" fill="white" transform="translate(0.5 0.5)"/>
</clipPath>
</defs>
</svg>
