<svg width="28" height="28" viewBox="0 0 28 28" fill="none" xmlns="http://www.w3.org/2000/svg">
<g id="carbon:security">
<path id="Vector" d="M12.3125 14.4978L10.1272 12.3125L8.9375 13.5022L12.3125 16.8772L19.0625 10.1272L17.8728 8.9375L12.3125 14.4978Z" fill="white"/>
<path id="Vector_2" d="M14 25.8125L8.78901 23.034C7.30344 22.2437 6.06113 21.0638 5.19541 19.6208C4.32968 18.1779 3.87322 16.5265 3.87501 14.8438V3.875C3.87545 3.42758 4.05339 2.99862 4.36976 2.68225C4.68613 2.36588 5.11509 2.18795 5.56251 2.1875H22.4375C22.8849 2.18795 23.3139 2.36588 23.6303 2.68225C23.9466 2.99862 24.1246 3.42758 24.125 3.875V14.8438C24.1268 16.5265 23.6703 18.1779 22.8046 19.6208C21.9389 21.0638 20.6966 22.2437 19.211 23.034L14 25.8125ZM5.56251 3.875V14.8438C5.5611 16.2206 5.93469 17.5718 6.64315 18.7524C7.35161 19.933 8.36821 20.8983 9.58382 21.5448L14 23.8997L18.4162 21.5457C19.6319 20.8991 20.6486 19.9336 21.3571 18.7529C22.0655 17.5721 22.4391 16.2207 22.4375 14.8438V3.875H5.56251Z" fill="white"/>
</g>
</svg>
