<svg width="10" height="12" viewBox="0 0 10 12" fill="none" xmlns="http://www.w3.org/2000/svg">
<g id="Group 179">
<path id="Vector" d="M1.00001 2.41058V5.79444C1.00002 6.86402 1.32414 7.90848 1.92965 8.79016C2.53515 9.67184 3.39361 10.3493 4.39188 10.7334L4.85452 10.9111C5.16262 11.0296 5.50372 11.0296 5.81182 10.9111L6.27447 10.7334C7.27273 10.3493 8.13119 9.67184 8.73669 8.79016C9.3422 7.90848 9.66632 6.86402 9.66633 5.79444V2.41058C9.66718 2.28324 9.63122 2.15837 9.56279 2.05099C9.49435 1.9436 9.39635 1.85828 9.28057 1.80527C8.0361 1.26209 6.69096 0.98782 5.33317 1.00041C3.97538 0.98782 2.63024 1.26209 1.38578 1.80527C1.26999 1.85828 1.17199 1.9436 1.10355 2.05099C1.03512 2.15837 0.999163 2.28324 1.00001 2.41058Z" fill="#D9D9D9" stroke="#7B7B7B" stroke-width="0.5" stroke-linecap="round" stroke-linejoin="round"/>
<path id="Vector_2" d="M3 2.99951H7.66648V7.66599H3V2.99951Z" stroke="#7B7B7B" stroke-width="0.5" stroke-linecap="round" stroke-linejoin="round"/>
<path id="Vector_3" d="M4.33301 5.33398H6.33293" stroke="#7B7B7B" stroke-width="0.5" stroke-linecap="round" stroke-linejoin="round"/>
<path id="Vector_4" d="M5.33301 4.33447V6.33439" stroke="#7B7B7B" stroke-width="0.5" stroke-linecap="round" stroke-linejoin="round"/>
</g>
</svg>
