<svg width="30" height="30" viewBox="0 0 30 30" fill="none" xmlns="http://www.w3.org/2000/svg">
<g id="Group 555">
<path id="Vector" d="M4.17556 29.9218C3.60029 29.9056 3.03415 29.774 2.51074 29.5348C1.98734 29.2955 1.51735 28.9535 1.12869 28.5291C0.74003 28.1047 0.440626 27.6065 0.248261 27.0641C0.0558965 26.5217 -0.0255057 25.9462 0.00888889 25.3718C-0.0111111 21.7834 0.00888889 18.1951 0.00888889 14.6068C0.00888889 14.3858 0.096686 14.1738 0.252966 14.0175C0.409247 13.8612 0.621208 13.7734 0.842222 13.7734C1.06324 13.7734 1.2752 13.8612 1.43148 14.0175C1.58776 14.1738 1.67556 14.3858 1.67556 14.6068C1.67556 18.2734 1.62222 21.9401 1.67556 25.6068C1.70222 27.4518 3.08889 28.2551 4.73889 28.2551H25.5106C26.0351 28.268 26.5511 28.1204 26.9895 27.8321C27.4279 27.5438 27.7679 27.1285 27.9639 26.6418C28.1237 26.0668 28.1802 25.4681 28.1306 24.8734V14.6068C28.1306 14.3858 28.2184 14.1738 28.3746 14.0175C28.5309 13.8612 28.7429 13.7734 28.9639 13.7734C29.1849 13.7734 29.3969 13.8612 29.5531 14.0175C29.7094 14.1738 29.7972 14.3858 29.7972 14.6068C29.7972 18.3134 29.9389 22.0484 29.7972 25.7518C29.7829 26.3189 29.6559 26.8775 29.4236 27.3951C29.1914 27.9127 28.8585 28.3789 28.4444 28.7666C28.0303 29.1544 27.5432 29.4559 27.0115 29.6536C26.4798 29.8514 25.9141 29.9414 25.3472 29.9184L4.17556 29.9218Z" fill="#7B7B7B"/>
<path id="Vector_2" d="M14.306 21.3383C14.4433 21.479 14.6295 21.5613 14.826 21.5683C14.8493 21.5683 14.871 21.5767 14.896 21.5783C14.921 21.58 14.941 21.5783 14.9643 21.5683C15.1608 21.5617 15.3471 21.4792 15.4843 21.3383L21.5993 15.2233C21.7511 15.0662 21.8351 14.8557 21.8332 14.6372C21.8313 14.4187 21.7436 14.2097 21.5891 14.0552C21.4346 13.9006 21.2256 13.813 21.0071 13.8111C20.7886 13.8092 20.5781 13.8932 20.421 14.045L15.7293 18.7367V0.833333C15.7293 0.61232 15.6415 0.400358 15.4852 0.244077C15.3289 0.0877971 15.117 0 14.896 0C14.6749 0 14.463 0.0877971 14.3067 0.244077C14.1504 0.400358 14.0626 0.61232 14.0626 0.833333V18.7367L9.36929 14.045C9.21212 13.8932 9.00162 13.8092 8.78312 13.8111C8.56463 13.813 8.35562 13.9006 8.20111 14.0552C8.0466 14.2097 7.95896 14.4187 7.95706 14.6372C7.95516 14.8557 8.03916 15.0662 8.19096 15.2233L14.306 21.3383Z" fill="#7B7B7B"/>
</g>
</svg>
