<svg width="33" height="42" viewBox="0 0 33 42" fill="none" xmlns="http://www.w3.org/2000/svg">
<path d="M30.3141 37.027C31.573 37.4247 32.0339 38.5349 31.8725 39.5049C31.7916 39.991 31.5594 40.388 31.2391 40.628C30.937 40.8542 30.4742 41.0035 29.783 40.853C20.7349 38.7379 11.8403 34.7653 3.50764 30.3063C2.85511 29.9571 2.30995 29.2998 2.02739 28.5274C1.74602 27.7583 1.75576 26.9659 2.07567 26.3314C4.87987 20.7688 7.81524 15.6926 11.493 10.6303C11.9475 10.023 12.4402 9.28588 12.9506 8.5222C13.113 8.27932 13.2771 8.03376 13.4424 7.78885C14.1423 6.75165 14.8843 5.69184 15.6791 4.74615C17.3183 2.79597 18.9463 1.61933 20.6115 1.75466C21.4167 1.83452 22.0318 2.04427 22.4369 2.35881C22.8012 2.64158 23.0722 3.06493 23.1132 3.80428L23.1132 3.80442C23.2047 5.45244 22.3495 7.10626 21.0269 8.81007C20.377 9.64738 19.6501 10.4528 18.9306 11.243C18.8877 11.2902 18.8448 11.3373 18.8019 11.3844C18.1371 12.1141 17.474 12.842 16.9379 13.5326L16.9246 13.5498L16.9121 13.5675C14.4288 17.0746 12.0737 20.991 9.87708 24.6437C9.71887 24.9068 9.56148 25.1686 9.40492 25.4287L8.87549 26.3083L9.75975 26.8358C16.1637 30.6566 22.9813 34.7109 30.3141 37.027ZM30.3141 37.027L30.5935 36.0669L30.3141 37.027Z" stroke="#25A7FF" stroke-width="2"/>
</svg>
