<svg width="120" height="191" viewBox="0 0 120 191" fill="none" xmlns="http://www.w3.org/2000/svg">
<path d="M77.6782 78.1799L78.5788 78.4251L78.8633 77.5271C78.9407 77.2825 79.0213 77.0312 79.1036 76.7742C79.6878 74.9512 80.3632 72.8438 80.6783 70.8483C89.3353 26.782 47.1142 -5.42443 8.20261 12.722C7.21659 13.1119 6.17202 12.5274 5.63007 11.3198C5.37037 10.7412 5.29853 10.1333 5.41828 9.63217C5.5305 9.16245 5.82133 8.72804 6.4296 8.43662L6.43617 8.43348L6.44271 8.43023C27.9959 -2.2989 53.0006 -2.37133 70.6604 16.344C85.9833 32.7208 93.2029 57.5839 84.8007 79.42L84.4341 80.3726L85.3796 80.7427C101.677 87.1214 114.403 98.6375 117.775 114.646C121.973 135.477 113.461 155.964 98.8989 170.255C84.3311 184.552 63.847 192.511 44.3058 188.444L44.2836 188.439L44.2613 188.435C43.7535 188.354 43.495 188.119 43.3542 187.871C43.1964 187.593 43.1343 187.199 43.2198 186.771C43.3938 185.902 44.0498 185.288 44.9798 185.437L45.0112 185.442L45.0429 185.445C60.5545 186.904 77.6634 181.017 90.8167 170.461C103.975 159.901 113.297 144.566 113.007 127.039L113.007 127.037C112.621 106.142 99.1685 93.3331 82.2707 87.0972L81.4912 86.8095L81.0843 87.5361C69.8377 107.617 49.4464 121.304 27.6806 126.466C18.7461 128.55 10.4041 125.636 5.72905 120.055C1.10205 114.533 -0.0837023 106.214 5.62686 97.0668C12.06 86.8724 23.3211 80.3131 36.4112 77.2232C49.4956 74.1347 64.3077 74.5401 77.6782 78.1799ZM44.3595 113.211L44.371 113.205L44.3823 113.199C56.0418 106.73 67.8493 97.8499 74.9889 85.988L75.7143 84.7827L74.3499 84.4662C58.5474 80.7992 40.6605 81.9984 27.5246 87.3992C21.4632 89.667 14.082 93.1375 11.0632 99.927L11.0585 99.938C9.91891 102.586 8.5739 107.183 8.71418 111.357C8.78451 113.449 9.23123 115.533 10.3596 117.209C11.5121 118.922 13.3078 120.107 15.8518 120.485C25.6831 122.059 36.1398 117.486 44.3595 113.211Z" stroke="#25A7FF" stroke-width="2"/>
</svg>
