<svg width="23" height="16" viewBox="0 0 23 16" fill="none" xmlns="http://www.w3.org/2000/svg">
<path id="Vector" d="M9.36836 11.2029L15.0774 7.90288L9.36836 4.60288V11.2029ZM22.0844 2.58988C22.2274 3.10688 22.3264 3.79988 22.3924 4.67988C22.4694 5.55988 22.5024 6.31888 22.5024 6.97888L22.5684 7.90288C22.5684 10.3119 22.3924 12.0829 22.0844 13.2159C21.8094 14.2059 21.1714 14.8439 20.1814 15.1189C19.6644 15.2619 18.7184 15.3609 17.2664 15.4269C15.8364 15.5039 14.5274 15.5369 13.3174 15.5369L11.5684 15.6029C6.95936 15.6029 4.08836 15.4269 2.95536 15.1189C1.96536 14.8439 1.32736 14.2059 1.05236 13.2159C0.909359 12.6989 0.810359 12.0059 0.744359 11.1259C0.667359 10.2459 0.634359 9.48688 0.634359 8.82688L0.568359 7.90288C0.568359 5.49388 0.744359 3.72288 1.05236 2.58988C1.32736 1.59988 1.96536 0.961881 2.95536 0.686881C3.47236 0.543881 4.41836 0.444881 5.87036 0.378881C7.30036 0.301881 8.60936 0.268881 9.81936 0.268881L11.5684 0.202881C16.1774 0.202881 19.0484 0.378881 20.1814 0.686881C21.1714 0.961881 21.8094 1.59988 22.0844 2.58988Z" fill="white"/>
</svg>
