<svg width="388" height="385" viewBox="0 0 388 385" fill="none" xmlns="http://www.w3.org/2000/svg">
<path d="M235.986 202.053L236.404 202.887L237.263 202.501C237.567 202.364 237.88 202.225 238.2 202.082C240.469 201.071 243.066 199.913 245.246 198.508C295.068 168.962 289.766 100.68 238.849 78.8521C237.423 78.143 237.106 76.4199 237.843 74.7689C238.2 73.9688 238.767 73.3176 239.423 72.9633C240.052 72.6243 240.814 72.5249 241.702 72.8946L241.708 72.8974L241.715 72.9001C270.757 84.4857 292.533 108.67 289.685 142.055C287.085 171.086 269.244 199.637 240.772 210.419L239.817 210.781L240.171 211.732C248.099 233.036 247.981 255.386 235.348 272.573C218.777 294.71 191.533 304.199 165.082 302.465C138.625 300.731 113.158 287.779 100.16 265.293L100.148 265.273L100.136 265.254C99.7309 264.622 99.7188 264.076 99.8679 263.635C100.028 263.161 100.411 262.706 100.948 262.39C102.037 261.749 103.384 261.838 104.147 263.028L104.165 263.055L104.184 263.081C116.113 279.254 136.497 290.664 157.986 294.247C179.481 297.831 202.24 293.604 218.832 278.273L218.833 278.271C238.562 259.974 239.336 236.07 230.802 214.44L230.497 213.667L229.684 213.848C200.489 220.339 169.586 212.433 145.757 195.826C135.952 188.941 131.506 178.264 132.879 168.807C134.24 159.425 141.366 151.008 155.242 148.608C170.74 146.005 186.872 151.256 201.196 161.26C215.515 171.261 227.94 185.956 235.986 202.053ZM173.235 199.97L173.247 199.974L173.259 199.979C189.551 205.649 208.264 209.371 225.812 206.042L227.194 205.779L226.521 204.551C216.447 186.167 199.888 169.97 183.39 161.973C175.962 158.073 166.337 154 157.299 156.904L157.288 156.908C153.771 158.085 148.214 160.736 144.347 164.433C142.409 166.285 140.825 168.467 140.2 170.928C139.563 173.431 139.948 176.104 141.739 178.826C148.648 189.593 162.006 195.72 173.235 199.97Z" stroke="#25A7FF" stroke-width="2"/>
<path d="M227.601 61.6364L226.592 61.8277L226.788 62.8386C228.627 72.3278 230.591 82.3784 234.667 91.4241C235.439 93.1366 234.69 94.6961 233.503 95.4472C232.909 95.8234 232.249 95.9646 231.656 95.8454C231.087 95.7307 230.477 95.3549 229.989 94.4916C224.203 83.8942 220.355 71.8454 217.466 59.9354C217.22 58.9241 217.401 57.7542 217.934 56.7564C218.465 55.7617 219.3 55.0216 220.285 54.7573C228.09 52.6611 235.543 51.1107 243.628 50.2912C244.599 50.2067 245.725 50.0478 246.902 49.8818C247.279 49.8288 247.66 49.775 248.043 49.7227C249.651 49.5031 251.328 49.3031 252.943 49.2541C256.252 49.1536 258.93 49.7021 260.329 51.551C260.965 52.4215 261.327 53.2499 261.378 53.9905C261.426 54.6795 261.214 55.3918 260.477 56.1277L260.477 56.1278C258.883 57.7197 256.453 58.3266 253.651 58.5209C252.268 58.6168 250.852 58.6097 249.468 58.597C249.387 58.5962 249.306 58.5954 249.225 58.5947C247.942 58.5825 246.677 58.5705 245.56 58.648L245.538 58.6495L245.516 58.6519C239.997 59.2795 234.191 60.3834 228.765 61.4153C228.375 61.4894 227.987 61.5632 227.601 61.6364Z" stroke="#25A7FF" stroke-width="2"/>
</svg>
