<svg width="20" height="20" viewBox="0 0 20 20" fill="none" xmlns="http://www.w3.org/2000/svg">
<path d="M14.9993 3.33325H4.99925C4.07842 3.33325 3.31092 4.09159 3.53842 4.98325C3.78061 5.92816 4.22676 6.80859 4.84552 7.56268C5.46428 8.31676 6.24065 8.92623 7.12008 9.34825C7.80592 9.67659 8.33258 10.3216 8.33258 11.0816V16.1516C8.33266 16.2936 8.36902 16.4332 8.4382 16.5572C8.50739 16.6812 8.60712 16.7854 8.72791 16.8601C8.84871 16.9347 8.98657 16.9772 9.12842 16.9836C9.27027 16.99 9.4114 16.9601 9.53842 16.8966L11.2051 16.0633C11.3435 15.9941 11.4599 15.8878 11.5413 15.7562C11.6227 15.6246 11.6658 15.473 11.6659 15.3183V11.0816C11.6659 10.3216 12.1926 9.67659 12.8776 9.34825C13.7574 8.92647 14.5341 8.3171 15.1532 7.563C15.7722 6.80889 16.2186 5.92834 16.4609 4.98325C16.6868 4.09159 15.9184 3.33325 14.9993 3.33325Z" stroke="#777777" stroke-width="1.66667"/>
</svg>
