<svg width="136" height="136" viewBox="0 0 136 136" fill="none" xmlns="http://www.w3.org/2000/svg">
<g clip-path="url(#clip0_138_226)">
<path d="M84.6778 64.2408C87.7768 66.1125 90.412 68.6613 92.386 71.6961C94.36 74.7309 95.6216 78.1731 96.0764 81.7648C96.5311 85.3565 96.1672 89.0045 95.0118 92.4355C93.8564 95.8665 91.9396 98.9916 89.4049 101.577L75.6977 88.1401M84.6778 64.2408C86.0513 54.8924 85.1938 45.3516 82.1754 36.3979C79.157 27.4442 74.0634 19.3315 67.3106 12.7225C60.6919 19.4648 55.7618 27.6772 52.9231 36.6887C50.0845 45.7003 49.4176 55.2555 50.9771 64.574M84.6778 64.2408C83.4428 72.7629 80.3811 80.914 75.6977 88.1401M75.6977 88.1401C75.4682 88.4945 75.2351 88.8465 74.9984 89.1962C70.4046 89.7731 65.7596 89.8194 61.1551 89.3342C60.9104 88.9885 60.6666 88.6431 60.4293 88.2923M50.9771 64.574C47.9154 66.5069 45.3309 69.1077 43.4172 72.1814C41.5035 75.2551 40.3103 78.7221 39.927 82.3225C39.5437 85.9229 39.9802 89.5634 41.2039 92.9711C42.4275 96.3789 44.4066 99.4655 46.9927 102L60.4293 88.2923M50.9771 64.574C52.3815 73.0686 55.6041 81.1616 60.4293 88.2923M60.9868 101.376C60.5422 104.624 60.9947 107.932 62.2953 110.941C63.5958 113.95 65.6948 116.546 68.365 118.448C70.9966 116.493 73.0432 113.855 74.2829 110.82C75.5227 107.785 75.9085 104.468 75.3984 101.23M71.8902 46.61C73.0263 47.7236 73.6734 49.2429 73.6893 50.8337C73.7051 52.4244 73.0884 53.9564 71.9748 55.0924C70.8612 56.2285 69.3419 56.8756 67.7511 56.8915C66.1603 56.9073 64.6284 56.2906 63.4924 55.177C62.3563 54.0634 61.7092 52.5441 61.6933 50.9533C61.6774 49.3625 62.2941 47.8306 63.4078 46.6946C64.5214 45.5585 66.0407 44.9114 67.6315 44.8955C69.2222 44.8796 70.7541 45.4964 71.8902 46.61Z" stroke="white" stroke-width="3.5" stroke-linecap="round" stroke-linejoin="round"/>
</g>
<defs>
<clipPath id="clip0_138_226">
<rect width="95.9726" height="95.9726" fill="white" transform="translate(0 68.5352) rotate(-45.5714)"/>
</clipPath>
</defs>
</svg>
