<svg width="32" height="44" viewBox="0 0 32 44" fill="none" xmlns="http://www.w3.org/2000/svg">
<path id="Vector" d="M28.1681 14.5261C29.6613 13.6071 30.8045 12.2479 31.4266 10.6522C32.0487 9.05644 32.1162 7.30998 31.619 5.67429C31.1218 4.03861 30.0866 2.60172 28.6684 1.5788C27.2503 0.555882 25.5255 0.00196693 23.7523 0H8.20535C6.43219 0.00196693 4.70741 0.555882 3.28926 1.5788C1.87112 2.60172 0.835924 4.03861 0.338693 5.67429C-0.158538 7.30998 -0.0910507 9.05644 0.53105 10.6522C1.15315 12.2479 2.29639 13.6071 3.78958 14.5261C2.60407 15.2555 1.63375 16.2657 0.971907 17.4596C0.31006 18.6535 -0.0210577 19.991 0.0103888 21.3434C0.0418352 22.6959 0.434788 24.0178 1.15147 25.1821C1.86815 26.3464 2.88445 27.314 4.10267 27.9917C2.78837 28.8184 1.72002 29.9589 1.00225 31.3017C0.284473 32.6444 -0.0581103 34.1432 0.00804942 35.6515C0.0742092 37.1597 0.546843 38.6255 1.37966 39.9054C2.21248 41.1853 3.37693 42.2354 4.75896 42.9528C6.141 43.6702 7.69322 44.0304 9.26362 43.998C10.834 43.9656 12.3687 43.5418 13.7175 42.7681C15.0662 41.9943 16.1827 40.8972 16.9577 39.5842C17.7326 38.2711 18.1394 36.7871 18.1381 35.2776V26.9106C18.9684 27.6699 19.9549 28.2536 21.0342 28.6241C22.1135 28.9947 23.2616 29.1438 24.4046 29.0619C25.5475 28.9801 26.6599 28.669 27.6701 28.1488C28.6803 27.6286 29.5659 26.9107 30.2699 26.0416C30.9738 25.1724 31.4805 24.1711 31.7572 23.1022C32.0339 22.0334 32.0746 20.9207 31.8766 19.8358C31.6786 18.7509 31.2463 17.718 30.6076 16.8034C29.9688 15.8889 29.1378 15.1131 28.1681 14.5261ZM29.3665 7.88558C29.3665 9.31653 28.775 10.6889 27.7222 11.7007C26.6693 12.7125 25.2413 13.281 23.7523 13.281H18.1381V2.49018H23.7523C25.2413 2.49018 26.6693 3.05863 27.7222 4.07046C28.775 5.08229 29.3665 6.45463 29.3665 7.88558ZM2.59116 7.88558C2.59116 6.45463 3.18266 5.08229 4.23552 4.07046C5.28838 3.05863 6.71637 2.49018 8.20535 2.49018H15.547V13.281H8.20535C6.71637 13.281 5.28838 12.7125 4.23552 11.7007C3.18266 10.6889 2.59116 9.31653 2.59116 7.88558ZM8.20535 26.562C6.71637 26.562 5.28838 25.9935 4.23552 24.9817C3.18266 23.9699 2.59116 22.5975 2.59116 21.1666C2.59116 19.7356 3.18266 18.3633 4.23552 17.3514C5.28838 16.3396 6.71637 15.7712 8.20535 15.7712H15.547V26.562H8.20535ZM15.547 35.2776C15.547 36.5089 15.1671 37.7125 14.4553 38.7363C13.7435 39.7601 12.7317 40.558 11.5481 41.0292C10.3644 41.5004 9.06189 41.6236 7.80529 41.3834C6.5487 41.1432 5.39445 40.5503 4.4885 39.6797C3.58255 38.809 2.96559 37.6997 2.71563 36.4921C2.46568 35.2845 2.59397 34.0328 3.08426 32.8952C3.57456 31.7577 4.40485 30.7854 5.47014 30.1013C6.53542 29.4173 7.78786 29.0521 9.06907 29.0521H15.547V35.2776ZM23.7523 26.562C22.6419 26.562 21.5565 26.2455 20.6333 25.6527C19.71 25.0598 18.9904 24.2172 18.5655 23.2313C18.1406 22.2454 18.0294 21.1606 18.246 20.114C18.4626 19.0674 18.9973 18.106 19.7825 17.3514C20.5677 16.5969 21.568 16.083 22.6571 15.8748C23.7461 15.6667 24.8749 15.7735 25.9008 16.1819C26.9266 16.5902 27.8035 17.2818 28.4204 18.169C29.0373 19.0563 29.3665 20.0995 29.3665 21.1666C29.3665 22.5975 28.775 23.9699 27.7222 24.9817C26.6693 25.9935 25.2413 26.562 23.7523 26.562Z" fill="#7B7B7B"/>
</svg>
