<svg width="26" height="30" viewBox="0 0 26 30" fill="none" xmlns="http://www.w3.org/2000/svg">
<path id="Vector" d="M25.1613 6.42858C25.1613 9.18572 22.9667 11.4286 20.2688 11.4286C17.571 11.4286 15.3763 9.18572 15.3763 6.42858C15.3763 3.67144 17.571 1.42858 20.2688 1.42858C22.9667 1.42858 25.1613 3.67144 25.1613 6.42858ZM22.3656 13.9857C21.6667 14.1714 20.9677 14.2857 20.2688 14.2857C18.2309 14.2819 16.2776 13.4529 14.8365 11.9802C13.3955 10.5076 12.5843 8.51126 12.5806 6.42858C12.5806 4.32858 13.3914 2.42858 14.6774 1.01429C14.4237 0.696494 14.1039 0.440536 13.7412 0.26507C13.3784 0.0896045 12.982 -0.000949292 12.5806 7.50383e-06C11.043 7.50383e-06 9.78495 1.28572 9.78495 2.85715V3.27144C5.63333 4.52858 2.7957 8.42858 2.7957 12.8571V21.4286L0 24.2857V25.7143H25.1613V24.2857L22.3656 21.4286V13.9857ZM12.5806 30C14.1323 30 15.3763 28.7286 15.3763 27.1429H9.78495C9.78495 27.9006 10.0795 28.6273 10.6038 29.1632C11.1281 29.699 11.8392 30 12.5806 30Z" fill="white"/>
</svg>
