<svg width="27" height="15" viewBox="0 0 27 15" fill="none" xmlns="http://www.w3.org/2000/svg">
<path id="Vector" d="M27 7.5C26.9997 9.48827 26.1923 11.3951 24.7551 12.8014C23.318 14.2078 21.3687 14.9985 19.3357 15H7.66881C5.63491 15 3.68432 14.2098 2.24614 12.8033C0.807961 11.3968 0 9.48912 0 7.5C0 5.51088 0.807961 3.60322 2.24614 2.1967C3.68432 0.790176 5.63491 0 7.66881 0H19.3301C21.3631 0.000291086 23.3128 0.789957 24.7508 2.19546C26.1888 3.60097 26.9974 5.50733 26.9989 7.4956L27 7.5ZM19.3312 2.49963C18.6602 2.49963 17.9958 2.62889 17.3759 2.88001C16.7559 3.13114 16.1927 3.49922 15.7182 3.96324C15.2437 4.42726 14.8674 4.97813 14.6106 5.5844C14.3538 6.19068 14.2217 6.84048 14.2217 7.4967C14.2217 8.15292 14.3538 8.80272 14.6106 9.40899C14.8674 10.0153 15.2437 10.5661 15.7182 11.0302C16.1927 11.4942 16.7559 11.8623 17.3759 12.1134C17.9958 12.3645 18.6602 12.4938 19.3312 12.4938C20.0022 12.4939 20.6666 12.3648 21.2866 12.1138C21.9066 11.8628 22.4699 11.4949 22.9445 11.0309C23.4191 10.567 23.7956 10.0162 24.0525 9.41001C24.3094 8.80379 24.4417 8.15402 24.4419 7.4978C24.442 6.84158 24.31 6.19175 24.0533 5.58542C23.7967 4.97909 23.4205 4.42814 22.9461 3.96402C22.4717 3.4999 21.9086 3.13169 21.2887 2.88043C20.6688 2.62917 20.0044 2.49978 19.3334 2.49963H19.3312Z" fill="#25A7FF"/>
</svg>
