<svg width="54" height="54" viewBox="0 0 54 54" fill="none" xmlns="http://www.w3.org/2000/svg">
<g id="ion:person-outline">
<path id="Vector" d="M51.7491 9.125H12.12L11.3391 4.87358C11.1395 3.78725 10.2104 3 9.12767 3H1.125C0.503718 3 0 3.51421 0 4.14844V4.91406C0 5.54829 0.503718 6.0625 1.125 6.0625H8.50499L15.0606 41.7546C14.0911 42.8426 13.5 44.2882 13.5 45.875C13.5 49.2577 16.1863 52 19.5 52C22.8137 52 25.5 49.2577 25.5 45.875C25.5011 44.7996 25.2235 43.743 24.6953 42.8125H38.3047C37.7765 43.743 37.4989 44.7996 37.5 45.875C37.5 49.2577 40.1863 52 43.5 52C46.8137 52 49.5 49.2577 49.5 45.875C49.5 44.153 48.803 42.5981 47.6824 41.4853C47.4395 40.5052 46.5712 39.75 45.4994 39.75H17.745L16.62 33.625H47.6869C48.7526 33.625 49.6722 32.8617 49.8896 31.7966L53.9519 11.8903C54.2429 10.464 53.1763 9.125 51.7491 9.125ZM22.5 45.875C22.5 47.5637 21.1542 48.9375 19.5 48.9375C17.8458 48.9375 16.5 47.5637 16.5 45.875C16.5 44.1863 17.8458 42.8125 19.5 42.8125C21.1542 42.8125 22.5 44.1863 22.5 45.875ZM43.4999 48.9375C41.8457 48.9375 40.4999 47.5637 40.4999 45.875C40.4999 44.1863 41.8457 42.8125 43.4999 42.8125C45.1541 42.8125 46.4999 44.1863 46.4999 45.875C46.4999 47.5637 45.1541 48.9375 43.4999 48.9375ZM47.077 30.5625H16.0575L12.6825 12.1875H50.827L47.077 30.5625Z" fill="#00F8F7"/>
</g>
</svg>
