<svg width="54" height="54" viewBox="0 0 54 54" fill="none" xmlns="http://www.w3.org/2000/svg">
<g id="svgexport-5">
<path id="Vector" d="M35.1002 20.7812C35.1002 12.618 27.245 6 17.5504 6C7.8558 6 0.000570801 12.618 0.000570801 20.7812C0.000570801 24.2649 1.44084 27.4614 3.83453 29.9859C2.55457 32.702 0.573471 34.8629 0.548159 34.8889C-0.00145421 35.4631 -0.152906 36.3091 0.162738 37.0448C0.486059 37.7797 1.20375 38.25 1.99686 38.25C6.5691 38.25 10.2453 36.509 12.6196 34.9603C14.1839 35.3441 15.8376 35.5625 17.5504 35.5625C27.245 35.5625 35.1002 28.9445 35.1002 20.7812ZM17.5504 32.875C16.1194 32.875 14.6783 32.6988 13.2684 32.3516L12.1251 32.0688L11.138 32.7154C9.41419 33.8391 6.78594 35.1501 3.55694 35.4844C4.34812 34.4673 5.43848 32.912 6.27716 31.1323L7.05695 29.477L5.79876 28.1467C3.77209 26.0051 2.70054 23.4604 2.70054 20.7812C2.70054 14.1129 9.29016 8.6875 17.5504 8.6875C25.8106 8.6875 32.4002 14.1129 32.4002 20.7812C32.4002 27.4496 25.7347 32.875 17.5504 32.875ZM51.165 42.5668C52.9538 40.19 54 37.3178 54 34.2188C54 26.0555 46.7438 19.4375 37.8002 19.4375C37.7736 19.4375 37.7479 19.4409 37.7214 19.4411C37.758 19.8826 37.8002 20.3277 37.8002 20.7812C37.8002 21.2373 37.7608 21.6849 37.7207 22.1326C37.7495 22.1334 37.7749 22.125 37.8002 22.125C45.2437 22.125 51.3 27.5504 51.3 34.2188C51.3 36.6283 50.5049 38.9597 49.0008 40.9593L47.8972 42.4265L48.8667 43.9845C49.4208 44.8755 49.9787 45.6423 50.4369 46.2302C48.8962 46.0698 47.3614 45.6738 45.8554 45.0469L44.7847 44.6013L43.7232 45.068C41.8417 45.8926 39.8505 46.3125 37.8002 46.3125C31.4679 46.3125 26.1819 42.3728 24.7306 37.0994C23.8784 37.3796 23.001 37.6144 22.0982 37.7941C23.8531 44.2213 30.1306 49 37.8002 49C40.3162 49 42.6888 48.4613 44.8133 47.5269C46.8282 48.3701 49.2497 49 52.0003 49C52.7933 49 53.5115 48.5322 53.8338 47.7973C54.1493 47.0618 53.9979 46.2151 53.4484 45.6415C53.4347 45.6238 52.2788 44.3641 51.165 42.5668Z" fill="#00F8F7"/>
</g>
</svg>
