<svg width="54" height="54" viewBox="0 0 54 54" fill="none" xmlns="http://www.w3.org/2000/svg">
<g id="svgexport-5">
<path id="Vector" d="M45.4394 22.496L45.2285 22.1686C44.8826 22.1937 44.5452 22.1937 44.1993 22.1686L43.9884 22.5043C43.4991 23.2767 42.5458 23.6293 41.6684 23.3522C40.5042 22.9913 39.7281 22.6135 38.7748 21.8328C38.0156 21.2115 37.83 20.1286 38.3193 19.2807L38.5302 18.9197C38.3361 18.6343 38.1674 18.3405 38.0156 18.0299H37.2479C36.2693 18.0299 35.4425 17.3415 35.2569 16.3845C35.0376 15.2344 35.0292 14.3529 35.2654 13.1525C35.4425 12.2038 36.2862 11.5155 37.2563 11.5155H38.0156C38.1674 11.2049 38.3361 10.911 38.5302 10.6256L38.3108 10.2478C37.8215 9.40835 38.0071 8.3422 38.7495 7.70419C39.6437 6.94026 40.4114 6.50373 41.5756 6.10917C42.4867 5.79856 43.4906 6.16793 43.9799 6.99902L44.1993 7.3684C44.5452 7.34321 44.8826 7.34321 45.2285 7.3684L45.4478 6.99902C45.9371 6.16793 46.941 5.79856 47.8606 6.11756C48.9826 6.49533 49.7418 6.92347 50.6867 7.72098C51.4291 8.3506 51.6062 9.41675 51.1169 10.2562L50.8976 10.6256C51.0916 10.911 51.2604 11.2049 51.4122 11.5155H51.8425C52.821 11.5155 53.6478 12.2038 53.8334 13.1609C54.0527 14.311 54.0612 15.1924 53.825 16.3929C53.6478 17.3415 52.8042 18.0299 51.834 18.0299H51.4122C51.2604 18.3405 51.0916 18.6343 50.8976 18.9197L51.1085 19.2807C51.6062 20.137 51.4038 21.2199 50.6445 21.8412C49.7418 22.5799 48.9657 22.9661 47.7762 23.3438C46.8904 23.6209 45.9287 23.2767 45.4394 22.496ZM46.4686 19.5997L47.3629 21.136C47.9281 20.9009 48.4511 20.5987 48.9404 20.2293L48.0462 18.6931L48.5861 18.0635C48.991 17.585 49.3116 17.0477 49.5141 16.46L49.7925 15.6793H51.5725C51.6484 15.0833 51.6484 14.4705 51.5725 13.8744H49.7925L49.5141 13.0937C49.3032 12.5061 48.991 11.9688 48.5861 11.4903L48.0462 10.8607L48.932 9.31601C48.4511 8.94663 47.9196 8.64442 47.3544 8.40936L46.4602 9.94562L45.6419 9.79452C45.026 9.67699 44.3933 9.67699 43.7775 9.79452L42.9592 9.94562L42.0649 8.40936C41.5081 8.63602 40.9767 8.94663 40.4958 9.31601L41.39 10.8523L40.8501 11.4819C40.4452 11.9604 40.1246 12.4977 39.9221 13.0853L39.6437 13.866H37.8637C37.7878 14.4621 37.7878 15.0749 37.8637 15.6709H39.6437L39.9221 16.4516C40.133 17.0393 40.4452 17.5766 40.8501 18.0551L41.39 18.6847L40.4958 20.2293C40.9767 20.5987 41.5081 20.9009 42.0734 21.136L42.9676 19.5997L43.7859 19.7508C44.4018 19.8684 45.0345 19.8684 45.6503 19.7508L46.4686 19.5997ZM12.2599 44.1547V41.5019C11.1717 41.0402 10.1425 40.4442 9.18918 39.7306L6.86923 41.0654C6.04249 41.5355 5.00484 41.376 4.36369 40.6792C2.32214 38.4714 1.11577 36.5238 0.0949893 33.2834C-0.19184 32.3851 0.187787 31.4113 1.0061 30.9328L3.30917 29.598C3.16576 28.4227 3.16576 27.2391 3.30917 26.0638L1.0061 24.7374C0.187787 24.2673 -0.19184 23.2851 0.0949893 22.3868C1.11577 19.1632 2.30527 17.2156 4.36369 14.9909C5.00484 14.2942 6.05093 14.1347 6.86923 14.6048L9.18074 15.9396C10.134 15.226 11.1632 14.6384 12.2515 14.1682V11.5155C12.2515 10.5668 12.9095 9.75254 13.8375 9.55106C16.7649 8.89626 19.0679 8.82071 22.4171 9.55106C23.3451 9.75254 24.0115 10.5752 24.0115 11.5155V14.1682C25.0998 14.63 26.129 15.226 27.0823 15.9312L29.3938 14.6048C30.2205 14.1347 31.2666 14.2942 31.9078 14.9909C34.1771 17.4758 35.4088 19.6837 36.303 22.4204C36.5899 23.3019 36.2355 24.2589 35.4425 24.7458L33.3335 26.0722C33.4769 27.2474 33.4769 28.4311 33.3335 29.6064L35.7041 31.0755C36.4296 31.5288 36.8008 32.3851 36.6152 33.2162C36.0331 35.8438 33.8312 38.6393 31.8993 40.7044C31.2582 41.3928 30.2206 41.5439 29.4022 41.0738L27.0823 39.739C26.129 40.4526 25.0998 41.0402 24.0115 41.5103V44.1631C24.0115 45.1033 23.3535 45.926 22.4255 46.1275C19.262 46.8243 16.9505 46.8159 13.8291 46.1275C12.918 45.9176 12.2599 45.0949 12.2599 44.1547ZM14.9595 43.6342C17.0517 44.054 19.2198 44.054 21.312 43.6342V39.6299L22.2146 39.3109C23.6319 38.8156 24.9395 38.06 26.0868 37.0862L26.8123 36.465L30.3049 38.4714C31.7222 36.868 33.1732 35.0043 33.8565 32.9979L30.364 30.9916L30.5411 30.0597C30.8111 28.5822 30.8111 27.0796 30.5411 25.6021L30.364 24.6702L33.8565 22.6639C33.1732 20.6575 31.7222 18.7854 30.3049 17.1904L26.8123 19.1968L26.0868 18.5755C24.9395 17.5933 23.6403 16.8462 22.2146 16.3509L21.312 16.0319V12.0359C19.2198 11.6162 17.0517 11.6162 14.9595 12.0359V16.0403L14.0568 16.3593C12.6396 16.8546 11.332 17.6101 10.1846 18.5839L9.45914 19.2052L5.96656 17.1988C4.55403 18.7967 3.47314 20.6569 2.78613 22.6722L6.2787 24.6786L6.10154 25.6105C5.83158 27.0879 5.83158 28.5906 6.10154 30.0681L6.2787 31L2.78613 33.0063C3.46946 35.0127 4.54929 36.8848 5.96656 38.4798L9.45914 36.4734L10.1846 37.0946C11.332 38.0768 12.6311 38.824 14.0568 39.3193L14.9595 39.6383V43.6342ZM18.199 34.7944C14.3437 34.7944 11.2054 31.6715 11.2054 27.8351C11.2054 23.9986 14.3437 20.8757 18.199 20.8757C22.0543 20.8757 25.1926 23.9986 25.1926 27.8351C25.1926 31.6715 22.0543 34.7944 18.199 34.7944ZM18.199 23.5621C15.8369 23.5621 13.905 25.4761 13.905 27.8351C13.905 30.194 15.8284 32.1081 18.199 32.1081C20.5611 32.1081 22.493 30.194 22.493 27.8351C22.493 25.4761 20.5696 23.5621 18.199 23.5621ZM45.4394 48.0499L45.2285 47.7225C44.8826 47.7477 44.5452 47.7477 44.1993 47.7225L43.9884 48.0583C43.4991 48.8307 42.5458 49.1832 41.6684 48.9062C40.5042 48.5452 39.7281 48.1675 38.7748 47.3867C38.0156 46.7655 37.83 45.6826 38.3193 44.8347L38.5302 44.4737C38.3361 44.1883 38.1674 43.8945 38.0156 43.5839H37.2479C36.2693 43.5839 35.4425 42.8955 35.2569 41.9385C35.0376 40.7884 35.0292 39.9069 35.2654 38.7064C35.4425 37.7578 36.2862 37.0694 37.2563 37.0694H38.0156C38.1674 36.7588 38.3361 36.465 38.5302 36.1796L38.3108 35.8018C37.8215 34.9623 38.0071 33.8962 38.7495 33.2582C39.6437 32.4942 40.4114 32.0577 41.5756 31.6632C42.4867 31.3525 43.4906 31.7219 43.9799 32.553L44.1993 32.9224C44.5452 32.8972 44.8826 32.8972 45.2285 32.9224L45.4478 32.553C45.9371 31.7219 46.941 31.3525 47.8606 31.6715C48.9826 32.0493 49.7418 32.4775 50.6867 33.275C51.4291 33.9046 51.6062 34.9707 51.1169 35.8102L50.8976 36.1796C51.0916 36.465 51.2604 36.7588 51.4122 37.0694H51.8425C52.821 37.0694 53.6478 37.7578 53.8334 38.7148C54.0527 39.8649 54.0612 40.7464 53.825 41.9469C53.6478 42.8955 52.8042 43.5839 51.834 43.5839H51.4122C51.2604 43.8945 51.0916 44.1883 50.8976 44.4737L51.1085 44.8347C51.6062 45.691 51.4038 46.7739 50.6445 47.3951C49.7418 48.1339 48.9657 48.5201 47.7762 48.8978C46.8904 49.1665 45.9287 48.8223 45.4394 48.0499ZM46.4686 45.1453L47.3629 46.6816C47.9281 46.4465 48.4511 46.1443 48.9404 45.7749L48.0462 44.2387L48.5861 43.6091C48.991 43.1305 49.3116 42.5933 49.5141 42.0056L49.7925 41.2249H51.5725C51.6484 40.6289 51.6484 40.016 51.5725 39.42H49.7925L49.5141 38.6393C49.3032 38.0517 48.991 37.5144 48.5861 37.0359L48.0462 36.4063L48.9404 34.87C48.4595 34.5006 47.9281 34.1984 47.3629 33.9633L46.4686 35.4996L45.6503 35.3485C45.0345 35.231 44.4018 35.231 43.7859 35.3485L42.9676 35.4996L42.0734 33.9633C41.5081 34.1984 40.9851 34.5006 40.4958 34.87L41.39 36.4063L40.8501 37.0359C40.4452 37.5144 40.1246 38.0517 39.9221 38.6393L39.6437 39.42H37.8637C37.7878 40.016 37.7878 40.6289 37.8637 41.2249H39.6437L39.9221 42.0056C40.133 42.5933 40.4452 43.1305 40.8501 43.6091L41.39 44.2387L40.4958 45.7749C40.9767 46.1443 41.5081 46.4465 42.0734 46.6816L42.9676 45.1453L43.7859 45.2964C44.4018 45.4139 45.0345 45.4139 45.6503 45.2964L46.4686 45.1453ZM47.2447 40.2595C47.2447 38.7736 46.0384 37.5731 44.5452 37.5731C43.052 37.5731 41.8456 38.7736 41.8456 40.2595C41.8456 41.7454 43.052 42.9459 44.5452 42.9459C46.0384 42.9459 47.2447 41.7454 47.2447 40.2595ZM47.2447 14.7139C47.2447 13.228 46.0384 12.0276 44.5452 12.0276C43.052 12.0276 41.8456 13.228 41.8456 14.7139C41.8456 16.1998 43.052 17.4003 44.5452 17.4003C46.0384 17.4003 47.2447 16.1914 47.2447 14.7139Z" fill="#00F8F7"/>
</g>
</svg>
