<svg width="54" height="54" viewBox="0 0 54 54" fill="none" xmlns="http://www.w3.org/2000/svg">
<g id="ion:calendar-clear-outline" clip-path="url(#clip0_565_536)">
<path id="Vector" d="M44.7209 15.0928C44.7209 18.4468 42.0735 20.9992 38.8143 20.9992C35.5552 20.9992 32.9078 18.4468 32.9078 15.0928C32.9078 11.9287 35.5552 9.1865 38.8143 9.1865C42.0735 9.1865 44.7209 11.9287 44.7209 15.0928ZM38.8143 17.6241C40.2171 17.6241 41.3457 16.5905 41.3457 15.0928C41.3457 13.785 40.2171 12.5616 38.8143 12.5616C37.4115 12.5616 36.283 13.785 36.283 15.0928C36.283 16.5905 37.4115 17.6241 38.8143 17.6241ZM12.4986 30.2806H1.68757C1.10219 30.2806 0.559526 30.0696 0.25207 29.5739C-0.0554287 29.0782 -0.0834109 28.4559 0.178133 27.9286L5.52892 17.2339C6.67226 14.9452 9.00956 13.4053 11.5705 13.4053H21.0842C21.3479 13.0784 21.601 12.6881 21.8542 12.3084C30.4925 -0.429218 43.3603 -0.858693 51.0388 0.556401C52.2728 0.782002 53.2221 1.73292 53.4436 2.95954C54.8569 10.642 54.435 23.5094 41.6938 32.1474C41.3141 32.4005 40.8289 32.6536 40.5019 32.9173V42.4307C40.5019 44.9936 39.0569 47.3245 36.7682 48.4742L26.0731 53.8215C25.5457 54.0852 24.9234 54.0535 24.4277 53.7477C23.932 53.4418 23.6261 52.8934 23.6261 52.3133V41.3233C22.6979 41.7241 21.8753 42.0721 21.1053 42.3674C19.9451 42.8842 18.5106 42.5995 17.5614 41.6397L12.2139 36.2924C11.2435 35.322 10.9587 33.8665 11.5072 32.6114C11.7814 31.9786 12.1189 31.2192 12.4986 30.3755V30.2806ZM19.924 39.1401C24.4488 37.326 34.5848 32.8857 39.7952 29.3524C50.8278 21.8746 51.4079 10.8635 50.1739 3.82862C43.0438 2.59461 32.1273 3.17259 24.6492 14.2069C21.1264 19.3116 16.5805 29.3313 14.6187 33.9193L19.924 39.1401ZM35.2599 45.3628C36.4095 44.8776 37.1268 43.7175 37.1268 42.4307V34.8685C33.8993 36.6299 30.1971 38.2963 27.0013 39.8362V49.5816L35.2599 45.3628ZM8.54758 18.7421L4.41828 26.9055H14.0386C15.5152 23.8152 17.3188 20.1132 19.1013 16.7804H11.5705C10.2879 16.7804 9.11925 17.5925 8.54758 18.7421Z" fill="#00F8F7"/>
</g>
<defs>
<clipPath id="clip0_565_536">
<rect width="54" height="54" fill="white"/>
</clipPath>
</defs>
</svg>
